0
SECTION
2
HEADER
9
$INSUNITS
70
4
9
$ACADVER
1
AC1014
9
$HANDSEED
5
FFFF
0
ENDSEC
0
SECTION
2
TABLES
0
TABLE
2
VPORT
5
8
100
AcDbSymbolTable
0
ENDTAB
0
TABLE
2
LTYPE
5
5
100
AcDbSymbolTable
0
LTYPE
5
14
100
AcDbSymbolTableRecord
100
AcDbLinetypeTableRecord
2
BYBLOCK
70
0
0
LTYPE
5
15
100
AcDbSymbolTableRecord
100
AcDbLinetypeTableRecord
2
BYLAYER
70
0
0
ENDTAB
0
TABLE
2
LAYER
5
2
100
AcDbSymbolTable
70
2
0
LAYER
5
50
100
AcDbSymbolTableRecord
100
AcDbLayerTableRecord
2
0
70
0
6
CONTINUOUS
0
ENDTAB
0
TABLE
2
STYLE
5
3
100
AcDbSymbolTable
70
1
0
STYLE
5
11
100
AcDbSymbolTableRecord
100
AcDbTextStyleTableRecord
2
STANDARD
70
0
0
ENDTAB
0
TABLE
2
VIEW
5
6
100
AcDbSymbolTable
70
0
0
ENDTAB
0
TABLE
2
UCS
5
7
100
AcDbSymbolTable
70
0
0
ENDTAB
0
TABLE
2
APPID
5
9
100
AcDbSymbolTable
70
2
0
APPID
5
12
100
AcDbSymbolTableRecord
100
AcDbRegAppTableRecord
2
ACAD
70
0
0
ENDTAB
0
TABLE
2
DIMSTYLE
5
A
100
AcDbSymbolTable
70
1
0
ENDTAB
0
TABLE
2
BLOCK_RECORD
5
1
100
AcDbSymbolTable
70
1
0
BLOCK_RECORD
5
1F
100
AcDbSymbolTableRecord
100
AcDbBlockTableRecord
2
*MODEL_SPACE
0
BLOCK_RECORD
5
1B
100
AcDbSymbolTableRecord
100
AcDbBlockTableRecord
2
*PAPER_SPACE
0
ENDTAB
0
ENDSEC
0
SECTION
2
BLOCKS
0
BLOCK
5
20
100
AcDbEntity
100
AcDbBlockBegin
2
*MODEL_SPACE
0
ENDBLK
5
21
100
AcDbEntity
100
AcDbBlockEnd
0
BLOCK
5
1C
100
AcDbEntity
100
AcDbBlockBegin
2
*PAPER_SPACE
0
ENDBLK
5
1D
100
AcDbEntity
100
AcDbBlockEnd
0
ENDSEC
0
SECTION
2
ENTITIES
0
LINE
5
100
100
AcDbEntity
8
0
100
AcDbLine
10
-95.650000000000006
20
44.5
30
0
11
-77.122483786040817
21
106.83947383356511
31
0
0
LINE
5
101
100
AcDbEntity
8
0
100
AcDbLine
10
-193.65000000000003
20
165.90000000000001
30
0
11
-204.15966711864144
21
161.98041103362146
31
0
0
LINE
5
102
100
AcDbEntity
8
0
100
AcDbLine
10
-207.65406300364205
20
161.35000000000079
30
0
11
-217.62500000000003
21
161.35000000000002
31
0
0
LINE
5
103
100
AcDbEntity
8
0
100
AcDbLine
10
-212.20274118456291
20
65.414092238191856
30
0
11
-212.20447371531836
21
85.400470177197604
31
0
0
ARC
5
104
100
AcDbEntity
8
0
100
AcDbCircle
10
-207.65406300364276
20
171.34999999999741
30
0
40
9.9999999999966249
210
0
220
0
230
1
100
AcDbArc
50
270.00000000000409
51
290.45304168198925
0
ARC
5
105
100
AcDbEntity
8
0
100
AcDbCircle
10
-212.60447371381542
20
85.400435502965877
30
0
40
0.39999999999992936
210
0
220
-0
230
1
100
AcDbArc
50
0.0049667178058752457
51
90.004970109402095
0
LINE
5
106
100
AcDbEntity
8
0
100
AcDbLine
10
-217.62500000000003
20
85.799999999999997
30
0
11
-217.62500000000003
21
161.35000000000002
31
0
0
LINE
5
107
100
AcDbEntity
8
0
100
AcDbLine
10
-212.60450841172468
20
85.800435501460939
30
0
11
-217.62500000000003
21
85.799999999999997
31
0
0
LWPOLYLINE
5
108
100
AcDbEntity
8
0
100
AcDbPolyline
90
5
43
0.0
10
-77.1224837860408
20
106.83947383356511
10
-76.86303706445872
20
108.1859676620784
10
-77.29122919329252
20
109.61389864250006
10
-78.43012969808845
20
111.12599890162971
10
-80.16116715304805
20
112.70822601120241
0
ARC
5
109
100
AcDbEntity
8
0
100
AcDbCircle
10
-192.7136892464581
20
163.38945248500841
30
0
40
2.679463874029361
210
0
220
-0
230
1
100
AcDbArc
50
53.736055271234761
51
110.45304168198639
0
LWPOLYLINE
5
110
100
AcDbEntity
8
0
100
AcDbPolyline
90
5
43
0.0
10
-358.1275162139592
20
106.83947383356511
10
-358.38696293554125
20
108.1859676620784
10
-357.9587708067075
20
109.61389864250006
10
-356.81987030191164
20
111.12599890162971
10
-355.088832846952
20
112.70822601120241
0
ARC
5
111
100
AcDbEntity
8
0
100
AcDbCircle
10
-204.70308648931888
20
55.151938934687763
30
0
40
9.0000000000005986
210
0
220
-0
230
1
100
AcDbArc
50
64.448070422568279
51
91.128304233676801
0
LINE
5
112
100
AcDbEntity
8
0
100
AcDbLine
10
-204.88030864893506
20
64.150193893628796
30
0
11
-206.69822640411974
21
64.114389694625416
31
0
0
LINE
5
113
100
AcDbEntity
8
0
100
AcDbLine
10
-212.20274118456291
20
65.414092238191856
30
0
11
-212.2026458547077
21
64.314372357508972
31
0
0
LINE
5
114
100
AcDbEntity
8
0
100
AcDbLine
10
-212.00264585545912
20
64.114389694624833
30
0
11
-206.69822640411974
21
64.114389694625416
31
0
0
ARC
5
115
100
AcDbEntity
8
0
100
AcDbCircle
10
-212.00264585545912
20
64.314389694624822
30
0
40
0.20000000000000023
210
0
220
0
230
1
100
AcDbArc
50
180.00496671780584
51
270
0
LINE
5
116
100
AcDbEntity
8
0
100
AcDbLine
10
-95.650000000000006
20
44.5
30
0
11
-95.937533939260959
21
43.532535485284697
31
0
0
LWPOLYLINE
5
117
100
AcDbEntity
8
0
100
AcDbPolyline
90
24
43
0.0
10
-80.16116715304805
20
112.70822601120241
10
-83.74909494487997
20
114.85559715297379
10
-87.53596099528872
20
116.93540844305258
10
-91.51792582999462
20
118.94681687561527
10
-95.69114997471809
20
120.88897944483836
10
-104.59034763094434
20
124.56083302595576
10
-114.06779166756469
20
127.92396998712343
10
-123.82036694968487
20
130.93326742979875
10
-133.37777075641293
20
133.54333605372318
10
-137.92041569951402
20
134.6939214566773
10
-142.2195340108504
20
135.74134499576925
10
-146.2350959570387
20
136.70361324666672
10
-149.9484232673118
20
137.6083923986993
10
-153.34282816331557
20
138.48492536979575
10
-156.43926857144828
20
139.37911654990864
10
-159.29639587033287
20
140.34118255635696
10
-161.97446790184196
20
141.42032708629827
10
-164.53774968238477
20
142.6665104790422
10
-167.04959649290763
20
144.1114093236327
10
-172.03716822851882
20
147.60168869492924
10
-177.03096655744108
20
151.75759844660004
10
-181.9340069637018
20
156.28453841936044
10
-186.64772623448414
20
160.91743737842486
10
-191.1287705441024
20
165.54990599275897
0
ARC
5
118
100
AcDbEntity
8
0
100
AcDbCircle
10
-98.813216595039037
20
44.387198730813118
30
0
40
3.0000000000000031
210
0
220
0
230
1
100
AcDbArc
50
270.2893653003859
51
343.44786110580742
0
LWPOLYLINE
5
119
100
AcDbEntity
8
0
100
AcDbPolyline
90
17
43
0.0
10
-98.79806552790242
20
41.38723699019631
10
-107.99164883211546
20
41.45916548230441
10
-116.423639819822
20
41.73546517489939
10
-124.09953105673155
20
42.16181573511932
10
-131.02673670730533
20
42.67963058619939
10
-137.2696874217919
20
43.23840688803977
10
-142.95059982474817
20
43.829261023209945
10
-148.22383751554776
20
44.46589335886852
10
-153.27586584357454
20
45.223007453338234
10
-158.27449278835604
20
46.1851483507001
10
-163.37339128491445
20
47.443006495203534
10
-168.66358959979914
20
49.071785146944194
10
-174.22561910985556
20
51.1140741090495
10
-180.14373917755836
20
53.59517860785024
10
-186.50094079323455
20
56.47741643379282
10
-193.36988618214184
20
59.717050825476235
10
-200.82112575103656
20
63.27169144485984
0
LINE
5
120
100
AcDbEntity
8
0
100
AcDbLine
10
-223.24735414454094
20
64.114389694624833
30
0
11
-228.55177359588032
21
64.114389694625416
31
0
0
LINE
5
121
100
AcDbEntity
8
0
100
AcDbLine
10
-223.04725881543715
20
65.414092238191856
30
0
11
-223.0455262846817
21
85.400470177197604
31
0
0
LWPOLYLINE
5
122
100
AcDbEntity
8
0
100
AcDbPolyline
90
24
43
0.0
10
-355.088832846952
20
112.70822601120241
10
-351.5009050551201
20
114.85559715297379
10
-347.7140390047113
20
116.93540844305258
10
-343.73207417000543
20
118.94681687561527
10
-339.55885002528197
20
120.88897944483836
10
-330.65965236905566
20
124.56083302595576
10
-321.1822083324353
20
127.92396998712343
10
-311.42963305031515
20
130.93326742979875
10
-301.87222924358707
20
133.54333605372318
10
-297.329584300486
20
134.6939214566773
10
-293.03046598914966
20
135.74134499576925
10
-289.01490404296135
20
136.70361324666672
10
-285.30157673268826
20
137.6083923986993
10
-281.9071718366845
20
138.48492536979575
10
-278.8107314285518
20
139.37911654990864
10
-275.95360412966716
20
140.34118255635696
10
-273.27553209815807
20
141.42032708629827
10
-270.71225031761526
20
142.6665104790422
10
-268.2004035070924
20
144.1114093236327
10
-263.2128317714812
20
147.60168869492924
10
-258.21903344255895
20
151.75759844660004
10
-253.31599303629824
20
156.28453841936044
10
-248.60227376551592
20
160.91743737842486
10
-244.12122945589763
20
165.54990599275897
0
LINE
5
123
100
AcDbEntity
8
0
100
AcDbLine
10
-339.60000000000008
20
44.5
30
0
11
-339.3124660607391
21
43.532535485284697
31
0
0
ARC
5
124
100
AcDbEntity
8
0
100
AcDbCircle
10
-336.43678340496103
20
44.387198730813118
30
0
40
3.0000000000000346
210
0
220
0
230
1
100
AcDbArc
50
196.55213889419261
51
269.71063469961524
0
LINE
5
125
100
AcDbEntity
8
0
100
AcDbLine
10
-241.60000000000002
20
165.90000000000001
30
0
11
-231.09033288135862
21
161.98041103362146
31
0
0
LINE
5
126
100
AcDbEntity
8
0
100
AcDbLine
10
-223.04725881543715
20
65.414092238191856
30
0
11
-223.04735414529236
21
64.314372357508972
31
0
0
ARC
5
127
100
AcDbEntity
8
0
100
AcDbCircle
10
-227.5959369963573
20
171.34999999999741
30
0
40
9.9999999999974065
210
0
220
0
230
1
100
AcDbArc
50
249.54695831801075
51
269.99999999999591
0
LINE
5
128
100
AcDbEntity
8
0
100
AcDbLine
10
-339.60000000000008
20
44.5
30
0
11
-358.12751621395927
21
106.83947383356511
31
0
0
ARC
5
129
100
AcDbEntity
8
0
100
AcDbCircle
10
-222.64552628618463
20
85.400435502965877
30
0
40
0.39999999999999308
210
0
220
-0
230
1
100
AcDbArc
50
89.995029890597891
51
179.99503328219413
0
LINE
5
130
100
AcDbEntity
8
0
100
AcDbLine
10
-230.369691351065
20
64.150193893628796
30
0
11
-228.55177359588032
21
64.114389694625416
31
0
0
ARC
5
131
100
AcDbEntity
8
0
100
AcDbCircle
10
-223.24735414454094
20
64.314389694624822
30
0
40
0.19999999999999574
210
0
220
0
230
1
100
AcDbArc
50
270
51
359.99503328219407
0
ARC
5
132
100
AcDbEntity
8
0
100
AcDbCircle
10
-230.54691351068118
20
55.151938934687763
30
0
40
8.9999999999980993
210
0
220
-0
230
1
100
AcDbArc
50
88.871695766323199
51
115.55192957743172
0
ARC
5
133
100
AcDbEntity
8
0
100
AcDbCircle
10
-242.53631075354195
20
163.38945248500841
30
0
40
2.6794638740293997
210
0
220
-0
230
1
100
AcDbArc
50
69.546958318013594
51
126.26394472876524
0
LWPOLYLINE
5
134
100
AcDbEntity
8
0
100
AcDbPolyline
90
17
43
0.0
10
-336.4519344720976
20
41.38723699019631
10
-327.2583511678846
20
41.45916548230441
10
-318.826360180178
20
41.73546517489939
10
-311.1504689432685
20
42.16181573511932
10
-304.22326329269464
20
42.67963058619939
10
-297.98031257820816
20
43.23840688803977
10
-292.2994001752519
20
43.829261023209945
10
-287.0261624844523
20
44.46589335886852
10
-281.97413415642546
20
45.223007453338234
10
-276.975507211644
20
46.1851483507001
10
-271.8766087150856
20
47.443006495203534
10
-266.58641040020086
20
49.071785146944194
10
-261.02438089014447
20
51.1140741090495
10
-255.10626082244167
20
53.59517860785024
10
-248.74905920676548
20
56.47741643379282
10
-241.8801138178582
20
59.717050825476235
10
-234.42887424896347
20
63.27169144485984
0
LINE
5
135
100
AcDbEntity
8
0
100
AcDbLine
10
-222.64549158827538
20
85.800435501460939
30
0
11
-217.62500000000003
21
85.799999999999997
31
0
0
LINE
5
136
100
AcDbEntity
8
0
100
AcDbLine
10
-227.59593699635801
20
161.35000000000079
30
0
11
-217.62500000000003
21
161.35000000000002
31
0
0
ENDSEC
0
SECTION
2
OBJECTS
0
DICTIONARY
5
C
100
AcDbDictionary
3
ACAD_GROUP
350
D
3
ACAD_MLINESTYLE
350
17
0
DICTIONARY
5
D
100
AcDbDictionary
0
DICTIONARY
5
1A
330
C
100
AcDbDictionary
0
DICTIONARY
5
17
100
AcDbDictionary
0
ENDSEC
0
EOF
