<?xml version="1.0" standalone="no"?>
 <!DOCTYPE svg PUBLIC "-//W3C//DTD SVG 1.1//EN" 
 "http://www.w3.org/Graphics/SVG/1.1/DTD/svg11.dtd"> 
<svg
  xmlns:svg="http://www.w3.org/2000/svg"
  xmlns="http://www.w3.org/2000/svg"
  xmlns:xlink="http://www.w3.org/1999/xlink"
  version="1.1"
  width="330.1492mm" height="166.0144mm" viewBox="0.0000 0.0000 330.1492 166.0144">
<title>SVG Image created as SofleUnsplit-brd.svg date 2023/03/25 18:56:29 </title>
  <desc>Image generated by PCBNEW </desc>
<g style="fill:#000000; fill-opacity:1.0000;stroke:#000000; stroke-opacity:1.0000;
stroke-linecap:round; stroke-linejoin:round;"
 transform="translate(0 0) scale(1 1)">
</g>
<g style="fill:#000000; fill-opacity:0.0; 
stroke:#000000; stroke-width:0.0000; stroke-opacity:1; 
stroke-linecap:round; stroke-linejoin:round;">
</g>
<g style="fill:#000000; fill-opacity:0.0; 
stroke:#000000; stroke-width:0.1500; stroke-opacity:1; 
stroke-linecap:round; stroke-linejoin:round;">
<path d="M151.9550 0.0750
L151.9550 161.0750
" />
<path d="M0.0750 47.6750
L330.0750 47.6750
" />
</g>
<g style="fill:#000000; fill-opacity:0.0; 
stroke:#000000; stroke-width:0.1524; stroke-opacity:1; 
stroke-linecap:round; stroke-linejoin:round;">
<path d="M41.3736 82.0490
L58.7603 86.7077
" />
<path d="M36.9737 98.4697
L41.3736 82.0490
" />
<path d="M58.7603 86.7077
L54.3604 103.1285
" />
<path d="M54.3604 103.1285
L36.9737 98.4697
" />
<path d="M70.1483 44.2070
L87.5350 48.8657
" />
<path d="M65.7484 60.6277
L70.1483 44.2070
" />
<path d="M87.5350 48.8657
L83.1351 65.2865
" />
<path d="M83.1351 65.2865
L65.7484 60.6277
" />
<path d="M212.1830 102.6960
L194.7964 107.3548
" />
<path d="M207.7831 86.2753
L212.1830 102.6960
" />
<path d="M194.7964 107.3548
L190.3964 90.9340
" />
<path d="M190.3964 90.9340
L207.7831 86.2753
" />
<path d="M92.3690 100.3719
L74.9823 95.7131
" />
<path d="M96.7689 83.9512
L92.3690 100.3719
" />
<path d="M74.9823 95.7131
L79.3822 79.2924
" />
<path d="M79.3822 79.2924
L96.7689 83.9512
" />
<path d="M225.1698 81.6165
L242.5564 76.9578
" />
<path d="M229.5697 98.0373
L225.1698 81.6165
" />
<path d="M242.5564 76.9578
L246.9563 93.3785
" />
<path d="M246.9563 93.3785
L229.5697 98.0373
" />
<path d="M266.9312 98.3791
L284.3179 93.7203
" />
<path d="M271.3311 114.7998
L266.9312 98.3791
" />
<path d="M284.3179 93.7203
L288.7178 110.1411
" />
<path d="M288.7178 110.1411
L271.3311 114.7998
" />
<path d="M224.5227 79.2017
L207.1360 83.8605
" />
<path d="M220.1228 62.7810
L224.5227 79.2017
" />
<path d="M207.1360 83.8605
L202.7361 67.4397
" />
<path d="M202.7361 67.4397
L220.1228 62.7810
" />
<path d="M87.9690 116.7926
L70.5824 112.1339
" />
<path d="M92.3689 100.3719
L87.9690 116.7926
" />
<path d="M70.5824 112.1339
L74.9823 95.7131
" />
<path d="M74.9823 95.7131
L92.3689 100.3719
" />
<path d="M245.1446 86.6171
L262.5313 81.9583
" />
<path d="M249.5445 103.0378
L245.1446 86.6171
" />
<path d="M262.5313 81.9583
L266.9312 98.3791
" />
<path d="M266.9312 98.3791
L249.5445 103.0378
" />
<path d="M262.5313 81.9583
L279.9179 77.2996
" />
<path d="M266.9312 98.3791
L262.5313 81.9583
" />
<path d="M279.9179 77.2996
L284.3179 93.7203
" />
<path d="M284.3179 93.7203
L266.9312 98.3791
" />
<path d="M101.1688 67.5304
L83.7821 62.8717
" />
<path d="M105.5687 51.1097
L101.1688 67.5304
" />
<path d="M83.7821 62.8717
L88.1821 46.4509
" />
<path d="M88.1821 46.4509
L105.5687 51.1097
" />
<path d="M109.1086 107.4454
L91.7219 102.7867
" />
<path d="M113.5085 91.0247
L109.1086 107.4454
" />
<path d="M91.7219 102.7867
L96.1218 86.3660
" />
<path d="M96.1218 86.3660
L113.5085 91.0247
" />
<path d="M32.5738 114.8905
L15.1871 110.2317
" />
<path d="M36.9737 98.4697
L32.5738 114.8905
" />
<path d="M15.1871 110.2317
L19.5871 93.8110
" />
<path d="M19.5871 93.8110
L36.9737 98.4697
" />
<path d="M215.9359 116.7020
L233.3226 112.0432
" />
<path d="M220.3358 133.1227
L215.9359 116.7020
" />
<path d="M233.3226 112.0432
L237.7225 128.4639
" />
<path d="M237.7225 128.4639
L220.3358 133.1227
" />
</g>
<g style="fill:#000000; fill-opacity:0.0; 
stroke:#000000; stroke-width:0.1200; stroke-opacity:1; 
stroke-linecap:round; stroke-linejoin:round;">
<path d="M142.8350 65.2350
L160.8350 65.2350
" />
<path d="M160.8350 65.2350
L160.8350 88.7350
" />
<path d="M160.8350 88.7350
L142.8350 88.7350
" />
<path d="M142.8350 88.7350
L142.8350 65.2350
" />
</g>
<g style="fill:#000000; fill-opacity:0.0; 
stroke:#000000; stroke-width:0.1524; stroke-opacity:1; 
stroke-linecap:round; stroke-linejoin:round;">
<path d="M233.3226 112.0432
L215.9359 116.7020
" />
<path d="M228.9226 95.6225
L233.3226 112.0432
" />
<path d="M215.9359 116.7020
L211.5360 100.2812
" />
<path d="M211.5360 100.2812
L228.9226 95.6225
" />
<path d="M216.3699 48.7751
L233.7566 44.1163
" />
<path d="M220.7698 65.1958
L216.3699 48.7751
" />
<path d="M233.7566 44.1163
L238.1565 60.5371
" />
<path d="M238.1565 60.5371
L220.7698 65.1958
" />
<path d="M199.1963 123.7755
L216.5829 119.1168
" />
<path d="M203.5962 140.1962
L199.1963 123.7755
" />
<path d="M216.5829 119.1168
L220.9829 135.5375
" />
<path d="M220.9829 135.5375
L203.5962 140.1962
" />
<path d="M104.7086 123.8662
L87.3220 119.2074
" />
<path d="M109.1086 107.4454
L104.7086 123.8662
" />
<path d="M87.3220 119.2074
L91.7219 102.7867
" />
<path d="M91.7219 102.7867
L109.1086 107.4454
" />
<path d="M228.9226 95.6225
L211.5360 100.2812
" />
<path d="M224.5227 79.2017
L228.9226 95.6225
" />
<path d="M211.5360 100.2812
L207.1360 83.8605
" />
<path d="M207.1360 83.8605
L224.5227 79.2017
" />
<path d="M108.4615 109.8603
L125.8482 114.5190
" />
<path d="M104.0616 126.2810
L108.4615 109.8603
" />
<path d="M125.8482 114.5190
L121.4483 130.9397
" />
<path d="M121.4483 130.9397
L104.0616 126.2810
" />
<path d="M188.8157 153.1648
L176.0878 165.8928
" />
<path d="M176.7949 141.1440
L188.8157 153.1648
" />
<path d="M176.0878 165.8928
L164.0670 153.8719
" />
<path d="M164.0670 153.8719
L176.7949 141.1440
" />
<path d="M178.0567 114.4283
L195.4434 109.7696
" />
<path d="M182.4567 130.8491
L178.0567 114.4283
" />
<path d="M195.4434 109.7696
L199.8433 126.1903
" />
<path d="M199.8433 126.1903
L182.4567 130.8491
" />
<path d="M207.7831 86.2753
L190.3964 90.9340
" />
<path d="M203.3832 69.8545
L207.7831 86.2753
" />
<path d="M190.3964 90.9340
L185.9965 74.5133
" />
<path d="M185.9965 74.5133
L203.3832 69.8545
" />
<path d="M229.5697 98.0373
L246.9563 93.3785
" />
<path d="M233.9696 114.4580
L229.5697 98.0373
" />
<path d="M246.9563 93.3785
L251.3563 109.7993
" />
<path d="M251.3563 109.7993
L233.9696 114.4580
" />
<path d="M112.8614 93.4395
L130.2481 98.0983
" />
<path d="M108.4615 109.8603
L112.8614 93.4395
" />
<path d="M130.2481 98.0983
L125.8482 114.5190
" />
<path d="M125.8482 114.5190
L108.4615 109.8603
" />
<path d="M32.7868 44.5488
L50.1735 49.2075
" />
<path d="M28.3869 60.9695
L32.7868 44.5488
" />
<path d="M50.1735 49.2075
L45.7736 65.6283
" />
<path d="M45.7736 65.6283
L28.3869 60.9695
" />
<path d="M203.3832 69.8545
L185.9965 74.5133
" />
<path d="M198.9832 53.4338
L203.3832 69.8545
" />
<path d="M185.9965 74.5133
L181.5966 58.0926
" />
<path d="M181.5966 58.0926
L198.9832 53.4338
" />
<path d="M216.5829 119.1168
L199.1963 123.7755
" />
<path d="M212.1830 102.6960
L216.5829 119.1168
" />
<path d="M199.1963 123.7755
L194.7964 107.3548
" />
<path d="M194.7964 107.3548
L212.1830 102.6960
" />
<path d="M50.1735 49.2075
L67.5602 53.8663
" />
<path d="M45.7736 65.6283
L50.1735 49.2075
" />
<path d="M67.5602 53.8663
L63.1602 70.2870
" />
<path d="M63.1602 70.2870
L45.7736 65.6283
" />
<path d="M74.3352 98.1280
L56.9486 93.4692
" />
<path d="M78.7352 81.7072
L74.3352 98.1280
" />
<path d="M56.9486 93.4692
L61.3485 77.0485
" />
<path d="M61.3485 77.0485
L78.7352 81.7072
" />
<path d="M236.3448 53.7756
L253.7314 49.1168
" />
<path d="M240.7447 70.1963
L236.3448 53.7756
" />
<path d="M253.7314 49.1168
L258.1314 65.5376
" />
<path d="M258.1314 65.5376
L240.7447 70.1963
" />
<path d="M96.7689 83.9512
L79.3822 79.2924
" />
<path d="M101.1688 67.5304
L96.7689 83.9512
" />
<path d="M79.3822 79.2924
L83.7821 62.8717
" />
<path d="M83.7821 62.8717
L101.1688 67.5304
" />
<path d="M195.4434 109.7696
L178.0567 114.4283
" />
<path d="M191.0435 93.3488
L195.4434 109.7696
" />
<path d="M178.0567 114.4283
L173.6568 98.0076
" />
<path d="M173.6568 98.0076
L191.0435 93.3488
" />
<path d="M49.9605 119.5492
L32.5738 114.8905
" />
<path d="M54.3604 103.1285
L49.9605 119.5492
" />
<path d="M32.5738 114.8905
L36.9737 98.4697
" />
<path d="M36.9737 98.4697
L54.3604 103.1285
" />
<path d="M220.1228 62.7810
L202.7361 67.4397
" />
<path d="M215.7229 46.3603
L220.1228 62.7810
" />
<path d="M202.7361 67.4397
L198.3362 51.0190
" />
<path d="M198.3362 51.0190
L215.7229 46.3603
" />
<path d="M83.5691 133.2134
L66.1824 128.5546
" />
<path d="M87.9690 116.7926
L83.5691 133.2134
" />
<path d="M66.1824 128.5546
L70.5824 112.1339
" />
<path d="M70.5824 112.1339
L87.9690 116.7926
" />
<path d="M233.9696 114.4580
L251.3563 109.7993
" />
<path d="M238.3695 130.8788
L233.9696 114.4580
" />
<path d="M251.3563 109.7993
L255.7562 126.2200
" />
<path d="M255.7562 126.2200
L238.3695 130.8788
" />
<path d="M127.8704 165.9846
L115.1425 153.2566
" />
<path d="M139.8912 153.9637
L127.8704 165.9846
" />
<path d="M115.1425 153.2566
L127.1633 141.2358
" />
<path d="M127.1633 141.2358
L139.8912 153.9637
" />
<path d="M186.6436 76.9281
L169.2569 81.5868
" />
<path d="M182.2436 60.5074
L186.6436 76.9281
" />
<path d="M169.2569 81.5868
L164.8570 65.1661
" />
<path d="M164.8570 65.1661
L182.2436 60.5074
" />
<path d="M117.2614 77.0188
L134.6480 81.6775
" />
<path d="M112.8614 93.4395
L117.2614 77.0188
" />
<path d="M134.6480 81.6775
L130.2481 98.0983
" />
<path d="M130.2481 98.0983
L112.8614 93.4395
" />
<path d="M100.5217 69.9452
L117.9084 74.6040
" />
<path d="M96.1218 86.3660
L100.5217 69.9452
" />
<path d="M117.9084 74.6040
L113.5085 91.0247
" />
<path d="M113.5085 91.0247
L96.1218 86.3660
" />
<path d="M65.5354 130.9694
L48.1487 126.3107
" />
<path d="M69.9353 114.5487
L65.5354 130.9694
" />
<path d="M48.1487 126.3107
L52.5486 109.8900
" />
<path d="M52.5486 109.8900
L69.9353 114.5487
" />
<path d="M114.7486 152.6997
L100.3731 141.8670
" />
<path d="M124.9794 139.1229
L114.7486 152.6997
" />
<path d="M100.3731 141.8670
L110.6040 128.2902
" />
<path d="M110.6040 128.2902
L124.9794 139.1229
" />
<path d="M58.7603 86.7077
L41.3736 82.0490
" />
<path d="M63.1602 70.2870
L58.7603 86.7077
" />
<path d="M41.3736 82.0490
L45.7736 65.6283
" />
<path d="M45.7736 65.6283
L63.1602 70.2870
" />
<path d="M28.3869 60.9695
L45.7736 65.6283
" />
<path d="M23.9870 77.3903
L28.3869 60.9695
" />
<path d="M45.7736 65.6283
L41.3736 82.0490
" />
<path d="M41.3736 82.0490
L23.9870 77.3903
" />
<path d="M121.6613 60.5980
L139.0480 65.2568
" />
<path d="M117.2614 77.0188
L121.6613 60.5980
" />
<path d="M139.0480 65.2568
L134.6480 81.6775
" />
<path d="M134.6480 81.6775
L117.2614 77.0188
" />
<path d="M69.9353 114.5487
L52.5486 109.8900
" />
<path d="M74.3352 98.1280
L69.9353 114.5487
" />
<path d="M52.5486 109.8900
L56.9486 93.4692
" />
<path d="M56.9486 93.4692
L74.3352 98.1280
" />
<path d="M253.7314 49.1168
L271.1181 44.4581
" />
<path d="M258.1314 65.5376
L253.7314 49.1168
" />
<path d="M271.1181 44.4581
L275.5180 60.8788
" />
<path d="M275.5180 60.8788
L258.1314 65.5376
" />
<path d="M117.9084 74.6040
L100.5218 69.9452
" />
<path d="M122.3083 58.1832
L117.9084 74.6040
" />
<path d="M100.5218 69.9452
L104.9217 53.5245
" />
<path d="M104.9217 53.5245
L122.3083 58.1832
" />
<path d="M78.7352 81.7072
L61.3485 77.0485
" />
<path d="M83.1351 65.2865
L78.7352 81.7072
" />
<path d="M61.3485 77.0485
L65.7484 60.6277
" />
<path d="M65.7484 60.6277
L83.1351 65.2865
" />
<path d="M258.1314 65.5376
L275.5180 60.8788
" />
<path d="M262.5313 81.9583
L258.1314 65.5376
" />
<path d="M275.5180 60.8788
L279.9179 77.2996
" />
<path d="M279.9179 77.2996
L262.5313 81.9583
" />
<path d="M203.5318 141.7764
L189.1563 152.6090
" />
<path d="M193.3009 128.1996
L203.5318 141.7764
" />
<path d="M189.1563 152.6090
L178.9255 139.0322
" />
<path d="M178.9255 139.0322
L193.3009 128.1996
" />
<path d="M240.7447 70.1963
L258.1314 65.5376
" />
<path d="M245.1446 86.6171
L240.7447 70.1963
" />
<path d="M258.1314 65.5376
L262.5313 81.9583
" />
<path d="M262.5313 81.9583
L245.1446 86.6171
" />
<path d="M249.5445 103.0378
L266.9312 98.3791
" />
<path d="M253.9445 119.4585
L249.5445 103.0378
" />
<path d="M266.9312 98.3791
L271.3311 114.7998
" />
<path d="M271.3311 114.7998
L253.9445 119.4585
" />
<path d="M100.3087 140.2869
L82.9221 135.6282
" />
<path d="M104.7086 123.8662
L100.3087 140.2869
" />
<path d="M82.9221 135.6282
L87.3220 119.2074
" />
<path d="M87.3220 119.2074
L104.7086 123.8662
" />
<path d="M191.0435 93.3488
L173.6568 98.0076
" />
<path d="M186.6436 76.9281
L191.0435 93.3488
" />
<path d="M173.6568 98.0076
L169.2569 81.5868
" />
<path d="M169.2569 81.5868
L186.6436 76.9281
" />
<path d="M36.9737 98.4697
L19.5871 93.8110
" />
<path d="M41.3736 82.0490
L36.9737 98.4697
" />
<path d="M19.5871 93.8110
L23.9870 77.3903
" />
<path d="M23.9870 77.3903
L41.3736 82.0490
" />
<path d="M220.7698 65.1958
L238.1565 60.5371
" />
<path d="M225.1698 81.6165
L220.7698 65.1958
" />
<path d="M238.1565 60.5371
L242.5564 76.9578
" />
<path d="M242.5564 76.9578
L225.1698 81.6165
" />
<g >
</g>
<g >
</g>
<g >
</g>
<g >
</g>
<g >
</g>
<g >
</g>
<g >
</g>
<g >
</g>
<g >
</g>
<g >
</g>
<g >
</g>
<g >
</g>
<g >
</g>
<g >
</g>
<g >
</g>
<g >
</g>
<g >
</g>
<g >
</g>
<g >
</g>
<g >
</g>
<g >
</g>
<g >
</g>
<g >
</g>
<g >
</g>
<g >
</g>
<g >
</g>
<g >
</g>
<g >
</g>
<g >
</g>
<g >
</g>
<g >
</g>
<g >
</g>
<g >
</g>
<g >
</g>
<g >
</g>
<g >
</g>
<g >
</g>
<g >
</g>
<g >
</g>
<g >
</g>
<g >
</g>
<g >
</g>
<g >
</g>
<g >
</g>
<g >
</g>
<g >
</g>
<g >
</g>
<g >
</g>
<g >
</g>
<g >
</g>
<g >
</g>
<g >
</g>
<g >
</g>
<g >
</g>
<g >
</g>
<g >
</g>
<g >
</g>
<g >
</g>
<g >
</g>
<g >
</g>
<g >
</g>
<g >
</g>
<g >
</g>
<g >
</g>
<g >
</g>
<g >
</g>
<g >
</g>
<g >
</g>
<g >
</g>
<g >
</g>
<g >
</g>
<g >
</g>
<g >
</g>
<g >
</g>
<g >
</g>
<g >
</g>
<g >
</g>
<g >
</g>
<g >
</g>
<g >
</g>
<g >
</g>
<g >
</g>
<g >
</g>
<g >
</g>
<g >
</g>
<g >
</g>
<g >
</g>
<g >
</g>
<g >
</g>
<g >
</g>
<g >
</g>
<g >
</g>
<g >
</g>
<g >
</g>
<g >
</g>
<g >
</g>
<g >
</g>
<g >
</g>
<g >
</g>
<g >
</g>
<g >
</g>
<g >
</g>
<g >
</g>
<g >
</g>
<g >
</g>
<g >
</g>
<g >
</g>
<g >
</g>
<g >
</g>
<g >
</g>
<g >
</g>
<g >
</g>
<g >
</g>
<g >
</g>
<g >
</g>
<g >
</g>
<g >
</g>
<g >
</g>
<g >
</g>
<g >
</g>
</g>
<g style="fill:#000000; fill-opacity:0.0; 
stroke:#000000; stroke-width:0.1524; stroke-opacity:1; 
stroke-linecap:round; stroke-linejoin:round;">
<path d="M42.5637 83.4032
L57.0526 87.2854
" />
<path d="M38.6814 97.8920
L42.5637 83.4032
" />
</g>
<g style="fill:#000000; fill-opacity:0.0; 
stroke:#000000; stroke-width:0.1500; stroke-opacity:1; 
stroke-linecap:round; stroke-linejoin:round;">
<path d="M46.1579 88.9214
L46.9862 85.8305
" />
<path d="M46.1579 88.9214
L51.1808 90.2673
" />
<path d="M52.0090 87.1763
L46.9862 85.8305
" />
<path d="M51.1808 90.2673
L52.0090 87.1763
" />
</g>
<g style="fill:#000000; fill-opacity:0.0; 
stroke:#000000; stroke-width:0.1524; stroke-opacity:1; 
stroke-linecap:round; stroke-linejoin:round;">
<path d="M57.0526 87.2854
L53.1703 101.7743
" />
<path d="M53.1703 101.7743
L38.6814 97.8920
" />
<path d="M71.3384 45.5612
L85.8273 49.4434
" />
<path d="M67.4561 60.0500
L71.3384 45.5612
" />
</g>
<g style="fill:#000000; fill-opacity:0.0; 
stroke:#000000; stroke-width:0.1500; stroke-opacity:1; 
stroke-linecap:round; stroke-linejoin:round;">
<path d="M74.9326 51.0794
L75.7609 47.9885
" />
<path d="M74.9326 51.0794
L79.9555 52.4253
" />
<path d="M80.7837 49.3343
L75.7609 47.9885
" />
<path d="M79.9555 52.4253
L80.7837 49.3343
" />
</g>
<g style="fill:#000000; fill-opacity:0.0; 
stroke:#000000; stroke-width:0.1524; stroke-opacity:1; 
stroke-linecap:round; stroke-linejoin:round;">
<path d="M85.8273 49.4434
L81.9450 63.9323
" />
<path d="M81.9450 63.9323
L67.4561 60.0500
" />
<path d="M210.4753 102.1183
L195.9864 106.0006
" />
<path d="M206.5930 87.6294
L210.4753 102.1183
" />
</g>
<g style="fill:#000000; fill-opacity:0.0; 
stroke:#000000; stroke-width:0.1500; stroke-opacity:1; 
stroke-linecap:round; stroke-linejoin:round;">
<path d="M202.9988 93.1477
L202.1706 90.0568
" />
<path d="M202.1706 90.0568
L197.1478 91.4026
" />
<path d="M197.9760 94.4936
L202.9988 93.1477
" />
<path d="M197.9760 94.4936
L197.1478 91.4026
" />
</g>
<g style="fill:#000000; fill-opacity:0.0; 
stroke:#000000; stroke-width:0.1524; stroke-opacity:1; 
stroke-linecap:round; stroke-linejoin:round;">
<path d="M195.9864 106.0006
L192.1041 91.5117
" />
<path d="M192.1041 91.5117
L206.5930 87.6294
" />
<path d="M91.1789 99.0177
L76.6900 95.1355
" />
<path d="M95.0612 84.5288
L91.1789 99.0177
" />
</g>
<g style="fill:#000000; fill-opacity:0.0; 
stroke:#000000; stroke-width:0.1500; stroke-opacity:1; 
stroke-linecap:round; stroke-linejoin:round;">
<path d="M89.1893 87.5107
L90.0175 84.4197
" />
<path d="M90.0175 84.4197
L84.9947 83.0739
" />
<path d="M84.1665 86.1649
L89.1893 87.5107
" />
<path d="M84.1665 86.1649
L84.9947 83.0739
" />
</g>
<g style="fill:#000000; fill-opacity:0.0; 
stroke:#000000; stroke-width:0.1524; stroke-opacity:1; 
stroke-linecap:round; stroke-linejoin:round;">
<path d="M76.6900 95.1355
L80.5723 80.6466
" />
<path d="M80.5723 80.6466
L95.0612 84.5288
" />
<path d="M226.8775 82.1942
L241.3664 78.3120
" />
<path d="M230.7598 96.6831
L226.8775 82.1942
" />
</g>
<g style="fill:#000000; fill-opacity:0.0; 
stroke:#000000; stroke-width:0.1500; stroke-opacity:1; 
stroke-linecap:round; stroke-linejoin:round;">
<path d="M232.7493 85.1761
L231.9211 82.0851
" />
<path d="M232.7493 85.1761
L237.7721 83.8302
" />
<path d="M236.9439 80.7393
L231.9211 82.0851
" />
<path d="M237.7721 83.8302
L236.9439 80.7393
" />
</g>
<g style="fill:#000000; fill-opacity:0.0; 
stroke:#000000; stroke-width:0.1524; stroke-opacity:1; 
stroke-linecap:round; stroke-linejoin:round;">
<path d="M241.3664 78.3120
L245.2486 92.8008
" />
<path d="M245.2486 92.8008
L230.7598 96.6831
" />
<path d="M268.6389 98.9568
L283.1278 95.0745
" />
<path d="M272.5212 113.4456
L268.6389 98.9568
" />
</g>
<g style="fill:#000000; fill-opacity:0.0; 
stroke:#000000; stroke-width:0.1500; stroke-opacity:1; 
stroke-linecap:round; stroke-linejoin:round;">
<path d="M274.5108 101.9386
L273.6825 98.8477
" />
<path d="M274.5108 101.9386
L279.5336 100.5928
" />
<path d="M278.7053 97.5018
L273.6825 98.8477
" />
<path d="M279.5336 100.5928
L278.7053 97.5018
" />
</g>
<g style="fill:#000000; fill-opacity:0.0; 
stroke:#000000; stroke-width:0.1524; stroke-opacity:1; 
stroke-linecap:round; stroke-linejoin:round;">
<path d="M283.1278 95.0745
L287.0101 109.5634
" />
<path d="M287.0101 109.5634
L272.5212 113.4456
" />
<path d="M222.8150 78.6240
L208.3261 82.5063
" />
<path d="M218.9327 64.1351
L222.8150 78.6240
" />
</g>
<g style="fill:#000000; fill-opacity:0.0; 
stroke:#000000; stroke-width:0.1500; stroke-opacity:1; 
stroke-linecap:round; stroke-linejoin:round;">
<path d="M215.3385 69.6534
L214.5103 66.5625
" />
<path d="M214.5103 66.5625
L209.4875 67.9083
" />
<path d="M210.3157 70.9993
L215.3385 69.6534
" />
<path d="M210.3157 70.9993
L209.4875 67.9083
" />
</g>
<g style="fill:#000000; fill-opacity:0.0; 
stroke:#000000; stroke-width:0.1524; stroke-opacity:1; 
stroke-linecap:round; stroke-linejoin:round;">
<path d="M208.3261 82.5063
L204.4438 68.0174
" />
<path d="M204.4438 68.0174
L218.9327 64.1351
" />
<path d="M86.7790 115.4385
L72.2901 111.5562
" />
<path d="M90.6612 100.9496
L86.7790 115.4385
" />
</g>
<g style="fill:#000000; fill-opacity:0.0; 
stroke:#000000; stroke-width:0.1500; stroke-opacity:1; 
stroke-linecap:round; stroke-linejoin:round;">
<path d="M84.7894 103.9314
L85.6176 100.8405
" />
<path d="M85.6176 100.8405
L80.5948 99.4946
" />
<path d="M79.7666 102.5856
L84.7894 103.9314
" />
<path d="M79.7666 102.5856
L80.5948 99.4946
" />
</g>
<g style="fill:#000000; fill-opacity:0.0; 
stroke:#000000; stroke-width:0.1524; stroke-opacity:1; 
stroke-linecap:round; stroke-linejoin:round;">
<path d="M72.2901 111.5562
L76.1724 97.0673
" />
<path d="M76.1724 97.0673
L90.6612 100.9496
" />
<path d="M246.8523 87.1948
L261.3412 83.3125
" />
<path d="M250.7346 101.6836
L246.8523 87.1948
" />
</g>
<g style="fill:#000000; fill-opacity:0.0; 
stroke:#000000; stroke-width:0.1500; stroke-opacity:1; 
stroke-linecap:round; stroke-linejoin:round;">
<path d="M252.7242 90.1766
L251.8959 87.0857
" />
<path d="M252.7242 90.1766
L257.7470 88.8308
" />
<path d="M256.9188 85.7398
L251.8959 87.0857
" />
<path d="M257.7470 88.8308
L256.9188 85.7398
" />
</g>
<g style="fill:#000000; fill-opacity:0.0; 
stroke:#000000; stroke-width:0.1524; stroke-opacity:1; 
stroke-linecap:round; stroke-linejoin:round;">
<path d="M261.3412 83.3125
L265.2235 97.8014
" />
<path d="M265.2235 97.8014
L250.7346 101.6836
" />
<path d="M264.2390 82.5360
L278.7279 78.6537
" />
<path d="M268.1213 97.0249
L264.2390 82.5360
" />
</g>
<g style="fill:#000000; fill-opacity:0.0; 
stroke:#000000; stroke-width:0.1500; stroke-opacity:1; 
stroke-linecap:round; stroke-linejoin:round;">
<path d="M270.1108 85.5179
L269.2826 82.4269
" />
<path d="M270.1108 85.5179
L275.1336 84.1720
" />
<path d="M274.3054 81.0811
L269.2826 82.4269
" />
<path d="M275.1336 84.1720
L274.3054 81.0811
" />
</g>
<g style="fill:#000000; fill-opacity:0.0; 
stroke:#000000; stroke-width:0.1524; stroke-opacity:1; 
stroke-linecap:round; stroke-linejoin:round;">
<path d="M278.7279 78.6537
L282.6102 93.1426
" />
<path d="M282.6102 93.1426
L268.1213 97.0249
" />
<path d="M99.9787 66.1763
L85.4898 62.2940
" />
<path d="M103.8610 51.6874
L99.9787 66.1763
" />
</g>
<g style="fill:#000000; fill-opacity:0.0; 
stroke:#000000; stroke-width:0.1500; stroke-opacity:1; 
stroke-linecap:round; stroke-linejoin:round;">
<path d="M97.9892 54.6692
L98.8174 51.5783
" />
<path d="M98.8174 51.5783
L93.7946 50.2324
" />
<path d="M92.9664 53.3234
L97.9892 54.6692
" />
<path d="M92.9664 53.3234
L93.7946 50.2324
" />
</g>
<g style="fill:#000000; fill-opacity:0.0; 
stroke:#000000; stroke-width:0.1524; stroke-opacity:1; 
stroke-linecap:round; stroke-linejoin:round;">
<path d="M85.4898 62.2940
L89.3721 47.8051
" />
<path d="M89.3721 47.8051
L103.8610 51.6874
" />
<path d="M107.9185 106.0913
L93.4296 102.2090
" />
<path d="M111.8008 91.6024
L107.9185 106.0913
" />
</g>
<g style="fill:#000000; fill-opacity:0.0; 
stroke:#000000; stroke-width:0.1500; stroke-opacity:1; 
stroke-linecap:round; stroke-linejoin:round;">
<path d="M105.9289 94.5843
L106.7572 91.4933
" />
<path d="M106.7572 91.4933
L101.7344 90.1474
" />
<path d="M100.9061 93.2384
L105.9289 94.5843
" />
<path d="M100.9061 93.2384
L101.7344 90.1474
" />
</g>
<g style="fill:#000000; fill-opacity:0.0; 
stroke:#000000; stroke-width:0.1524; stroke-opacity:1; 
stroke-linecap:round; stroke-linejoin:round;">
<path d="M93.4296 102.2090
L97.3119 87.7201
" />
<path d="M97.3119 87.7201
L111.8008 91.6024
" />
<path d="M31.3837 113.5363
L16.8948 109.6540
" />
<path d="M35.2660 99.0474
L31.3837 113.5363
" />
</g>
<g style="fill:#000000; fill-opacity:0.0; 
stroke:#000000; stroke-width:0.1500; stroke-opacity:1; 
stroke-linecap:round; stroke-linejoin:round;">
<path d="M29.3942 102.0293
L30.2224 98.9383
" />
<path d="M30.2224 98.9383
L25.1996 97.5925
" />
<path d="M24.3714 100.6834
L29.3942 102.0293
" />
<path d="M24.3714 100.6834
L25.1996 97.5925
" />
</g>
<g style="fill:#000000; fill-opacity:0.0; 
stroke:#000000; stroke-width:0.1524; stroke-opacity:1; 
stroke-linecap:round; stroke-linejoin:round;">
<path d="M16.8948 109.6540
L20.7771 95.1651
" />
<path d="M20.7771 95.1651
L35.2660 99.0474
" />
<path d="M217.6436 117.2796
L232.1325 113.3974
" />
<path d="M221.5259 131.7685
L217.6436 117.2796
" />
</g>
<g style="fill:#000000; fill-opacity:0.0; 
stroke:#000000; stroke-width:0.1500; stroke-opacity:1; 
stroke-linecap:round; stroke-linejoin:round;">
<path d="M223.5154 120.2615
L222.6872 117.1705
" />
<path d="M223.5154 120.2615
L228.5383 118.9156
" />
<path d="M227.7100 115.8247
L222.6872 117.1705
" />
<path d="M228.5383 118.9156
L227.7100 115.8247
" />
</g>
<g style="fill:#000000; fill-opacity:0.0; 
stroke:#000000; stroke-width:0.1524; stroke-opacity:1; 
stroke-linecap:round; stroke-linejoin:round;">
<path d="M232.1325 113.3974
L236.0148 127.8862
" />
<path d="M236.0148 127.8862
L221.5259 131.7685
" />
<path d="M231.6149 111.4655
L217.1260 115.3478
" />
<path d="M227.7326 96.9766
L231.6149 111.4655
" />
</g>
<g style="fill:#000000; fill-opacity:0.0; 
stroke:#000000; stroke-width:0.1500; stroke-opacity:1; 
stroke-linecap:round; stroke-linejoin:round;">
<path d="M224.1383 102.4949
L223.3101 99.4039
" />
<path d="M223.3101 99.4039
L218.2873 100.7498
" />
<path d="M219.1155 103.8408
L224.1383 102.4949
" />
<path d="M219.1155 103.8408
L218.2873 100.7498
" />
</g>
<g style="fill:#000000; fill-opacity:0.0; 
stroke:#000000; stroke-width:0.1524; stroke-opacity:1; 
stroke-linecap:round; stroke-linejoin:round;">
<path d="M217.1260 115.3478
L213.2437 100.8589
" />
<path d="M213.2437 100.8589
L227.7326 96.9766
" />
<path d="M218.0776 49.3528
L232.5665 45.4705
" />
<path d="M221.9599 63.8417
L218.0776 49.3528
" />
</g>
<g style="fill:#000000; fill-opacity:0.0; 
stroke:#000000; stroke-width:0.1500; stroke-opacity:1; 
stroke-linecap:round; stroke-linejoin:round;">
<path d="M223.9495 52.3346
L223.1212 49.2437
" />
<path d="M223.9495 52.3346
L228.9723 50.9888
" />
<path d="M228.1441 47.8978
L223.1212 49.2437
" />
<path d="M228.9723 50.9888
L228.1441 47.8978
" />
</g>
<g style="fill:#000000; fill-opacity:0.0; 
stroke:#000000; stroke-width:0.1524; stroke-opacity:1; 
stroke-linecap:round; stroke-linejoin:round;">
<path d="M232.5665 45.4705
L236.4488 59.9594
" />
<path d="M236.4488 59.9594
L221.9599 63.8417
" />
<path d="M200.9040 124.3532
L215.3929 120.4709
" />
<path d="M204.7863 138.8421
L200.9040 124.3532
" />
</g>
<g style="fill:#000000; fill-opacity:0.0; 
stroke:#000000; stroke-width:0.1500; stroke-opacity:1; 
stroke-linecap:round; stroke-linejoin:round;">
<path d="M206.7758 127.3351
L205.9476 124.2441
" />
<path d="M206.7758 127.3351
L211.7986 125.9892
" />
<path d="M210.9704 122.8982
L205.9476 124.2441
" />
<path d="M211.7986 125.9892
L210.9704 122.8982
" />
</g>
<g style="fill:#000000; fill-opacity:0.0; 
stroke:#000000; stroke-width:0.1524; stroke-opacity:1; 
stroke-linecap:round; stroke-linejoin:round;">
<path d="M215.3929 120.4709
L219.2752 134.9598
" />
<path d="M219.2752 134.9598
L204.7863 138.8421
" />
<path d="M103.5186 122.5120
L89.0297 118.6297
" />
<path d="M107.4009 108.0231
L103.5186 122.5120
" />
</g>
<g style="fill:#000000; fill-opacity:0.0; 
stroke:#000000; stroke-width:0.1500; stroke-opacity:1; 
stroke-linecap:round; stroke-linejoin:round;">
<path d="M101.5290 111.0050
L102.3572 107.9140
" />
<path d="M102.3572 107.9140
L97.3344 106.5682
" />
<path d="M96.5062 109.6591
L101.5290 111.0050
" />
<path d="M96.5062 109.6591
L97.3344 106.5682
" />
</g>
<g style="fill:#000000; fill-opacity:0.0; 
stroke:#000000; stroke-width:0.1524; stroke-opacity:1; 
stroke-linecap:round; stroke-linejoin:round;">
<path d="M89.0297 118.6297
L92.9120 104.1409
" />
<path d="M92.9120 104.1409
L107.4009 108.0231
" />
<path d="M227.2149 95.0448
L212.7260 98.9271
" />
<path d="M223.3326 80.5559
L227.2149 95.0448
" />
</g>
<g style="fill:#000000; fill-opacity:0.0; 
stroke:#000000; stroke-width:0.1500; stroke-opacity:1; 
stroke-linecap:round; stroke-linejoin:round;">
<path d="M219.7384 86.0742
L218.9102 82.9832
" />
<path d="M218.9102 82.9832
L213.8874 84.3291
" />
<path d="M214.7156 87.4200
L219.7384 86.0742
" />
<path d="M214.7156 87.4200
L213.8874 84.3291
" />
</g>
<g style="fill:#000000; fill-opacity:0.0; 
stroke:#000000; stroke-width:0.1524; stroke-opacity:1; 
stroke-linecap:round; stroke-linejoin:round;">
<path d="M212.7260 98.9271
L208.8438 84.4382
" />
<path d="M208.8438 84.4382
L223.3326 80.5559
" />
<path d="M109.6516 111.2144
L124.1405 115.0967
" />
<path d="M105.7693 125.7033
L109.6516 111.2144
" />
</g>
<g style="fill:#000000; fill-opacity:0.0; 
stroke:#000000; stroke-width:0.1500; stroke-opacity:1; 
stroke-linecap:round; stroke-linejoin:round;">
<path d="M113.2458 116.7327
L114.0740 113.6417
" />
<path d="M113.2458 116.7327
L118.2686 118.0786
" />
<path d="M119.0969 114.9876
L114.0740 113.6417
" />
<path d="M118.2686 118.0786
L119.0969 114.9876
" />
</g>
<g style="fill:#000000; fill-opacity:0.0; 
stroke:#000000; stroke-width:0.1524; stroke-opacity:1; 
stroke-linecap:round; stroke-linejoin:round;">
<path d="M124.1405 115.0967
L120.2582 129.5856
" />
<path d="M120.2582 129.5856
L105.7693 125.7033
" />
<path d="M187.0479 153.5184
L176.4413 164.1250
" />
<path d="M176.4413 142.9118
L187.0479 153.5184
" />
</g>
<g style="fill:#000000; fill-opacity:0.0; 
stroke:#000000; stroke-width:0.1500; stroke-opacity:1; 
stroke-linecap:round; stroke-linejoin:round;">
<path d="M176.0878 149.4879
L173.8251 147.2251
" />
<path d="M173.8251 147.2251
L170.1481 150.9021
" />
<path d="M172.4108 153.1648
L176.0878 149.4879
" />
<path d="M172.4108 153.1648
L170.1481 150.9021
" />
</g>
<g style="fill:#000000; fill-opacity:0.0; 
stroke:#000000; stroke-width:0.1524; stroke-opacity:1; 
stroke-linecap:round; stroke-linejoin:round;">
<path d="M176.4413 164.1250
L165.8347 153.5184
" />
<path d="M165.8347 153.5184
L176.4413 142.9118
" />
<path d="M179.7644 115.0060
L194.2533 111.1237
" />
<path d="M183.6467 129.4949
L179.7644 115.0060
" />
</g>
<g style="fill:#000000; fill-opacity:0.0; 
stroke:#000000; stroke-width:0.1500; stroke-opacity:1; 
stroke-linecap:round; stroke-linejoin:round;">
<path d="M185.6363 117.9879
L184.8081 114.8969
" />
<path d="M185.6363 117.9879
L190.6591 116.6420
" />
<path d="M189.8309 113.5511
L184.8081 114.8969
" />
<path d="M190.6591 116.6420
L189.8309 113.5511
" />
</g>
<g style="fill:#000000; fill-opacity:0.0; 
stroke:#000000; stroke-width:0.1524; stroke-opacity:1; 
stroke-linecap:round; stroke-linejoin:round;">
<path d="M194.2533 111.1237
L198.1356 125.6126
" />
<path d="M198.1356 125.6126
L183.6467 129.4949
" />
<path d="M206.0754 85.6976
L191.5865 89.5799
" />
<path d="M202.1931 71.2087
L206.0754 85.6976
" />
</g>
<g style="fill:#000000; fill-opacity:0.0; 
stroke:#000000; stroke-width:0.1500; stroke-opacity:1; 
stroke-linecap:round; stroke-linejoin:round;">
<path d="M198.5989 76.7270
L197.7706 73.6360
" />
<path d="M197.7706 73.6360
L192.7478 74.9819
" />
<path d="M193.5761 78.0728
L198.5989 76.7270
" />
<path d="M193.5761 78.0728
L192.7478 74.9819
" />
</g>
<g style="fill:#000000; fill-opacity:0.0; 
stroke:#000000; stroke-width:0.1524; stroke-opacity:1; 
stroke-linecap:round; stroke-linejoin:round;">
<path d="M191.5865 89.5799
L187.7042 75.0910
" />
<path d="M187.7042 75.0910
L202.1931 71.2087
" />
<path d="M231.2774 98.6150
L245.7663 94.7327
" />
<path d="M235.1597 113.1039
L231.2774 98.6150
" />
</g>
<g style="fill:#000000; fill-opacity:0.0; 
stroke:#000000; stroke-width:0.1500; stroke-opacity:1; 
stroke-linecap:round; stroke-linejoin:round;">
<path d="M237.1492 101.5968
L236.3210 98.5059
" />
<path d="M237.1492 101.5968
L242.1720 100.2510
" />
<path d="M241.3438 97.1600
L236.3210 98.5059
" />
<path d="M242.1720 100.2510
L241.3438 97.1600
" />
</g>
<g style="fill:#000000; fill-opacity:0.0; 
stroke:#000000; stroke-width:0.1524; stroke-opacity:1; 
stroke-linecap:round; stroke-linejoin:round;">
<path d="M245.7663 94.7327
L249.6486 109.2216
" />
<path d="M249.6486 109.2216
L235.1597 113.1039
" />
<path d="M114.0515 94.7937
L128.5404 98.6760
" />
<path d="M110.1692 109.2826
L114.0515 94.7937
" />
</g>
<g style="fill:#000000; fill-opacity:0.0; 
stroke:#000000; stroke-width:0.1500; stroke-opacity:1; 
stroke-linecap:round; stroke-linejoin:round;">
<path d="M117.6457 100.3120
L118.4740 97.2210
" />
<path d="M117.6457 100.3120
L122.6686 101.6578
" />
<path d="M123.4968 98.5669
L118.4740 97.2210
" />
<path d="M122.6686 101.6578
L123.4968 98.5669
" />
</g>
<g style="fill:#000000; fill-opacity:0.0; 
stroke:#000000; stroke-width:0.1524; stroke-opacity:1; 
stroke-linecap:round; stroke-linejoin:round;">
<path d="M128.5404 98.6760
L124.6581 113.1649
" />
<path d="M124.6581 113.1649
L110.1692 109.2826
" />
<path d="M33.9769 45.9029
L48.4658 49.7852
" />
<path d="M30.0946 60.3918
L33.9769 45.9029
" />
</g>
<g style="fill:#000000; fill-opacity:0.0; 
stroke:#000000; stroke-width:0.1500; stroke-opacity:1; 
stroke-linecap:round; stroke-linejoin:round;">
<path d="M37.5711 51.4212
L38.3993 48.3303
" />
<path d="M37.5711 51.4212
L42.5939 52.7671
" />
<path d="M43.4222 49.6761
L38.3993 48.3303
" />
<path d="M42.5939 52.7671
L43.4222 49.6761
" />
</g>
<g style="fill:#000000; fill-opacity:0.0; 
stroke:#000000; stroke-width:0.1524; stroke-opacity:1; 
stroke-linecap:round; stroke-linejoin:round;">
<path d="M48.4658 49.7852
L44.5835 64.2741
" />
<path d="M44.5835 64.2741
L30.0946 60.3918
" />
<path d="M201.6755 69.2769
L187.1866 73.1591
" />
<path d="M197.7932 54.7880
L201.6755 69.2769
" />
</g>
<g style="fill:#000000; fill-opacity:0.0; 
stroke:#000000; stroke-width:0.1500; stroke-opacity:1; 
stroke-linecap:round; stroke-linejoin:round;">
<path d="M194.1989 60.3062
L193.3707 57.2153
" />
<path d="M193.3707 57.2153
L188.3479 58.5611
" />
<path d="M189.1761 61.6521
L194.1989 60.3062
" />
<path d="M189.1761 61.6521
L188.3479 58.5611
" />
</g>
<g style="fill:#000000; fill-opacity:0.0; 
stroke:#000000; stroke-width:0.1524; stroke-opacity:1; 
stroke-linecap:round; stroke-linejoin:round;">
<path d="M187.1866 73.1591
L183.3043 58.6702
" />
<path d="M183.3043 58.6702
L197.7932 54.7880
" />
<path d="M214.8752 118.5391
L200.3863 122.4214
" />
<path d="M210.9929 104.0502
L214.8752 118.5391
" />
</g>
<g style="fill:#000000; fill-opacity:0.0; 
stroke:#000000; stroke-width:0.1500; stroke-opacity:1; 
stroke-linecap:round; stroke-linejoin:round;">
<path d="M207.3987 109.5685
L206.5705 106.4775
" />
<path d="M206.5705 106.4775
L201.5477 107.8234
" />
<path d="M202.3759 110.9143
L207.3987 109.5685
" />
<path d="M202.3759 110.9143
L201.5477 107.8234
" />
</g>
<g style="fill:#000000; fill-opacity:0.0; 
stroke:#000000; stroke-width:0.1524; stroke-opacity:1; 
stroke-linecap:round; stroke-linejoin:round;">
<path d="M200.3863 122.4214
L196.5041 107.9325
" />
<path d="M196.5041 107.9325
L210.9929 104.0502
" />
<path d="M51.3636 50.5617
L65.8524 54.4440
" />
<path d="M47.4813 65.0506
L51.3636 50.5617
" />
</g>
<g style="fill:#000000; fill-opacity:0.0; 
stroke:#000000; stroke-width:0.1500; stroke-opacity:1; 
stroke-linecap:round; stroke-linejoin:round;">
<path d="M54.9578 56.0800
L55.7860 52.9890
" />
<path d="M54.9578 56.0800
L59.9806 57.4258
" />
<path d="M60.8088 54.3349
L55.7860 52.9890
" />
<path d="M59.9806 57.4258
L60.8088 54.3349
" />
</g>
<g style="fill:#000000; fill-opacity:0.0; 
stroke:#000000; stroke-width:0.1524; stroke-opacity:1; 
stroke-linecap:round; stroke-linejoin:round;">
<path d="M65.8524 54.4440
L61.9702 68.9328
" />
<path d="M61.9702 68.9328
L47.4813 65.0506
" />
<path d="M73.1452 96.7738
L58.6563 92.8915
" />
<path d="M77.0275 82.2849
L73.1452 96.7738
" />
</g>
<g style="fill:#000000; fill-opacity:0.0; 
stroke:#000000; stroke-width:0.1500; stroke-opacity:1; 
stroke-linecap:round; stroke-linejoin:round;">
<path d="M71.1556 85.2668
L71.9838 82.1758
" />
<path d="M71.9838 82.1758
L66.9610 80.8300
" />
<path d="M66.1328 83.9209
L71.1556 85.2668
" />
<path d="M66.1328 83.9209
L66.9610 80.8300
" />
</g>
<g style="fill:#000000; fill-opacity:0.0; 
stroke:#000000; stroke-width:0.1524; stroke-opacity:1; 
stroke-linecap:round; stroke-linejoin:round;">
<path d="M58.6563 92.8915
L62.5386 78.4026
" />
<path d="M62.5386 78.4026
L77.0275 82.2849
" />
<path d="M238.0525 54.3533
L252.5414 50.4710
" />
<path d="M241.9348 68.8422
L238.0525 54.3533
" />
</g>
<g style="fill:#000000; fill-opacity:0.0; 
stroke:#000000; stroke-width:0.1500; stroke-opacity:1; 
stroke-linecap:round; stroke-linejoin:round;">
<path d="M243.9243 57.3351
L243.0961 54.2442
" />
<path d="M243.9243 57.3351
L248.9471 55.9893
" />
<path d="M248.1189 52.8983
L243.0961 54.2442
" />
<path d="M248.9471 55.9893
L248.1189 52.8983
" />
</g>
<g style="fill:#000000; fill-opacity:0.0; 
stroke:#000000; stroke-width:0.1524; stroke-opacity:1; 
stroke-linecap:round; stroke-linejoin:round;">
<path d="M252.5414 50.4710
L256.4236 64.9599
" />
<path d="M256.4236 64.9599
L241.9348 68.8422
" />
<path d="M95.5788 82.5970
L81.0899 78.7147
" />
<path d="M99.4611 68.1081
L95.5788 82.5970
" />
</g>
<g style="fill:#000000; fill-opacity:0.0; 
stroke:#000000; stroke-width:0.1500; stroke-opacity:1; 
stroke-linecap:round; stroke-linejoin:round;">
<path d="M93.5892 71.0900
L94.4175 67.9990
" />
<path d="M94.4175 67.9990
L89.3947 66.6531
" />
<path d="M88.5664 69.7441
L93.5892 71.0900
" />
<path d="M88.5664 69.7441
L89.3947 66.6531
" />
</g>
<g style="fill:#000000; fill-opacity:0.0; 
stroke:#000000; stroke-width:0.1524; stroke-opacity:1; 
stroke-linecap:round; stroke-linejoin:round;">
<path d="M81.0899 78.7147
L84.9722 64.2258
" />
<path d="M84.9722 64.2258
L99.4611 68.1081
" />
<path d="M193.7357 109.1919
L179.2468 113.0742
" />
<path d="M189.8534 94.7030
L193.7357 109.1919
" />
</g>
<g style="fill:#000000; fill-opacity:0.0; 
stroke:#000000; stroke-width:0.1500; stroke-opacity:1; 
stroke-linecap:round; stroke-linejoin:round;">
<path d="M186.2592 100.2213
L185.4310 97.1303
" />
<path d="M185.4310 97.1303
L180.4081 98.4762
" />
<path d="M181.2364 101.5671
L186.2592 100.2213
" />
<path d="M181.2364 101.5671
L180.4081 98.4762
" />
</g>
<g style="fill:#000000; fill-opacity:0.0; 
stroke:#000000; stroke-width:0.1524; stroke-opacity:1; 
stroke-linecap:round; stroke-linejoin:round;">
<path d="M179.2468 113.0742
L175.3645 98.5853
" />
<path d="M175.3645 98.5853
L189.8534 94.7030
" />
<path d="M48.7704 118.1951
L34.2815 114.3128
" />
<path d="M52.6527 103.7062
L48.7704 118.1951
" />
</g>
<g style="fill:#000000; fill-opacity:0.0; 
stroke:#000000; stroke-width:0.1500; stroke-opacity:1; 
stroke-linecap:round; stroke-linejoin:round;">
<path d="M46.7808 106.6880
L47.6091 103.5971
" />
<path d="M47.6091 103.5971
L42.5862 102.2512
" />
<path d="M41.7580 105.3422
L46.7808 106.6880
" />
<path d="M41.7580 105.3422
L42.5862 102.2512
" />
</g>
<g style="fill:#000000; fill-opacity:0.0; 
stroke:#000000; stroke-width:0.1524; stroke-opacity:1; 
stroke-linecap:round; stroke-linejoin:round;">
<path d="M34.2815 114.3128
L38.1638 99.8239
" />
<path d="M38.1638 99.8239
L52.6527 103.7062
" />
<path d="M218.4151 62.2033
L203.9262 66.0856
" />
<path d="M214.5328 47.7144
L218.4151 62.2033
" />
</g>
<g style="fill:#000000; fill-opacity:0.0; 
stroke:#000000; stroke-width:0.1500; stroke-opacity:1; 
stroke-linecap:round; stroke-linejoin:round;">
<path d="M210.9386 53.2327
L210.1103 50.1417
" />
<path d="M210.1103 50.1417
L205.0875 51.4876
" />
<path d="M205.9157 54.5786
L210.9386 53.2327
" />
<path d="M205.9157 54.5786
L205.0875 51.4876
" />
</g>
<g style="fill:#000000; fill-opacity:0.0; 
stroke:#000000; stroke-width:0.1524; stroke-opacity:1; 
stroke-linecap:round; stroke-linejoin:round;">
<path d="M203.9262 66.0856
L200.0439 51.5967
" />
<path d="M200.0439 51.5967
L214.5328 47.7144
" />
<path d="M82.3790 131.8592
L67.8901 127.9769
" />
<path d="M86.2613 117.3703
L82.3790 131.8592
" />
</g>
<g style="fill:#000000; fill-opacity:0.0; 
stroke:#000000; stroke-width:0.1500; stroke-opacity:1; 
stroke-linecap:round; stroke-linejoin:round;">
<path d="M80.3895 120.3522
L81.2177 117.2612
" />
<path d="M81.2177 117.2612
L76.1949 115.9154
" />
<path d="M75.3667 119.0063
L80.3895 120.3522
" />
<path d="M75.3667 119.0063
L76.1949 115.9154
" />
</g>
<g style="fill:#000000; fill-opacity:0.0; 
stroke:#000000; stroke-width:0.1524; stroke-opacity:1; 
stroke-linecap:round; stroke-linejoin:round;">
<path d="M67.8901 127.9769
L71.7724 113.4880
" />
<path d="M71.7724 113.4880
L86.2613 117.3703
" />
<path d="M235.6773 115.0357
L250.1662 111.1534
" />
<path d="M239.5596 129.5246
L235.6773 115.0357
" />
</g>
<g style="fill:#000000; fill-opacity:0.0; 
stroke:#000000; stroke-width:0.1500; stroke-opacity:1; 
stroke-linecap:round; stroke-linejoin:round;">
<path d="M241.5492 118.0176
L240.7209 114.9266
" />
<path d="M241.5492 118.0176
L246.5720 116.6717
" />
<path d="M245.7437 113.5808
L240.7209 114.9266
" />
<path d="M246.5720 116.6717
L245.7437 113.5808
" />
</g>
<g style="fill:#000000; fill-opacity:0.0; 
stroke:#000000; stroke-width:0.1524; stroke-opacity:1; 
stroke-linecap:round; stroke-linejoin:round;">
<path d="M250.1662 111.1534
L254.0485 125.6423
" />
<path d="M254.0485 125.6423
L239.5596 129.5246
" />
<path d="M127.5168 164.2168
L116.9102 153.6102
" />
<path d="M138.1234 153.6102
L127.5168 164.2168
" />
</g>
<g style="fill:#000000; fill-opacity:0.0; 
stroke:#000000; stroke-width:0.1500; stroke-opacity:1; 
stroke-linecap:round; stroke-linejoin:round;">
<path d="M131.5474 153.2566
L133.8101 150.9939
" />
<path d="M133.8101 150.9939
L130.1331 147.3169
" />
<path d="M127.8704 149.5797
L131.5474 153.2566
" />
<path d="M127.8704 149.5797
L130.1331 147.3169
" />
</g>
<g style="fill:#000000; fill-opacity:0.0; 
stroke:#000000; stroke-width:0.1524; stroke-opacity:1; 
stroke-linecap:round; stroke-linejoin:round;">
<path d="M116.9102 153.6102
L127.5168 143.0036
" />
<path d="M127.5168 143.0036
L138.1234 153.6102
" />
<path d="M184.9358 76.3504
L170.4470 80.2327
" />
<path d="M181.0536 61.8615
L184.9358 76.3504
" />
</g>
<g style="fill:#000000; fill-opacity:0.0; 
stroke:#000000; stroke-width:0.1500; stroke-opacity:1; 
stroke-linecap:round; stroke-linejoin:round;">
<path d="M177.4593 67.3798
L176.6311 64.2888
" />
<path d="M176.6311 64.2888
L171.6083 65.6347
" />
<path d="M172.4365 68.7257
L177.4593 67.3798
" />
<path d="M172.4365 68.7257
L171.6083 65.6347
" />
</g>
<g style="fill:#000000; fill-opacity:0.0; 
stroke:#000000; stroke-width:0.1524; stroke-opacity:1; 
stroke-linecap:round; stroke-linejoin:round;">
<path d="M170.4470 80.2327
L166.5647 65.7438
" />
<path d="M166.5647 65.7438
L181.0536 61.8615
" />
<path d="M118.4514 78.3729
L132.9403 82.2552
" />
<path d="M114.5692 92.8618
L118.4514 78.3729
" />
</g>
<g style="fill:#000000; fill-opacity:0.0; 
stroke:#000000; stroke-width:0.1500; stroke-opacity:1; 
stroke-linecap:round; stroke-linejoin:round;">
<path d="M122.0457 83.8912
L122.8739 80.8003
" />
<path d="M122.0457 83.8912
L127.0685 85.2371
" />
<path d="M127.8967 82.1461
L122.8739 80.8003
" />
<path d="M127.0685 85.2371
L127.8967 82.1461
" />
</g>
<g style="fill:#000000; fill-opacity:0.0; 
stroke:#000000; stroke-width:0.1524; stroke-opacity:1; 
stroke-linecap:round; stroke-linejoin:round;">
<path d="M132.9403 82.2552
L129.0580 96.7441
" />
<path d="M129.0580 96.7441
L114.5692 92.8618
" />
<path d="M101.7118 71.2994
L116.2007 75.1817
" />
<path d="M97.8295 85.7883
L101.7118 71.2994
" />
</g>
<g style="fill:#000000; fill-opacity:0.0; 
stroke:#000000; stroke-width:0.1500; stroke-opacity:1; 
stroke-linecap:round; stroke-linejoin:round;">
<path d="M105.3061 76.8177
L106.1343 73.7267
" />
<path d="M105.3061 76.8177
L110.3289 78.1635
" />
<path d="M111.1571 75.0726
L106.1343 73.7267
" />
<path d="M110.3289 78.1635
L111.1571 75.0726
" />
</g>
<g style="fill:#000000; fill-opacity:0.0; 
stroke:#000000; stroke-width:0.1524; stroke-opacity:1; 
stroke-linecap:round; stroke-linejoin:round;">
<path d="M116.2007 75.1817
L112.3184 89.6706
" />
<path d="M112.3184 89.6706
L97.8295 85.7883
" />
<path d="M64.3453 129.6153
L49.8564 125.7330
" />
<path d="M68.2276 115.1264
L64.3453 129.6153
" />
</g>
<g style="fill:#000000; fill-opacity:0.0; 
stroke:#000000; stroke-width:0.1500; stroke-opacity:1; 
stroke-linecap:round; stroke-linejoin:round;">
<path d="M62.3558 118.1083
L63.1840 115.0173
" />
<path d="M63.1840 115.0173
L58.1612 113.6714
" />
<path d="M57.3330 116.7624
L62.3558 118.1083
" />
<path d="M57.3330 116.7624
L58.1612 113.6714
" />
</g>
<g style="fill:#000000; fill-opacity:0.0; 
stroke:#000000; stroke-width:0.1524; stroke-opacity:1; 
stroke-linecap:round; stroke-linejoin:round;">
<path d="M49.8564 125.7330
L53.7387 111.2441
" />
<path d="M53.7387 111.2441
L68.2276 115.1264
" />
<path d="M114.1524 150.9984
L102.1729 141.9711
" />
<path d="M123.1797 139.0188
L114.1524 150.9984
" />
</g>
<g style="fill:#000000; fill-opacity:0.0; 
stroke:#000000; stroke-width:0.1500; stroke-opacity:1; 
stroke-linecap:round; stroke-linejoin:round;">
<path d="M116.6184 139.5839
L118.5442 137.0283
" />
<path d="M118.5442 137.0283
L114.3913 133.8989
" />
<path d="M112.4655 136.4545
L116.6184 139.5839
" />
<path d="M112.4655 136.4545
L114.3913 133.8989
" />
</g>
<g style="fill:#000000; fill-opacity:0.0; 
stroke:#000000; stroke-width:0.1524; stroke-opacity:1; 
stroke-linecap:round; stroke-linejoin:round;">
<path d="M102.1729 141.9711
L111.2001 129.9916
" />
<path d="M111.2001 129.9916
L123.1797 139.0188
" />
<path d="M57.5702 85.3536
L43.0813 81.4713
" />
<path d="M61.4525 70.8647
L57.5702 85.3536
" />
</g>
<g style="fill:#000000; fill-opacity:0.0; 
stroke:#000000; stroke-width:0.1500; stroke-opacity:1; 
stroke-linecap:round; stroke-linejoin:round;">
<path d="M55.5807 73.8466
L56.4089 70.7556
" />
<path d="M56.4089 70.7556
L51.3861 69.4097
" />
<path d="M50.5579 72.5007
L55.5807 73.8466
" />
<path d="M50.5579 72.5007
L51.3861 69.4097
" />
</g>
<g style="fill:#000000; fill-opacity:0.0; 
stroke:#000000; stroke-width:0.1524; stroke-opacity:1; 
stroke-linecap:round; stroke-linejoin:round;">
<path d="M43.0813 81.4713
L46.9636 66.9824
" />
<path d="M46.9636 66.9824
L61.4525 70.8647
" />
<path d="M29.5770 62.3237
L44.0659 66.2060
" />
<path d="M25.6947 76.8126
L29.5770 62.3237
" />
</g>
<g style="fill:#000000; fill-opacity:0.0; 
stroke:#000000; stroke-width:0.1500; stroke-opacity:1; 
stroke-linecap:round; stroke-linejoin:round;">
<path d="M33.1712 67.8420
L33.9994 64.7510
" />
<path d="M33.1712 67.8420
L38.1940 69.1878
" />
<path d="M39.0222 66.0969
L33.9994 64.7510
" />
<path d="M38.1940 69.1878
L39.0222 66.0969
" />
</g>
<g style="fill:#000000; fill-opacity:0.0; 
stroke:#000000; stroke-width:0.1524; stroke-opacity:1; 
stroke-linecap:round; stroke-linejoin:round;">
<path d="M44.0659 66.2060
L40.1836 80.6948
" />
<path d="M40.1836 80.6948
L25.6947 76.8126
" />
<path d="M122.8514 61.9522
L137.3402 65.8345
" />
<path d="M118.9691 76.4411
L122.8514 61.9522
" />
</g>
<g style="fill:#000000; fill-opacity:0.0; 
stroke:#000000; stroke-width:0.1500; stroke-opacity:1; 
stroke-linecap:round; stroke-linejoin:round;">
<path d="M126.4456 67.4705
L127.2738 64.3795
" />
<path d="M126.4456 67.4705
L131.4684 68.8163
" />
<path d="M132.2966 65.7254
L127.2738 64.3795
" />
<path d="M131.4684 68.8163
L132.2966 65.7254
" />
</g>
<g style="fill:#000000; fill-opacity:0.0; 
stroke:#000000; stroke-width:0.1524; stroke-opacity:1; 
stroke-linecap:round; stroke-linejoin:round;">
<path d="M137.3402 65.8345
L133.4580 80.3234
" />
<path d="M133.4580 80.3234
L118.9691 76.4411
" />
<path d="M68.7452 113.1945
L54.2564 109.3123
" />
<path d="M72.6275 98.7057
L68.7452 113.1945
" />
</g>
<g style="fill:#000000; fill-opacity:0.0; 
stroke:#000000; stroke-width:0.1500; stroke-opacity:1; 
stroke-linecap:round; stroke-linejoin:round;">
<path d="M66.7557 101.6875
L67.5839 98.5966
" />
<path d="M67.5839 98.5966
L62.5611 97.2507
" />
<path d="M61.7329 100.3417
L66.7557 101.6875
" />
<path d="M61.7329 100.3417
L62.5611 97.2507
" />
</g>
<g style="fill:#000000; fill-opacity:0.0; 
stroke:#000000; stroke-width:0.1524; stroke-opacity:1; 
stroke-linecap:round; stroke-linejoin:round;">
<path d="M54.2564 109.3123
L58.1386 94.8234
" />
<path d="M58.1386 94.8234
L72.6275 98.7057
" />
<path d="M255.4391 49.6945
L269.9280 45.8122
" />
<path d="M259.3214 64.1834
L255.4391 49.6945
" />
</g>
<g style="fill:#000000; fill-opacity:0.0; 
stroke:#000000; stroke-width:0.1500; stroke-opacity:1; 
stroke-linecap:round; stroke-linejoin:round;">
<path d="M261.3110 52.6764
L260.4828 49.5854
" />
<path d="M261.3110 52.6764
L266.3338 51.3305
" />
<path d="M265.5056 48.2396
L260.4828 49.5854
" />
<path d="M266.3338 51.3305
L265.5056 48.2396
" />
</g>
<g style="fill:#000000; fill-opacity:0.0; 
stroke:#000000; stroke-width:0.1524; stroke-opacity:1; 
stroke-linecap:round; stroke-linejoin:round;">
<path d="M269.9280 45.8122
L273.8103 60.3011
" />
<path d="M273.8103 60.3011
L259.3214 64.1834
" />
<path d="M116.7183 73.2498
L102.2295 69.3675
" />
<path d="M120.6006 58.7609
L116.7183 73.2498
" />
</g>
<g style="fill:#000000; fill-opacity:0.0; 
stroke:#000000; stroke-width:0.1500; stroke-opacity:1; 
stroke-linecap:round; stroke-linejoin:round;">
<path d="M114.7288 61.7428
L115.5570 58.6518
" />
<path d="M115.5570 58.6518
L110.5342 57.3060
" />
<path d="M109.7060 60.3969
L114.7288 61.7428
" />
<path d="M109.7060 60.3969
L110.5342 57.3060
" />
</g>
<g style="fill:#000000; fill-opacity:0.0; 
stroke:#000000; stroke-width:0.1524; stroke-opacity:1; 
stroke-linecap:round; stroke-linejoin:round;">
<path d="M102.2295 69.3675
L106.1117 54.8786
" />
<path d="M106.1117 54.8786
L120.6006 58.7609
" />
<path d="M77.5451 80.3531
L63.0562 76.4708
" />
<path d="M81.4274 65.8642
L77.5451 80.3531
" />
</g>
<g style="fill:#000000; fill-opacity:0.0; 
stroke:#000000; stroke-width:0.1500; stroke-opacity:1; 
stroke-linecap:round; stroke-linejoin:round;">
<path d="M75.5555 68.8460
L76.3838 65.7551
" />
<path d="M76.3838 65.7551
L71.3609 64.4092
" />
<path d="M70.5327 67.5002
L75.5555 68.8460
" />
<path d="M70.5327 67.5002
L71.3609 64.4092
" />
</g>
<g style="fill:#000000; fill-opacity:0.0; 
stroke:#000000; stroke-width:0.1524; stroke-opacity:1; 
stroke-linecap:round; stroke-linejoin:round;">
<path d="M63.0562 76.4708
L66.9385 61.9819
" />
<path d="M66.9385 61.9819
L81.4274 65.8642
" />
<path d="M259.8391 66.1153
L274.3280 62.2330
" />
<path d="M263.7213 80.6042
L259.8391 66.1153
" />
</g>
<g style="fill:#000000; fill-opacity:0.0; 
stroke:#000000; stroke-width:0.1500; stroke-opacity:1; 
stroke-linecap:round; stroke-linejoin:round;">
<path d="M265.7109 69.0971
L264.8827 66.0062
" />
<path d="M265.7109 69.0971
L270.7337 67.7513
" />
<path d="M269.9055 64.6603
L264.8827 66.0062
" />
<path d="M270.7337 67.7513
L269.9055 64.6603
" />
</g>
<g style="fill:#000000; fill-opacity:0.0; 
stroke:#000000; stroke-width:0.1524; stroke-opacity:1; 
stroke-linecap:round; stroke-linejoin:round;">
<path d="M274.3280 62.2330
L278.2102 76.7219
" />
<path d="M278.2102 76.7219
L263.7213 80.6042
" />
<path d="M201.7320 141.8805
L189.7525 150.9077
" />
<path d="M192.7048 129.9009
L201.7320 141.8805
" />
</g>
<g style="fill:#000000; fill-opacity:0.0; 
stroke:#000000; stroke-width:0.1500; stroke-opacity:1; 
stroke-linecap:round; stroke-linejoin:round;">
<path d="M191.4395 136.3638
L189.5137 133.8082
" />
<path d="M189.5137 133.8082
L185.3607 136.9376
" />
<path d="M187.2866 139.4932
L191.4395 136.3638
" />
<path d="M187.2866 139.4932
L185.3607 136.9376
" />
</g>
<g style="fill:#000000; fill-opacity:0.0; 
stroke:#000000; stroke-width:0.1524; stroke-opacity:1; 
stroke-linecap:round; stroke-linejoin:round;">
<path d="M189.7525 150.9077
L180.7253 138.9281
" />
<path d="M180.7253 138.9281
L192.7048 129.9009
" />
<path d="M242.4524 70.7740
L256.9413 66.8917
" />
<path d="M246.3347 85.2629
L242.4524 70.7740
" />
</g>
<g style="fill:#000000; fill-opacity:0.0; 
stroke:#000000; stroke-width:0.1500; stroke-opacity:1; 
stroke-linecap:round; stroke-linejoin:round;">
<path d="M248.3242 73.7559
L247.4960 70.6649
" />
<path d="M248.3242 73.7559
L253.3471 72.4100
" />
<path d="M252.5188 69.3191
L247.4960 70.6649
" />
<path d="M253.3471 72.4100
L252.5188 69.3191
" />
</g>
<g style="fill:#000000; fill-opacity:0.0; 
stroke:#000000; stroke-width:0.1524; stroke-opacity:1; 
stroke-linecap:round; stroke-linejoin:round;">
<path d="M256.9413 66.8917
L260.8236 81.3806
" />
<path d="M260.8236 81.3806
L246.3347 85.2629
" />
<path d="M251.2522 103.6155
L265.7411 99.7332
" />
<path d="M255.1345 118.1044
L251.2522 103.6155
" />
</g>
<g style="fill:#000000; fill-opacity:0.0; 
stroke:#000000; stroke-width:0.1500; stroke-opacity:1; 
stroke-linecap:round; stroke-linejoin:round;">
<path d="M257.1241 106.5974
L256.2959 103.5064
" />
<path d="M257.1241 106.5974
L262.1469 105.2515
" />
<path d="M261.3187 102.1605
L256.2959 103.5064
" />
<path d="M262.1469 105.2515
L261.3187 102.1605
" />
</g>
<g style="fill:#000000; fill-opacity:0.0; 
stroke:#000000; stroke-width:0.1524; stroke-opacity:1; 
stroke-linecap:round; stroke-linejoin:round;">
<path d="M265.7411 99.7332
L269.6234 114.2221
" />
<path d="M269.6234 114.2221
L255.1345 118.1044
" />
<path d="M99.1187 138.9328
L84.6298 135.0505
" />
<path d="M103.0009 124.4439
L99.1187 138.9328
" />
</g>
<g style="fill:#000000; fill-opacity:0.0; 
stroke:#000000; stroke-width:0.1500; stroke-opacity:1; 
stroke-linecap:round; stroke-linejoin:round;">
<path d="M97.1291 127.4257
L97.9573 124.3348
" />
<path d="M97.9573 124.3348
L92.9345 122.9889
" />
<path d="M92.1063 126.0799
L97.1291 127.4257
" />
<path d="M92.1063 126.0799
L92.9345 122.9889
" />
</g>
<g style="fill:#000000; fill-opacity:0.0; 
stroke:#000000; stroke-width:0.1524; stroke-opacity:1; 
stroke-linecap:round; stroke-linejoin:round;">
<path d="M84.6298 135.0505
L88.5120 120.5616
" />
<path d="M88.5120 120.5616
L103.0009 124.4439
" />
<path d="M189.3358 92.7711
L174.8469 96.6534
" />
<path d="M185.4535 78.2823
L189.3358 92.7711
" />
</g>
<g style="fill:#000000; fill-opacity:0.0; 
stroke:#000000; stroke-width:0.1500; stroke-opacity:1; 
stroke-linecap:round; stroke-linejoin:round;">
<path d="M181.8593 83.8005
L181.0310 80.7096
" />
<path d="M181.0310 80.7096
L176.0082 82.0554
" />
<path d="M176.8364 85.1464
L181.8593 83.8005
" />
<path d="M176.8364 85.1464
L176.0082 82.0554
" />
</g>
<g style="fill:#000000; fill-opacity:0.0; 
stroke:#000000; stroke-width:0.1524; stroke-opacity:1; 
stroke-linecap:round; stroke-linejoin:round;">
<path d="M174.8469 96.6534
L170.9646 82.1645
" />
<path d="M170.9646 82.1645
L185.4535 78.2823
" />
<path d="M35.7836 97.1156
L21.2948 93.2333
" />
<path d="M39.6659 82.6267
L35.7836 97.1156
" />
</g>
<g style="fill:#000000; fill-opacity:0.0; 
stroke:#000000; stroke-width:0.1500; stroke-opacity:1; 
stroke-linecap:round; stroke-linejoin:round;">
<path d="M33.7941 85.6086
L34.6223 82.5176
" />
<path d="M34.6223 82.5176
L29.5995 81.1717
" />
<path d="M28.7713 84.2627
L33.7941 85.6086
" />
<path d="M28.7713 84.2627
L29.5995 81.1717
" />
</g>
<g style="fill:#000000; fill-opacity:0.0; 
stroke:#000000; stroke-width:0.1524; stroke-opacity:1; 
stroke-linecap:round; stroke-linejoin:round;">
<path d="M21.2948 93.2333
L25.1770 78.7444
" />
<path d="M25.1770 78.7444
L39.6659 82.6267
" />
<path d="M222.4775 65.7735
L236.9664 61.8912
" />
<path d="M226.3598 80.2624
L222.4775 65.7735
" />
</g>
<g style="fill:#000000; fill-opacity:0.0; 
stroke:#000000; stroke-width:0.1500; stroke-opacity:1; 
stroke-linecap:round; stroke-linejoin:round;">
<path d="M228.3494 68.7554
L227.5212 65.6644
" />
<path d="M228.3494 68.7554
L233.3722 67.4095
" />
<path d="M232.5440 64.3185
L227.5212 65.6644
" />
<path d="M233.3722 67.4095
L232.5440 64.3185
" />
</g>
<g style="fill:#000000; fill-opacity:0.0; 
stroke:#000000; stroke-width:0.1524; stroke-opacity:1; 
stroke-linecap:round; stroke-linejoin:round;">
<path d="M236.9664 61.8912
L240.8487 76.3801
" />
<path d="M240.8487 76.3801
L226.3598 80.2624
" />
<g >
</g>
<g >
</g>
<g >
</g>
<g >
</g>
<g >
</g>
<g >
</g>
<g >
</g>
<g >
</g>
<g >
</g>
<g >
</g>
<g >
</g>
<g >
</g>
<g >
</g>
<g >
</g>
<g >
</g>
<g >
</g>
<g >
</g>
<g >
</g>
<g >
</g>
<g >
</g>
<g >
</g>
<g >
</g>
<g >
</g>
<g >
</g>
<g >
</g>
<g >
</g>
<g >
</g>
<g >
</g>
<g >
</g>
<g >
</g>
<g >
</g>
<g >
</g>
<g >
</g>
<g >
</g>
<g >
</g>
<g >
</g>
<g >
</g>
<g >
</g>
<g >
</g>
<g >
</g>
<g >
</g>
<g >
</g>
<g >
</g>
<g >
</g>
<g >
</g>
<g >
</g>
<g >
</g>
<g >
</g>
<g >
</g>
<g >
</g>
<g >
</g>
<g >
</g>
<g >
</g>
<g >
</g>
<g >
</g>
<g >
</g>
<g >
</g>
<g >
</g>
<g >
</g>
<g >
</g>
<g >
</g>
<g >
</g>
<g >
</g>
<g >
</g>
<g >
</g>
<g >
</g>
<g >
</g>
<g >
</g>
<g >
</g>
<g >
</g>
<g >
</g>
<g >
</g>
<g >
</g>
<g >
</g>
<g >
</g>
<g >
</g>
<g >
</g>
<g >
</g>
<g >
</g>
<g >
</g>
<g >
</g>
<g >
</g>
<g >
</g>
<g >
</g>
<g >
</g>
<g >
</g>
<g >
</g>
<g >
</g>
<g >
</g>
<g >
</g>
<g >
</g>
<g >
</g>
<g >
</g>
<g >
</g>
<g >
</g>
<g >
</g>
<g >
</g>
<g >
</g>
<g >
</g>
<g >
</g>
<g >
</g>
<g >
</g>
<g >
</g>
<g >
</g>
<g >
</g>
<g >
</g>
<g >
</g>
<g >
</g>
<g >
</g>
<g >
</g>
<g >
</g>
<g >
</g>
<g >
</g>
<g >
</g>
<g >
</g>
<g >
</g>
<g >
</g>
<g >
</g>
<g >
</g>
<g >
</g>
</g>
<g style="fill:#000000; fill-opacity:0.0; 
stroke:#000000; stroke-width:0.1524; stroke-opacity:1; 
stroke-linecap:round; stroke-linejoin:round;">
</g>
<g style="fill:#000000; fill-opacity:0.0; 
stroke:#000000; stroke-width:0.1000; stroke-opacity:1; 
stroke-linecap:round; stroke-linejoin:round;">
<path style="fill:#000000; fill-opacity:0.0; 
stroke:#000000; stroke-width:0.1000; stroke-opacity:1; 
stroke-linecap:round; stroke-linejoin:round;fill:none"
d="M 274.1050,44.4750
291.7050,110.0750
255.7550,126.1750
238.3550,130.8750
220.9050,135.4750
203.4550,141.6750
188.8050,153.1250
176.1050,165.7750
162.0050,161.4250
140.0550,161.4250
127.8550,165.9750
114.6050,152.7250
100.4050,141.8250
82.9550,135.6250
65.5050,130.9250
48.1550,126.2750
12.1050,110.0250
29.8550,44.5750
70.1550,44.1750
88.2050,46.4250
105.5050,51.1250
122.3550,58.1250
139.1050,65.2250
146.3050,65.2250
146.3050,85.8750
157.3550,85.8750
157.3550,65.1750
164.9050,65.1750
181.6050,58.1250
198.3550,50.9750
215.7550,46.3250
233.7050,44.1250
Z" /> 
<g >
</g>
<g >
</g>
<g >
</g>
<g >
</g>
<g >
</g>
<g >
</g>
<g >
</g>
<g >
</g>
<g >
</g>
<g >
</g>
<g >
</g>
<g >
</g>
<g >
</g>
<g >
</g>
<g >
</g>
<g >
</g>
<g >
</g>
<g >
</g>
<g >
</g>
<g >
</g>
<g >
</g>
<g >
</g>
<g >
</g>
<g >
</g>
<g >
</g>
<g >
</g>
<g >
</g>
<g >
</g>
<g >
</g>
<g >
</g>
<g >
</g>
<g >
</g>
<g >
</g>
<g >
</g>
<g >
</g>
<g >
</g>
<g >
</g>
<g >
</g>
<g >
</g>
<g >
</g>
<g >
</g>
<g >
</g>
<g >
</g>
<g >
</g>
<g >
</g>
<g >
</g>
<g >
</g>
<g >
</g>
<g >
</g>
<g >
</g>
<g >
</g>
<g >
</g>
<g >
</g>
<g >
</g>
<g >
</g>
<g >
</g>
<g >
</g>
<g >
</g>
<g >
</g>
<g >
</g>
<g >
</g>
<g >
</g>
<g >
</g>
<g >
</g>
<g >
</g>
<g >
</g>
<g >
</g>
<g >
</g>
<g >
</g>
<g >
</g>
<g >
</g>
<g >
</g>
<g >
</g>
<g >
</g>
<g >
</g>
<g >
</g>
<g >
</g>
<g >
</g>
<g >
</g>
<g >
</g>
<g >
</g>
<g >
</g>
<g >
</g>
<g >
</g>
<g >
</g>
<g >
</g>
<g >
</g>
<g >
</g>
<g >
</g>
<g >
</g>
<g >
</g>
<g >
</g>
<g >
</g>
<g >
</g>
<g >
</g>
<g >
</g>
<g >
</g>
<g >
</g>
<g >
</g>
<g >
</g>
<g >
</g>
<g >
</g>
<g >
</g>
<g >
</g>
<g >
</g>
<g >
</g>
<g >
</g>
<g >
</g>
<g >
</g>
<g >
</g>
<g >
</g>
<g >
</g>
<g >
</g>
<g >
</g>
<g >
</g>
<g >
</g>
<g >
</g>
<g >
</g>
<g >
</g>
<g >
</g>
</g> 
</svg>
