<?xml version="1.0" encoding="UTF-8" standalone="no"?>
<!-- Created with Inkscape (http://www.inkscape.org/) -->

<svg
   width="124.9164mm"
   height="68.588997mm"
   viewBox="0 0 124.9164 68.588997"
   version="1.1"
   id="svg5"
   xml:space="preserve"
   inkscape:version="1.2.1 (9c6d41e410, 2022-07-14)"
   sodipodi:docname="stana_logo.svg"
   xmlns:inkscape="http://www.inkscape.org/namespaces/inkscape"
   xmlns:sodipodi="http://sodipodi.sourceforge.net/DTD/sodipodi-0.dtd"
   xmlns="http://www.w3.org/2000/svg"
   xmlns:svg="http://www.w3.org/2000/svg"><sodipodi:namedview
     id="namedview7"
     pagecolor="#ffffff"
     bordercolor="#000000"
     borderopacity="0.25"
     inkscape:showpageshadow="2"
     inkscape:pageopacity="0.0"
     inkscape:pagecheckerboard="0"
     inkscape:deskcolor="#d1d1d1"
     inkscape:document-units="mm"
     showgrid="false"
     inkscape:zoom="1.2938725"
     inkscape:cx="6.1829895"
     inkscape:cy="11.979542"
     inkscape:window-width="1936"
     inkscape:window-height="1319"
     inkscape:window-x="9"
     inkscape:window-y="16"
     inkscape:window-maximized="0"
     inkscape:current-layer="layer2" /><defs
     id="defs2" /><g
     inkscape:groupmode="layer"
     id="layer2"
     inkscape:label="vector"
     style="fill:none;stroke:#000000;stroke-width:0.5;stroke-dasharray:none;stroke-opacity:1"
     transform="translate(-26.13918,-43.613396)"><path
       style="display:inline;fill:none;stroke:#000000;stroke-width:1.9;stroke-dasharray:none;stroke-opacity:1"
       d="m 82.600414,59.826556 -1.213595,-0.01338 -20.244461,-8.077335 -25.561186,-1.329179 -8.281824,28.833019 38.239536,13.496305 12.780592,10.837944 5.112239,-2.14714 9.815494,0.20449 5.82795,2.14714 12.882841,-10.940188 37.9328,-13.598551 -8.58856,-29.139756 -25.45894,1.431428 -20.551195,8.17958 -0.870975,0.07948"
       id="path357"
       inkscape:label="wings"
       sodipodi:nodetypes="cccccccccccccc" /><g
       id="g3320"
       inkscape:label="head"
       style="display:inline;fill:none;stroke:#000000;stroke-width:1;stroke-dasharray:none;stroke-opacity:1"><path
         style="fill:none;stroke:#000000;stroke-width:1;stroke-dasharray:none;stroke-opacity:1"
         d="m 81.985881,57.115384 -1.048322,0.686832 4.012536,4.55477 3.542602,2.49428 3.651046,-2.49428 3.867941,-4.699368 -0.939874,-0.686829"
         id="path3098" /><path
         style="fill:none;stroke:#000000;stroke-width:1;stroke-dasharray:none;stroke-opacity:1"
         d="m 95.433299,57.006936 2.964217,-1.988192 1.156767,-4.590921 -6.036879,0.216895 -0.650682,3.361854 v 0"
         id="path3100" /><path
         style="fill:none;stroke:#000000;stroke-width:1;stroke-dasharray:none;stroke-opacity:1"
         d="m 81.660539,57.151534 -3.000365,-2.060493 -1.048319,-4.880113 6.145324,0.289193 0.578384,3.795643"
         id="path3102" /><path
         style="fill:none;stroke:#000000;stroke-width:1;stroke-dasharray:none;stroke-opacity:1"
         d="m 92.505233,61.814752 1.879748,1.048318 -0.75913,-2.205087"
         id="path3104" /><path
         style="fill:none;stroke:#000000;stroke-width:1;stroke-dasharray:none;stroke-opacity:1"
         d="m 83.395689,60.621835 -0.722979,2.205088 1.771301,-1.084469"
         id="path3106" /><ellipse
         style="fill:none;stroke:#000000;stroke-width:1;stroke-dasharray:none;stroke-opacity:1"
         id="path3164"
         cx="88.456551"
         cy="61.56171"
         rx="1.7713"
         ry="1.1567672" /><circle
         style="fill:none;stroke:#000000;stroke-width:1;stroke-dasharray:none;stroke-opacity:1"
         id="path3179"
         cx="90.806229"
         cy="56.826195"
         r="1.0483203" /><circle
         style="fill:none;stroke:#000000;stroke-width:1;stroke-dasharray:none;stroke-opacity:1"
         id="path3179-5"
         cx="86.215309"
         cy="56.898491"
         r="1.0483203" /><ellipse
         style="display:inline;fill:none;stroke:#000000;stroke-width:1;stroke-dasharray:none"
         id="path3207"
         cx="85.20314"
         cy="56.681595"
         rx="2.8196204"
         ry="2.6027265" /><ellipse
         style="display:inline;fill:none;stroke:#000000;stroke-width:1;stroke-dasharray:none"
         id="path3207-6"
         cx="91.962997"
         cy="56.717743"
         rx="2.8196204"
         ry="2.6027265" /><path
         style="display:inline;fill:none;stroke:#000000;stroke-width:1;stroke-dasharray:none"
         d="m 86.323756,54.368062 c 0,0 -0.614532,-2.205088 0.867577,-2.49428 1.482108,-0.289193 3.181109,-1.192917 2.602727,-2.675025 -0.578384,-1.482106 2.494278,1.120619 1.807448,3.181112 -0.686831,2.06049 -1.301363,2.06049 -1.301363,2.06049"
         id="path3248" /><path
         style="display:inline;fill:none;stroke:#000000;stroke-width:1;stroke-dasharray:none"
         d="m 87.878165,55.85017 c 0,0 -0.03615,0.795277 0.686829,0.506085 0.722979,-0.289193 0.722979,-0.289193 0.722979,-0.289193"
         id="path3250" /></g><path
       style="fill:none;stroke:#000000;stroke-width:1;stroke-dasharray:none;stroke-opacity:1"
       d="m 35.913467,50.138269 c 0.06391,0 -0.67737,-2.530557 -1.687039,-3.514665 -1.009666,-0.984104 -2.658361,-2.121577 -3.361296,-2.249384 -0.702931,-0.127804 -1.648695,0 -1.546449,0.613468 0.102242,0.613469 1.750941,1.214157 2.300504,1.789285 0.549566,0.575125 1.060791,0.945763 1.060791,0.945763 0,0 -1.533671,-1.239717 -3.080123,-1.30362 -1.546452,-0.0639 -1.955431,0.166148 -1.776503,0.702933 0.178929,0.536785 3.949204,1.814844 3.949204,1.814844 0,0 -2.14714,-0.536785 -3.43798,-0.242831 -1.29084,0.293953 -2.006553,0.830738 -0.562346,1.572013 1.444207,0.741274 3.757494,0.140586 3.757494,0.140586 0,0 -3.131245,0.626249 -2.939536,2.287727 0.191709,1.661477 2.58168,-1.07357 4.473208,-1.456988 1.891528,-0.383418 2.287726,-0.08946 2.287726,-0.08946 0,0 0.549563,-0.958548 0.562345,-1.009671 z"
       id="path3418"
       inkscape:label="hand_l" /><g
       id="g3467"
       inkscape:label="hand_r"
       style="stroke-width:1;stroke-dasharray:none"><path
         style="fill:none;stroke:#000000;stroke-width:1;stroke-dasharray:none;stroke-opacity:1"
         d="m 141.35336,50.074366 c 0,0 0.35786,-2.12158 1.61036,-3.565787 1.2525,-1.444206 3.01622,-2.543339 4.21759,-2.377191 1.20138,0.166148 0.38342,1.303621 -0.1917,1.584796 -0.57513,0.281173 -2.69671,2.159918 -2.69671,2.159918"
         id="path3420" /><path
         style="fill:none;stroke:#000000;stroke-width:1;stroke-dasharray:none;stroke-opacity:1"
         d="m 144.30568,47.824982 c 0,0 1.23972,-0.869082 2.27495,-1.175816 1.03523,-0.306734 2.2366,-0.396198 2.47943,-0.153366 0.24283,0.242829 0.3962,0.830739 -0.54956,1.09913 -0.94577,0.268393 -3.38686,1.418645 -3.38686,1.418645"
         id="path3422" /><path
         style="fill:none;stroke:#000000;stroke-width:1;stroke-dasharray:none;stroke-opacity:1"
         d="m 145.32793,48.909567 c 0,0 1.2381,-0.33438 2.51235,-0.325342 l 1.37366,0.180708 c 0,0 2.39487,0.930834 -0.009,1.545369 -2.4039,0.614532 -3.69623,0.08133 -3.69623,0.08133"
         id="path3434"
         sodipodi:nodetypes="cccsc" /><path
         style="fill:none;stroke:#000000;stroke-width:1;stroke-dasharray:none;stroke-opacity:1"
         d="m 145.49059,50.427823 c 0,0 2.69311,0.58742 2.68407,1.717077 -0.009,1.129655 -1.16581,0.506085 -1.68093,0.253042 -0.51512,-0.253042 -2.17798,-1.201954 -3.29859,-1.256178 -1.12062,-0.05422 -1.53634,-0.09941 -1.53634,-0.09941"
         id="path3436" /></g><g
       id="g3558"
       inkscape:label="feet"
       style="stroke-width:1;stroke-dasharray:none"><path
         style="fill:none;stroke:#000000;stroke-width:1;stroke-dasharray:none;stroke-opacity:1"
         d="m 77.859376,103.54837 c 0,0 -1.150255,1.04801 -1.226937,4.06423 -0.07668,3.01622 -0.05112,4.08979 1.073568,4.08979 1.124694,0 1.150255,-3.85974 1.150255,-3.85974 0,0 -0.05112,3.04178 1.354744,3.39964 1.405865,0.35785 1.201375,-1.66148 1.201375,-1.66148 l -0.971325,-1.99377 c 0,0 1.687039,3.60412 2.735047,2.60724 1.048009,-0.99689 -2.019333,-3.93642 -2.019333,-3.93642 0,0 2.37719,2.40275 2.658363,1.20137 0.281173,-1.20137 -0.281173,-1.76372 -0.894642,-2.22382 -0.613468,-0.4601 -0.613468,-0.4601 -0.613468,-0.4601 0,0 -1.840406,-1.45699 -2.530558,-1.35475 -0.690152,0.10225 -0.690152,0.10225 -0.690152,0.10225"
         id="path3495" /><path
         style="fill:none;stroke:#000000;stroke-width:1;stroke-dasharray:none;stroke-opacity:1"
         d="m 97.822662,103.54837 c 0,0 -1.09913,-0.12781 -2.479435,0.9202 -1.380304,1.04801 -2.786168,1.81484 -2.070457,3.14403 0.715714,1.32918 2.58168,-1.40587 2.58168,-1.40587 0,0 -3.629686,3.98755 -1.789281,4.01311 1.840406,0.0256 2.760608,-2.68393 2.760608,-2.68393 0,0 -2.326068,3.34852 -0.408979,3.60413 1.917089,0.25561 1.917089,-3.37407 1.917089,-3.37407 0,0 -0.281173,4.0131 1.048009,3.91086 1.329184,-0.10225 1.124694,-3.85974 1.124694,-3.85974 0,0 -0.511225,-3.96199 -1.175816,-4.01311 -0.664591,-0.0511 -0.664591,-0.0511 -0.664591,-0.0511"
         id="path3526" /></g></g></svg>
