%TF.GenerationSoftware,KiCad,Pcbnew,7.0.1*%
%TF.CreationDate,2023-03-26T19:48:43+02:00*%
%TF.ProjectId,SofleUnsplit,536f666c-6555-46e7-9370-6c69742e6b69,rev?*%
%TF.SameCoordinates,Original*%
%TF.FileFunction,Soldermask,Top*%
%TF.FilePolarity,Negative*%
%FSLAX46Y46*%
G04 Gerber Fmt 4.6, Leading zero omitted, Abs format (unit mm)*
G04 Created by KiCad (PCBNEW 7.0.1) date 2023-03-26 19:48:43*
%MOMM*%
%LPD*%
G01*
G04 APERTURE LIST*
%ADD10C,3.200000*%
%ADD11C,2.700000*%
%ADD12C,1.800000*%
%ADD13C,3.000000*%
%ADD14C,3.400000*%
%ADD15C,0.990600*%
%ADD16O,2.500000X1.500000*%
%ADD17O,1.500000X2.500000*%
%ADD18R,1.700000X1.700000*%
%ADD19O,1.700000X1.700000*%
G04 APERTURE END LIST*
D10*
%TO.C,H8*%
X231760000Y-147000000D03*
%TD*%
%TO.C,H7*%
X203760000Y-147000000D03*
%TD*%
%TO.C,H6*%
X232760000Y-99000000D03*
%TD*%
%TO.C,H5*%
X202760000Y-99000000D03*
%TD*%
D11*
%TO.C,H4*%
X325760000Y-122000000D03*
%TD*%
%TO.C,H3*%
X109760000Y-122000000D03*
%TD*%
%TO.C,H2*%
X315760000Y-47000000D03*
%TD*%
%TO.C,H1*%
X119760000Y-47000000D03*
%TD*%
D12*
%TO.C,SW7*%
X108459420Y-91020233D03*
D13*
X107971811Y-94771865D03*
D14*
X113772012Y-92443738D03*
D13*
X112232039Y-98190997D03*
D15*
X119901185Y-89737885D03*
D12*
X119084604Y-93867243D03*
%TD*%
%TO.C,SW10*%
X137234123Y-53178240D03*
D13*
X136746514Y-56929872D03*
D14*
X142546715Y-54601745D03*
D13*
X141006742Y-60349004D03*
D15*
X148675888Y-51895892D03*
D12*
X147859307Y-56025250D03*
%TD*%
%TO.C,SW37*%
X261772133Y-98163533D03*
D13*
X263225667Y-101656345D03*
D14*
X267084725Y-96740028D03*
D13*
X268624698Y-102487287D03*
D15*
X271039818Y-91332104D03*
D12*
X272397317Y-95316523D03*
%TD*%
%TO.C,SW17*%
X146467988Y-88263646D03*
D13*
X145980379Y-92015278D03*
D14*
X151780580Y-89687151D03*
D13*
X150240607Y-95434410D03*
D15*
X157909753Y-86981298D03*
D12*
X157093172Y-91110656D03*
%TD*%
%TO.C,SW47*%
X296545462Y-88846048D03*
D13*
X297998996Y-92338860D03*
D14*
X301858054Y-87422543D03*
D13*
X303398027Y-93169802D03*
D15*
X305813147Y-82014619D03*
D12*
X307170646Y-85999038D03*
%TD*%
%TO.C,SW58*%
X338306906Y-105608560D03*
D13*
X339760440Y-109101372D03*
D14*
X343619498Y-104185055D03*
D13*
X345159471Y-109932314D03*
D15*
X347574591Y-98777131D03*
D12*
X348932090Y-102761550D03*
%TD*%
%TO.C,SW41*%
X274111826Y-74669237D03*
D13*
X275565360Y-78162049D03*
D14*
X279424418Y-73245732D03*
D13*
X280964391Y-78992991D03*
D15*
X283379511Y-67837808D03*
D12*
X284737010Y-71822227D03*
%TD*%
%TO.C,SW18*%
X142068064Y-104684385D03*
D13*
X141580455Y-108436017D03*
D14*
X147380656Y-106107890D03*
D13*
X145840683Y-111855149D03*
D15*
X153509829Y-103402037D03*
D12*
X152693248Y-107531395D03*
%TD*%
%TO.C,SW52*%
X316520318Y-93846563D03*
D13*
X317973852Y-97339375D03*
D14*
X321832910Y-92423058D03*
D13*
X323372883Y-98170317D03*
D15*
X325788003Y-87015134D03*
D12*
X327145502Y-90999553D03*
%TD*%
%TO.C,SW57*%
X333906983Y-89187820D03*
D13*
X335360517Y-92680632D03*
D14*
X339219575Y-87764315D03*
D13*
X340759548Y-93511574D03*
D15*
X343174668Y-82356391D03*
D12*
X344532167Y-86340810D03*
%TD*%
%TO.C,SW15*%
X155267836Y-55422168D03*
D13*
X154780227Y-59173800D03*
D14*
X160580428Y-56845673D03*
D13*
X159040455Y-62592932D03*
D15*
X166709601Y-54139820D03*
D12*
X165893020Y-58269178D03*
%TD*%
%TO.C,SW22*%
X163207606Y-95337204D03*
D13*
X162719997Y-99088836D03*
D14*
X168520198Y-96760709D03*
D13*
X166980225Y-102507968D03*
D15*
X174649371Y-94054856D03*
D12*
X173832790Y-98184214D03*
%TD*%
%TO.C,SW4*%
X86672832Y-102782230D03*
D13*
X86185223Y-106533862D03*
D14*
X91985424Y-104205735D03*
D13*
X90445451Y-109952994D03*
D15*
X98114597Y-101499882D03*
D12*
X97298016Y-105629240D03*
%TD*%
%TO.C,SW49*%
X287311597Y-123931454D03*
D13*
X288765131Y-127424266D03*
D14*
X292624189Y-122507949D03*
D13*
X294164162Y-128255208D03*
D15*
X296579282Y-117100025D03*
D12*
X297936781Y-121084444D03*
%TD*%
D16*
%TO.C,U1*%
X225750000Y-66750000D03*
X225750000Y-69290000D03*
X225750000Y-71830000D03*
X225750000Y-74370000D03*
X225750000Y-76910000D03*
X225750000Y-79450000D03*
X225750000Y-81990000D03*
X225750000Y-84530000D03*
X225750000Y-87070000D03*
D17*
X222710000Y-87570000D03*
X220170000Y-87570000D03*
X217630000Y-87570000D03*
X215090000Y-87570000D03*
X212550000Y-87570000D03*
D16*
X209510000Y-87070000D03*
X209510000Y-84530000D03*
X209510000Y-81990000D03*
X209510000Y-79450000D03*
X209510000Y-76910000D03*
X209510000Y-74370000D03*
X209510000Y-71830000D03*
X209510000Y-69290000D03*
X209510000Y-66750000D03*
%TD*%
D12*
%TO.C,SW43*%
X282911674Y-107510715D03*
D13*
X284365208Y-111003527D03*
D14*
X288224266Y-106087210D03*
D13*
X289764239Y-111834469D03*
D15*
X292179359Y-100679286D03*
D12*
X293536858Y-104663705D03*
%TD*%
%TO.C,SW45*%
X287745615Y-56004570D03*
D13*
X289199149Y-59497382D03*
D14*
X293058207Y-54581065D03*
D13*
X294598180Y-60328324D03*
D15*
X297013300Y-49173141D03*
D12*
X298370799Y-53157560D03*
%TD*%
%TO.C,SW44*%
X270571980Y-131005012D03*
D13*
X272025514Y-134497824D03*
D14*
X275884572Y-129581507D03*
D13*
X277424545Y-135328766D03*
D15*
X279839665Y-124173583D03*
D12*
X281197164Y-128158002D03*
%TD*%
%TO.C,SW23*%
X158807682Y-111757943D03*
D13*
X158320073Y-115509575D03*
D14*
X164120274Y-113181448D03*
D13*
X162580301Y-118928707D03*
D15*
X170249447Y-110475595D03*
D12*
X169432866Y-114604953D03*
%TD*%
%TO.C,SW42*%
X278511750Y-91089976D03*
D13*
X279965284Y-94582788D03*
D14*
X283824342Y-89666471D03*
D13*
X285364315Y-95413730D03*
D15*
X287779435Y-84258547D03*
D12*
X289136934Y-88242966D03*
%TD*%
%TO.C,SW28*%
X175547299Y-118831500D03*
D13*
X175059690Y-122583132D03*
D14*
X180859891Y-120255005D03*
D13*
X179319918Y-126002264D03*
D15*
X186989064Y-117549152D03*
D12*
X186172483Y-121678510D03*
%TD*%
%TO.C,SW34*%
X238347258Y-157332469D03*
D13*
X241352462Y-159630566D03*
D14*
X242236345Y-153443382D03*
D13*
X246443630Y-157650667D03*
D15*
X242957594Y-146782436D03*
D12*
X246125432Y-149554295D03*
%TD*%
D18*
%TO.C,J1*%
X213310000Y-97770000D03*
D19*
X215850000Y-97770000D03*
X218390000Y-97770000D03*
X220930000Y-97770000D03*
X223470000Y-97770000D03*
%TD*%
D12*
%TO.C,SW33*%
X249432439Y-121657830D03*
D13*
X250885973Y-125150642D03*
D14*
X254745031Y-120234325D03*
D13*
X256285004Y-125981584D03*
D15*
X258700124Y-114826401D03*
D12*
X260057623Y-118810820D03*
%TD*%
%TO.C,SW36*%
X257372209Y-81742794D03*
D13*
X258825743Y-85235606D03*
D14*
X262684801Y-80319289D03*
D13*
X264224774Y-86066548D03*
D15*
X266639894Y-74911365D03*
D12*
X267997393Y-78895784D03*
%TD*%
%TO.C,SW48*%
X300945386Y-105266787D03*
D13*
X302398920Y-108759599D03*
D14*
X306257978Y-103843282D03*
D13*
X307797951Y-109590541D03*
D15*
X310213071Y-98435358D03*
D12*
X311570570Y-102419777D03*
%TD*%
%TO.C,SW27*%
X179947223Y-102410761D03*
D13*
X179459614Y-106162393D03*
D14*
X185259815Y-103834266D03*
D13*
X183719842Y-109581525D03*
D15*
X191388988Y-101128413D03*
D12*
X190572407Y-105257771D03*
%TD*%
%TO.C,SW1*%
X99872603Y-53520012D03*
D13*
X99384994Y-57271644D03*
D14*
X105185195Y-54943517D03*
D13*
X103645222Y-60690776D03*
D15*
X111314368Y-52237664D03*
D12*
X110497787Y-56367022D03*
%TD*%
%TO.C,SW35*%
X252972285Y-65322055D03*
D13*
X254425819Y-68814867D03*
D14*
X258284877Y-63898550D03*
D13*
X259824850Y-69645809D03*
D15*
X262239970Y-58490626D03*
D12*
X263597469Y-62475045D03*
%TD*%
%TO.C,SW38*%
X266172056Y-114584273D03*
D13*
X267625590Y-118077085D03*
D14*
X271484648Y-113160768D03*
D13*
X273024621Y-118908027D03*
D15*
X275439741Y-107752844D03*
D12*
X276797240Y-111737263D03*
%TD*%
%TO.C,SW5*%
X117259268Y-58178755D03*
D13*
X116771659Y-61930387D03*
D14*
X122571860Y-59602260D03*
D13*
X121031887Y-65349519D03*
D15*
X128701033Y-56896407D03*
D12*
X127884452Y-61025765D03*
%TD*%
%TO.C,SW12*%
X128434276Y-86019718D03*
D13*
X127946667Y-89771350D03*
D14*
X133746868Y-87443223D03*
D13*
X132206895Y-93190482D03*
D15*
X139876041Y-84737370D03*
D12*
X139059460Y-88866728D03*
%TD*%
%TO.C,SW50*%
X307720470Y-61005085D03*
D13*
X309174004Y-64497897D03*
D14*
X313033062Y-59581580D03*
D13*
X314573035Y-65328839D03*
D15*
X316988155Y-54173656D03*
D12*
X318345654Y-58158075D03*
%TD*%
%TO.C,SW16*%
X150867912Y-71842907D03*
D13*
X150380303Y-75594539D03*
D14*
X156180504Y-73266412D03*
D13*
X154640531Y-79013671D03*
D15*
X162309677Y-70560559D03*
D12*
X161493096Y-74689917D03*
%TD*%
%TO.C,SW32*%
X245032515Y-105237091D03*
D13*
X246486049Y-108729903D03*
D14*
X250345107Y-103813586D03*
D13*
X251885080Y-109560845D03*
D15*
X254300200Y-98405662D03*
D12*
X255657699Y-102390081D03*
%TD*%
%TO.C,SW8*%
X104059497Y-107440972D03*
D13*
X103571888Y-111192604D03*
D14*
X109372089Y-108864477D03*
D13*
X107832116Y-114611736D03*
D15*
X115501262Y-106158624D03*
D12*
X114684681Y-110287982D03*
%TD*%
%TO.C,SW40*%
X269711902Y-58248498D03*
D13*
X271165436Y-61741310D03*
D14*
X275024494Y-56824993D03*
D13*
X276564467Y-62572252D03*
D15*
X278979587Y-51417069D03*
D12*
X280337086Y-55401488D03*
%TD*%
%TO.C,SW14*%
X137668141Y-121105124D03*
D13*
X137180532Y-124856756D03*
D14*
X142980733Y-122528629D03*
D13*
X141440760Y-128275888D03*
D15*
X149109906Y-119822776D03*
D12*
X148293325Y-123952134D03*
%TD*%
%TO.C,SW54*%
X305345310Y-121687526D03*
D13*
X306798844Y-125180338D03*
D14*
X310657902Y-120264021D03*
D13*
X312197875Y-126011280D03*
D15*
X314612995Y-114856097D03*
D12*
X315970494Y-118840516D03*
%TD*%
%TO.C,SW29*%
X189532760Y-149576108D03*
D13*
X187234663Y-152581312D03*
D14*
X193421847Y-153465195D03*
D13*
X189214562Y-157672480D03*
D15*
X200082793Y-154186444D03*
D12*
X197310934Y-157354282D03*
%TD*%
%TO.C,SW30*%
X236232668Y-72383505D03*
D13*
X237686202Y-75876317D03*
D14*
X241545260Y-70960000D03*
D13*
X243085233Y-76707259D03*
D15*
X245500353Y-65552076D03*
D12*
X246857852Y-69536495D03*
%TD*%
%TO.C,SW26*%
X184347147Y-85990022D03*
D13*
X183859538Y-89741654D03*
D14*
X189659739Y-87413527D03*
D13*
X188119766Y-93160786D03*
D15*
X195788912Y-84707674D03*
D12*
X194972331Y-88837032D03*
%TD*%
%TO.C,SW21*%
X167607529Y-78916464D03*
D13*
X167119920Y-82668096D03*
D14*
X172920121Y-80339969D03*
D13*
X171380148Y-86087228D03*
D15*
X179049294Y-77634116D03*
D12*
X178232713Y-81763474D03*
%TD*%
%TO.C,SW9*%
X119634428Y-118861196D03*
D13*
X119146819Y-122612828D03*
D14*
X124947020Y-120284701D03*
D13*
X123407047Y-126031960D03*
D15*
X131076193Y-117578848D03*
D12*
X130259612Y-121708206D03*
%TD*%
%TO.C,SW24*%
X174188793Y-137039996D03*
D13*
X172331304Y-140335787D03*
D14*
X178581288Y-140349979D03*
D13*
X175000489Y-145101860D03*
D15*
X185277788Y-140137184D03*
D12*
X182973783Y-143659962D03*
%TD*%
%TO.C,SW6*%
X112859344Y-74599494D03*
D13*
X112371735Y-78351126D03*
D14*
X118171936Y-76022999D03*
D13*
X116631963Y-81770258D03*
D15*
X124301109Y-73317146D03*
D12*
X123484528Y-77446504D03*
%TD*%
%TO.C,SW2*%
X95472679Y-69940751D03*
D13*
X94985070Y-73692383D03*
D14*
X100785271Y-71364256D03*
D13*
X99245298Y-77111515D03*
D15*
X106914444Y-68658403D03*
D12*
X106097863Y-72787761D03*
%TD*%
%TO.C,SW25*%
X188747070Y-69569283D03*
D13*
X188259461Y-73320915D03*
D14*
X194059662Y-70992788D03*
D13*
X192519689Y-76740047D03*
D15*
X200188835Y-68286935D03*
D12*
X199372254Y-72416293D03*
%TD*%
%TO.C,SW13*%
X124034352Y-102440457D03*
D13*
X123546743Y-106192089D03*
D14*
X129346944Y-103863962D03*
D13*
X127806971Y-109611221D03*
D15*
X135476117Y-101158109D03*
D12*
X134659536Y-105287467D03*
%TD*%
%TO.C,SW55*%
X325107135Y-56346342D03*
D13*
X326560669Y-59839154D03*
D14*
X330419727Y-54922837D03*
D13*
X331959700Y-60670096D03*
D15*
X334374820Y-49514913D03*
D12*
X335732319Y-53499332D03*
%TD*%
%TO.C,SW20*%
X172007453Y-62495725D03*
D13*
X171519844Y-66247357D03*
D14*
X177320045Y-63919230D03*
D13*
X175780072Y-69666489D03*
D15*
X183449218Y-61213377D03*
D12*
X182632637Y-65342735D03*
%TD*%
%TO.C,SW11*%
X132834200Y-69598979D03*
D13*
X132346591Y-73350611D03*
D14*
X138146792Y-71022484D03*
D13*
X136606819Y-76769743D03*
D15*
X144275965Y-68316631D03*
D12*
X143459384Y-72445989D03*
%TD*%
%TO.C,SW56*%
X329507059Y-72767081D03*
D13*
X330960593Y-76259893D03*
D14*
X334819651Y-71343576D03*
D13*
X336359624Y-77090835D03*
D15*
X338774744Y-65935652D03*
D12*
X340132243Y-69920071D03*
%TD*%
%TO.C,SW39*%
X252631140Y-143639282D03*
D13*
X255287264Y-146333257D03*
D14*
X257023635Y-140329299D03*
D13*
X260604434Y-145081180D03*
D15*
X258664889Y-133833555D03*
D12*
X261416130Y-137019316D03*
%TD*%
%TO.C,SW51*%
X312120394Y-77425824D03*
D13*
X313573928Y-80918636D03*
D14*
X317432986Y-76002319D03*
D13*
X318972959Y-81749578D03*
D15*
X321388079Y-70594395D03*
D12*
X322745578Y-74578814D03*
%TD*%
%TO.C,SW53*%
X320920241Y-110267302D03*
D13*
X322373775Y-113760114D03*
D14*
X326232833Y-108843797D03*
D13*
X327772806Y-114591056D03*
D15*
X330187926Y-103435873D03*
D12*
X331545425Y-107420292D03*
%TD*%
%TO.C,SW19*%
X154407758Y-128178682D03*
D13*
X153920149Y-131930314D03*
D14*
X159720350Y-129602187D03*
D13*
X158180377Y-135349446D03*
D15*
X165849523Y-126896334D03*
D12*
X165032942Y-131025692D03*
%TD*%
%TO.C,SW31*%
X240632592Y-88816352D03*
D13*
X242086126Y-92309164D03*
D14*
X245945184Y-87392847D03*
D13*
X247485157Y-93140106D03*
D15*
X249900277Y-81984923D03*
D12*
X251257776Y-85969342D03*
%TD*%
%TO.C,SW3*%
X91072756Y-86361491D03*
D13*
X90585147Y-90113123D03*
D14*
X96385348Y-87784996D03*
D13*
X94845375Y-93532255D03*
D15*
X102514521Y-85079143D03*
D12*
X101697940Y-89208501D03*
%TD*%
%TO.C,SW46*%
X292145539Y-72425309D03*
D13*
X293599073Y-75918121D03*
D14*
X297458131Y-71001804D03*
D13*
X298998104Y-76749063D03*
D15*
X301413224Y-65593880D03*
D12*
X302770723Y-69578299D03*
%TD*%
M02*
