%TF.GenerationSoftware,KiCad,Pcbnew,7.0.1*%
%TF.CreationDate,2023-03-26T19:54:03+02:00*%
%TF.ProjectId,SofleUnsplit,536f666c-6555-46e7-9370-6c69742e6b69,rev?*%
%TF.SameCoordinates,Original*%
%TF.FileFunction,Paste,Bot*%
%TF.FilePolarity,Positive*%
%FSLAX46Y46*%
G04 Gerber Fmt 4.6, Leading zero omitted, Abs format (unit mm)*
G04 Created by KiCad (PCBNEW 7.0.1) date 2023-03-26 19:54:03*
%MOMM*%
%LPD*%
G01*
G04 APERTURE LIST*
G04 Aperture macros list*
%AMRoundRect*
0 Rectangle with rounded corners*
0 $1 Rounding radius*
0 $2 $3 $4 $5 $6 $7 $8 $9 X,Y pos of 4 corners*
0 Add a 4 corners polygon primitive as box body*
4,1,4,$2,$3,$4,$5,$6,$7,$8,$9,$2,$3,0*
0 Add four circle primitives for the rounded corners*
1,1,$1+$1,$2,$3*
1,1,$1+$1,$4,$5*
1,1,$1+$1,$6,$7*
1,1,$1+$1,$8,$9*
0 Add four rect primitives between the rounded corners*
20,1,$1+$1,$2,$3,$4,$5,0*
20,1,$1+$1,$4,$5,$6,$7,0*
20,1,$1+$1,$6,$7,$8,$9,0*
20,1,$1+$1,$8,$9,$2,$3,0*%
%AMRotRect*
0 Rectangle, with rotation*
0 The origin of the aperture is its center*
0 $1 length*
0 $2 width*
0 $3 Rotation angle, in degrees counterclockwise*
0 Add horizontal line*
21,1,$1,$2,0,0,$3*%
G04 Aperture macros list end*
%ADD10RotRect,2.600000X2.600000X345.000000*%
%ADD11RotRect,2.600000X2.600000X15.000000*%
%ADD12RotRect,2.600000X2.600000X45.000000*%
%ADD13RotRect,2.600000X2.600000X315.000000*%
%ADD14RotRect,2.600000X2.600000X323.000000*%
%ADD15RotRect,2.600000X2.600000X37.000000*%
%ADD16RoundRect,0.250000X-0.212132X0.367423X-0.367423X-0.212132X0.212132X-0.367423X0.367423X0.212132X0*%
%ADD17RoundRect,0.250000X-0.367423X0.212132X-0.212132X-0.367423X0.367423X-0.212132X0.212132X0.367423X0*%
G04 APERTURE END LIST*
D10*
%TO.C,SW7*%
X115395446Y-99038629D03*
X104808404Y-93924232D03*
%TD*%
%TO.C,SW10*%
X144170149Y-61196636D03*
X133583107Y-56082239D03*
%TD*%
D11*
%TO.C,SW37*%
X271788105Y-101639654D03*
X260062260Y-102503977D03*
%TD*%
D10*
%TO.C,SW17*%
X153404014Y-96282042D03*
X142816972Y-91167645D03*
%TD*%
D11*
%TO.C,SW47*%
X306561434Y-92322169D03*
X294835589Y-93186492D03*
%TD*%
%TO.C,SW58*%
X348322878Y-109084681D03*
X336597033Y-109949004D03*
%TD*%
%TO.C,SW41*%
X284127798Y-78145358D03*
X272401953Y-79009681D03*
%TD*%
D10*
%TO.C,SW18*%
X149004090Y-112702781D03*
X138417048Y-107588384D03*
%TD*%
D11*
%TO.C,SW52*%
X326536290Y-97322684D03*
X314810445Y-98187007D03*
%TD*%
%TO.C,SW57*%
X343922955Y-92663941D03*
X332197110Y-93528264D03*
%TD*%
D10*
%TO.C,SW15*%
X162203862Y-63440564D03*
X151616820Y-58326167D03*
%TD*%
%TO.C,SW22*%
X170143632Y-103355600D03*
X159556590Y-98241203D03*
%TD*%
%TO.C,SW4*%
X93608858Y-110800626D03*
X83021816Y-105686229D03*
%TD*%
D11*
%TO.C,SW49*%
X297327569Y-127407575D03*
X285601724Y-128271898D03*
%TD*%
%TO.C,SW43*%
X292927646Y-110986836D03*
X281201801Y-111851159D03*
%TD*%
%TO.C,SW45*%
X297761587Y-59480691D03*
X286035742Y-60345014D03*
%TD*%
%TO.C,SW44*%
X280587952Y-134481133D03*
X268862107Y-135345456D03*
%TD*%
D10*
%TO.C,SW23*%
X165743708Y-119776339D03*
X155156666Y-114661942D03*
%TD*%
D11*
%TO.C,SW42*%
X288527722Y-94566097D03*
X276801877Y-95430420D03*
%TD*%
D10*
%TO.C,SW28*%
X182483325Y-126849896D03*
X171896283Y-121735499D03*
%TD*%
D12*
%TO.C,SW34*%
X248759405Y-155334893D03*
X239036687Y-161946341D03*
%TD*%
D11*
%TO.C,SW33*%
X259448411Y-125133951D03*
X247722566Y-125998274D03*
%TD*%
%TO.C,SW36*%
X267388181Y-85218915D03*
X255662336Y-86083238D03*
%TD*%
%TO.C,SW48*%
X310961358Y-108742908D03*
X299235513Y-109607231D03*
%TD*%
D10*
%TO.C,SW27*%
X186883249Y-110429157D03*
X176296207Y-105314760D03*
%TD*%
%TO.C,SW1*%
X106808629Y-61538408D03*
X96221587Y-56424011D03*
%TD*%
D11*
%TO.C,SW35*%
X262988257Y-68798176D03*
X251262412Y-69662499D03*
%TD*%
%TO.C,SW38*%
X276188028Y-118060394D03*
X264462183Y-118924717D03*
%TD*%
D10*
%TO.C,SW5*%
X124195294Y-66197151D03*
X113608252Y-61082754D03*
%TD*%
%TO.C,SW12*%
X135370302Y-94038114D03*
X124783260Y-88923717D03*
%TD*%
D11*
%TO.C,SW50*%
X317736442Y-64481206D03*
X306010597Y-65345529D03*
%TD*%
D10*
%TO.C,SW16*%
X157803938Y-79861303D03*
X147216896Y-74746906D03*
%TD*%
D11*
%TO.C,SW32*%
X255048487Y-108713212D03*
X243322642Y-109577535D03*
%TD*%
D10*
%TO.C,SW8*%
X110995523Y-115459368D03*
X100408481Y-110344971D03*
%TD*%
D11*
%TO.C,SW40*%
X279727874Y-61724619D03*
X268002029Y-62588942D03*
%TD*%
D10*
%TO.C,SW14*%
X144604167Y-129123520D03*
X134017125Y-124009123D03*
%TD*%
D11*
%TO.C,SW54*%
X315361282Y-125163647D03*
X303635437Y-126027970D03*
%TD*%
D13*
%TO.C,SW29*%
X191530336Y-159988255D03*
X184918888Y-150265537D03*
%TD*%
D11*
%TO.C,SW30*%
X246248640Y-75859626D03*
X234522795Y-76723949D03*
%TD*%
D10*
%TO.C,SW26*%
X191283173Y-94008418D03*
X180696131Y-88894021D03*
%TD*%
%TO.C,SW21*%
X174543555Y-86934860D03*
X163956513Y-81820463D03*
%TD*%
%TO.C,SW9*%
X126570454Y-126879592D03*
X115983412Y-121765195D03*
%TD*%
D14*
%TO.C,SW24*%
X177616020Y-147072804D03*
X169715773Y-138364843D03*
%TD*%
D10*
%TO.C,SW6*%
X119795370Y-82617890D03*
X109208328Y-77503493D03*
%TD*%
%TO.C,SW2*%
X102408705Y-77959147D03*
X91821663Y-72844750D03*
%TD*%
%TO.C,SW25*%
X195683096Y-77587679D03*
X185096054Y-72473282D03*
%TD*%
%TO.C,SW13*%
X130970378Y-110458853D03*
X120383336Y-105344456D03*
%TD*%
D11*
%TO.C,SW55*%
X335123107Y-59822463D03*
X323397262Y-60686786D03*
%TD*%
D10*
%TO.C,SW20*%
X178943479Y-70514121D03*
X168356437Y-65399724D03*
%TD*%
%TO.C,SW11*%
X139770226Y-77617375D03*
X129183184Y-72502978D03*
%TD*%
D11*
%TO.C,SW56*%
X339523031Y-76243202D03*
X327797186Y-77107525D03*
%TD*%
D15*
%TO.C,SW39*%
X263219966Y-143110236D03*
X252671732Y-148304201D03*
%TD*%
D11*
%TO.C,SW51*%
X322136366Y-80901945D03*
X310410521Y-81766268D03*
%TD*%
%TO.C,SW53*%
X330936213Y-113743423D03*
X319210368Y-114607746D03*
%TD*%
D10*
%TO.C,SW19*%
X161343784Y-136197078D03*
X150756742Y-131082681D03*
%TD*%
D11*
%TO.C,SW31*%
X250648564Y-92292473D03*
X238922719Y-93156796D03*
%TD*%
D10*
%TO.C,SW3*%
X98008782Y-94379887D03*
X87421740Y-89265490D03*
%TD*%
D11*
%TO.C,SW46*%
X302161511Y-75901430D03*
X290435666Y-76765753D03*
%TD*%
D16*
%TO.C,D27*%
X178122162Y-98481970D03*
X177397468Y-101186562D03*
%TD*%
D17*
%TO.C,D45*%
X283817653Y-51897704D03*
X284542347Y-54602296D03*
%TD*%
%TO.C,D58*%
X334257151Y-101832759D03*
X334981845Y-104537351D03*
%TD*%
%TO.C,D46*%
X288095784Y-68649508D03*
X288820478Y-71354100D03*
%TD*%
%TO.C,D50*%
X303670715Y-57229284D03*
X304395409Y-59933876D03*
%TD*%
%TO.C,D35*%
X248922530Y-61546254D03*
X249647224Y-64250846D03*
%TD*%
D16*
%TO.C,D21*%
X165782468Y-74987673D03*
X165057774Y-77692265D03*
%TD*%
D17*
%TO.C,D34*%
X233927653Y-152947704D03*
X234652347Y-155652296D03*
%TD*%
D16*
%TO.C,D19*%
X152582697Y-124249891D03*
X151858003Y-126954483D03*
%TD*%
%TO.C,D29*%
X187172347Y-143977704D03*
X186447653Y-146682296D03*
%TD*%
%TO.C,D23*%
X156982621Y-107829152D03*
X156257927Y-110533744D03*
%TD*%
D17*
%TO.C,D57*%
X329857228Y-85412019D03*
X330581922Y-88116611D03*
%TD*%
D16*
%TO.C,D13*%
X122209291Y-98511666D03*
X121484597Y-101216258D03*
%TD*%
%TO.C,D1*%
X98047542Y-49591221D03*
X97322848Y-52295813D03*
%TD*%
%TO.C,D18*%
X140243003Y-100755594D03*
X139518309Y-103460186D03*
%TD*%
%TO.C,D11*%
X131009139Y-65670188D03*
X130284445Y-68374780D03*
%TD*%
D17*
%TO.C,D52*%
X312470563Y-90070762D03*
X313195257Y-92775354D03*
%TD*%
%TO.C,D33*%
X245382684Y-117882029D03*
X246107378Y-120586621D03*
%TD*%
D16*
%TO.C,D25*%
X186922009Y-65640492D03*
X186197315Y-68345084D03*
%TD*%
%TO.C,D17*%
X144642927Y-84334855D03*
X143918233Y-87039447D03*
%TD*%
D17*
%TO.C,D39*%
X248977653Y-140767704D03*
X249702347Y-143472296D03*
%TD*%
D16*
%TO.C,D15*%
X153442775Y-51493377D03*
X152718081Y-54197969D03*
%TD*%
%TO.C,D20*%
X170182392Y-58566934D03*
X169457698Y-61271526D03*
%TD*%
D17*
%TO.C,D31*%
X236582837Y-85040551D03*
X237307531Y-87745143D03*
%TD*%
D16*
%TO.C,D5*%
X115434207Y-54249964D03*
X114709513Y-56954556D03*
%TD*%
D17*
%TO.C,D41*%
X270062071Y-70893436D03*
X270786765Y-73598028D03*
%TD*%
D16*
%TO.C,D10*%
X135409062Y-49249449D03*
X134684368Y-51954041D03*
%TD*%
%TO.C,D16*%
X149042851Y-67914116D03*
X148318157Y-70618708D03*
%TD*%
D17*
%TO.C,D44*%
X266522225Y-127229211D03*
X267246919Y-129933803D03*
%TD*%
D16*
%TO.C,D22*%
X161382545Y-91408413D03*
X160657851Y-94113005D03*
%TD*%
%TO.C,D9*%
X117809367Y-114932405D03*
X117084673Y-117636997D03*
%TD*%
D17*
%TO.C,D48*%
X296895631Y-101490986D03*
X297620325Y-104195578D03*
%TD*%
%TO.C,D32*%
X240982760Y-101461290D03*
X241707454Y-104165882D03*
%TD*%
%TO.C,D54*%
X301295555Y-117911725D03*
X302020249Y-120616317D03*
%TD*%
%TO.C,D55*%
X321167653Y-52487704D03*
X321892347Y-55192296D03*
%TD*%
D16*
%TO.C,D28*%
X173722238Y-114902709D03*
X172997544Y-117607301D03*
%TD*%
%TO.C,D7*%
X106634359Y-87091442D03*
X105909665Y-89796034D03*
%TD*%
D17*
%TO.C,D56*%
X325457304Y-68991280D03*
X326181998Y-71695872D03*
%TD*%
%TO.C,D38*%
X262122301Y-110808472D03*
X262846995Y-113513064D03*
%TD*%
%TO.C,D37*%
X257722378Y-94387732D03*
X258447072Y-97092324D03*
%TD*%
D16*
%TO.C,D3*%
X89247695Y-82432700D03*
X88523001Y-85137292D03*
%TD*%
D17*
%TO.C,D53*%
X316870486Y-106491501D03*
X317595180Y-109196093D03*
%TD*%
%TO.C,D42*%
X274461995Y-87314175D03*
X275186689Y-90018767D03*
%TD*%
%TO.C,D30*%
X232182913Y-68607704D03*
X232907607Y-71312296D03*
%TD*%
%TO.C,D51*%
X308070639Y-73650023D03*
X308795333Y-76354615D03*
%TD*%
%TO.C,D43*%
X278861919Y-103734914D03*
X279586613Y-106439506D03*
%TD*%
D16*
%TO.C,D4*%
X84847771Y-98853439D03*
X84123077Y-101558031D03*
%TD*%
%TO.C,D14*%
X135843080Y-117176333D03*
X135118386Y-119880925D03*
%TD*%
D17*
%TO.C,D49*%
X283261842Y-120155653D03*
X283986536Y-122860245D03*
%TD*%
D16*
%TO.C,D6*%
X111034283Y-70670703D03*
X110309589Y-73375295D03*
%TD*%
%TO.C,D2*%
X93647618Y-66011960D03*
X92922924Y-68716552D03*
%TD*%
%TO.C,D12*%
X126609215Y-82090927D03*
X125884521Y-84795519D03*
%TD*%
%TO.C,D26*%
X182522086Y-82061231D03*
X181797392Y-84765823D03*
%TD*%
%TO.C,D24*%
X171422347Y-132377704D03*
X170697653Y-135082296D03*
%TD*%
D17*
%TO.C,D40*%
X265662147Y-54472697D03*
X266386841Y-57177289D03*
%TD*%
%TO.C,D36*%
X253322454Y-77966993D03*
X254047148Y-80671585D03*
%TD*%
%TO.C,D47*%
X292495707Y-85070247D03*
X293220401Y-87774839D03*
%TD*%
D16*
%TO.C,D8*%
X102234436Y-103512181D03*
X101509742Y-106216773D03*
%TD*%
M02*
