%TF.GenerationSoftware,KiCad,Pcbnew,7.0.1*%
%TF.CreationDate,2023-03-27T14:53:36+02:00*%
%TF.ProjectId,SofleUnsplit,536f666c-6555-46e7-9370-6c69742e6b69,rev?*%
%TF.SameCoordinates,Original*%
%TF.FileFunction,Profile,NP*%
%FSLAX46Y46*%
G04 Gerber Fmt 4.6, Leading zero omitted, Abs format (unit mm)*
G04 Created by KiCad (PCBNEW 7.0.1) date 2023-03-27 14:53:36*
%MOMM*%
%LPD*%
G01*
G04 APERTURE LIST*
%TA.AperFunction,Profile*%
%ADD10C,0.200000*%
%TD*%
G04 APERTURE END LIST*
D10*
X271963572Y-47677038D02*
X266673373Y-49305817D01*
X212289578Y-64548404D02*
G75*
G03*
X212089609Y-64348422I-199978J4D01*
G01*
X153429791Y-138718957D02*
X156526232Y-139613149D01*
X108078612Y-41693197D02*
X116510603Y-41969497D01*
X212289704Y-65648124D02*
X212291437Y-85634502D01*
X172124131Y-147835721D02*
X177117930Y-151991630D01*
X248689237Y-161151469D02*
X244208192Y-165783938D01*
X78517093Y-111360031D02*
X80248130Y-112942258D01*
X339686963Y-44734032D02*
X358214479Y-107073506D01*
X223134222Y-65648124D02*
X223134317Y-64548404D01*
X241686963Y-166134032D02*
X231177296Y-162214443D01*
X277062470Y-46419180D02*
X271963572Y-47677038D01*
X138007379Y-134927953D02*
X142306497Y-135975377D01*
X301959192Y-133777368D02*
X297416547Y-134927953D01*
X248836022Y-56711448D02*
X241967077Y-59951083D01*
X222732455Y-86034468D02*
X217711963Y-86034032D01*
X253402956Y-156518570D02*
X248689237Y-161151469D01*
X158361456Y-46419180D02*
X163460354Y-47677038D01*
X268287367Y-144345441D02*
X263299795Y-147835721D01*
X207741026Y-161584046D02*
G75*
G03*
X204246630Y-162214444I-26J-10000054D01*
G01*
X124186494Y-42395848D02*
X131113700Y-42913663D01*
X95778113Y-121123011D02*
X104677311Y-124794865D01*
X142306497Y-135975377D02*
X146322059Y-136937645D01*
X231177297Y-162214439D02*
G75*
G03*
X227682900Y-161584032I-3494397J-9369661D01*
G01*
X297416547Y-134927953D02*
X293117429Y-135975377D01*
X347801002Y-117169440D02*
X343819037Y-119180849D01*
X351587868Y-115089629D02*
X347801002Y-117169440D01*
X327345314Y-41693197D02*
X318913323Y-41969497D01*
X339399365Y-43766586D02*
G75*
G03*
X336538897Y-41621269I-2875665J-854614D01*
G01*
X212291432Y-85634502D02*
G75*
G03*
X212691471Y-86034468I399968J2D01*
G01*
X193456849Y-59951083D02*
X200908089Y-63505723D01*
X131113700Y-42913663D02*
X137356650Y-43472439D01*
X358045734Y-109847931D02*
X356906833Y-111360031D01*
X180230702Y-53829211D02*
X186587904Y-56711448D01*
X191215762Y-165783900D02*
G75*
G03*
X193736963Y-166134031I1584938J2160400D01*
G01*
X200908080Y-63505741D02*
G75*
G03*
X204967272Y-64384226I3881920J8119741D01*
G01*
X204967272Y-64384226D02*
X206785189Y-64348422D01*
X321269171Y-128158002D02*
X311516596Y-131167299D01*
X255193224Y-53829211D02*
X248836022Y-56711448D01*
X77378192Y-109847931D02*
X78517093Y-111360031D01*
X150035386Y-137842424D02*
X153429791Y-138718957D01*
X318913323Y-41969497D02*
X311237432Y-42395848D01*
X241686971Y-166134010D02*
G75*
G03*
X244208192Y-165783938I936329J2510510D01*
G01*
X177117930Y-151991630D02*
X182020970Y-156518570D01*
X230456654Y-64384217D02*
G75*
G03*
X234515837Y-63505723I177246J8998217D01*
G01*
X153362829Y-45457039D02*
X158361456Y-46419180D01*
X116510603Y-41969497D02*
X124186494Y-42395848D01*
X230456654Y-64384226D02*
X228638737Y-64348422D01*
X336538897Y-41621269D02*
X327345314Y-41693197D01*
X278897694Y-139613149D02*
X276040567Y-140575215D01*
X186734689Y-161151469D02*
X191215734Y-165783938D01*
X273362495Y-141654359D02*
X270799213Y-142900542D01*
X311516596Y-131167299D02*
X301959192Y-133777368D01*
X137356650Y-43472439D02*
X143037563Y-44063293D01*
X77209447Y-107073506D02*
X76950000Y-108420000D01*
X174312582Y-51348106D02*
X180230702Y-53829211D01*
X282061097Y-45457039D02*
X277062470Y-46419180D01*
X167136559Y-144345441D02*
X172124131Y-147835721D01*
X104677311Y-124794865D02*
X114154755Y-128158002D01*
X114154755Y-128158002D02*
X123907330Y-131167299D01*
X143037563Y-44063293D02*
X148310801Y-44699925D01*
X227682900Y-161584032D02*
X217711963Y-161584032D01*
X356906833Y-111360031D02*
X355175796Y-112942258D01*
X162061431Y-141654359D02*
X164624713Y-142900542D01*
X98885029Y-41621228D02*
G75*
G03*
X96024498Y-43766567I15171J-2999972D01*
G01*
X76950000Y-108420000D02*
X77378192Y-109847931D01*
X287113125Y-44699925D02*
X282061097Y-45457039D01*
X80248130Y-112942258D02*
X83836058Y-115089629D01*
X164624713Y-142900542D02*
X167136559Y-144345441D01*
X87622924Y-117169440D02*
X91604889Y-119180849D01*
X182020970Y-156518570D02*
X186734689Y-161151469D01*
X207741026Y-161584032D02*
X217711963Y-161584032D01*
X168750553Y-49305817D02*
X174312582Y-51348106D01*
X186587904Y-56711448D02*
X193456849Y-59951083D01*
X212691471Y-86034468D02*
X217711963Y-86034032D01*
X83836058Y-115089629D02*
X87622924Y-117169440D01*
X222732455Y-86034489D02*
G75*
G03*
X223132489Y-85634502I45J399989D01*
G01*
X159383359Y-140575215D02*
X162061431Y-141654359D01*
X263299795Y-147835721D02*
X258305996Y-151991630D01*
X148310801Y-44699925D02*
X153362829Y-45457039D01*
X285388540Y-137842424D02*
X281994135Y-138718957D01*
X241967077Y-59951083D02*
X234515837Y-63505723D01*
X163460354Y-47677038D02*
X168750553Y-49305817D01*
X343819037Y-119180849D02*
X339645813Y-121123011D01*
X133464734Y-133777368D02*
X138007379Y-134927953D01*
X193736963Y-166134032D02*
X204246630Y-162214443D01*
X358214479Y-107073506D02*
X358473926Y-108420000D01*
X266673373Y-49305817D02*
X261111344Y-51348106D01*
X223334317Y-64348422D02*
X228638737Y-64348422D01*
X339686963Y-44734032D02*
X339399429Y-43766567D01*
X355175796Y-112942258D02*
X351587868Y-115089629D01*
X298067276Y-43472439D02*
X292386363Y-44063293D01*
X258305996Y-151991630D02*
X253402956Y-156518570D01*
X212089609Y-64348422D02*
X206785189Y-64348422D01*
X123907330Y-131167299D02*
X133464734Y-133777368D01*
X91604889Y-119180849D02*
X95778113Y-121123011D01*
X339645813Y-121123011D02*
X330746615Y-124794865D01*
X293117429Y-135975377D02*
X289101867Y-136937645D01*
X95736963Y-44734032D02*
X96024497Y-43766567D01*
X311237432Y-42395848D02*
X304310226Y-42913663D01*
X223334317Y-64348417D02*
G75*
G03*
X223134317Y-64548404I-17J-199983D01*
G01*
X146322059Y-136937645D02*
X150035386Y-137842424D01*
X289101867Y-136937645D02*
X285388540Y-137842424D01*
X261111344Y-51348106D02*
X255193224Y-53829211D01*
X95736963Y-44734032D02*
X77209447Y-107073506D01*
X304310226Y-42913663D02*
X298067276Y-43472439D01*
X98885029Y-41621269D02*
X108078612Y-41693197D01*
X270799213Y-142900542D02*
X268287367Y-144345441D01*
X156526232Y-139613149D02*
X159383359Y-140575215D01*
X223134222Y-65648124D02*
X223132489Y-85634502D01*
X330746615Y-124794865D02*
X321269171Y-128158002D01*
X281994135Y-138718957D02*
X278897694Y-139613149D01*
X358473926Y-108420000D02*
X358045734Y-109847931D01*
X292386363Y-44063293D02*
X287113125Y-44699925D01*
X212289704Y-65648124D02*
X212289609Y-64548404D01*
X276040567Y-140575215D02*
X273362495Y-141654359D01*
M02*
