%TF.GenerationSoftware,KiCad,Pcbnew,7.0.1*%
%TF.CreationDate,2023-03-27T13:44:56+02:00*%
%TF.ProjectId,SofleUnsplit,536f666c-6555-46e7-9370-6c69742e6b69,rev?*%
%TF.SameCoordinates,Original*%
%TF.FileFunction,Paste,Bot*%
%TF.FilePolarity,Positive*%
%FSLAX46Y46*%
G04 Gerber Fmt 4.6, Leading zero omitted, Abs format (unit mm)*
G04 Created by KiCad (PCBNEW 7.0.1) date 2023-03-27 13:44:56*
%MOMM*%
%LPD*%
G01*
G04 APERTURE LIST*
G04 Aperture macros list*
%AMRoundRect*
0 Rectangle with rounded corners*
0 $1 Rounding radius*
0 $2 $3 $4 $5 $6 $7 $8 $9 X,Y pos of 4 corners*
0 Add a 4 corners polygon primitive as box body*
4,1,4,$2,$3,$4,$5,$6,$7,$8,$9,$2,$3,0*
0 Add four circle primitives for the rounded corners*
1,1,$1+$1,$2,$3*
1,1,$1+$1,$4,$5*
1,1,$1+$1,$6,$7*
1,1,$1+$1,$8,$9*
0 Add four rect primitives between the rounded corners*
20,1,$1+$1,$2,$3,$4,$5,0*
20,1,$1+$1,$4,$5,$6,$7,0*
20,1,$1+$1,$6,$7,$8,$9,0*
20,1,$1+$1,$8,$9,$2,$3,0*%
%AMRotRect*
0 Rectangle, with rotation*
0 The origin of the aperture is its center*
0 $1 length*
0 $2 width*
0 $3 Rotation angle, in degrees counterclockwise*
0 Add horizontal line*
21,1,$1,$2,0,0,$3*%
G04 Aperture macros list end*
%ADD10RotRect,2.600000X2.600000X345.000000*%
%ADD11RotRect,2.600000X2.600000X15.000000*%
%ADD12RotRect,2.600000X2.600000X45.000000*%
%ADD13RotRect,2.600000X2.600000X315.000000*%
%ADD14RotRect,2.600000X2.600000X323.000000*%
%ADD15RotRect,2.600000X2.600000X37.000000*%
%ADD16RoundRect,0.225000X-0.303988X0.314390X-0.420456X-0.120276X0.303988X-0.314390X0.420456X0.120276X0*%
%ADD17RoundRect,0.225000X-0.420456X0.120276X-0.303988X-0.314390X0.420456X-0.120276X0.303988X0.314390X0*%
G04 APERTURE END LIST*
D10*
%TO.C,SW7*%
X115395446Y-99038629D03*
X104808404Y-93924232D03*
%TD*%
%TO.C,SW10*%
X144170149Y-61196636D03*
X133583107Y-56082239D03*
%TD*%
D11*
%TO.C,SW37*%
X271788105Y-101639654D03*
X260062260Y-102503977D03*
%TD*%
D10*
%TO.C,SW17*%
X153404014Y-96282042D03*
X142816972Y-91167645D03*
%TD*%
D11*
%TO.C,SW47*%
X306561434Y-92322169D03*
X294835589Y-93186492D03*
%TD*%
%TO.C,SW58*%
X348322878Y-109084681D03*
X336597033Y-109949004D03*
%TD*%
%TO.C,SW41*%
X284127798Y-78145358D03*
X272401953Y-79009681D03*
%TD*%
D10*
%TO.C,SW18*%
X149004090Y-112702781D03*
X138417048Y-107588384D03*
%TD*%
D11*
%TO.C,SW52*%
X326536290Y-97322684D03*
X314810445Y-98187007D03*
%TD*%
%TO.C,SW57*%
X343922955Y-92663941D03*
X332197110Y-93528264D03*
%TD*%
D10*
%TO.C,SW15*%
X162203862Y-63440564D03*
X151616820Y-58326167D03*
%TD*%
%TO.C,SW22*%
X170143632Y-103355600D03*
X159556590Y-98241203D03*
%TD*%
%TO.C,SW4*%
X93608858Y-110800626D03*
X83021816Y-105686229D03*
%TD*%
D11*
%TO.C,SW49*%
X297327569Y-127407575D03*
X285601724Y-128271898D03*
%TD*%
%TO.C,SW43*%
X292927646Y-110986836D03*
X281201801Y-111851159D03*
%TD*%
%TO.C,SW45*%
X297761587Y-59480691D03*
X286035742Y-60345014D03*
%TD*%
%TO.C,SW44*%
X280587952Y-134481133D03*
X268862107Y-135345456D03*
%TD*%
D10*
%TO.C,SW23*%
X165743708Y-119776339D03*
X155156666Y-114661942D03*
%TD*%
D11*
%TO.C,SW42*%
X288527722Y-94566097D03*
X276801877Y-95430420D03*
%TD*%
D10*
%TO.C,SW28*%
X182483325Y-126849896D03*
X171896283Y-121735499D03*
%TD*%
D12*
%TO.C,SW34*%
X248759405Y-155334893D03*
X239036687Y-161946341D03*
%TD*%
D11*
%TO.C,SW33*%
X259448411Y-125133951D03*
X247722566Y-125998274D03*
%TD*%
%TO.C,SW36*%
X267388181Y-85218915D03*
X255662336Y-86083238D03*
%TD*%
%TO.C,SW48*%
X310961358Y-108742908D03*
X299235513Y-109607231D03*
%TD*%
D10*
%TO.C,SW27*%
X186883249Y-110429157D03*
X176296207Y-105314760D03*
%TD*%
%TO.C,SW1*%
X106808629Y-61538408D03*
X96221587Y-56424011D03*
%TD*%
D11*
%TO.C,SW35*%
X262988257Y-68798176D03*
X251262412Y-69662499D03*
%TD*%
%TO.C,SW38*%
X276188028Y-118060394D03*
X264462183Y-118924717D03*
%TD*%
D10*
%TO.C,SW5*%
X124195294Y-66197151D03*
X113608252Y-61082754D03*
%TD*%
%TO.C,SW12*%
X135370302Y-94038114D03*
X124783260Y-88923717D03*
%TD*%
D11*
%TO.C,SW50*%
X317736442Y-64481206D03*
X306010597Y-65345529D03*
%TD*%
D10*
%TO.C,SW16*%
X157803938Y-79861303D03*
X147216896Y-74746906D03*
%TD*%
D11*
%TO.C,SW32*%
X255048487Y-108713212D03*
X243322642Y-109577535D03*
%TD*%
D10*
%TO.C,SW8*%
X110995523Y-115459368D03*
X100408481Y-110344971D03*
%TD*%
D11*
%TO.C,SW40*%
X279727874Y-61724619D03*
X268002029Y-62588942D03*
%TD*%
D10*
%TO.C,SW14*%
X144604167Y-129123520D03*
X134017125Y-124009123D03*
%TD*%
D11*
%TO.C,SW54*%
X315361282Y-125163647D03*
X303635437Y-126027970D03*
%TD*%
D13*
%TO.C,SW29*%
X191530336Y-159988255D03*
X184918888Y-150265537D03*
%TD*%
D11*
%TO.C,SW30*%
X246248640Y-75859626D03*
X234522795Y-76723949D03*
%TD*%
D10*
%TO.C,SW26*%
X191283173Y-94008418D03*
X180696131Y-88894021D03*
%TD*%
%TO.C,SW21*%
X174543555Y-86934860D03*
X163956513Y-81820463D03*
%TD*%
%TO.C,SW9*%
X126570454Y-126879592D03*
X115983412Y-121765195D03*
%TD*%
D14*
%TO.C,SW24*%
X177616020Y-147072804D03*
X169715773Y-138364843D03*
%TD*%
D10*
%TO.C,SW6*%
X119795370Y-82617890D03*
X109208328Y-77503493D03*
%TD*%
%TO.C,SW2*%
X102408705Y-77959147D03*
X91821663Y-72844750D03*
%TD*%
%TO.C,SW25*%
X195683096Y-77587679D03*
X185096054Y-72473282D03*
%TD*%
%TO.C,SW13*%
X130970378Y-110458853D03*
X120383336Y-105344456D03*
%TD*%
D11*
%TO.C,SW55*%
X335123107Y-59822463D03*
X323397262Y-60686786D03*
%TD*%
D10*
%TO.C,SW20*%
X178943479Y-70514121D03*
X168356437Y-65399724D03*
%TD*%
%TO.C,SW11*%
X139770226Y-77617375D03*
X129183184Y-72502978D03*
%TD*%
D11*
%TO.C,SW56*%
X339523031Y-76243202D03*
X327797186Y-77107525D03*
%TD*%
D15*
%TO.C,SW39*%
X263219966Y-143110236D03*
X252671732Y-148304201D03*
%TD*%
D11*
%TO.C,SW51*%
X322136366Y-80901945D03*
X310410521Y-81766268D03*
%TD*%
%TO.C,SW53*%
X330936213Y-113743423D03*
X319210368Y-114607746D03*
%TD*%
D10*
%TO.C,SW19*%
X161343784Y-136197078D03*
X150756742Y-131082681D03*
%TD*%
D11*
%TO.C,SW31*%
X250648564Y-92292473D03*
X238922719Y-93156796D03*
%TD*%
D10*
%TO.C,SW3*%
X98008782Y-94379887D03*
X87421740Y-89265490D03*
%TD*%
D11*
%TO.C,SW46*%
X302161511Y-75901430D03*
X290435666Y-76765753D03*
%TD*%
D16*
%TO.C,D27*%
X178186866Y-98240488D03*
X177332764Y-101428044D03*
%TD*%
D17*
%TO.C,D45*%
X283752949Y-51656222D03*
X284607051Y-54843778D03*
%TD*%
%TO.C,D58*%
X334192447Y-101591277D03*
X335046549Y-104778833D03*
%TD*%
%TO.C,D46*%
X288031080Y-68408026D03*
X288885182Y-71595582D03*
%TD*%
%TO.C,D50*%
X303606011Y-56987802D03*
X304460113Y-60175358D03*
%TD*%
%TO.C,D35*%
X248857826Y-61304772D03*
X249711928Y-64492328D03*
%TD*%
D16*
%TO.C,D21*%
X165847172Y-74746191D03*
X164993070Y-77933747D03*
%TD*%
D17*
%TO.C,D34*%
X233862949Y-152706222D03*
X234717051Y-155893778D03*
%TD*%
D16*
%TO.C,D19*%
X152647401Y-124008409D03*
X151793299Y-127195965D03*
%TD*%
%TO.C,D29*%
X187237051Y-143736222D03*
X186382949Y-146923778D03*
%TD*%
%TO.C,D23*%
X157047325Y-107587670D03*
X156193223Y-110775226D03*
%TD*%
D17*
%TO.C,D57*%
X329792524Y-85170537D03*
X330646626Y-88358093D03*
%TD*%
D16*
%TO.C,D13*%
X122273995Y-98270184D03*
X121419893Y-101457740D03*
%TD*%
%TO.C,D1*%
X98112246Y-49349739D03*
X97258144Y-52537295D03*
%TD*%
%TO.C,D18*%
X140307707Y-100514112D03*
X139453605Y-103701668D03*
%TD*%
%TO.C,D11*%
X131073843Y-65428706D03*
X130219741Y-68616262D03*
%TD*%
D17*
%TO.C,D52*%
X312405859Y-89829280D03*
X313259961Y-93016836D03*
%TD*%
%TO.C,D33*%
X245317980Y-117640547D03*
X246172082Y-120828103D03*
%TD*%
D16*
%TO.C,D25*%
X186986713Y-65399010D03*
X186132611Y-68586566D03*
%TD*%
%TO.C,D17*%
X144707631Y-84093373D03*
X143853529Y-87280929D03*
%TD*%
D17*
%TO.C,D39*%
X248912949Y-140526222D03*
X249767051Y-143713778D03*
%TD*%
D16*
%TO.C,D15*%
X153507479Y-51251895D03*
X152653377Y-54439451D03*
%TD*%
%TO.C,D20*%
X170247096Y-58325452D03*
X169392994Y-61513008D03*
%TD*%
D17*
%TO.C,D31*%
X236518133Y-84799069D03*
X237372235Y-87986625D03*
%TD*%
D16*
%TO.C,D5*%
X115498911Y-54008482D03*
X114644809Y-57196038D03*
%TD*%
D17*
%TO.C,D41*%
X269997367Y-70651954D03*
X270851469Y-73839510D03*
%TD*%
D16*
%TO.C,D10*%
X135473766Y-49007967D03*
X134619664Y-52195523D03*
%TD*%
%TO.C,D16*%
X149107555Y-67672634D03*
X148253453Y-70860190D03*
%TD*%
D17*
%TO.C,D44*%
X266457521Y-126987729D03*
X267311623Y-130175285D03*
%TD*%
D16*
%TO.C,D22*%
X161447249Y-91166931D03*
X160593147Y-94354487D03*
%TD*%
%TO.C,D9*%
X117874071Y-114690923D03*
X117019969Y-117878479D03*
%TD*%
D17*
%TO.C,D48*%
X296830927Y-101249504D03*
X297685029Y-104437060D03*
%TD*%
%TO.C,D32*%
X240918056Y-101219808D03*
X241772158Y-104407364D03*
%TD*%
%TO.C,D54*%
X301230851Y-117670243D03*
X302084953Y-120857799D03*
%TD*%
%TO.C,D55*%
X321102949Y-52246222D03*
X321957051Y-55433778D03*
%TD*%
D16*
%TO.C,D28*%
X173786942Y-114661227D03*
X172932840Y-117848783D03*
%TD*%
%TO.C,D7*%
X106699063Y-86849960D03*
X105844961Y-90037516D03*
%TD*%
D17*
%TO.C,D56*%
X325392600Y-68749798D03*
X326246702Y-71937354D03*
%TD*%
%TO.C,D38*%
X262057597Y-110566990D03*
X262911699Y-113754546D03*
%TD*%
%TO.C,D37*%
X257657674Y-94146250D03*
X258511776Y-97333806D03*
%TD*%
D16*
%TO.C,D3*%
X89312399Y-82191218D03*
X88458297Y-85378774D03*
%TD*%
D17*
%TO.C,D53*%
X316805782Y-106250019D03*
X317659884Y-109437575D03*
%TD*%
%TO.C,D42*%
X274397291Y-87072693D03*
X275251393Y-90260249D03*
%TD*%
%TO.C,D30*%
X232118209Y-68366222D03*
X232972311Y-71553778D03*
%TD*%
%TO.C,D51*%
X308005935Y-73408541D03*
X308860037Y-76596097D03*
%TD*%
%TO.C,D43*%
X278797215Y-103493432D03*
X279651317Y-106680988D03*
%TD*%
D16*
%TO.C,D4*%
X84912475Y-98611957D03*
X84058373Y-101799513D03*
%TD*%
%TO.C,D14*%
X135907784Y-116934851D03*
X135053682Y-120122407D03*
%TD*%
D17*
%TO.C,D49*%
X283197138Y-119914171D03*
X284051240Y-123101727D03*
%TD*%
D16*
%TO.C,D6*%
X111098987Y-70429221D03*
X110244885Y-73616777D03*
%TD*%
%TO.C,D2*%
X93712322Y-65770478D03*
X92858220Y-68958034D03*
%TD*%
%TO.C,D12*%
X126673919Y-81849445D03*
X125819817Y-85037001D03*
%TD*%
%TO.C,D26*%
X182586790Y-81819749D03*
X181732688Y-85007305D03*
%TD*%
%TO.C,D24*%
X171487051Y-132136222D03*
X170632949Y-135323778D03*
%TD*%
D17*
%TO.C,D40*%
X265597443Y-54231215D03*
X266451545Y-57418771D03*
%TD*%
%TO.C,D36*%
X253257750Y-77725511D03*
X254111852Y-80913067D03*
%TD*%
%TO.C,D47*%
X292431003Y-84828765D03*
X293285105Y-88016321D03*
%TD*%
D16*
%TO.C,D8*%
X102299140Y-103270699D03*
X101445038Y-106458255D03*
%TD*%
M02*
