%TF.GenerationSoftware,KiCad,Pcbnew,7.0.1*%
%TF.CreationDate,2023-03-27T13:44:56+02:00*%
%TF.ProjectId,SofleUnsplit,536f666c-6555-46e7-9370-6c69742e6b69,rev?*%
%TF.SameCoordinates,Original*%
%TF.FileFunction,Soldermask,Top*%
%TF.FilePolarity,Negative*%
%FSLAX46Y46*%
G04 Gerber Fmt 4.6, Leading zero omitted, Abs format (unit mm)*
G04 Created by KiCad (PCBNEW 7.0.1) date 2023-03-27 13:44:56*
%MOMM*%
%LPD*%
G01*
G04 APERTURE LIST*
%ADD10C,0.400000*%
%ADD11C,0.759999*%
%ADD12C,0.200000*%
%ADD13C,1.800000*%
%ADD14C,3.000000*%
%ADD15C,3.400000*%
%ADD16C,0.990600*%
%ADD17C,3.200000*%
%ADD18O,2.500000X1.500000*%
%ADD19O,1.500000X2.500000*%
%ADD20R,1.700000X1.700000*%
%ADD21O,1.700000X1.700000*%
%ADD22C,2.700000*%
G04 APERTURE END LIST*
D10*
%TO.C,G3*%
X191972025Y-119964720D02*
X191975647Y-119986820D01*
X191972073Y-119943132D02*
X191972025Y-119964720D01*
X191975647Y-119986820D02*
X191983054Y-120009430D01*
X191975675Y-119922061D02*
X191972073Y-119943132D01*
X191982713Y-119901508D02*
X191975675Y-119922061D01*
X191983054Y-120009430D02*
X191994362Y-120032548D01*
X191993073Y-119881476D02*
X191982713Y-119901508D01*
X191994362Y-120032548D02*
X192009688Y-120056171D01*
X192006638Y-119861968D02*
X191993073Y-119881476D01*
X192009688Y-120056171D02*
X192029148Y-120080295D01*
X192023292Y-119842988D02*
X192006638Y-119861968D01*
X192029148Y-120080295D02*
X192052857Y-120104918D01*
X192042919Y-119824537D02*
X192023292Y-119842988D01*
X192052857Y-120104918D02*
X192080933Y-120130037D01*
X192065403Y-119806619D02*
X192042919Y-119824537D01*
X192080933Y-120130037D02*
X192113490Y-120155649D01*
X192090628Y-119789237D02*
X192065403Y-119806619D01*
D11*
X192101705Y-131852385D02*
X207397520Y-137250906D01*
D10*
X192113490Y-120155649D02*
X192150646Y-120181752D01*
X192118478Y-119772392D02*
X192090628Y-119789237D01*
X192150646Y-120181752D02*
X192192515Y-120208343D01*
X192181587Y-119740329D02*
X192118478Y-119772392D01*
X192192515Y-120208343D02*
X192239215Y-120235419D01*
X192239215Y-120235419D02*
X192290861Y-120262976D01*
X192253802Y-119710453D02*
X192181587Y-119740329D01*
X192290861Y-120262976D02*
X192345998Y-120289225D01*
X192295821Y-118913682D02*
X192295921Y-118930586D01*
X192295921Y-118930586D02*
X192300698Y-118966540D01*
X192297300Y-118897492D02*
X192295821Y-118913682D01*
X192300399Y-118882016D02*
X192297300Y-118897492D01*
X192300698Y-118966540D02*
X192311308Y-119005362D01*
X192305157Y-118867252D02*
X192300399Y-118882016D01*
X192311308Y-119005362D02*
X192322136Y-119026335D01*
X192311615Y-118853199D02*
X192305157Y-118867252D01*
X192319813Y-118839857D02*
X192311615Y-118853199D01*
X192322136Y-119026335D02*
X192340843Y-119048898D01*
X192329792Y-118827225D02*
X192319813Y-118839857D01*
X192334195Y-119682786D02*
X192253802Y-119710453D01*
X192340843Y-119048898D02*
X192366888Y-119072903D01*
X192341591Y-118815301D02*
X192329792Y-118827225D01*
X192345998Y-120289225D02*
X192402939Y-120312471D01*
X192355252Y-118804085D02*
X192341591Y-118815301D01*
X192366888Y-119072903D02*
X192399733Y-119098201D01*
X192370813Y-118793575D02*
X192355252Y-118804085D01*
X192399733Y-119098201D02*
X192483666Y-119152087D01*
X192402939Y-120312471D02*
X192521301Y-120350523D01*
X192407800Y-118774673D02*
X192370813Y-118793575D01*
X192421836Y-119657351D02*
X192334195Y-119682786D01*
X192452876Y-118758586D02*
X192407800Y-118774673D01*
X192483666Y-119152087D02*
X192588327Y-119209372D01*
X192506361Y-118745308D02*
X192452876Y-118758586D01*
X192515798Y-119634169D02*
X192421836Y-119657351D01*
X192521301Y-120350523D02*
X192644081Y-120378270D01*
X192565172Y-119624102D02*
X192515798Y-119634169D01*
X192568578Y-118734830D02*
X192506361Y-118745308D01*
X192588327Y-119209372D02*
X192709403Y-119268874D01*
X192614674Y-121173200D02*
X192618048Y-121234297D01*
X192616332Y-119615883D02*
X192565172Y-119624102D01*
X192618048Y-121234297D02*
X192627780Y-121291533D01*
X192618615Y-121114499D02*
X192614674Y-121173200D01*
X192627780Y-121291533D02*
X192642468Y-121338958D01*
X192629400Y-121058165D02*
X192618615Y-121114499D01*
X192639848Y-118727145D02*
X192568578Y-118734830D01*
X192642468Y-121338958D02*
X192661912Y-121377068D01*
X192644081Y-120378270D02*
X192769414Y-120396852D01*
X192646554Y-121004167D02*
X192629400Y-121058165D01*
X192661912Y-121377068D02*
X192673357Y-121392783D01*
X192669059Y-119609410D02*
X192616332Y-119615883D01*
X192669606Y-120952476D02*
X192646554Y-121004167D01*
X192673357Y-121392783D02*
X192685916Y-121406355D01*
X192685916Y-121406355D02*
X192699567Y-121417846D01*
X192698082Y-120903061D02*
X192669606Y-120952476D01*
X192699567Y-121417846D02*
X192714283Y-121427316D01*
X192709403Y-119268874D02*
X192842581Y-119329410D01*
X192714283Y-121427316D02*
X192746813Y-121440444D01*
X192720495Y-118722246D02*
X192639848Y-118727145D01*
X192723133Y-119604583D02*
X192669059Y-119609410D01*
X192731510Y-120855892D02*
X192698082Y-120903061D01*
X192746813Y-121440444D02*
X192783311Y-121446232D01*
X192769414Y-120396852D02*
X192895437Y-120407405D01*
X192769417Y-120810941D02*
X192731510Y-120855892D01*
X192783311Y-121446232D02*
X192823578Y-121445176D01*
X192810839Y-118720125D02*
X192720495Y-118722246D01*
X192811331Y-120768175D02*
X192769417Y-120810941D01*
X192823578Y-121445176D02*
X192867417Y-121437770D01*
X192834443Y-119599469D02*
X192723133Y-119604583D01*
X192842581Y-119329410D02*
X193127988Y-119448848D01*
X192856778Y-120727567D02*
X192811331Y-120768175D01*
X192867417Y-121437770D02*
X192914631Y-121424508D01*
X192895437Y-120407405D02*
X193020283Y-120411069D01*
X192905287Y-120689085D02*
X192856778Y-120727567D01*
X192906555Y-118107862D02*
X192906815Y-118129179D01*
X192906815Y-118129179D02*
X192909437Y-118151618D01*
X192908561Y-118087650D02*
X192906555Y-118107862D01*
X192909437Y-118151618D02*
X192915051Y-118174607D01*
X192911203Y-118720775D02*
X192810839Y-118720125D01*
X192912741Y-118068525D02*
X192908561Y-118087650D01*
X192914631Y-121424508D02*
X192965022Y-121405883D01*
X192915051Y-118174607D02*
X192924097Y-118197566D01*
X192918998Y-118050471D02*
X192912741Y-118068525D01*
X192924097Y-118197566D02*
X192936379Y-118220493D01*
X192927240Y-118033471D02*
X192918998Y-118050471D01*
X192936379Y-118220493D02*
X192951704Y-118243387D01*
X192937370Y-118017509D02*
X192927240Y-118033471D01*
X192948501Y-119599740D02*
X192834443Y-119599469D01*
X192949294Y-118002566D02*
X192937370Y-118017509D01*
X192951704Y-118243387D02*
X192969878Y-118266248D01*
X192956383Y-120652701D02*
X192905287Y-120689085D01*
X192962919Y-117988628D02*
X192949294Y-118002566D01*
X192965022Y-121405883D02*
X193018392Y-121382392D01*
X192969878Y-118266248D02*
X192990709Y-118289074D01*
X192978149Y-117975675D02*
X192962919Y-117988628D01*
X192990709Y-118289074D02*
X193014001Y-118311865D01*
X192994890Y-117963693D02*
X192978149Y-117975675D01*
X193009595Y-120618383D02*
X192956383Y-120652701D01*
X193013047Y-117952663D02*
X192994890Y-117963693D01*
X193014001Y-118311865D02*
X193039561Y-118334619D01*
X193018392Y-121382392D02*
X193074544Y-121354526D01*
X193020283Y-120411069D02*
X193142090Y-120408982D01*
X193021910Y-118724188D02*
X192911203Y-118720775D01*
X193032525Y-117942570D02*
X193013047Y-117952663D01*
X193039561Y-118334619D02*
X193096711Y-118380013D01*
X193053231Y-117933396D02*
X193032525Y-117942570D01*
X193063547Y-119604593D02*
X192948501Y-119599740D01*
X193064450Y-120586101D02*
X193009595Y-120618383D01*
X193074544Y-121354526D02*
X193133281Y-121322782D01*
X193079868Y-118727933D02*
X193021910Y-118724188D01*
X193096711Y-118380013D02*
X193160608Y-118425251D01*
X193097947Y-117917737D02*
X193053231Y-117933396D01*
X193127988Y-119448848D02*
X193410039Y-119558222D01*
X193133281Y-121322782D02*
X193257718Y-121249633D01*
X193137685Y-118734256D02*
X193079868Y-118727933D01*
X193142090Y-120408982D02*
X193258991Y-120402281D01*
X193146437Y-117905554D02*
X193097947Y-117917737D01*
X193160608Y-118425251D02*
X193229702Y-118470324D01*
X193177197Y-120527530D02*
X193064450Y-120586101D01*
X193177822Y-119613229D02*
X193063547Y-119604593D01*
X193195250Y-118742982D02*
X193137685Y-118734256D01*
X193197945Y-117896710D02*
X193146437Y-117905554D01*
X193229702Y-118470324D02*
X193302442Y-118515225D01*
X193251714Y-117891071D02*
X193197945Y-117896710D01*
X193252450Y-118753932D02*
X193195250Y-118742982D01*
X193257718Y-121249633D02*
X193528915Y-121078533D01*
X193258991Y-120402281D02*
X193369123Y-120392106D01*
X193289566Y-119624845D02*
X193177822Y-119613229D01*
X193290843Y-120476747D02*
X193177197Y-120527530D01*
X193302442Y-118515225D02*
X193598872Y-118692956D01*
X193306989Y-117888502D02*
X193251714Y-117891071D01*
X193309175Y-118766931D02*
X193252450Y-118753932D01*
X193363012Y-117888869D02*
X193306989Y-117888502D01*
X193365313Y-118781801D02*
X193309175Y-118766931D01*
X193369123Y-120392106D02*
X193470620Y-120379595D01*
X193397019Y-119638640D02*
X193289566Y-119624845D01*
X193401606Y-120433512D02*
X193290843Y-120476747D01*
X193410039Y-119558222D02*
X193654229Y-119648065D01*
X193419028Y-117892036D02*
X193363012Y-117888869D01*
X193420752Y-118798365D02*
X193365313Y-118781801D01*
X193470620Y-120379595D02*
X193640252Y-120352116D01*
X193474281Y-117897869D02*
X193419028Y-117892036D01*
X193475382Y-118816447D02*
X193420752Y-118798365D01*
X193498421Y-119653813D02*
X193397019Y-119638640D01*
X193505704Y-120397587D02*
X193401606Y-120433512D01*
X193528013Y-117906233D02*
X193474281Y-117897869D01*
X193528915Y-121078533D02*
X193672516Y-120988490D01*
X193529091Y-118835869D02*
X193475382Y-118816447D01*
X193581767Y-118856455D02*
X193529091Y-118835869D01*
X193585012Y-117920438D02*
X193528013Y-117906233D01*
X193592013Y-119669563D02*
X193498421Y-119653813D01*
X193598872Y-118692956D02*
X193666595Y-118736883D01*
X193599355Y-120368730D02*
X193505704Y-120397587D01*
X193633299Y-118878027D02*
X193581767Y-118856455D01*
X193640252Y-120352116D02*
X193793859Y-120319205D01*
X193649948Y-117943428D02*
X193585012Y-117920438D01*
X193654229Y-119648065D02*
X193890989Y-119731299D01*
X193666595Y-118736883D02*
X193728665Y-118780593D01*
X193672516Y-120988490D02*
X193819344Y-120900724D01*
X193683576Y-118900409D02*
X193633299Y-118878027D01*
X193721894Y-117974520D02*
X193649948Y-117943428D01*
X193728665Y-118780593D02*
X193783530Y-118824078D01*
X193740191Y-120331267D02*
X193599355Y-120368730D01*
X193748725Y-119699587D02*
X193592013Y-119669563D01*
X193779918Y-118946894D02*
X193683576Y-118900409D01*
X193783530Y-118824078D02*
X193807777Y-118845734D01*
X193793859Y-120319205D02*
X193740191Y-120331267D01*
X193799920Y-118013033D02*
X193721894Y-117974520D01*
X193807777Y-118845734D02*
X193829641Y-118867331D01*
X193819344Y-120900724D02*
X193967819Y-120819188D01*
X193829641Y-118867331D02*
X193870633Y-118909490D01*
X193869902Y-118994496D02*
X193779918Y-118946894D01*
X193870633Y-118909490D02*
X193910988Y-118949635D01*
X193883099Y-118058286D02*
X193799920Y-118013033D01*
X193890989Y-119731299D02*
X193748725Y-119699587D01*
X193910988Y-118949635D02*
X193988680Y-119023493D01*
X193952638Y-119041798D02*
X193869902Y-118994496D01*
X193967819Y-120819188D02*
X194042181Y-120781992D01*
X193970501Y-118109598D02*
X193883099Y-118058286D01*
X193988680Y-119023493D02*
X194060501Y-119088124D01*
X194027233Y-119087385D02*
X193952638Y-119041798D01*
X194042181Y-120781992D02*
X194116362Y-120747836D01*
X194060501Y-119088124D02*
X194124234Y-119142751D01*
X194061199Y-118166286D02*
X193970501Y-118109598D01*
X194092797Y-119129842D02*
X194027233Y-119087385D01*
X194116362Y-120747836D02*
X194190166Y-120717215D01*
X194124234Y-119142751D02*
X194177663Y-119186594D01*
X194148438Y-119167753D02*
X194092797Y-119129842D01*
X194154262Y-118227669D02*
X194061199Y-118166286D01*
X194177663Y-119186594D02*
X194218571Y-119218875D01*
X194190166Y-120717215D02*
X194263393Y-120690623D01*
X194218571Y-119218875D02*
X194253958Y-119245635D01*
X194226390Y-119224277D02*
X194148438Y-119167753D01*
X194248764Y-118293067D02*
X194154262Y-118227669D01*
X194253958Y-119245635D02*
X194226390Y-119224277D01*
X194263393Y-120690623D02*
X194335847Y-120668555D01*
X194335847Y-120668555D02*
X194407331Y-120651503D01*
X194343775Y-118361796D02*
X194248764Y-118293067D01*
X194407331Y-120651503D02*
X194542294Y-120625827D01*
X194438366Y-118433177D02*
X194343775Y-118361796D01*
X194531610Y-118506527D02*
X194438366Y-118433177D01*
X194542294Y-120625827D02*
X194663883Y-120605933D01*
X194622577Y-118581165D02*
X194531610Y-118506527D01*
X194663883Y-120605933D02*
X194772740Y-120591250D01*
X194710339Y-118656409D02*
X194622577Y-118581165D01*
X194772740Y-120591250D02*
X194869511Y-120581211D01*
X194793967Y-118731578D02*
X194710339Y-118656409D01*
X194869511Y-120581211D02*
X194954839Y-120575245D01*
X194872534Y-118805991D02*
X194793967Y-118731578D01*
X194910075Y-118844657D02*
X194872534Y-118805991D01*
X194946947Y-118886650D02*
X194910075Y-118844657D01*
X194954839Y-120575245D02*
X195029369Y-120572784D01*
X194983113Y-118931670D02*
X194946947Y-118886650D01*
X195018531Y-118979419D02*
X194983113Y-118931670D01*
X195029369Y-120572784D02*
X195093744Y-120573259D01*
X195086970Y-119081907D02*
X195018531Y-118979419D01*
X195093744Y-120573259D02*
X195148608Y-120576100D01*
X195148608Y-120576100D02*
X195194606Y-120580738D01*
X195151949Y-119191727D02*
X195086970Y-119081907D01*
X195194606Y-120580738D02*
X195232381Y-120586604D01*
X195213154Y-119306489D02*
X195151949Y-119191727D01*
X195232381Y-120586604D02*
X195285839Y-120599745D01*
X195270270Y-119423805D02*
X195213154Y-119306489D01*
X195285839Y-120599745D02*
X195314136Y-120610968D01*
X195314136Y-120610968D02*
X195322424Y-120615721D01*
X195322424Y-120615721D02*
X195432976Y-120421457D01*
X195322983Y-119541286D02*
X195270270Y-119423805D01*
X195370978Y-119656542D02*
X195322983Y-119541286D01*
X195413941Y-119767186D02*
X195370978Y-119656542D01*
D11*
X195414434Y-120319174D02*
X192101705Y-131852385D01*
D10*
X195432976Y-120421457D02*
X195510058Y-120283585D01*
X195451557Y-119870827D02*
X195413941Y-119767186D01*
X195509489Y-120047549D02*
X195451557Y-119870827D01*
X195510058Y-120283585D02*
X195536228Y-120235078D01*
X195536228Y-120235078D02*
X195547361Y-120211852D01*
X195542257Y-120167596D02*
X195509489Y-120047549D01*
X195547346Y-120211859D02*
X195548806Y-120208943D01*
X195547361Y-120211852D02*
X195547346Y-120211859D01*
X195548419Y-120200395D02*
X195542257Y-120167596D01*
X195548806Y-120208943D02*
X195548419Y-120200395D01*
D11*
X205638906Y-120850844D02*
X195414434Y-120319174D01*
X207397520Y-137250906D02*
X212509756Y-141586081D01*
D10*
X211825833Y-143966194D02*
X211830333Y-144115632D01*
X211826132Y-143618282D02*
X211825833Y-143966194D01*
X211830333Y-144115632D02*
X211838713Y-144249404D01*
X211834938Y-143201594D02*
X211826132Y-143618282D01*
X211838713Y-144249404D02*
X211851556Y-144368019D01*
X211839044Y-143090781D02*
X211834938Y-143201594D01*
X211845504Y-142984514D02*
X211839044Y-143090781D01*
X211851556Y-144368019D02*
X211869447Y-144471986D01*
X211854155Y-142882725D02*
X211845504Y-142984514D01*
X211864833Y-142785347D02*
X211854155Y-142882725D01*
X211869447Y-144471986D02*
X211892969Y-144561815D01*
X211877375Y-142692312D02*
X211864833Y-142785347D01*
X211891620Y-142603553D02*
X211877375Y-142692312D01*
X211892969Y-144561815D02*
X211922706Y-144638014D01*
X211907403Y-142519003D02*
X211891620Y-142603553D01*
X211922706Y-144638014D02*
X211959243Y-144701094D01*
X211924562Y-142438594D02*
X211907403Y-142519003D01*
X211942935Y-142362258D02*
X211924562Y-142438594D01*
X211959243Y-144701094D02*
X211980244Y-144727872D01*
X211962357Y-142289929D02*
X211942935Y-142362258D01*
X211980244Y-144727872D02*
X212003164Y-144751562D01*
X211982668Y-142221540D02*
X211962357Y-142289929D01*
X212003164Y-144751562D02*
X212028075Y-144772226D01*
X212003702Y-142157021D02*
X211982668Y-142221540D01*
X212025299Y-142096307D02*
X212003702Y-142157021D01*
X212028075Y-144772226D02*
X212055052Y-144789929D01*
X212047294Y-142039330D02*
X212025299Y-142096307D01*
X212055052Y-144789929D02*
X212084167Y-144804733D01*
X212069525Y-141986022D02*
X212047294Y-142039330D01*
X212084167Y-144804733D02*
X212115493Y-144816703D01*
X212091829Y-141936316D02*
X212069525Y-141986022D01*
X212114043Y-141890145D02*
X212091829Y-141936316D01*
X212115493Y-144816703D02*
X212185069Y-144832394D01*
X212136004Y-141847441D02*
X212114043Y-141890145D01*
X212157550Y-141808137D02*
X212136004Y-141847441D01*
X212178517Y-141772166D02*
X212157550Y-141808137D01*
X212185069Y-144832394D02*
X212264366Y-144837512D01*
X212198743Y-141739459D02*
X212178517Y-141772166D01*
X212218065Y-141709950D02*
X212198743Y-141739459D01*
X212226705Y-120240925D02*
X214684835Y-120356602D01*
X212253344Y-141660255D02*
X212218065Y-141709950D01*
X212264366Y-144837512D02*
X212305267Y-144833083D01*
X212283051Y-141622543D02*
X212253344Y-141660255D01*
X212305267Y-144833083D02*
X212343671Y-144820173D01*
X212305884Y-141596273D02*
X212283051Y-141622543D01*
X212325714Y-141575903D02*
X212305884Y-141596273D01*
X212343671Y-144820173D02*
X212379656Y-144799348D01*
X212379656Y-144799348D02*
X212413300Y-144771172D01*
X212413300Y-144771172D02*
X212444683Y-144736212D01*
X212444683Y-144736212D02*
X212473884Y-144695033D01*
X212473884Y-144695033D02*
X212500979Y-144648200D01*
X212500979Y-144648200D02*
X212526049Y-144596278D01*
D11*
X212509756Y-141586081D02*
X214554655Y-140727225D01*
D10*
X212526049Y-144596278D02*
X212549173Y-144539833D01*
X212549173Y-144539833D02*
X212570427Y-144479430D01*
X212570427Y-144479430D02*
X212607646Y-144349013D01*
X212607646Y-144349013D02*
X212638334Y-144209550D01*
X212638334Y-144209550D02*
X212663122Y-144065564D01*
X212646032Y-122192971D02*
X212226705Y-120240925D01*
X212663122Y-144065564D02*
X212682637Y-143921577D01*
X212682637Y-143921577D02*
X212697509Y-143782114D01*
X212697509Y-143782114D02*
X212715841Y-143534850D01*
X212715841Y-143534850D02*
X212724468Y-143293616D01*
X212724468Y-143293616D02*
X212724688Y-143346176D01*
X212724688Y-143346176D02*
X212730060Y-143485963D01*
X212730060Y-143485963D02*
X212736887Y-143580180D01*
X212736887Y-143580180D02*
X212747653Y-143686139D01*
X212747653Y-143686139D02*
X212763243Y-143800485D01*
X212763243Y-143800485D02*
X212784538Y-143919864D01*
X212784538Y-143919864D02*
X212812423Y-144040920D01*
X212812423Y-144040920D02*
X212847782Y-144160298D01*
X212847782Y-144160298D02*
X212868540Y-144218310D01*
X212868540Y-144218310D02*
X212891498Y-144274645D01*
X212891498Y-144274645D02*
X212916767Y-144328883D01*
X212916767Y-144328883D02*
X212944456Y-144380604D01*
X212944456Y-144380604D02*
X212974676Y-144429390D01*
X212974676Y-144429390D02*
X213007537Y-144474821D01*
X213007537Y-144474821D02*
X213043151Y-144516478D01*
X213043151Y-144516478D02*
X213081627Y-144553941D01*
X213081627Y-144553941D02*
X213123077Y-144586792D01*
X213092550Y-141524779D02*
X212816488Y-141565680D01*
X213119742Y-141522735D02*
X213092550Y-141524779D01*
X213123077Y-144586792D02*
X213167609Y-144614610D01*
X213149411Y-141524125D02*
X213119742Y-141522735D01*
X213167609Y-144614610D02*
X213215336Y-144636976D01*
X213181337Y-141528727D02*
X213149411Y-141524125D01*
X213215303Y-141536322D02*
X213181337Y-141528727D01*
X213215336Y-144636976D02*
X213266367Y-144653471D01*
X213251088Y-141546687D02*
X213215303Y-141536322D01*
X213266367Y-144653471D02*
X213317222Y-144664159D01*
X213288474Y-141559601D02*
X213251088Y-141546687D01*
X213317222Y-144664159D02*
X213364436Y-144669596D01*
X213327242Y-141574845D02*
X213288474Y-141559601D01*
X213358385Y-143191370D02*
X213470375Y-143410398D01*
X213364436Y-144669596D02*
X213408141Y-144670107D01*
X213367172Y-141592197D02*
X213327242Y-141574845D01*
X213408141Y-144670107D02*
X213448471Y-144666011D01*
X213448471Y-144666011D02*
X213485558Y-144657632D01*
X213449644Y-141632342D02*
X213367172Y-141592197D01*
X213470375Y-143410398D02*
X213527691Y-143513569D01*
X213485558Y-144657632D02*
X213519535Y-144645292D01*
X213519535Y-144645292D02*
X213550536Y-144629313D01*
X213527691Y-143513569D02*
X213594007Y-143626490D01*
X213534138Y-141678267D02*
X213449644Y-141632342D01*
X213550536Y-144629313D02*
X213578693Y-144610016D01*
X213556986Y-123277440D02*
X215162000Y-125099349D01*
X213578693Y-144610016D02*
X213604139Y-144587723D01*
X213594007Y-143626490D02*
X213667963Y-143744353D01*
X213604139Y-144587723D02*
X213627007Y-144562757D01*
X213618902Y-141728207D02*
X213534138Y-141678267D01*
X213627007Y-144562757D02*
X213647430Y-144535440D01*
X213644670Y-142659701D02*
X213685748Y-142700059D01*
X213647430Y-144535440D02*
X213665541Y-144506093D01*
X213665541Y-144506093D02*
X213681472Y-144475039D01*
X213667963Y-143744353D02*
X213748194Y-143862351D01*
X213681472Y-144475039D02*
X213695358Y-144442599D01*
X213685748Y-142700059D02*
X213795002Y-142802364D01*
X213695358Y-144442599D02*
X213707330Y-144409096D01*
X213702183Y-141780393D02*
X213618902Y-141728207D01*
X213707330Y-144409096D02*
X213717521Y-144374852D01*
X213717521Y-144374852D02*
X213733095Y-144305428D01*
X213733095Y-144305428D02*
X213743142Y-144236902D01*
D11*
X213736692Y-124081778D02*
X205638906Y-120850844D01*
D10*
X213743142Y-144236902D02*
X213748726Y-144171851D01*
X213746916Y-143988879D02*
X213358385Y-143191370D01*
X213748194Y-143862351D02*
X213833337Y-143975677D01*
X213748726Y-144171851D02*
X213750910Y-144112850D01*
X213749332Y-144023306D02*
X213746916Y-143988879D01*
X213750910Y-144112850D02*
X213749332Y-144023306D01*
X213782229Y-141833058D02*
X213702183Y-141780393D01*
X213795002Y-142802364D02*
X213868643Y-142867947D01*
X213829830Y-142849652D02*
X213644670Y-142659701D01*
X213833337Y-143975677D02*
X213922030Y-144079522D01*
X213846178Y-123017169D02*
X212646032Y-122192971D01*
X213857288Y-141884435D02*
X213782229Y-141833058D01*
X213868643Y-142867947D02*
X213951465Y-142938457D01*
X213922030Y-144079522D02*
X213967282Y-144126386D01*
X213951465Y-142938457D02*
X214040847Y-143010375D01*
X213967282Y-144126386D02*
X214012910Y-144169078D01*
X213976316Y-123002707D02*
X213556986Y-123277440D01*
X213985433Y-141976256D02*
X213857288Y-141884435D01*
X214010775Y-143052763D02*
X213829830Y-142849652D01*
X214012910Y-144169078D02*
X214058743Y-144206996D01*
X214040847Y-143010375D02*
X214134168Y-143080181D01*
X214058743Y-144206996D02*
X214104613Y-144239539D01*
X214104613Y-144239539D02*
X214150348Y-144266105D01*
X214104772Y-142066679D02*
X213985433Y-141976256D01*
X214108610Y-143171340D02*
X214010775Y-143052763D01*
X214134168Y-143080181D02*
X214228807Y-143144356D01*
X214135374Y-122829192D02*
X214136841Y-122775617D01*
X214136841Y-122775617D02*
X214141197Y-122722746D01*
X214136841Y-122882766D02*
X214135374Y-122829192D01*
X214141197Y-122722746D02*
X214148369Y-122670644D01*
X214141197Y-122935637D02*
X214136841Y-122882766D01*
X214148369Y-122670644D02*
X214158288Y-122619376D01*
X214148369Y-122987740D02*
X214141197Y-122935637D01*
X214150348Y-144266105D02*
X214195777Y-144286095D01*
X214158288Y-122619376D02*
X214170881Y-122569007D01*
X214158288Y-123039008D02*
X214148369Y-122987740D01*
X214170881Y-122569007D02*
X214186079Y-122519603D01*
X214170881Y-123089377D02*
X214158288Y-123039008D01*
X214186079Y-122519603D02*
X214203811Y-122471230D01*
X214186079Y-123138781D02*
X214170881Y-123089377D01*
X214195777Y-144286095D02*
X214240731Y-144298908D01*
X214203811Y-122471230D02*
X214224005Y-122423953D01*
X214203811Y-123187154D02*
X214186079Y-123138781D01*
X214205740Y-143297451D02*
X214108610Y-143171340D01*
D11*
X214222128Y-124087180D02*
X213736692Y-124081778D01*
D10*
X214224005Y-122423953D02*
X214246591Y-122377836D01*
X214224005Y-123234432D02*
X214203811Y-123187154D01*
X214228807Y-143144356D02*
X214275802Y-143173232D01*
X214240731Y-144298908D02*
X214285039Y-144303941D01*
X214246591Y-122377836D02*
X214271498Y-122332946D01*
X214246591Y-123280548D02*
X214224005Y-123234432D01*
X214251051Y-125287323D02*
X214959570Y-124853535D01*
X214271498Y-122332946D02*
X214298655Y-122289349D01*
X214271498Y-123325438D02*
X214246591Y-123280548D01*
X214275802Y-143173232D02*
X214322143Y-143199380D01*
X214285039Y-144303941D02*
X214328531Y-144300594D01*
X214297957Y-143428235D02*
X214205740Y-143297451D01*
X214298655Y-122289349D02*
X214327992Y-122247108D01*
X214298655Y-123369035D02*
X214271498Y-123325438D01*
X214322143Y-143199380D02*
X214367503Y-143222360D01*
X214327992Y-122247108D02*
X214359436Y-122206291D01*
X214327992Y-123411276D02*
X214298655Y-123369035D01*
X214328531Y-144300594D02*
X214371037Y-144288267D01*
X214350157Y-142250720D02*
X214104772Y-142066679D01*
X214359436Y-122206291D02*
X214392918Y-122166962D01*
X214359436Y-123452093D02*
X214327992Y-123411276D01*
X214367503Y-143222360D02*
X214411555Y-143241733D01*
X214371037Y-144288267D02*
X214412385Y-144266358D01*
X214381054Y-143560831D02*
X214297957Y-143428235D01*
X214392918Y-122166962D02*
X214428367Y-122129186D01*
X214392918Y-123491422D02*
X214359436Y-123452093D01*
X214395850Y-142285759D02*
X214350157Y-142250720D01*
X214411555Y-143241733D02*
X214453970Y-143257058D01*
X214412385Y-144266358D02*
X214452406Y-144234267D01*
X214428367Y-122129186D02*
X214465711Y-122093030D01*
X214428367Y-123529198D02*
X214392918Y-123491422D01*
X214440601Y-142322072D02*
X214395850Y-142285759D01*
X214450821Y-143692378D02*
X214381054Y-143560831D01*
X214452406Y-144234267D02*
X214486971Y-144194667D01*
X214453970Y-143257058D02*
X214494421Y-143267895D01*
X214465711Y-122093030D02*
X214504881Y-122058558D01*
X214465711Y-123565354D02*
X214428367Y-123529198D01*
X214479390Y-143756865D02*
X214450821Y-143692378D01*
X214483943Y-142359973D02*
X214440601Y-142322072D01*
X214486971Y-144194667D02*
X214512417Y-144150871D01*
X214494421Y-143267895D02*
X214532581Y-143273806D01*
X214503049Y-143820016D02*
X214479390Y-143756865D01*
X214504881Y-122058558D02*
X214545804Y-122025836D01*
X214504881Y-123599826D02*
X214465711Y-123565354D01*
X214512417Y-144150871D02*
X214529270Y-144103237D01*
X214521271Y-143881476D02*
X214503049Y-143820016D01*
X214525413Y-142399775D02*
X214483943Y-142359973D01*
X214529270Y-144103237D02*
X214538056Y-144052124D01*
X214532581Y-143273806D02*
X214568122Y-143274348D01*
X214533530Y-143940885D02*
X214521271Y-143881476D01*
X214538056Y-144052124D02*
X214539301Y-143997887D01*
X214539301Y-143997887D02*
X214533530Y-143940885D01*
X214540239Y-124405287D02*
X214251051Y-125287323D01*
X214545804Y-122025836D02*
X214588411Y-121994929D01*
X214545804Y-123632548D02*
X214504881Y-123599826D01*
D11*
X214554655Y-140727225D02*
X218480856Y-140809027D01*
D10*
X214564546Y-142441794D02*
X214525413Y-142399775D01*
X214568122Y-143274348D02*
X214600716Y-143269083D01*
X214588411Y-121994929D02*
X214632629Y-121965904D01*
X214588411Y-123663454D02*
X214545804Y-123632548D01*
X214600716Y-143269083D02*
X214630036Y-143257571D01*
X214600879Y-142486344D02*
X214564546Y-142441794D01*
X214630036Y-143257571D02*
X214643365Y-143249335D01*
X214632629Y-121965904D02*
X214678390Y-121938824D01*
X214632629Y-123692480D02*
X214588411Y-123663454D01*
X214633946Y-142533739D02*
X214600879Y-142486344D01*
X214643365Y-143249335D02*
X214655753Y-143239372D01*
X214655753Y-143239372D02*
X214667159Y-143227627D01*
X214663285Y-142584295D02*
X214633946Y-142533739D01*
X214667159Y-143227627D02*
X214677541Y-143214045D01*
X214677541Y-143214045D02*
X214695072Y-143181151D01*
X214678390Y-121938824D02*
X214725620Y-121913756D01*
X214678390Y-123719560D02*
X214632629Y-123692480D01*
X214684835Y-120356602D02*
X214916189Y-121874859D01*
X214688429Y-142638326D02*
X214663285Y-142584295D01*
X214695072Y-143181151D02*
X214708017Y-143140250D01*
X214699284Y-142666742D02*
X214688429Y-142638326D01*
X214708017Y-143140250D02*
X214717582Y-143095941D01*
X214708916Y-142696145D02*
X214699284Y-142666742D01*
X214717267Y-142726574D02*
X214708916Y-142696145D01*
X214717582Y-143095941D02*
X214725228Y-143053090D01*
X214724280Y-142758069D02*
X214717267Y-142726574D01*
X214725228Y-143053090D02*
X214731014Y-143011658D01*
X214725620Y-121913756D02*
X214774251Y-121890764D01*
X214725620Y-123744628D02*
X214678390Y-123719560D01*
X214729896Y-142790668D02*
X214724280Y-142758069D01*
X214731014Y-143011658D02*
X214734996Y-142971606D01*
X214734057Y-142824410D02*
X214729896Y-142790668D01*
X214734996Y-142971606D02*
X214737234Y-142932895D01*
X214736706Y-142859336D02*
X214734057Y-142824410D01*
X214737234Y-142932895D02*
X214737784Y-142895485D01*
X214737784Y-142895485D02*
X214736706Y-142859336D01*
X214774251Y-121890764D02*
X214824210Y-121869916D01*
X214774251Y-123767619D02*
X214725620Y-123744628D01*
X214824210Y-121869916D02*
X214875428Y-121851275D01*
X214824210Y-123788468D02*
X214774251Y-123767619D01*
X214875428Y-121851275D02*
X214927832Y-121834907D01*
X214875428Y-123807109D02*
X214824210Y-123788468D01*
X214927832Y-121834907D02*
X214981353Y-121820878D01*
X214927832Y-123823476D02*
X214875428Y-123807109D01*
X214981353Y-121820878D02*
X215035919Y-121809253D01*
X214981353Y-123837506D02*
X214927832Y-123823476D01*
X215035919Y-121809253D02*
X215091459Y-121800097D01*
X215035919Y-123849130D02*
X214981353Y-123837506D01*
X215091459Y-121800097D02*
X215147904Y-121793477D01*
X215091459Y-123858286D02*
X215035919Y-123849130D01*
X215147904Y-121793477D02*
X215205181Y-121789456D01*
X215147904Y-123864907D02*
X215091459Y-123858286D01*
X215162000Y-125099349D02*
X216579038Y-126097060D01*
X215205181Y-121789456D02*
X215263220Y-121788102D01*
X215205181Y-123868927D02*
X215147904Y-123864907D01*
X215248762Y-122915951D02*
X215249308Y-122894373D01*
X215249308Y-122894373D02*
X215250927Y-122873077D01*
X215249308Y-122937530D02*
X215248762Y-122915951D01*
X215250927Y-122873077D02*
X215253593Y-122852091D01*
X215250927Y-122958825D02*
X215249308Y-122937530D01*
X215253593Y-122852091D02*
X215257281Y-122831441D01*
X215253593Y-122979811D02*
X215250927Y-122958825D01*
X215257281Y-122831441D02*
X215261963Y-122811154D01*
X215257281Y-123000460D02*
X215253593Y-122979811D01*
X215261963Y-122811154D02*
X215267614Y-122791255D01*
X215261963Y-123020748D02*
X215257281Y-123000460D01*
X215263220Y-121788102D02*
X215321259Y-121789456D01*
X215263220Y-123870282D02*
X215205181Y-123868927D01*
X215267614Y-122791255D02*
X215274206Y-122771771D01*
X215267614Y-123040646D02*
X215261963Y-123020748D01*
X215274206Y-122771771D02*
X215281714Y-122752729D01*
X215274206Y-123060130D02*
X215267614Y-123040646D01*
X215281714Y-122752729D02*
X215290112Y-122734154D01*
X215281714Y-123079172D02*
X215274206Y-123060130D01*
X215290112Y-122734154D02*
X215299372Y-122716074D01*
X215290112Y-123097747D02*
X215281714Y-123079172D01*
X215299372Y-122716074D02*
X215309469Y-122698513D01*
X215299372Y-123115828D02*
X215290112Y-123097747D01*
X215309469Y-122698513D02*
X215320376Y-122681500D01*
X215309469Y-123133388D02*
X215299372Y-123115828D01*
X215320376Y-122681500D02*
X215332067Y-122665060D01*
X215320376Y-123150401D02*
X215309469Y-123133388D01*
X215321259Y-121789456D02*
X215378536Y-121793477D01*
X215321259Y-123868927D02*
X215263220Y-123870282D01*
X215332067Y-122665060D02*
X215344515Y-122649219D01*
X215332067Y-123166841D02*
X215320376Y-123150401D01*
X215344515Y-122649219D02*
X215357695Y-122634004D01*
X215344515Y-123182682D02*
X215332067Y-123166841D01*
X215357695Y-122634004D02*
X215371579Y-122619441D01*
X215357695Y-123197897D02*
X215344515Y-123182682D01*
X215371579Y-122619441D02*
X215386142Y-122605556D01*
X215371579Y-123212460D02*
X215357695Y-123197897D01*
X215378536Y-121793477D02*
X215434980Y-121800097D01*
X215378536Y-123864907D02*
X215321259Y-123868927D01*
X215386142Y-122605556D02*
X215401357Y-122592376D01*
X215386142Y-123226345D02*
X215371579Y-123212460D01*
X215401357Y-122592376D02*
X215417198Y-122579928D01*
X215401357Y-123239524D02*
X215386142Y-123226345D01*
X215417198Y-122579928D02*
X215433638Y-122568237D01*
X215417198Y-123251973D02*
X215401357Y-123239524D01*
X215433638Y-122568237D02*
X215450651Y-122557330D01*
X215433638Y-123263664D02*
X215417198Y-123251973D01*
X215434980Y-121800097D02*
X215490521Y-121809253D01*
X215434980Y-123858286D02*
X215378536Y-123864907D01*
X215450651Y-122557330D02*
X215468212Y-122547233D01*
X215450651Y-123274571D02*
X215433638Y-123263664D01*
X215468212Y-122547233D02*
X215486292Y-122537973D01*
X215468212Y-123284668D02*
X215450651Y-123274571D01*
X215486292Y-122537973D02*
X215504867Y-122529575D01*
X215486292Y-123293928D02*
X215468212Y-123284668D01*
X215490521Y-121809253D02*
X215545087Y-121820878D01*
X215490521Y-123849130D02*
X215434980Y-123858286D01*
X215504867Y-122529575D02*
X215523909Y-122522067D01*
X215504867Y-123302325D02*
X215486292Y-123293928D01*
X215523909Y-122522067D02*
X215543393Y-122515475D01*
X215523909Y-123309833D02*
X215504867Y-123302325D01*
X215543393Y-122515475D02*
X215563292Y-122509824D01*
X215543393Y-123316426D02*
X215523909Y-123309833D01*
X215545087Y-121820878D02*
X215598607Y-121834907D01*
X215545087Y-123837506D02*
X215490521Y-123849130D01*
X215563292Y-122509824D02*
X215583579Y-122505142D01*
X215563292Y-123322077D02*
X215543393Y-123316426D01*
X215583579Y-122505142D02*
X215604229Y-122501454D01*
X215583579Y-123326759D02*
X215563292Y-123322077D01*
X215598607Y-121834907D02*
X215651012Y-121851275D01*
X215598607Y-123823476D02*
X215545087Y-123837506D01*
X215604229Y-122501454D02*
X215625215Y-122498787D01*
X215604229Y-123330446D02*
X215583579Y-123326759D01*
X215625215Y-122498787D02*
X215646510Y-122497168D01*
X215625215Y-123333113D02*
X215604229Y-123330446D01*
X215646510Y-122497168D02*
X215668089Y-122496623D01*
X215646510Y-123334732D02*
X215625215Y-123333113D01*
X215651012Y-121851275D02*
X215702229Y-121869916D01*
X215651012Y-123807109D02*
X215598607Y-123823476D01*
X215661128Y-121535334D02*
X215662664Y-121448301D01*
X215662664Y-121448301D02*
X215665938Y-121404125D01*
X215664952Y-121618597D02*
X215661128Y-121535334D01*
X215665938Y-121404125D02*
X215671147Y-121359912D01*
X215668089Y-122496623D02*
X215689667Y-122497168D01*
X215668089Y-123335278D02*
X215646510Y-123334732D01*
X215671147Y-121359912D02*
X215678490Y-121315964D01*
X215672545Y-121695675D02*
X215664952Y-121618597D01*
X215678490Y-121315964D02*
X215688166Y-121272583D01*
X215682320Y-121764153D02*
X215672545Y-121695675D01*
X215688166Y-121272583D02*
X215700373Y-121230070D01*
X215689667Y-122497168D02*
X215710962Y-122498787D01*
X215689667Y-123334732D02*
X215668089Y-123335278D01*
X215700373Y-121230070D02*
X215715309Y-121188727D01*
X215702061Y-121865653D02*
X215682320Y-121764153D01*
X215702229Y-121869916D02*
X215752188Y-121890764D01*
X215702229Y-123788468D02*
X215651012Y-123807109D01*
X215710962Y-122498787D02*
X215731948Y-122501454D01*
X215710962Y-123333113D02*
X215689667Y-123334732D01*
X215711466Y-121903779D02*
X215702061Y-121865653D01*
X215715309Y-121188727D02*
X215733174Y-121148856D01*
X215731948Y-122501454D02*
X215752597Y-122505142D01*
X215731948Y-123330446D02*
X215710962Y-123333113D01*
X215733174Y-121148856D02*
X215754166Y-121110759D01*
X215752188Y-121890764D02*
X215800819Y-121913756D01*
X215752188Y-123767619D02*
X215702229Y-123788468D01*
X215752597Y-122505142D02*
X215772885Y-122509824D01*
X215752597Y-123326759D02*
X215731948Y-123330446D01*
X215754166Y-121110759D02*
X215778483Y-121074738D01*
X215772885Y-122509824D02*
X215792783Y-122515475D01*
X215772885Y-123322077D02*
X215752597Y-123326759D01*
X215778483Y-121074738D02*
X215806324Y-121041095D01*
X215792783Y-122515475D02*
X215812267Y-122522067D01*
X215792783Y-123316426D02*
X215772885Y-123322077D01*
X215800819Y-121913756D02*
X215848050Y-121938824D01*
X215800819Y-123744628D02*
X215752188Y-123767619D01*
X215806324Y-121041095D02*
X215837888Y-121010131D01*
X215812267Y-122522067D02*
X215831309Y-122529575D01*
X215812267Y-123309833D02*
X215792783Y-123316426D01*
X215831309Y-122529575D02*
X215849884Y-122537973D01*
X215831309Y-123302325D02*
X215812267Y-123309833D01*
X215837888Y-121010131D02*
X215873373Y-120982148D01*
X215848050Y-121938824D02*
X215893810Y-121965904D01*
X215848050Y-123719560D02*
X215800819Y-123744628D01*
X215849884Y-122537973D02*
X215867964Y-122547233D01*
X215849884Y-123293928D02*
X215831309Y-123302325D01*
X215856062Y-124781239D02*
X215856984Y-124757428D01*
X215856984Y-124757428D02*
X215859720Y-124733930D01*
X215856984Y-124805050D02*
X215856062Y-124781239D01*
X215859720Y-124733930D02*
X215864225Y-124710773D01*
X215859720Y-124828548D02*
X215856984Y-124805050D01*
X215864225Y-124710773D02*
X215870456Y-124687987D01*
X215864225Y-124851705D02*
X215859720Y-124828548D01*
X215867964Y-122547233D02*
X215885524Y-122557330D01*
X215867964Y-123284668D02*
X215849884Y-123293928D01*
X215870456Y-124687987D02*
X215878368Y-124665601D01*
X215870456Y-124874491D02*
X215864225Y-124851705D01*
X215873373Y-120982148D02*
X215912978Y-120957448D01*
X215878368Y-124665601D02*
X215887915Y-124643644D01*
X215878368Y-124896877D02*
X215870456Y-124874491D01*
X215885524Y-122557330D02*
X215902538Y-122568237D01*
X215885524Y-123274571D02*
X215867964Y-123284668D01*
X215887915Y-124643644D02*
X215899055Y-124622145D01*
X215887915Y-124918834D02*
X215878368Y-124896877D01*
X215893810Y-121965904D02*
X215938029Y-121994929D01*
X215893810Y-123692480D02*
X215848050Y-123719560D01*
X215899055Y-124622145D02*
X215911741Y-124601132D01*
X215899055Y-124940333D02*
X215887915Y-124918834D01*
X215902538Y-122568237D02*
X215918978Y-122579928D01*
X215902538Y-123263664D02*
X215885524Y-123274571D01*
X215911741Y-124601132D02*
X215925930Y-124580636D01*
X215911741Y-124961346D02*
X215899055Y-124940333D01*
X215912978Y-120957448D02*
X215956901Y-120936333D01*
X215918978Y-122579928D02*
X215934819Y-122592376D01*
X215918978Y-123251973D02*
X215902538Y-123263664D01*
X215925930Y-124580636D02*
X215941576Y-124560685D01*
X215925930Y-124981842D02*
X215911741Y-124961346D01*
X215934819Y-122592376D02*
X215950034Y-122605556D01*
X215934819Y-123239524D02*
X215918978Y-123251973D01*
X215938029Y-121994929D02*
X215980635Y-122025836D01*
X215938029Y-123663454D02*
X215893810Y-123692480D01*
X215941576Y-124560685D02*
X215958637Y-124541308D01*
X215941576Y-125001793D02*
X215925930Y-124981842D01*
X215950034Y-122605556D02*
X215964597Y-122619441D01*
X215950034Y-123226345D02*
X215934819Y-123239524D01*
X215956901Y-120936333D02*
X216005341Y-120919105D01*
X215958637Y-124541308D02*
X215977066Y-124522535D01*
X215964597Y-122619441D02*
X215978482Y-122634004D01*
X215964597Y-123212460D02*
X215950034Y-123226345D01*
X215977066Y-124522535D02*
X215996820Y-124504394D01*
X215977066Y-125039943D02*
X215941576Y-125001793D01*
X215978482Y-122634004D02*
X215991661Y-122649219D01*
X215978482Y-123197897D02*
X215964597Y-123212460D01*
X215980635Y-122025836D02*
X216021559Y-122058558D01*
X215980635Y-123632548D02*
X215938029Y-123663454D01*
X215991661Y-122649219D02*
X216004110Y-122665060D01*
X215991661Y-123182682D02*
X215978482Y-123197897D01*
X215996820Y-124504394D02*
X216017853Y-124486914D01*
X216004110Y-122665060D02*
X216015801Y-122681500D01*
X216004110Y-123166841D02*
X215991661Y-123182682D01*
X216005341Y-120919105D02*
X216058496Y-120906065D01*
X216015801Y-122681500D02*
X216026708Y-122698513D01*
X216015801Y-123150401D02*
X216004110Y-123166841D01*
X216017853Y-124486914D02*
X216040123Y-124470125D01*
X216017853Y-125075564D02*
X215977066Y-125039943D01*
X216021559Y-122058558D02*
X216060728Y-122093030D01*
X216021559Y-123599826D02*
X215980635Y-123632548D01*
X216026708Y-122698513D02*
X216036805Y-122716074D01*
X216026708Y-123133388D02*
X216015801Y-123150401D01*
X216036805Y-122716074D02*
X216046065Y-122734154D01*
X216036805Y-123115828D02*
X216026708Y-123133388D01*
X216040123Y-124470125D02*
X216063583Y-124454055D01*
X216046065Y-122734154D02*
X216054463Y-122752729D01*
X216046065Y-123097747D02*
X216036805Y-123115828D01*
X216054463Y-122752729D02*
X216061971Y-122771771D01*
X216054463Y-123079172D02*
X216046065Y-123097747D01*
X216058496Y-120906065D02*
X216170427Y-120881499D01*
X216060728Y-122093030D02*
X216098072Y-122129186D01*
X216060728Y-123565354D02*
X216021559Y-123599826D01*
X216061971Y-122771771D02*
X216068563Y-122791255D01*
X216061971Y-123060130D02*
X216054463Y-123079172D01*
X216063583Y-124454055D02*
X216088189Y-124438734D01*
X216063583Y-125108423D02*
X216017853Y-125075564D01*
X216068563Y-122791255D02*
X216074214Y-122811154D01*
X216068563Y-123040646D02*
X216061971Y-123060130D01*
X216074214Y-122811154D02*
X216078896Y-122831441D01*
X216074214Y-123020748D02*
X216068563Y-123040646D01*
X216078896Y-122831441D02*
X216082584Y-122852091D01*
X216078896Y-123000460D02*
X216074214Y-123020748D01*
X216082584Y-122852091D02*
X216085251Y-122873077D01*
X216082584Y-122979811D02*
X216078896Y-123000460D01*
X216085251Y-122873077D02*
X216086870Y-122894373D01*
X216085251Y-122958825D02*
X216082584Y-122979811D01*
X216086870Y-122894373D02*
X216087416Y-122915951D01*
X216086870Y-122937530D02*
X216085251Y-122958825D01*
X216087416Y-122915951D02*
X216086870Y-122937530D01*
X216088189Y-124438734D02*
X216113898Y-124424191D01*
X216098072Y-122129186D02*
X216133521Y-122166962D01*
X216098072Y-123529198D02*
X216060728Y-123565354D01*
X216113898Y-124424191D02*
X216140663Y-124410455D01*
X216113898Y-125138287D02*
X216063583Y-125108423D01*
X216133521Y-122166962D02*
X216167003Y-122206291D01*
X216133521Y-123491422D02*
X216098072Y-123529198D01*
X216140663Y-124410455D02*
X216168442Y-124397555D01*
X216167003Y-122206291D02*
X216198448Y-122247108D01*
X216167003Y-123452093D02*
X216133521Y-123491422D01*
X216168442Y-124397555D02*
X216197189Y-124385519D01*
X216168442Y-125164923D02*
X216113898Y-125138287D01*
X216170427Y-120881499D02*
X216282930Y-120851192D01*
X216197189Y-124385519D02*
X216226860Y-124374378D01*
X216198448Y-122247108D02*
X216227784Y-122289349D01*
X216198448Y-123411276D02*
X216167003Y-123452093D01*
X216226860Y-124374378D02*
X216257410Y-124364159D01*
X216226860Y-125188100D02*
X216168442Y-125164923D01*
X216227784Y-122289349D02*
X216254941Y-122332946D01*
X216227784Y-123369035D02*
X216198448Y-123411276D01*
X216254941Y-122332946D02*
X216279848Y-122377836D01*
X216254941Y-123325438D02*
X216227784Y-123369035D01*
X216257410Y-124364159D02*
X216288795Y-124354893D01*
X216279848Y-122377836D02*
X216302434Y-122423953D01*
X216279848Y-123280548D02*
X216254941Y-123325438D01*
X216282930Y-120851192D02*
X216394544Y-120815167D01*
X216288795Y-124354893D02*
X216320970Y-124346608D01*
X216288795Y-125207585D02*
X216226860Y-125188100D01*
X216302434Y-122423953D02*
X216322628Y-122471230D01*
X216302434Y-123234432D02*
X216279848Y-123280548D01*
X216320970Y-124346608D02*
X216353891Y-124339334D01*
X216322628Y-122471230D02*
X216340360Y-122519603D01*
X216322628Y-123187154D02*
X216302434Y-123234432D01*
X216333174Y-122510065D02*
X216333803Y-122525217D01*
X216333231Y-122496623D02*
X216333174Y-122510065D01*
X216333803Y-122525217D02*
X216335490Y-122544520D01*
X216335490Y-122544520D02*
X216338702Y-122566873D01*
X216338702Y-122566873D02*
X216343905Y-122591174D01*
X216340360Y-122519603D02*
X216355558Y-122569007D01*
X216340360Y-123138781D02*
X216322628Y-123187154D01*
X216343905Y-122591174D02*
X216351566Y-122616323D01*
X216351566Y-122616323D02*
X216356463Y-122628871D01*
X216353891Y-124339334D02*
X216387513Y-124333099D01*
X216353891Y-125223144D02*
X216288795Y-125207585D01*
X216355558Y-122569007D02*
X216368152Y-122619376D01*
X216355558Y-123089377D02*
X216340360Y-123138781D01*
X216356463Y-122628871D02*
X216362149Y-122641218D01*
X216362149Y-122641218D02*
X216368682Y-122653225D01*
X216368152Y-122619376D02*
X216378070Y-122670644D01*
X216368152Y-123039008D02*
X216355558Y-123089377D01*
X216368682Y-122653225D02*
X216376121Y-122664757D01*
X216376121Y-122664757D02*
X216384524Y-122675674D01*
X216378070Y-122670644D02*
X216385242Y-122722746D01*
X216378070Y-122987740D02*
X216368152Y-123039008D01*
X216384524Y-122675674D02*
X216393949Y-122685839D01*
X216385242Y-122722746D02*
X216389598Y-122775617D01*
X216385242Y-122935637D02*
X216378070Y-122987740D01*
X216387513Y-124333099D02*
X216421792Y-124327932D01*
X216389598Y-122775617D02*
X216391065Y-122829192D01*
X216389598Y-122882766D02*
X216385242Y-122935637D01*
X216391065Y-122829192D02*
X216389598Y-122882766D01*
X216393949Y-122685839D02*
X216404453Y-122695114D01*
X216394544Y-120815167D02*
X216503806Y-120773444D01*
X216404453Y-122695114D02*
X216416097Y-122703362D01*
X216416097Y-122703362D02*
X216428937Y-122710446D01*
X216421792Y-124327932D02*
X216456683Y-124323863D01*
X216421792Y-125234546D02*
X216353891Y-125223144D01*
X216428937Y-122710446D02*
X216443032Y-122716226D01*
X216443032Y-122716226D02*
X216458440Y-122720567D01*
X216456683Y-124323863D02*
X216492142Y-124320920D01*
X216458440Y-122720567D02*
X216475220Y-122723329D01*
X216475220Y-122723329D02*
X216493429Y-122724376D01*
X216492142Y-124320920D02*
X216528124Y-124319134D01*
X216492142Y-125241558D02*
X216421792Y-125234546D01*
X216493429Y-122724376D02*
X216513127Y-122723569D01*
X216503806Y-120773444D02*
X216609255Y-120726044D01*
X216513127Y-122723569D02*
X216534371Y-122720771D01*
X216528124Y-124319134D02*
X216564585Y-124318531D01*
X216534371Y-122720771D02*
X216557219Y-122715845D01*
X216557219Y-122715845D02*
X216581730Y-122708652D01*
X216564585Y-124318531D02*
X216637026Y-124320920D01*
X216564585Y-125243947D02*
X216492142Y-125241558D01*
X216579038Y-126097060D02*
X218039457Y-125099347D01*
X216581730Y-122708652D02*
X216607961Y-122699055D01*
X216601045Y-125243344D02*
X216564585Y-125243947D01*
X216607961Y-122699055D02*
X216897154Y-122583378D01*
X216609255Y-120726044D02*
X216709431Y-120672989D01*
X216637026Y-124320920D02*
X216707376Y-124327932D01*
X216637026Y-125241558D02*
X216601045Y-125243344D01*
X216672485Y-125238615D02*
X216637026Y-125241558D01*
X216707376Y-124327932D02*
X216775276Y-124339334D01*
X216707376Y-125234546D02*
X216672485Y-125238615D01*
X216709431Y-120672989D02*
X216802871Y-120614300D01*
X216741654Y-125229379D02*
X216707376Y-125234546D01*
X216775276Y-124339334D02*
X216840372Y-124354893D01*
X216775276Y-125223144D02*
X216741654Y-125229379D01*
X216802871Y-120614300D02*
X216888114Y-120549998D01*
X216808197Y-125215870D02*
X216775276Y-125223144D01*
X216839315Y-122843651D02*
X216840783Y-122790077D01*
X216840372Y-124354893D02*
X216902307Y-124374378D01*
X216840372Y-125207585D02*
X216808197Y-125215870D01*
X216840783Y-122790077D02*
X216845138Y-122737206D01*
X216840783Y-122897226D02*
X216839315Y-122843651D01*
X216845138Y-122737206D02*
X216852310Y-122685104D01*
X216845138Y-122950097D02*
X216840783Y-122897226D01*
X216852310Y-122685104D02*
X216862229Y-122633835D01*
X216852310Y-123002199D02*
X216845138Y-122950097D01*
X216862229Y-122633835D02*
X216874823Y-122583467D01*
X216862229Y-123053467D02*
X216852310Y-123002199D01*
X216871757Y-125198319D02*
X216840372Y-125207585D01*
X216874823Y-122583467D02*
X216890021Y-122534063D01*
X216874823Y-123103836D02*
X216862229Y-123053467D01*
X216888114Y-120549998D02*
X216927205Y-120515748D01*
X216890021Y-122534063D02*
X216907752Y-122485690D01*
X216890021Y-123153239D02*
X216874823Y-123103836D01*
X216902307Y-124374378D02*
X216960724Y-124397555D01*
X216902307Y-125188100D02*
X216871757Y-125198319D01*
X216907752Y-122485690D02*
X216927947Y-122438412D01*
X216907752Y-123201613D02*
X216890021Y-123153239D01*
X216927205Y-120515748D02*
X216963699Y-120480104D01*
X216927947Y-122438412D02*
X216950533Y-122392296D01*
X216927947Y-123248890D02*
X216907752Y-123201613D01*
X216931977Y-125176959D02*
X216902307Y-125188100D01*
X216950533Y-122392296D02*
X216975440Y-122347406D01*
X216950533Y-123295007D02*
X216927947Y-123248890D01*
X216960724Y-124397555D02*
X217015268Y-124424191D01*
X216960724Y-125164923D02*
X216931977Y-125176959D01*
X216963699Y-120480104D02*
X216997413Y-120443067D01*
X216975440Y-122347406D02*
X217002597Y-122303808D01*
X216975440Y-123339896D02*
X216950533Y-123295007D01*
X216988503Y-125152023D02*
X216960724Y-125164923D01*
X216997413Y-120443067D02*
X217028163Y-120404639D01*
X217002597Y-122303808D02*
X217031933Y-122261568D01*
X217002597Y-123383494D02*
X216975440Y-123339896D01*
X217015268Y-124424191D02*
X217065583Y-124454055D01*
X217015268Y-125138287D02*
X216988503Y-125152023D01*
X217028163Y-120404639D02*
X217055769Y-120364825D01*
X217031933Y-122261568D02*
X217063378Y-122220751D01*
X217031933Y-123425734D02*
X217002597Y-123383494D01*
X217040977Y-125123744D02*
X217015268Y-125138287D01*
X217055769Y-120364825D02*
X217080047Y-120323625D01*
X217063378Y-122220751D02*
X217096860Y-122181421D01*
X217063378Y-123466552D02*
X217031933Y-123425734D01*
X217065583Y-124454055D02*
X217111312Y-124486914D01*
X217065583Y-125108423D02*
X217040977Y-125123744D01*
X217070585Y-119710877D02*
X217075498Y-119686716D01*
X217072600Y-119743594D02*
X217070585Y-119710877D01*
X217075498Y-119686716D02*
X217086798Y-119670774D01*
X217080047Y-120323625D02*
X217100813Y-120281044D01*
X217082087Y-119785208D02*
X217072600Y-119743594D01*
X217085127Y-122887032D02*
X217085672Y-122865453D01*
X217085672Y-122865453D02*
X217087292Y-122844158D01*
X217085672Y-122908611D02*
X217085127Y-122887032D01*
X217086798Y-119670774D02*
X217103941Y-119662711D01*
X217087292Y-122844158D02*
X217089958Y-122823172D01*
X217087292Y-122929906D02*
X217085672Y-122908611D01*
X217089043Y-125092353D02*
X217065583Y-125108423D01*
X217089958Y-122823172D02*
X217093646Y-122802523D01*
X217089958Y-122950892D02*
X217087292Y-122929906D01*
X217093646Y-122802523D02*
X217098328Y-122782235D01*
X217093646Y-122971541D02*
X217089958Y-122950892D01*
X217096860Y-122181421D02*
X217132308Y-122143646D01*
X217096860Y-123505881D02*
X217063378Y-123466552D01*
X217098328Y-122782235D02*
X217103979Y-122762337D01*
X217098328Y-122991829D02*
X217093646Y-122971541D01*
X217099588Y-119836056D02*
X217082087Y-119785208D01*
X217100813Y-120281044D02*
X217117887Y-120237083D01*
X217103941Y-119662711D02*
X217126384Y-119662189D01*
X217103979Y-122762337D02*
X217110571Y-122742853D01*
X217103979Y-123011727D02*
X217098328Y-122991829D01*
X217110571Y-122742853D02*
X217118080Y-122723811D01*
X217110571Y-123031211D02*
X217103979Y-123011727D01*
X217111312Y-124486914D02*
X217152100Y-124522535D01*
X217111312Y-125075564D02*
X217089043Y-125092353D01*
X217117887Y-120237083D02*
X217131084Y-120191746D01*
X217118080Y-122723811D02*
X217126477Y-122705236D01*
X217118080Y-123050253D02*
X217110571Y-123031211D01*
X217118639Y-119890957D02*
X217099588Y-119836056D01*
X217126384Y-119662189D02*
X217153586Y-119668868D01*
X217126477Y-122705236D02*
X217135737Y-122687155D01*
X217126477Y-123068828D02*
X217118080Y-123050253D01*
X217131084Y-120191746D02*
X217140223Y-120145034D01*
X217132308Y-122143646D02*
X217169653Y-122107490D01*
X217132308Y-123543657D02*
X217096860Y-123505881D01*
X217132346Y-125058084D02*
X217111312Y-125075564D01*
X217132535Y-119944499D02*
X217118639Y-119890957D01*
X217135737Y-122687155D02*
X217145834Y-122669595D01*
X217135737Y-123086909D02*
X217126477Y-123068828D01*
X217140223Y-120145034D02*
X217145119Y-120096951D01*
X217141458Y-119996681D02*
X217132535Y-119944499D01*
X217145119Y-120096951D02*
X217145592Y-120047499D01*
X217145592Y-120047499D02*
X217141458Y-119996681D01*
X217145834Y-122669595D02*
X217156741Y-122652582D01*
X217145834Y-123104469D02*
X217135737Y-123086909D01*
X217152100Y-124522535D02*
X217187589Y-124560685D01*
X217152100Y-125039943D02*
X217132346Y-125058084D01*
X217153586Y-119668868D02*
X217185002Y-119682410D01*
X217156741Y-122652582D02*
X217168432Y-122636141D01*
X217156741Y-123121482D02*
X217145834Y-123104469D01*
X217168432Y-122636141D02*
X217180881Y-122620300D01*
X217168432Y-123137923D02*
X217156741Y-123121482D01*
X217169653Y-122107490D02*
X217208822Y-122073018D01*
X217169653Y-123579813D02*
X217132308Y-123543657D01*
X217170529Y-125021170D02*
X217152100Y-125039943D01*
X217180881Y-122620300D02*
X217194061Y-122605085D01*
X217180881Y-123153764D02*
X217168432Y-123137923D01*
X217185002Y-119682410D02*
X217220090Y-119702475D01*
X217187589Y-124560685D02*
X217203236Y-124580636D01*
X217187589Y-125001793D02*
X217170529Y-125021170D01*
X217194061Y-122605085D02*
X217207945Y-122590522D01*
X217194061Y-123168979D02*
X217180881Y-123153764D01*
X217203236Y-124580636D02*
X217217425Y-124601132D01*
X217203236Y-124981842D02*
X217187589Y-125001793D01*
X217207945Y-122590522D02*
X217222508Y-122576637D01*
X217207945Y-123183542D02*
X217194061Y-123168979D01*
X217208822Y-122073018D02*
X217249745Y-122040296D01*
X217208822Y-123614285D02*
X217169653Y-123579813D01*
X217217425Y-124601132D02*
X217230111Y-124622145D01*
X217217425Y-124961346D02*
X217203236Y-124981842D01*
X217220090Y-119702475D02*
X217258309Y-119728725D01*
X217222508Y-122576637D02*
X217237723Y-122563458D01*
X217222508Y-123197427D02*
X217207945Y-123183542D01*
X217230111Y-124622145D02*
X217241250Y-124643644D01*
X217230111Y-124940333D02*
X217217425Y-124961346D01*
X217237723Y-122563458D02*
X217253564Y-122551009D01*
X217237723Y-123210606D02*
X217222508Y-123197427D01*
X217241250Y-124643644D02*
X217250797Y-124665601D01*
X217241250Y-124918834D02*
X217230111Y-124940333D01*
X217249745Y-122040296D02*
X217292352Y-122009389D01*
X217249745Y-123647007D02*
X217208822Y-123614285D01*
X217250797Y-124665601D02*
X217258709Y-124687987D01*
X217250797Y-124896877D02*
X217241250Y-124918834D01*
X217253564Y-122551009D02*
X217270004Y-122539318D01*
X217253564Y-123223055D02*
X217237723Y-123210606D01*
X217258309Y-119728725D02*
X217299113Y-119760822D01*
X217258709Y-124687987D02*
X217264940Y-124710773D01*
X217258709Y-124874491D02*
X217250797Y-124896877D01*
X217264940Y-124710773D02*
X217269446Y-124733930D01*
X217264940Y-124851705D02*
X217258709Y-124874491D01*
X217269446Y-124733930D02*
X217272182Y-124757428D01*
X217269446Y-124828548D02*
X217264940Y-124851705D01*
X217270004Y-122539318D02*
X217287018Y-122528411D01*
X217270004Y-123234746D02*
X217253564Y-123223055D01*
X217272182Y-124757428D02*
X217273104Y-124781239D01*
X217272182Y-124805050D02*
X217269446Y-124828548D01*
X217273104Y-124781239D02*
X217272182Y-124805050D01*
X217287018Y-122528411D02*
X217304578Y-122518314D01*
X217287018Y-123245653D02*
X217270004Y-123234746D01*
X217292352Y-122009389D02*
X217336571Y-121980363D01*
X217292352Y-123677913D02*
X217249745Y-123647007D01*
X217299113Y-119760822D02*
X217341962Y-119798425D01*
X217304578Y-122518314D02*
X217322659Y-122509054D01*
X217304578Y-123255750D02*
X217287018Y-123245653D01*
X217313122Y-121931086D02*
X217302023Y-121932696D01*
X217322659Y-122509054D02*
X217341233Y-122500656D01*
X217322659Y-123265010D02*
X217304578Y-123255750D01*
X217326518Y-121927263D02*
X217313122Y-121931086D01*
X217336571Y-121980363D02*
X217382331Y-121953283D01*
X217336571Y-123706939D02*
X217292352Y-123677913D01*
X217341233Y-122500656D02*
X217360275Y-122493148D01*
X217341233Y-123273408D02*
X217322659Y-123265010D01*
X217341962Y-119798425D02*
X217386312Y-119841197D01*
X217344724Y-121919818D02*
X217326518Y-121927263D01*
X217360275Y-122493148D02*
X217379759Y-122486556D01*
X217360275Y-123280916D02*
X217341233Y-123273408D01*
X217367419Y-121907543D02*
X217344724Y-121919818D01*
X217379759Y-122486556D02*
X217399658Y-122480905D01*
X217379759Y-123287508D02*
X217360275Y-123280916D01*
X217382331Y-121953283D02*
X217429562Y-121928215D01*
X217382331Y-123734019D02*
X217336571Y-123706939D01*
X217386312Y-119841197D02*
X217431621Y-119888798D01*
X217394287Y-121889232D02*
X217367419Y-121907543D01*
X217399658Y-122480905D02*
X217419945Y-122476223D01*
X217399658Y-123293159D02*
X217379759Y-123287508D01*
X217419945Y-122476223D02*
X217440594Y-122472535D01*
X217419945Y-123297841D02*
X217399658Y-123293159D01*
X217425010Y-121863677D02*
X217394287Y-121889232D01*
X217429562Y-121928215D02*
X217478192Y-121905224D01*
X217429562Y-123759087D02*
X217382331Y-123734019D01*
X217431621Y-119888798D02*
X217477345Y-119940889D01*
X217440594Y-122472535D02*
X217461580Y-122469868D01*
X217440594Y-123301529D02*
X217419945Y-123297841D01*
X217459270Y-121829671D02*
X217425010Y-121863677D01*
X217461580Y-122469868D02*
X217482875Y-122468249D01*
X217461580Y-123304196D02*
X217440594Y-123301529D01*
X217477345Y-119940889D02*
X217522942Y-119997132D01*
X217478192Y-121905224D02*
X217528152Y-121884375D01*
X217478192Y-123782078D02*
X217429562Y-123759087D01*
X217482875Y-122468249D02*
X217504453Y-122467703D01*
X217482875Y-123305815D02*
X217461580Y-123304196D01*
X217496750Y-121786007D02*
X217459270Y-121829671D01*
X217504453Y-122467703D02*
X217526032Y-122468249D01*
X217504453Y-123306361D02*
X217482875Y-123305815D01*
X217522942Y-119997132D02*
X217567869Y-120057187D01*
X217526032Y-122468249D02*
X217547328Y-122469868D01*
X217526032Y-123305815D02*
X217504453Y-123306361D01*
X217528152Y-121884375D02*
X217579369Y-121865734D01*
X217528152Y-123802927D02*
X217478192Y-123782078D01*
X217537132Y-121731476D02*
X217496750Y-121786007D01*
X217547328Y-122469868D02*
X217568313Y-122472535D01*
X217547328Y-123304196D02*
X217526032Y-123305815D01*
X217567869Y-120057187D02*
X217611584Y-120120716D01*
X217568313Y-122472535D02*
X217588963Y-122476223D01*
X217568313Y-123301529D02*
X217547328Y-123304196D01*
X217579369Y-121865734D02*
X217631773Y-121849367D01*
X217579369Y-123821568D02*
X217528152Y-123802927D01*
X217580098Y-121664872D02*
X217537132Y-121731476D01*
X217588963Y-122476223D02*
X217609251Y-122480905D01*
X217588963Y-123297841D02*
X217568313Y-123301529D01*
X217609251Y-122480905D02*
X217629149Y-122486556D01*
X217609251Y-123293159D02*
X217588963Y-123297841D01*
X217611584Y-120120716D02*
X217653543Y-120187380D01*
X217625330Y-121584988D02*
X217580098Y-121664872D01*
X217629149Y-122486556D02*
X217648633Y-122493148D01*
X217629149Y-123287508D02*
X217609251Y-123293159D01*
X217631773Y-121849367D02*
X217685294Y-121835338D01*
X217631773Y-123837936D02*
X217579369Y-123821568D01*
X217648633Y-122493148D02*
X217667675Y-122500656D01*
X217648633Y-123280916D02*
X217629149Y-123287508D01*
X217653543Y-120187380D02*
X217693204Y-120256839D01*
X217667675Y-122500656D02*
X217686250Y-122509054D01*
X217667675Y-123273408D02*
X217648633Y-123280916D01*
X217672511Y-121490616D02*
X217625330Y-121584988D01*
X217685294Y-121835338D02*
X217739860Y-121823713D01*
X217685294Y-123851965D02*
X217631773Y-123837936D01*
X217686250Y-122509054D02*
X217704331Y-122518314D01*
X217686250Y-123265010D02*
X217667675Y-123273408D01*
X217693204Y-120256839D02*
X217730024Y-120328756D01*
X217704331Y-122518314D02*
X217721891Y-122528411D01*
X217704331Y-123255750D02*
X217686250Y-123265010D01*
X217721323Y-121380549D02*
X217672511Y-121490616D01*
X217721891Y-122528411D02*
X217738904Y-122539318D01*
X217721891Y-123245653D02*
X217704331Y-123255750D01*
X217730024Y-120328756D02*
X217763461Y-120402791D01*
X217738904Y-122539318D02*
X217755344Y-122551009D01*
X217738904Y-123234746D02*
X217721891Y-123245653D01*
X217739860Y-121823713D02*
X217795401Y-121814557D01*
X217739860Y-123863590D02*
X217685294Y-123851965D01*
X217755344Y-122551009D02*
X217771185Y-122563458D01*
X217755344Y-123223055D02*
X217738904Y-123234746D01*
X217763461Y-120402791D02*
X217792971Y-120478605D01*
X217771185Y-122563458D02*
X217786400Y-122576637D01*
X217771185Y-123210606D02*
X217755344Y-123223055D01*
X217771448Y-121253579D02*
X217721323Y-121380549D01*
X217786400Y-122576637D02*
X217800963Y-122590522D01*
X217786400Y-123197427D02*
X217771185Y-123210606D01*
X217792971Y-120478605D02*
X217818012Y-120555859D01*
X217795401Y-121814557D02*
X217851845Y-121807936D01*
X217795401Y-123872746D02*
X217739860Y-123863590D01*
X217800963Y-122590522D02*
X217814848Y-122605085D01*
X217800963Y-123183542D02*
X217786400Y-123197427D01*
X217814848Y-122605085D02*
X217828027Y-122620300D01*
X217814848Y-123168979D02*
X217800963Y-123183542D01*
X217818012Y-120555859D02*
X217838041Y-120634215D01*
X217822569Y-121108500D02*
X217771448Y-121253579D01*
X217828027Y-122620300D02*
X217840476Y-122636141D01*
X217828027Y-123153764D02*
X217814848Y-123168979D01*
X217838041Y-120634215D02*
X217852515Y-120713333D01*
X217840476Y-122636141D02*
X217852166Y-122652582D01*
X217840476Y-123137923D02*
X217828027Y-123153764D01*
X217844010Y-121030653D02*
X217822569Y-121108500D01*
X217851845Y-121807936D02*
X217909122Y-121803916D01*
X217851845Y-123879366D02*
X217795401Y-123872746D01*
X217852166Y-122652582D02*
X217863073Y-122669595D01*
X217852166Y-123121482D02*
X217840476Y-123137923D01*
X217852515Y-120713333D02*
X217860892Y-120792875D01*
X217857182Y-120951873D02*
X217844010Y-121030653D01*
X217860892Y-120792875D02*
X217862628Y-120872501D01*
X217862628Y-120872501D02*
X217857182Y-120951873D01*
X217863073Y-122669595D02*
X217873170Y-122687155D01*
X217863073Y-123104469D02*
X217852166Y-123121482D01*
X217873170Y-122687155D02*
X217882431Y-122705236D01*
X217873170Y-123086909D02*
X217863073Y-123104469D01*
X217882431Y-122705236D02*
X217890828Y-122723811D01*
X217882431Y-123068828D02*
X217873170Y-123086909D01*
X217890828Y-122723811D02*
X217898336Y-122742853D01*
X217890828Y-123050253D02*
X217882431Y-123068828D01*
X217898336Y-122742853D02*
X217904928Y-122762337D01*
X217898336Y-123031211D02*
X217890828Y-123050253D01*
X217904928Y-122762337D02*
X217910579Y-122782235D01*
X217904928Y-123011727D02*
X217898336Y-123031211D01*
X217909122Y-121803916D02*
X217967161Y-121802561D01*
X217909122Y-123883387D02*
X217851845Y-123879366D01*
X217910579Y-122782235D02*
X217915261Y-122802523D01*
X217910579Y-122991829D02*
X217904928Y-123011727D01*
X217915261Y-122802523D02*
X217918949Y-122823172D01*
X217915261Y-122971541D02*
X217910579Y-122991829D01*
X217918949Y-122823172D02*
X217921615Y-122844158D01*
X217918949Y-122950892D02*
X217915261Y-122971541D01*
X217921615Y-122844158D02*
X217923235Y-122865453D01*
X217921615Y-122929906D02*
X217918949Y-122950892D01*
X217923235Y-122865453D02*
X217923780Y-122887032D01*
X217923235Y-122908611D02*
X217921615Y-122929906D01*
X217923780Y-122887032D02*
X217923235Y-122908611D01*
X217967161Y-121802561D02*
X218025200Y-121803916D01*
X217967161Y-123884741D02*
X217909122Y-123883387D01*
X218025200Y-121803916D02*
X218082477Y-121807936D01*
X218025200Y-123883387D02*
X217967161Y-123884741D01*
X218039457Y-125099347D02*
X219586637Y-123219601D01*
X218082477Y-121807936D02*
X218138921Y-121814557D01*
X218082477Y-123879366D02*
X218025200Y-123883387D01*
X218138921Y-121814557D02*
X218194462Y-121823713D01*
X218138921Y-123872746D02*
X218082477Y-123879366D01*
X218184057Y-124882454D02*
X218935957Y-125301781D01*
X218194462Y-121823713D02*
X218249028Y-121835338D01*
X218194462Y-123863590D02*
X218138921Y-123872746D01*
X218249028Y-121835338D02*
X218302549Y-121849367D01*
X218249028Y-123851965D02*
X218194462Y-123863590D01*
X218302549Y-121849367D02*
X218354954Y-121865734D01*
X218302549Y-123837936D02*
X218249028Y-123851965D01*
X218354954Y-121865734D02*
X218406171Y-121884375D01*
X218354954Y-123821568D02*
X218302549Y-123837936D01*
X218406171Y-121884375D02*
X218456130Y-121905224D01*
X218406171Y-123802927D02*
X218354954Y-123821568D01*
X218413879Y-142924026D02*
X218415755Y-142967558D01*
X218415755Y-142967558D02*
X218421817Y-143012100D01*
X218416032Y-142881441D02*
X218413879Y-142924026D01*
X218421817Y-143012100D02*
X218432222Y-143057713D01*
X218422056Y-142839741D02*
X218416032Y-142881441D01*
X218431796Y-142798865D02*
X218422056Y-142839741D01*
X218432222Y-143057713D02*
X218447128Y-143104458D01*
X218445092Y-142758751D02*
X218431796Y-142798865D01*
X218447128Y-143104458D02*
X218466692Y-143152398D01*
X218456130Y-121905224D02*
X218504761Y-121928215D01*
X218456130Y-123782078D02*
X218406171Y-123802927D01*
X218461788Y-142719337D02*
X218445092Y-142758751D01*
X218466692Y-143152398D02*
X218491072Y-143201594D01*
D11*
X218480856Y-140809027D02*
X220812033Y-141667883D01*
D10*
X218481726Y-142680562D02*
X218461788Y-142719337D01*
X218491072Y-143201594D02*
X218519222Y-143246758D01*
X218504750Y-142642364D02*
X218481726Y-142680562D01*
X218504761Y-121928215D02*
X218551992Y-121953283D01*
X218504761Y-123759087D02*
X218456130Y-123782078D01*
X218519222Y-143246758D02*
X218549847Y-143282895D01*
X218530702Y-142604680D02*
X218504750Y-142642364D01*
X218549847Y-143282895D02*
X218582727Y-143310502D01*
X218551992Y-121953283D02*
X218597752Y-121980363D01*
X218551992Y-123734019D02*
X218504761Y-123759087D01*
X218559425Y-142567449D02*
X218530702Y-142604680D01*
X218582727Y-143310502D02*
X218617639Y-143330078D01*
X218588926Y-120414441D02*
X218328653Y-121759182D01*
X218590761Y-142530610D02*
X218559425Y-142567449D01*
X218597752Y-121980363D02*
X218641971Y-122009389D01*
X218597752Y-123706939D02*
X218551992Y-123734019D01*
X218600716Y-144092550D02*
X218609327Y-144135750D01*
X218600927Y-144043557D02*
X218600716Y-144092550D01*
X218609294Y-143989355D02*
X218600927Y-144043557D01*
X218609327Y-144135750D02*
X218627426Y-144172576D01*
X218617639Y-143330078D02*
X218654364Y-143342120D01*
X218625148Y-143930524D02*
X218609294Y-143989355D01*
X218627426Y-144172576D02*
X218655679Y-144202445D01*
X218641971Y-122009389D02*
X218684578Y-122040296D01*
X218641971Y-123677913D02*
X218597752Y-123706939D01*
X218647825Y-143867647D02*
X218625148Y-143930524D01*
X218654364Y-143342120D02*
X218692681Y-143347127D01*
X218655679Y-144202445D02*
X218694753Y-144224774D01*
X218660645Y-142457857D02*
X218590761Y-142530610D01*
X218676658Y-143801307D02*
X218647825Y-143867647D01*
X218684578Y-122040296D02*
X218725502Y-122073018D01*
X218684578Y-123647007D02*
X218641971Y-123677913D01*
X218692681Y-143347127D02*
X218732367Y-143345596D01*
X218694753Y-144224774D02*
X218745315Y-144238982D01*
X218710979Y-143732086D02*
X218676658Y-143801307D01*
X218725502Y-122073018D02*
X218764671Y-122107490D01*
X218725502Y-123614285D02*
X218684578Y-123647007D01*
X218732367Y-143345596D02*
X218773203Y-143338025D01*
X218739096Y-142385929D02*
X218660645Y-142457857D01*
X218745315Y-144238982D02*
X218808031Y-144244486D01*
X218764671Y-122107490D02*
X218802016Y-122143646D01*
X218764671Y-123579813D02*
X218725502Y-123614285D01*
X218773203Y-143338025D02*
X218814968Y-143324913D01*
X218793424Y-143587328D02*
X218710979Y-143732086D01*
X218802016Y-122143646D02*
X218837465Y-122181421D01*
X218802016Y-123543657D02*
X218764671Y-123579813D01*
X218808031Y-144244486D02*
X218875968Y-144242307D01*
X218814968Y-143324913D02*
X218857440Y-143306758D01*
X218824856Y-142314330D02*
X218739096Y-142385929D01*
X218837465Y-122181421D02*
X218870947Y-122220751D01*
X218837465Y-123505881D02*
X218802016Y-123543657D01*
X218857440Y-143306758D02*
X218900400Y-143284056D01*
X218870947Y-122220751D02*
X218902392Y-122261568D01*
X218870947Y-123466552D02*
X218837465Y-123505881D01*
X218875968Y-144242307D02*
X218941748Y-144234117D01*
X218889828Y-143438033D02*
X218793424Y-143587328D01*
X218900400Y-143284056D02*
X218943625Y-143257307D01*
X218902392Y-122261568D02*
X218931728Y-122303808D01*
X218902392Y-123425734D02*
X218870947Y-123466552D01*
X218916667Y-142242567D02*
X218824856Y-142314330D01*
X218931728Y-122303808D02*
X218958885Y-122347406D01*
X218931728Y-123383494D02*
X218902392Y-123425734D01*
X218935957Y-125301781D02*
X218632303Y-124419747D01*
X218941748Y-144234117D02*
X219005372Y-144220313D01*
X218943625Y-143257307D02*
X218986895Y-143227009D01*
X218958885Y-122347406D02*
X218983792Y-122392296D01*
X218958885Y-123339896D02*
X218931728Y-123383494D01*
X218983792Y-122392296D02*
X219006379Y-122438412D01*
X218983792Y-123295007D02*
X218958885Y-123339896D01*
X218986895Y-143227009D02*
X219029989Y-143193659D01*
X218994858Y-143288857D02*
X218889828Y-143438033D01*
X219005372Y-144220313D02*
X219066839Y-144201296D01*
X219006379Y-122438412D02*
X219026573Y-122485690D01*
X219006379Y-123248890D02*
X218983792Y-123295007D01*
X219026573Y-122485690D02*
X219044305Y-122534063D01*
X219026573Y-123201613D02*
X219006379Y-123248890D01*
X219029989Y-143193659D02*
X219114765Y-143119796D01*
X219044305Y-122534063D02*
X219059503Y-122583467D01*
X219044305Y-123153239D02*
X219026573Y-123201613D01*
X219059503Y-122583467D02*
X219072097Y-122633835D01*
X219059503Y-123103836D02*
X219044305Y-123153239D01*
X219066839Y-144201296D02*
X219126149Y-144177463D01*
X219072097Y-122633835D02*
X219082015Y-122685104D01*
X219072097Y-123053467D02*
X219059503Y-123103836D01*
X219082015Y-122685104D02*
X219089188Y-122737206D01*
X219082015Y-123002199D02*
X219072097Y-123053467D01*
X219089188Y-122737206D02*
X219093543Y-122790077D01*
X219089188Y-122950097D02*
X219082015Y-123002199D01*
X219093543Y-122790077D02*
X219095011Y-122843651D01*
X219093543Y-122897226D02*
X219089188Y-122950097D01*
X219095011Y-122843651D02*
X219093543Y-122897226D01*
X219103183Y-143144459D02*
X218994858Y-143288857D01*
X219114765Y-143119796D02*
X219196186Y-143039703D01*
X219126149Y-144177463D02*
X219183302Y-144149214D01*
X219183302Y-144149214D02*
X219238298Y-144116947D01*
X219196186Y-143039703D02*
X219272486Y-142957363D01*
X219238298Y-144116947D02*
X219291138Y-144081060D01*
X219272486Y-142957363D02*
X219341895Y-142876760D01*
X219291138Y-144081060D02*
X219341821Y-144041954D01*
D11*
X219298818Y-124040892D02*
X218950430Y-124072684D01*
D10*
X219308392Y-142888628D02*
X219103183Y-143144459D01*
X219319258Y-141943980D02*
X218916667Y-142242567D01*
X219341821Y-144041954D02*
X219390348Y-144000026D01*
X219341895Y-142876760D02*
X219402648Y-142801879D01*
X219355284Y-122959328D02*
X220540968Y-122164052D01*
X219370679Y-141906042D02*
X219319258Y-141943980D01*
X219390348Y-144000026D02*
X219436717Y-143955676D01*
X219402648Y-142801879D02*
X219491114Y-142685217D01*
X219421382Y-141870764D02*
X219370679Y-141906042D01*
X219436717Y-143955676D02*
X219480930Y-143909301D01*
X219445975Y-144290038D02*
X219450735Y-144344177D01*
X219446829Y-144232896D02*
X219445975Y-144290038D01*
X219450735Y-144344177D02*
X219461591Y-144394841D01*
X219452816Y-144173222D02*
X219446829Y-144232896D01*
X219461591Y-144394841D02*
X219479024Y-144441559D01*
X219463456Y-144111490D02*
X219452816Y-144173222D01*
X219471306Y-141838051D02*
X219421382Y-141870764D01*
X219478267Y-144048170D02*
X219463456Y-144111490D01*
X219479024Y-144441559D02*
X219503516Y-144483859D01*
X219480930Y-143909301D02*
X219522986Y-143861302D01*
X219491114Y-142685217D02*
X219523744Y-142639246D01*
X219496768Y-143983734D02*
X219478267Y-144048170D01*
X219503516Y-144483859D02*
X219535546Y-144521269D01*
X219520392Y-141807807D02*
X219471306Y-141838051D01*
X219522986Y-143861302D02*
X219562886Y-143812076D01*
X219523744Y-142639246D02*
X219308392Y-142888628D01*
X219535546Y-144521269D02*
X219575597Y-144553316D01*
X219542916Y-143853401D02*
X219496768Y-143983734D01*
X219562886Y-143812076D02*
X219636215Y-143711541D01*
X219568578Y-141779938D02*
X219520392Y-141807807D01*
X219575597Y-144553316D02*
X219624149Y-144579530D01*
X219586637Y-123219601D02*
X219210687Y-122944869D01*
X219598050Y-143724267D02*
X219542916Y-143853401D01*
X219615807Y-141754347D02*
X219568578Y-141779938D01*
X219624149Y-144579530D02*
X219681683Y-144599439D01*
X219636215Y-143711541D02*
X219700916Y-143610885D01*
X219658321Y-143600105D02*
X219598050Y-143724267D01*
X219662016Y-141730938D02*
X219615807Y-141754347D01*
X219681683Y-144599439D02*
X219748682Y-144612570D01*
X219700916Y-143610885D02*
X219756991Y-143513300D01*
X219707148Y-141709617D02*
X219662016Y-141730938D01*
X219719880Y-143484690D02*
X219658321Y-143600105D01*
X219748682Y-144612570D02*
X219818349Y-144617694D01*
X219751141Y-141690289D02*
X219707148Y-141709617D01*
X219756991Y-143513300D02*
X219804439Y-143421975D01*
X219778878Y-143381796D02*
X219719880Y-143484690D01*
X219793936Y-141672856D02*
X219751141Y-141690289D01*
X219804439Y-143421975D02*
X219843260Y-143340101D01*
X219818349Y-144617694D02*
X219883664Y-144614262D01*
X219835472Y-141657225D02*
X219793936Y-141672856D01*
X219843260Y-143340101D02*
X219895021Y-143217466D01*
X219873794Y-143228668D02*
X219778878Y-143381796D01*
X219875691Y-141643299D02*
X219835472Y-141657225D01*
X219883664Y-144614262D02*
X219944767Y-144602825D01*
X219895021Y-143217466D02*
X219912275Y-143170916D01*
X219912275Y-143170916D02*
X219873794Y-143228668D01*
X219914532Y-141630983D02*
X219875691Y-141643299D01*
X219944767Y-144602825D02*
X220001797Y-144583933D01*
X219951935Y-141620182D02*
X219914532Y-141630983D01*
X219987841Y-141610800D02*
X219951935Y-141620182D01*
X220001797Y-144583933D02*
X220054896Y-144558136D01*
X220022188Y-141602741D02*
X219987841Y-141610800D01*
X220054896Y-144558136D02*
X220104204Y-144525986D01*
X220085971Y-141590213D02*
X220022188Y-141602741D01*
X220104204Y-144525986D02*
X220149861Y-144488031D01*
X220142805Y-141581834D02*
X220085971Y-141590213D01*
X220149861Y-144488031D02*
X220192008Y-144444824D01*
X220192008Y-144444824D02*
X220230785Y-144396914D01*
X220192210Y-141576839D02*
X220142805Y-141581834D01*
X220230785Y-144396914D02*
X220266332Y-144344851D01*
X220233707Y-141574465D02*
X220192210Y-141576839D01*
X220266332Y-144344851D02*
X220298791Y-144289186D01*
X220266816Y-141573949D02*
X220233707Y-141574465D01*
X220291060Y-141574525D02*
X220266816Y-141573949D01*
X220298791Y-144289186D02*
X220328301Y-144230470D01*
X220311029Y-141575903D02*
X220291060Y-141574525D01*
X220328301Y-144230470D02*
X220355002Y-144169252D01*
X220355002Y-144169252D02*
X220379036Y-144106084D01*
X220379036Y-144106084D02*
X220419662Y-143976097D01*
X220419662Y-143976097D02*
X220451301Y-143844911D01*
X220451301Y-143844911D02*
X220475078Y-143716931D01*
X220475078Y-143716931D02*
X220492114Y-143596559D01*
X220492114Y-143596559D02*
X220503534Y-143488199D01*
X220503534Y-143488199D02*
X220514018Y-143325127D01*
X220506250Y-143513122D02*
X220507968Y-143768693D01*
X220507968Y-143768693D02*
X220514293Y-143912430D01*
X220514018Y-143325127D02*
X220515516Y-143262942D01*
X220514293Y-143912430D02*
X220525741Y-144060450D01*
X220515516Y-143262942D02*
X220506250Y-143513122D01*
X220525741Y-144060450D02*
X220543419Y-144207990D01*
X220540968Y-122164052D02*
X221003675Y-120327683D01*
X220543419Y-144207990D02*
X220568436Y-144350289D01*
X220568436Y-144350289D02*
X220601901Y-144482583D01*
X220601901Y-144482583D02*
X220622147Y-144543490D01*
X220622147Y-144543490D02*
X220644920Y-144600109D01*
X220644920Y-144600109D02*
X220670360Y-144651846D01*
X220670360Y-144651846D02*
X220698604Y-144698105D01*
X220698604Y-144698105D02*
X220729791Y-144738291D01*
X220729791Y-144738291D02*
X220764060Y-144771808D01*
X220764060Y-144771808D02*
X220801548Y-144798062D01*
X220801548Y-144798062D02*
X220842396Y-144816456D01*
D11*
X220812033Y-141667883D02*
X225965170Y-137291808D01*
D10*
X220842396Y-144816456D02*
X220886740Y-144826395D01*
X220886740Y-144826395D02*
X220934721Y-144827284D01*
X220914274Y-141678145D02*
X220648435Y-141657706D01*
X220934721Y-144827284D02*
X220982789Y-144819257D01*
X220939012Y-141684549D02*
X220914274Y-141678145D01*
X220963365Y-141699542D02*
X220939012Y-141684549D01*
X220982789Y-144819257D02*
X221027391Y-144803206D01*
X220987306Y-141722548D02*
X220963365Y-141699542D01*
X221003675Y-120327683D02*
X218588926Y-120414441D01*
X221010808Y-141752991D02*
X220987306Y-141722548D01*
X221027391Y-144803206D02*
X221068652Y-144779674D01*
X221033846Y-141790293D02*
X221010808Y-141752991D01*
X221056394Y-141833878D02*
X221033846Y-141790293D01*
X221068652Y-144779674D02*
X221106701Y-144749203D01*
X221099913Y-141937590D02*
X221056394Y-141833878D01*
X221106701Y-144749203D02*
X221141664Y-144712337D01*
X221141155Y-142059515D02*
X221099913Y-141937590D01*
X221141664Y-144712337D02*
X221173670Y-144669619D01*
X221173670Y-144669619D02*
X221202844Y-144621591D01*
X221179912Y-142195039D02*
X221141155Y-142059515D01*
X221202844Y-144621591D02*
X221229316Y-144568797D01*
X221215972Y-142339550D02*
X221179912Y-142195039D01*
X221229316Y-144568797D02*
X221253211Y-144511779D01*
X221249126Y-142488434D02*
X221215972Y-142339550D01*
X221253211Y-144511779D02*
X221274657Y-144451081D01*
X221274657Y-144451081D02*
X221310712Y-144320814D01*
X221305880Y-142780871D02*
X221249126Y-142488434D01*
X221310712Y-144320814D02*
X221338500Y-144182339D01*
X221338500Y-144182339D02*
X221359039Y-144040000D01*
X221348495Y-143035445D02*
X221305880Y-142780871D01*
X221359039Y-144040000D02*
X221373347Y-143898140D01*
X221373347Y-143898140D02*
X221382443Y-143761103D01*
X221382443Y-143761103D02*
X221389073Y-143518871D01*
X221384600Y-143283389D02*
X221348495Y-143035445D01*
X221389073Y-143518871D02*
X221384600Y-143283389D01*
D11*
X225965170Y-137291808D02*
X241138296Y-131852385D01*
X227519293Y-120769057D02*
X219298818Y-124040892D01*
X237702864Y-120196486D02*
X227519293Y-120769057D01*
D10*
X237723310Y-120186301D02*
X237730439Y-120148708D01*
X237730439Y-120148708D02*
X237753505Y-120044676D01*
X237753505Y-120044676D02*
X237771799Y-119971845D01*
X237771799Y-119971845D02*
X237795022Y-119887325D01*
X237795022Y-119887325D02*
X237823486Y-119792755D01*
X237823486Y-119792755D02*
X237857507Y-119689775D01*
X237857507Y-119689775D02*
X237897399Y-119580025D01*
X237897399Y-119580025D02*
X237943477Y-119465146D01*
X237943477Y-119465146D02*
X237996055Y-119346777D01*
X237984659Y-120585242D02*
X237845484Y-120573493D01*
X237996055Y-119346777D02*
X238055448Y-119226558D01*
X238055448Y-119226558D02*
X238121970Y-119106129D01*
X238121970Y-119106129D02*
X238158002Y-119046349D01*
X238158002Y-119046349D02*
X238195935Y-118987131D01*
X238174895Y-120597895D02*
X237984659Y-120585242D01*
X238195935Y-118987131D02*
X238235808Y-118928681D01*
X238235808Y-118928681D02*
X238277659Y-118871203D01*
X238277659Y-118871203D02*
X238321529Y-118814903D01*
X238321529Y-118814903D02*
X238367456Y-118759985D01*
X238367456Y-118759985D02*
X238463685Y-118653377D01*
X238460020Y-120613257D02*
X238174895Y-120597895D01*
X238463685Y-118653377D02*
X238564078Y-118550544D01*
X238502657Y-120616319D02*
X238460020Y-120613257D01*
X238546442Y-120621362D02*
X238502657Y-120616319D01*
X238564078Y-118550544D02*
X238668005Y-118452023D01*
X238636958Y-120636924D02*
X238546442Y-120621362D01*
X238668005Y-118452023D02*
X238774837Y-118358355D01*
X238730577Y-120659009D02*
X238636958Y-120636924D01*
X238774837Y-118358355D02*
X238883947Y-118270079D01*
X238826308Y-120686685D02*
X238730577Y-120659009D01*
X238883947Y-118270079D02*
X238994703Y-118187734D01*
X238904234Y-119286547D02*
X238988186Y-119230312D01*
X238923163Y-120719022D02*
X238826308Y-120686685D01*
X238988186Y-119230312D02*
X239082973Y-119170084D01*
X238994703Y-118187734D02*
X239106478Y-118111859D01*
X239020150Y-120755086D02*
X238923163Y-120719022D01*
X239035319Y-119187817D02*
X238899126Y-119306996D01*
X239082973Y-119170084D02*
X239203939Y-119097394D01*
X239106478Y-118111859D02*
X239218643Y-118042994D01*
X239116279Y-120793947D02*
X239020150Y-120755086D01*
X239203939Y-119097394D02*
X239272125Y-119058473D01*
X239210561Y-120834671D02*
X239116279Y-120793947D01*
X239218643Y-118042994D02*
X239330567Y-117981677D01*
X239272125Y-119058473D02*
X239344316Y-119018953D01*
X239313135Y-119720381D02*
X239398480Y-119699539D01*
X239330567Y-117981677D02*
X239441623Y-117928448D01*
X239344316Y-119018953D02*
X239419668Y-118979672D01*
X239352199Y-118917188D02*
X239035319Y-119187817D01*
X239378198Y-120327683D02*
X239546461Y-120371457D01*
X239389618Y-120917983D02*
X239210561Y-120834671D01*
X239389899Y-119688415D02*
X239231420Y-119761982D01*
X239398480Y-119699539D02*
X239496710Y-119678252D01*
X239419668Y-118979672D02*
X239497335Y-118941470D01*
X239441623Y-117928448D02*
X239551182Y-117883846D01*
X239481237Y-120342693D02*
X239385443Y-120313208D01*
X239496710Y-119678252D02*
X239624467Y-119653957D01*
X239497335Y-118941470D02*
X239576468Y-118905185D01*
X239535411Y-118765818D02*
X239352199Y-118917188D01*
X239546461Y-120371457D02*
X239627937Y-120395970D01*
X239549401Y-120997568D02*
X239389618Y-120917983D01*
X239551182Y-117883846D02*
X239658613Y-117848409D01*
X239576468Y-118905185D02*
X239656224Y-118871656D01*
X239599710Y-120367729D02*
X239481237Y-120342693D01*
X239624467Y-119653957D02*
X239697657Y-119641674D01*
X239627937Y-120395970D02*
X239718854Y-120425857D01*
X239656224Y-118871656D02*
X239735755Y-118841721D01*
X239658613Y-117848409D02*
X239763289Y-117822678D01*
X239676219Y-120379373D02*
X239599710Y-120367729D01*
X239697657Y-119641674D02*
X239776115Y-119629832D01*
X239712213Y-118625471D02*
X239535411Y-118765818D01*
X239718854Y-120425857D02*
X239816052Y-120461093D01*
X239735755Y-118841721D02*
X239775171Y-118828364D01*
X239763289Y-117822678D02*
X239814397Y-117813621D01*
X239764103Y-120389122D02*
X239676219Y-120379373D01*
X239766926Y-119518513D02*
X239389899Y-119688415D01*
X239775171Y-118828364D02*
X239814215Y-118816220D01*
X239776115Y-119629832D02*
X239859138Y-119618825D01*
X239779455Y-121115729D02*
X239549401Y-120997568D01*
X239792838Y-118564524D02*
X239712213Y-118625471D01*
X239814215Y-118816220D02*
X239892526Y-118794245D01*
X239814397Y-117813621D02*
X239864580Y-117807192D01*
X239816052Y-120461093D02*
X239916368Y-120501650D01*
X239859138Y-119618825D02*
X239946021Y-119609053D01*
X239863255Y-120395990D02*
X239764103Y-120389122D01*
X239864580Y-117807192D02*
X239913759Y-117803459D01*
X239865411Y-118512443D02*
X239792838Y-118564524D01*
X239867355Y-121158974D02*
X239779455Y-121115729D01*
X239892526Y-118794245D02*
X239971736Y-118774374D01*
X239913759Y-117803459D02*
X239961857Y-117802489D01*
X239916368Y-120501650D02*
X240016642Y-120547502D01*
X239917708Y-121182695D02*
X239867355Y-121158974D01*
X239927786Y-118471265D02*
X239865411Y-118512443D01*
X239946021Y-119609053D02*
X240036061Y-119600912D01*
X239961857Y-117802489D02*
X240008794Y-117804350D01*
X239970931Y-121206158D02*
X239917708Y-121182695D01*
X239971736Y-118774374D02*
X240051185Y-118756675D01*
X239973569Y-120398993D02*
X239863255Y-120395990D01*
X239977812Y-118443028D02*
X239927786Y-118471265D01*
X239991265Y-119421251D02*
X239766926Y-119518513D01*
X239999636Y-118431503D02*
X239977812Y-118443028D01*
X240008794Y-117804350D02*
X240054491Y-117809109D01*
X240016642Y-120547502D02*
X240113713Y-120598624D01*
X240021863Y-118418104D02*
X239999636Y-118431503D01*
X240025976Y-121228116D02*
X239970931Y-121206158D01*
X240036061Y-119600912D02*
X240128552Y-119594798D01*
X240044329Y-118402967D02*
X240021863Y-118418104D01*
X240051185Y-118756675D02*
X240130215Y-118741215D01*
X240054491Y-117809109D02*
X240097204Y-117816456D01*
X240066866Y-118386224D02*
X240044329Y-118402967D01*
X240081794Y-121247327D02*
X240025976Y-121228116D01*
X240089310Y-118368009D02*
X240066866Y-118386224D01*
X240094940Y-120397145D02*
X239973569Y-120398993D01*
X240097204Y-117816456D02*
X240135350Y-117825945D01*
X240109666Y-121255513D02*
X240081794Y-121247327D01*
X240111494Y-118348457D02*
X240089310Y-118368009D01*
X240113713Y-120598624D02*
X240160059Y-120626152D01*
X240128552Y-119594798D02*
X240222790Y-119591110D01*
X240130215Y-118741215D02*
X240208167Y-118728061D01*
X240133254Y-118327701D02*
X240111494Y-118348457D01*
X240135350Y-117825945D02*
X240169095Y-117837443D01*
X240137337Y-121262545D02*
X240109666Y-121255513D01*
X240154423Y-118305875D02*
X240133254Y-118327701D01*
X240160059Y-120626152D02*
X240204418Y-120654987D01*
X240164678Y-121268267D02*
X240137337Y-121262545D01*
X240169095Y-117837443D02*
X240198604Y-117850816D01*
X240174836Y-118283114D02*
X240154423Y-118305875D01*
X240191556Y-121272525D02*
X240164678Y-121268267D01*
X240194326Y-118259549D02*
X240174836Y-118283114D01*
X240198604Y-117850816D02*
X240224043Y-117865930D01*
X240204418Y-120654987D02*
X240246396Y-120685127D01*
X240208167Y-118728061D02*
X240284381Y-118717281D01*
X240212729Y-118235317D02*
X240194326Y-118259549D01*
X240214886Y-119328482D02*
X239991265Y-119421251D01*
X240217842Y-121275163D02*
X240191556Y-121272525D01*
X240222790Y-119591110D02*
X240318071Y-119590245D01*
X240224043Y-117865930D02*
X240245577Y-117882651D01*
X240227261Y-120389462D02*
X240094940Y-120397145D01*
X240229878Y-118210550D02*
X240212729Y-118235317D01*
X240243403Y-121276025D02*
X240217842Y-121275163D01*
X240245577Y-117882651D02*
X240263373Y-117900846D01*
X240245609Y-118185382D02*
X240229878Y-118210550D01*
X240246396Y-120685127D02*
X240285597Y-120716567D01*
X240259754Y-118159948D02*
X240245609Y-118185382D01*
X240263373Y-117900846D02*
X240277595Y-117920380D01*
X240268109Y-121274955D02*
X240243403Y-121276025D01*
X240272149Y-118134381D02*
X240259754Y-118159948D01*
X240277595Y-117920380D02*
X240288410Y-117941120D01*
X240282628Y-118108814D02*
X240272149Y-118134381D01*
X240284381Y-118717281D02*
X240358199Y-118708943D01*
X240285597Y-120716567D02*
X240321627Y-120749304D01*
X240288410Y-117941120D02*
X240295984Y-117962932D01*
X240291025Y-118083383D02*
X240282628Y-118108814D01*
X240291829Y-121271798D02*
X240268109Y-121274955D01*
X240295984Y-117962932D02*
X240300481Y-117985682D01*
X240297175Y-118058220D02*
X240291025Y-118083383D01*
X240300481Y-117985682D02*
X240302069Y-118009236D01*
X240300911Y-118033460D02*
X240297175Y-118058220D01*
X240302069Y-118009236D02*
X240300911Y-118033460D01*
X240314431Y-121266399D02*
X240291829Y-121271798D01*
X240318071Y-119590245D02*
X240867536Y-119662529D01*
X240321627Y-120749304D02*
X240354089Y-120783336D01*
X240335785Y-121258602D02*
X240314431Y-121266399D01*
X240354089Y-120783336D02*
X240382589Y-120818658D01*
X240355760Y-121248251D02*
X240335785Y-121258602D01*
X240358199Y-118708943D02*
X240428962Y-118703113D01*
X240370428Y-120374958D02*
X240227261Y-120389462D01*
X240374224Y-121235191D02*
X240355760Y-121248251D01*
X240382589Y-120818658D02*
X240406732Y-120855267D01*
X240391046Y-121219266D02*
X240374224Y-121235191D01*
X240406095Y-121200321D02*
X240391046Y-121219266D01*
X240406732Y-120855267D02*
X240426122Y-120893161D01*
X240419241Y-121178200D02*
X240406095Y-121200321D01*
X240419336Y-119249732D02*
X240214886Y-119328482D01*
X240426122Y-120893161D02*
X240440365Y-120932335D01*
X240428962Y-118703113D02*
X240496010Y-118699859D01*
X240430352Y-121152747D02*
X240419241Y-121178200D01*
X240439297Y-121123808D02*
X240430352Y-121152747D01*
X240440365Y-120932335D02*
X240449064Y-120972787D01*
X240445945Y-121091226D02*
X240439297Y-121123808D01*
X240449064Y-120972787D02*
X240451826Y-121014513D01*
X240450165Y-121054847D02*
X240445945Y-121091226D01*
X240451826Y-121014513D02*
X240450165Y-121054847D01*
X240496010Y-118699859D02*
X240558684Y-118699249D01*
X240508606Y-119218590D02*
X240419336Y-119249732D01*
X240524333Y-120352650D02*
X240370428Y-120374958D01*
X240558684Y-118699249D02*
X240616326Y-118701349D01*
X240586164Y-119194525D02*
X240508606Y-119218590D01*
X240616326Y-118701349D02*
X240668277Y-118706228D01*
X240620354Y-119184094D02*
X240586164Y-119194525D01*
X240652042Y-119172963D02*
X240620354Y-119184094D01*
X240668277Y-118706228D02*
X240713877Y-118713952D01*
X240681302Y-119161181D02*
X240652042Y-119172963D01*
X240688870Y-120321550D02*
X240524333Y-120352650D01*
X240708207Y-119148795D02*
X240681302Y-119161181D01*
X240713877Y-118713952D02*
X240752468Y-118724590D01*
X240732832Y-119135856D02*
X240708207Y-119148795D01*
X240752468Y-118724590D02*
X240783391Y-118738208D01*
X240755251Y-119122410D02*
X240732832Y-119135856D01*
X240775538Y-119108508D02*
X240755251Y-119122410D01*
X240783391Y-118738208D02*
X240795771Y-118746156D01*
X240793766Y-119094198D02*
X240775538Y-119108508D01*
X240795771Y-118746156D02*
X240805986Y-118754874D01*
X240805986Y-118754874D02*
X240814975Y-118764376D01*
X240810010Y-119079529D02*
X240793766Y-119094198D01*
X240814975Y-118764376D02*
X240823681Y-118774639D01*
X240823681Y-118774639D02*
X240832029Y-118785613D01*
X240824343Y-119064548D02*
X240810010Y-119079529D01*
X240832029Y-118785613D02*
X240839945Y-118797249D01*
X240836840Y-119049306D02*
X240824343Y-119064548D01*
X240839945Y-118797249D02*
X240847356Y-118809500D01*
X240847356Y-118809500D02*
X240854187Y-118822316D01*
X240847574Y-119033850D02*
X240836840Y-119049306D01*
X240854187Y-118822316D02*
X240860365Y-118835649D01*
X240856619Y-119018229D02*
X240847574Y-119033850D01*
X240860365Y-118835649D02*
X240865816Y-118849450D01*
X240863935Y-120280676D02*
X240688870Y-120321550D01*
X240864050Y-119002493D02*
X240856619Y-119018229D01*
X240865816Y-118849450D02*
X240870465Y-118863670D01*
X240867536Y-119662529D02*
X240906820Y-119679008D01*
X240869940Y-118986689D02*
X240864050Y-119002493D01*
X240870465Y-118863670D02*
X240874239Y-118878261D01*
X240874239Y-118878261D02*
X240877064Y-118893174D01*
X240874363Y-118970866D02*
X240869940Y-118986689D01*
X240877064Y-118893174D02*
X240878866Y-118908361D01*
X240877393Y-118955073D02*
X240874363Y-118970866D01*
X240878866Y-118908361D02*
X240879571Y-118923772D01*
X240879104Y-118939359D02*
X240877393Y-118955073D01*
X240879571Y-118923772D02*
X240879104Y-118939359D01*
X240906820Y-119679008D02*
X241002191Y-119724547D01*
X240948545Y-120257276D02*
X240863935Y-120280676D01*
X241002191Y-119724547D02*
X241060372Y-119756388D01*
X241022434Y-120233225D02*
X240948545Y-120257276D01*
X241060372Y-119756388D02*
X241119930Y-119793301D01*
X241086130Y-120208616D02*
X241022434Y-120233225D01*
X241119930Y-119793301D02*
X241176650Y-119834556D01*
D11*
X241138296Y-131852385D02*
X237702864Y-120196486D01*
D10*
X241140159Y-120183540D02*
X241086130Y-120208616D01*
X241176650Y-119834556D02*
X241202628Y-119856584D01*
X241185049Y-120158088D02*
X241140159Y-120183540D01*
X241202628Y-119856584D02*
X241226316Y-119879423D01*
X241221327Y-120132351D02*
X241185049Y-120158088D01*
X241226316Y-119879423D02*
X241247187Y-119902982D01*
X241247187Y-119902982D02*
X241264715Y-119927170D01*
X241249518Y-120106421D02*
X241221327Y-120132351D01*
X241264715Y-119927170D02*
X241278371Y-119951896D01*
X241270151Y-120080388D02*
X241249518Y-120106421D01*
X241278371Y-119951896D02*
X241287630Y-119977067D01*
X241283752Y-120054346D02*
X241270151Y-120080388D01*
X241287630Y-119977067D02*
X241291964Y-120002594D01*
X241290847Y-120028384D02*
X241283752Y-120054346D01*
X241291964Y-120002594D02*
X241290847Y-120028384D01*
D12*
X216904325Y-128959204D02*
X215980352Y-128959204D01*
X217177175Y-127136061D01*
X218566236Y-127136061D01*
X216904325Y-128959204D01*
G36*
X216904325Y-128959204D02*
G01*
X215980352Y-128959204D01*
X217177175Y-127136061D01*
X218566236Y-127136061D01*
X216904325Y-128959204D01*
G37*
X211879946Y-127565085D02*
X211544847Y-128485785D01*
X209313028Y-127673468D01*
X206560060Y-135237166D01*
X205493685Y-134849036D01*
X208246652Y-127285338D01*
X206020662Y-126475142D01*
X206355768Y-125554442D01*
X211879946Y-127565085D01*
G36*
X211879946Y-127565085D02*
G01*
X211544847Y-128485785D01*
X209313028Y-127673468D01*
X206560060Y-135237166D01*
X205493685Y-134849036D01*
X208246652Y-127285338D01*
X206020662Y-126475142D01*
X206355768Y-125554442D01*
X211879946Y-127565085D01*
G37*
X224906530Y-123640250D02*
X224211515Y-125701384D01*
X223605490Y-125921957D01*
X221771505Y-124781302D01*
X221750295Y-124723029D01*
X222612722Y-124409132D01*
X223672537Y-125145255D01*
X224005422Y-123902243D01*
X224885320Y-123581976D01*
X224906530Y-123640250D01*
G36*
X224906530Y-123640250D02*
G01*
X224211515Y-125701384D01*
X223605490Y-125921957D01*
X221771505Y-124781302D01*
X221750295Y-124723029D01*
X222612722Y-124409132D01*
X223672537Y-125145255D01*
X224005422Y-123902243D01*
X224885320Y-123581976D01*
X224906530Y-123640250D01*
G37*
X230012609Y-133897826D02*
X228940405Y-134288077D01*
X223163473Y-128986464D01*
X225543150Y-135524573D01*
X224470953Y-135914824D01*
X221382879Y-127430434D01*
X222455084Y-127040183D01*
X228254278Y-132366690D01*
X225863989Y-125799429D01*
X226924551Y-125413420D01*
X230012609Y-133897826D01*
G36*
X230012609Y-133897826D02*
G01*
X228940405Y-134288077D01*
X223163473Y-128986464D01*
X225543150Y-135524573D01*
X224470953Y-135914824D01*
X221382879Y-127430434D01*
X222455084Y-127040183D01*
X228254278Y-132366690D01*
X225863989Y-125799429D01*
X226924551Y-125413420D01*
X230012609Y-133897826D01*
G37*
X216104376Y-129554518D02*
X217077963Y-129554518D01*
X219992513Y-138583426D01*
X218826696Y-138583426D01*
X218113554Y-136226981D01*
X215062574Y-136226981D01*
X214361845Y-138583426D01*
X213196028Y-138583426D01*
X214270677Y-135247199D01*
X215360235Y-135247199D01*
X217822103Y-135247199D01*
X216588064Y-131142020D01*
X215360235Y-135247199D01*
X214270677Y-135247199D01*
X216104376Y-129554518D01*
G36*
X216104376Y-129554518D02*
G01*
X217077963Y-129554518D01*
X219992513Y-138583426D01*
X218826696Y-138583426D01*
X218113554Y-136226981D01*
X215062574Y-136226981D01*
X214361845Y-138583426D01*
X213196028Y-138583426D01*
X214270677Y-135247199D01*
X215360235Y-135247199D01*
X217822103Y-135247199D01*
X216588064Y-131142020D01*
X215360235Y-135247199D01*
X214270677Y-135247199D01*
X216104376Y-129554518D01*
G37*
X239044538Y-130811194D02*
X237949034Y-131209929D01*
X236472959Y-129239516D01*
X233605970Y-130283011D01*
X233753446Y-132736998D01*
X232657942Y-133135733D01*
X232352513Y-124982962D01*
X233300306Y-124982962D01*
X233550566Y-129260504D01*
X235863966Y-128418494D01*
X233300306Y-124982962D01*
X232352513Y-124982962D01*
X232302824Y-123656630D01*
X233217695Y-123323645D01*
X239044538Y-130811194D01*
G36*
X239044538Y-130811194D02*
G01*
X237949034Y-131209929D01*
X236472959Y-129239516D01*
X233605970Y-130283011D01*
X233753446Y-132736998D01*
X232657942Y-133135733D01*
X232352513Y-124982962D01*
X233300306Y-124982962D01*
X233550566Y-129260504D01*
X235863966Y-128418494D01*
X233300306Y-124982962D01*
X232352513Y-124982962D01*
X232302824Y-123656630D01*
X233217695Y-123323645D01*
X239044538Y-130811194D01*
G37*
X200709749Y-123287258D02*
X200837012Y-123296045D01*
X200965651Y-123311108D01*
X201095667Y-123332446D01*
X201227059Y-123360059D01*
X201359828Y-123393948D01*
X201493973Y-123434112D01*
X201629495Y-123480551D01*
X201721613Y-123515574D01*
X201811494Y-123552774D01*
X201899140Y-123592150D01*
X201984551Y-123633703D01*
X202067726Y-123677432D01*
X202148665Y-123723339D01*
X202227369Y-123771421D01*
X202303837Y-123821681D01*
X202378069Y-123874116D01*
X202450065Y-123928729D01*
X202519826Y-123985517D01*
X202587351Y-124044482D01*
X202652640Y-124105624D01*
X202715693Y-124168942D01*
X202776511Y-124234437D01*
X202835092Y-124302107D01*
X202891401Y-124370780D01*
X202944869Y-124440739D01*
X202995498Y-124511984D01*
X203043286Y-124584516D01*
X203088235Y-124658335D01*
X203130345Y-124733440D01*
X203169614Y-124809831D01*
X203206044Y-124887509D01*
X203239634Y-124966473D01*
X203270385Y-125046724D01*
X203298296Y-125128262D01*
X203323367Y-125211086D01*
X203345599Y-125295197D01*
X203364991Y-125380595D01*
X203381544Y-125467280D01*
X203395258Y-125555251D01*
X203406154Y-125643870D01*
X203414260Y-125732506D01*
X203419577Y-125821158D01*
X203422104Y-125909825D01*
X203421842Y-125998509D01*
X203418789Y-126087208D01*
X203412947Y-126175924D01*
X203404316Y-126264655D01*
X203392894Y-126353401D01*
X203378683Y-126442164D01*
X203361683Y-126530942D01*
X203341893Y-126619736D01*
X203319313Y-126708545D01*
X203293943Y-126797370D01*
X203265784Y-126886210D01*
X203234834Y-126975066D01*
X202162630Y-126584822D01*
X202196435Y-126487337D01*
X202226270Y-126391553D01*
X202252136Y-126297468D01*
X202274031Y-126205084D01*
X202291957Y-126114400D01*
X202305913Y-126025416D01*
X202315899Y-125938132D01*
X202321915Y-125852548D01*
X202323962Y-125768664D01*
X202322039Y-125686481D01*
X202316146Y-125605997D01*
X202306284Y-125527213D01*
X202292451Y-125450130D01*
X202274649Y-125374746D01*
X202252878Y-125301062D01*
X202227136Y-125229079D01*
X202197498Y-125159157D01*
X202164039Y-125091660D01*
X202126759Y-125026587D01*
X202085657Y-124963938D01*
X202040735Y-124903713D01*
X201991991Y-124845913D01*
X201939426Y-124790537D01*
X201883040Y-124737586D01*
X201822833Y-124687058D01*
X201758805Y-124638955D01*
X201690955Y-124593277D01*
X201619285Y-124550023D01*
X201543793Y-124509193D01*
X201464480Y-124470788D01*
X201381345Y-124434807D01*
X201294390Y-124401251D01*
X201214163Y-124373650D01*
X201135185Y-124349699D01*
X201057455Y-124329399D01*
X200980975Y-124312750D01*
X200905743Y-124299752D01*
X200831759Y-124290405D01*
X200759025Y-124284708D01*
X200687539Y-124282663D01*
X200617302Y-124284268D01*
X200548314Y-124289525D01*
X200480574Y-124298432D01*
X200414083Y-124310991D01*
X200348841Y-124327200D01*
X200284848Y-124347060D01*
X200222104Y-124370572D01*
X200160608Y-124397734D01*
X200100714Y-124428367D01*
X200042768Y-124462287D01*
X199986771Y-124499493D01*
X199932722Y-124539987D01*
X199880622Y-124583768D01*
X199830470Y-124630835D01*
X199782266Y-124681190D01*
X199736011Y-124734831D01*
X199691705Y-124791760D01*
X199649347Y-124851975D01*
X199608938Y-124915478D01*
X199570477Y-124982267D01*
X199533965Y-125052343D01*
X199499402Y-125125706D01*
X199466787Y-125202357D01*
X199436121Y-125282294D01*
X199413481Y-125349170D01*
X199394343Y-125415774D01*
X199378707Y-125482106D01*
X199366572Y-125548166D01*
X199357939Y-125613953D01*
X199352808Y-125679469D01*
X199351178Y-125744712D01*
X199353050Y-125809683D01*
X199358424Y-125874382D01*
X199367299Y-125938809D01*
X199379676Y-126002964D01*
X199395555Y-126066846D01*
X199414936Y-126130457D01*
X199437818Y-126193795D01*
X199464203Y-126256861D01*
X199494089Y-126319655D01*
X199527473Y-126382615D01*
X199564350Y-126446176D01*
X199604720Y-126510338D01*
X199648583Y-126575101D01*
X199695939Y-126640466D01*
X199746789Y-126706431D01*
X199801132Y-126772998D01*
X199858968Y-126840166D01*
X199920297Y-126907934D01*
X199985119Y-126976304D01*
X200053435Y-127045275D01*
X200125244Y-127114847D01*
X200200546Y-127185020D01*
X200279341Y-127255794D01*
X200361630Y-127327169D01*
X200447412Y-127399146D01*
X200582122Y-127507595D01*
X200710685Y-127615509D01*
X200833102Y-127722886D01*
X200949373Y-127829728D01*
X201059497Y-127936034D01*
X201163475Y-128041804D01*
X201261307Y-128147039D01*
X201352992Y-128251737D01*
X201438531Y-128355900D01*
X201517923Y-128459527D01*
X201591169Y-128562618D01*
X201658268Y-128665173D01*
X201719220Y-128767192D01*
X201774026Y-128868676D01*
X201822685Y-128969624D01*
X201865198Y-129070036D01*
X201902720Y-129171130D01*
X201934947Y-129273597D01*
X201961881Y-129377437D01*
X201983520Y-129482650D01*
X201999865Y-129589235D01*
X202010916Y-129697194D01*
X202016672Y-129806525D01*
X202017134Y-129917228D01*
X202012303Y-130029305D01*
X202002177Y-130142753D01*
X201986756Y-130257575D01*
X201966041Y-130373769D01*
X201940033Y-130491336D01*
X201908729Y-130610275D01*
X201872132Y-130730587D01*
X201830240Y-130852271D01*
X201781277Y-130978652D01*
X201728239Y-131099941D01*
X201671125Y-131216138D01*
X201609936Y-131327242D01*
X201544671Y-131433254D01*
X201475330Y-131534173D01*
X201401914Y-131630000D01*
X201324423Y-131720735D01*
X201242856Y-131806377D01*
X201157213Y-131886927D01*
X201067495Y-131962385D01*
X200973701Y-132032750D01*
X200875832Y-132098024D01*
X200773887Y-132158204D01*
X200667867Y-132213293D01*
X200557771Y-132263289D01*
X200444892Y-132306910D01*
X200329989Y-132344331D01*
X200213065Y-132375551D01*
X200094119Y-132400569D01*
X199973150Y-132419387D01*
X199850159Y-132432004D01*
X199725146Y-132438420D01*
X199598111Y-132438635D01*
X199469054Y-132432650D01*
X199337974Y-132420463D01*
X199204873Y-132402075D01*
X199069750Y-132377487D01*
X198932604Y-132346697D01*
X198793436Y-132309707D01*
X198652247Y-132266516D01*
X198509035Y-132217123D01*
X198417416Y-132182359D01*
X198327574Y-132145406D01*
X198239508Y-132106263D01*
X198153218Y-132064931D01*
X198068705Y-132021411D01*
X197985968Y-131975701D01*
X197905007Y-131927802D01*
X197825823Y-131877715D01*
X197748415Y-131825438D01*
X197672783Y-131770972D01*
X197598928Y-131714317D01*
X197526849Y-131655473D01*
X197456546Y-131594440D01*
X197388020Y-131531218D01*
X197321270Y-131465807D01*
X197256296Y-131398207D01*
X197194593Y-131328422D01*
X197135668Y-131257378D01*
X197079520Y-131185077D01*
X197026150Y-131111519D01*
X196975557Y-131036703D01*
X196927742Y-130960629D01*
X196882704Y-130883298D01*
X196840444Y-130804709D01*
X196800962Y-130724863D01*
X196764258Y-130643759D01*
X196730331Y-130561398D01*
X196699182Y-130477780D01*
X196670811Y-130392905D01*
X196645218Y-130306772D01*
X196622402Y-130219383D01*
X196602365Y-130130736D01*
X196586339Y-130040841D01*
X196573569Y-129950636D01*
X196564058Y-129860122D01*
X196557804Y-129769299D01*
X196554807Y-129678165D01*
X196555068Y-129586723D01*
X196558586Y-129494971D01*
X196565362Y-129402909D01*
X196575395Y-129310538D01*
X196588686Y-129217857D01*
X196605235Y-129124866D01*
X196625041Y-129031567D01*
X196648104Y-128937957D01*
X196674426Y-128844038D01*
X196704005Y-128749810D01*
X196736841Y-128655272D01*
X197809046Y-129045523D01*
X197775459Y-129143113D01*
X197746280Y-129239215D01*
X197721511Y-129333827D01*
X197701150Y-129426951D01*
X197685198Y-129518585D01*
X197673655Y-129608731D01*
X197666520Y-129697388D01*
X197663794Y-129784556D01*
X197665477Y-129870235D01*
X197671568Y-129954426D01*
X197682067Y-130037127D01*
X197696975Y-130118340D01*
X197716292Y-130198064D01*
X197740017Y-130276300D01*
X197768150Y-130353047D01*
X197800691Y-130428305D01*
X197838016Y-130501824D01*
X197879041Y-130572823D01*
X197923768Y-130641302D01*
X197972196Y-130707262D01*
X198024324Y-130770703D01*
X198080154Y-130831623D01*
X198139686Y-130890024D01*
X198202918Y-130945906D01*
X198269851Y-130999268D01*
X198340486Y-131050111D01*
X198414822Y-131098434D01*
X198492859Y-131144238D01*
X198574597Y-131187523D01*
X198660037Y-131228288D01*
X198749178Y-131266533D01*
X198842020Y-131302260D01*
X198929304Y-131332429D01*
X199014885Y-131358782D01*
X199098761Y-131381319D01*
X199180934Y-131400038D01*
X199261402Y-131414941D01*
X199340166Y-131426028D01*
X199417226Y-131433298D01*
X199492581Y-131436751D01*
X199566233Y-131436388D01*
X199638180Y-131432208D01*
X199708423Y-131424211D01*
X199776962Y-131412398D01*
X199843796Y-131396768D01*
X199908927Y-131377322D01*
X199972353Y-131354059D01*
X200034075Y-131326979D01*
X200093929Y-131296462D01*
X200151751Y-131262884D01*
X200207543Y-131226248D01*
X200261303Y-131186552D01*
X200313031Y-131143796D01*
X200362728Y-131097981D01*
X200410394Y-131049106D01*
X200456029Y-130997172D01*
X200499632Y-130942178D01*
X200541203Y-130884125D01*
X200580744Y-130823012D01*
X200618252Y-130758840D01*
X200653729Y-130691608D01*
X200687175Y-130621317D01*
X200718590Y-130547966D01*
X200747972Y-130471556D01*
X200747965Y-130471556D01*
X200775097Y-130392832D01*
X200798698Y-130315452D01*
X200818768Y-130239417D01*
X200835307Y-130164726D01*
X200848316Y-130091379D01*
X200857793Y-130019376D01*
X200863739Y-129948717D01*
X200866154Y-129879403D01*
X200865037Y-129811432D01*
X200860390Y-129744806D01*
X200852212Y-129679524D01*
X200840503Y-129615586D01*
X200825263Y-129552992D01*
X200806492Y-129491742D01*
X200784189Y-129431836D01*
X200758356Y-129373274D01*
X200728570Y-129314668D01*
X200694409Y-129254624D01*
X200655873Y-129193143D01*
X200612963Y-129130223D01*
X200565679Y-129065866D01*
X200514019Y-129000071D01*
X200457985Y-128932839D01*
X200397577Y-128864169D01*
X200332794Y-128794061D01*
X200263637Y-128722515D01*
X200190105Y-128649532D01*
X200112199Y-128575111D01*
X200029918Y-128499253D01*
X199943263Y-128421957D01*
X199852234Y-128343223D01*
X199756830Y-128263052D01*
X199568367Y-128103204D01*
X199393346Y-127947217D01*
X199231768Y-127795091D01*
X199083632Y-127646827D01*
X199014606Y-127574143D01*
X198948940Y-127502424D01*
X198886635Y-127431671D01*
X198827690Y-127361883D01*
X198772107Y-127293060D01*
X198719884Y-127225202D01*
X198671022Y-127158310D01*
X198625521Y-127092383D01*
X198583735Y-127026445D01*
X198544036Y-126960441D01*
X198506423Y-126894371D01*
X198470896Y-126828235D01*
X198437454Y-126762033D01*
X198406099Y-126695766D01*
X198376830Y-126629433D01*
X198349647Y-126563034D01*
X198324551Y-126496569D01*
X198301540Y-126430038D01*
X198280616Y-126363442D01*
X198261779Y-126296781D01*
X198245027Y-126230053D01*
X198230363Y-126163261D01*
X198217784Y-126096402D01*
X198207292Y-126029479D01*
X198199927Y-125961889D01*
X198194747Y-125893961D01*
X198191753Y-125825694D01*
X198190945Y-125757089D01*
X198192323Y-125688145D01*
X198195887Y-125618862D01*
X198201637Y-125549240D01*
X198209572Y-125479280D01*
X198219692Y-125408981D01*
X198231999Y-125338343D01*
X198246491Y-125267366D01*
X198263168Y-125196051D01*
X198282031Y-125124396D01*
X198303079Y-125052403D01*
X198326313Y-124980071D01*
X198351732Y-124907401D01*
X198399709Y-124783728D01*
X198451911Y-124664738D01*
X198508338Y-124550431D01*
X198568988Y-124440806D01*
X198633864Y-124335864D01*
X198702964Y-124235605D01*
X198776288Y-124140028D01*
X198853838Y-124049134D01*
X198935612Y-123962922D01*
X199021610Y-123881393D01*
X199111834Y-123804547D01*
X199206282Y-123732383D01*
X199304955Y-123664902D01*
X199407852Y-123602103D01*
X199514974Y-123543987D01*
X199626322Y-123490553D01*
X199741197Y-123442865D01*
X199857449Y-123401451D01*
X199975078Y-123366313D01*
X200094082Y-123337449D01*
X200214463Y-123314860D01*
X200336220Y-123298547D01*
X200459353Y-123288509D01*
X200583863Y-123284746D01*
X200709749Y-123287258D01*
G36*
X200709749Y-123287258D02*
G01*
X200837012Y-123296045D01*
X200965651Y-123311108D01*
X201095667Y-123332446D01*
X201227059Y-123360059D01*
X201359828Y-123393948D01*
X201493973Y-123434112D01*
X201629495Y-123480551D01*
X201721613Y-123515574D01*
X201811494Y-123552774D01*
X201899140Y-123592150D01*
X201984551Y-123633703D01*
X202067726Y-123677432D01*
X202148665Y-123723339D01*
X202227369Y-123771421D01*
X202303837Y-123821681D01*
X202378069Y-123874116D01*
X202450065Y-123928729D01*
X202519826Y-123985517D01*
X202587351Y-124044482D01*
X202652640Y-124105624D01*
X202715693Y-124168942D01*
X202776511Y-124234437D01*
X202835092Y-124302107D01*
X202891401Y-124370780D01*
X202944869Y-124440739D01*
X202995498Y-124511984D01*
X203043286Y-124584516D01*
X203088235Y-124658335D01*
X203130345Y-124733440D01*
X203169614Y-124809831D01*
X203206044Y-124887509D01*
X203239634Y-124966473D01*
X203270385Y-125046724D01*
X203298296Y-125128262D01*
X203323367Y-125211086D01*
X203345599Y-125295197D01*
X203364991Y-125380595D01*
X203381544Y-125467280D01*
X203395258Y-125555251D01*
X203406154Y-125643870D01*
X203414260Y-125732506D01*
X203419577Y-125821158D01*
X203422104Y-125909825D01*
X203421842Y-125998509D01*
X203418789Y-126087208D01*
X203412947Y-126175924D01*
X203404316Y-126264655D01*
X203392894Y-126353401D01*
X203378683Y-126442164D01*
X203361683Y-126530942D01*
X203341893Y-126619736D01*
X203319313Y-126708545D01*
X203293943Y-126797370D01*
X203265784Y-126886210D01*
X203234834Y-126975066D01*
X202162630Y-126584822D01*
X202196435Y-126487337D01*
X202226270Y-126391553D01*
X202252136Y-126297468D01*
X202274031Y-126205084D01*
X202291957Y-126114400D01*
X202305913Y-126025416D01*
X202315899Y-125938132D01*
X202321915Y-125852548D01*
X202323962Y-125768664D01*
X202322039Y-125686481D01*
X202316146Y-125605997D01*
X202306284Y-125527213D01*
X202292451Y-125450130D01*
X202274649Y-125374746D01*
X202252878Y-125301062D01*
X202227136Y-125229079D01*
X202197498Y-125159157D01*
X202164039Y-125091660D01*
X202126759Y-125026587D01*
X202085657Y-124963938D01*
X202040735Y-124903713D01*
X201991991Y-124845913D01*
X201939426Y-124790537D01*
X201883040Y-124737586D01*
X201822833Y-124687058D01*
X201758805Y-124638955D01*
X201690955Y-124593277D01*
X201619285Y-124550023D01*
X201543793Y-124509193D01*
X201464480Y-124470788D01*
X201381345Y-124434807D01*
X201294390Y-124401251D01*
X201214163Y-124373650D01*
X201135185Y-124349699D01*
X201057455Y-124329399D01*
X200980975Y-124312750D01*
X200905743Y-124299752D01*
X200831759Y-124290405D01*
X200759025Y-124284708D01*
X200687539Y-124282663D01*
X200617302Y-124284268D01*
X200548314Y-124289525D01*
X200480574Y-124298432D01*
X200414083Y-124310991D01*
X200348841Y-124327200D01*
X200284848Y-124347060D01*
X200222104Y-124370572D01*
X200160608Y-124397734D01*
X200100714Y-124428367D01*
X200042768Y-124462287D01*
X199986771Y-124499493D01*
X199932722Y-124539987D01*
X199880622Y-124583768D01*
X199830470Y-124630835D01*
X199782266Y-124681190D01*
X199736011Y-124734831D01*
X199691705Y-124791760D01*
X199649347Y-124851975D01*
X199608938Y-124915478D01*
X199570477Y-124982267D01*
X199533965Y-125052343D01*
X199499402Y-125125706D01*
X199466787Y-125202357D01*
X199436121Y-125282294D01*
X199413481Y-125349170D01*
X199394343Y-125415774D01*
X199378707Y-125482106D01*
X199366572Y-125548166D01*
X199357939Y-125613953D01*
X199352808Y-125679469D01*
X199351178Y-125744712D01*
X199353050Y-125809683D01*
X199358424Y-125874382D01*
X199367299Y-125938809D01*
X199379676Y-126002964D01*
X199395555Y-126066846D01*
X199414936Y-126130457D01*
X199437818Y-126193795D01*
X199464203Y-126256861D01*
X199494089Y-126319655D01*
X199527473Y-126382615D01*
X199564350Y-126446176D01*
X199604720Y-126510338D01*
X199648583Y-126575101D01*
X199695939Y-126640466D01*
X199746789Y-126706431D01*
X199801132Y-126772998D01*
X199858968Y-126840166D01*
X199920297Y-126907934D01*
X199985119Y-126976304D01*
X200053435Y-127045275D01*
X200125244Y-127114847D01*
X200200546Y-127185020D01*
X200279341Y-127255794D01*
X200361630Y-127327169D01*
X200447412Y-127399146D01*
X200582122Y-127507595D01*
X200710685Y-127615509D01*
X200833102Y-127722886D01*
X200949373Y-127829728D01*
X201059497Y-127936034D01*
X201163475Y-128041804D01*
X201261307Y-128147039D01*
X201352992Y-128251737D01*
X201438531Y-128355900D01*
X201517923Y-128459527D01*
X201591169Y-128562618D01*
X201658268Y-128665173D01*
X201719220Y-128767192D01*
X201774026Y-128868676D01*
X201822685Y-128969624D01*
X201865198Y-129070036D01*
X201902720Y-129171130D01*
X201934947Y-129273597D01*
X201961881Y-129377437D01*
X201983520Y-129482650D01*
X201999865Y-129589235D01*
X202010916Y-129697194D01*
X202016672Y-129806525D01*
X202017134Y-129917228D01*
X202012303Y-130029305D01*
X202002177Y-130142753D01*
X201986756Y-130257575D01*
X201966041Y-130373769D01*
X201940033Y-130491336D01*
X201908729Y-130610275D01*
X201872132Y-130730587D01*
X201830240Y-130852271D01*
X201781277Y-130978652D01*
X201728239Y-131099941D01*
X201671125Y-131216138D01*
X201609936Y-131327242D01*
X201544671Y-131433254D01*
X201475330Y-131534173D01*
X201401914Y-131630000D01*
X201324423Y-131720735D01*
X201242856Y-131806377D01*
X201157213Y-131886927D01*
X201067495Y-131962385D01*
X200973701Y-132032750D01*
X200875832Y-132098024D01*
X200773887Y-132158204D01*
X200667867Y-132213293D01*
X200557771Y-132263289D01*
X200444892Y-132306910D01*
X200329989Y-132344331D01*
X200213065Y-132375551D01*
X200094119Y-132400569D01*
X199973150Y-132419387D01*
X199850159Y-132432004D01*
X199725146Y-132438420D01*
X199598111Y-132438635D01*
X199469054Y-132432650D01*
X199337974Y-132420463D01*
X199204873Y-132402075D01*
X199069750Y-132377487D01*
X198932604Y-132346697D01*
X198793436Y-132309707D01*
X198652247Y-132266516D01*
X198509035Y-132217123D01*
X198417416Y-132182359D01*
X198327574Y-132145406D01*
X198239508Y-132106263D01*
X198153218Y-132064931D01*
X198068705Y-132021411D01*
X197985968Y-131975701D01*
X197905007Y-131927802D01*
X197825823Y-131877715D01*
X197748415Y-131825438D01*
X197672783Y-131770972D01*
X197598928Y-131714317D01*
X197526849Y-131655473D01*
X197456546Y-131594440D01*
X197388020Y-131531218D01*
X197321270Y-131465807D01*
X197256296Y-131398207D01*
X197194593Y-131328422D01*
X197135668Y-131257378D01*
X197079520Y-131185077D01*
X197026150Y-131111519D01*
X196975557Y-131036703D01*
X196927742Y-130960629D01*
X196882704Y-130883298D01*
X196840444Y-130804709D01*
X196800962Y-130724863D01*
X196764258Y-130643759D01*
X196730331Y-130561398D01*
X196699182Y-130477780D01*
X196670811Y-130392905D01*
X196645218Y-130306772D01*
X196622402Y-130219383D01*
X196602365Y-130130736D01*
X196586339Y-130040841D01*
X196573569Y-129950636D01*
X196564058Y-129860122D01*
X196557804Y-129769299D01*
X196554807Y-129678165D01*
X196555068Y-129586723D01*
X196558586Y-129494971D01*
X196565362Y-129402909D01*
X196575395Y-129310538D01*
X196588686Y-129217857D01*
X196605235Y-129124866D01*
X196625041Y-129031567D01*
X196648104Y-128937957D01*
X196674426Y-128844038D01*
X196704005Y-128749810D01*
X196736841Y-128655272D01*
X197809046Y-129045523D01*
X197775459Y-129143113D01*
X197746280Y-129239215D01*
X197721511Y-129333827D01*
X197701150Y-129426951D01*
X197685198Y-129518585D01*
X197673655Y-129608731D01*
X197666520Y-129697388D01*
X197663794Y-129784556D01*
X197665477Y-129870235D01*
X197671568Y-129954426D01*
X197682067Y-130037127D01*
X197696975Y-130118340D01*
X197716292Y-130198064D01*
X197740017Y-130276300D01*
X197768150Y-130353047D01*
X197800691Y-130428305D01*
X197838016Y-130501824D01*
X197879041Y-130572823D01*
X197923768Y-130641302D01*
X197972196Y-130707262D01*
X198024324Y-130770703D01*
X198080154Y-130831623D01*
X198139686Y-130890024D01*
X198202918Y-130945906D01*
X198269851Y-130999268D01*
X198340486Y-131050111D01*
X198414822Y-131098434D01*
X198492859Y-131144238D01*
X198574597Y-131187523D01*
X198660037Y-131228288D01*
X198749178Y-131266533D01*
X198842020Y-131302260D01*
X198929304Y-131332429D01*
X199014885Y-131358782D01*
X199098761Y-131381319D01*
X199180934Y-131400038D01*
X199261402Y-131414941D01*
X199340166Y-131426028D01*
X199417226Y-131433298D01*
X199492581Y-131436751D01*
X199566233Y-131436388D01*
X199638180Y-131432208D01*
X199708423Y-131424211D01*
X199776962Y-131412398D01*
X199843796Y-131396768D01*
X199908927Y-131377322D01*
X199972353Y-131354059D01*
X200034075Y-131326979D01*
X200093929Y-131296462D01*
X200151751Y-131262884D01*
X200207543Y-131226248D01*
X200261303Y-131186552D01*
X200313031Y-131143796D01*
X200362728Y-131097981D01*
X200410394Y-131049106D01*
X200456029Y-130997172D01*
X200499632Y-130942178D01*
X200541203Y-130884125D01*
X200580744Y-130823012D01*
X200618252Y-130758840D01*
X200653729Y-130691608D01*
X200687175Y-130621317D01*
X200718590Y-130547966D01*
X200747972Y-130471556D01*
X200747965Y-130471556D01*
X200775097Y-130392832D01*
X200798698Y-130315452D01*
X200818768Y-130239417D01*
X200835307Y-130164726D01*
X200848316Y-130091379D01*
X200857793Y-130019376D01*
X200863739Y-129948717D01*
X200866154Y-129879403D01*
X200865037Y-129811432D01*
X200860390Y-129744806D01*
X200852212Y-129679524D01*
X200840503Y-129615586D01*
X200825263Y-129552992D01*
X200806492Y-129491742D01*
X200784189Y-129431836D01*
X200758356Y-129373274D01*
X200728570Y-129314668D01*
X200694409Y-129254624D01*
X200655873Y-129193143D01*
X200612963Y-129130223D01*
X200565679Y-129065866D01*
X200514019Y-129000071D01*
X200457985Y-128932839D01*
X200397577Y-128864169D01*
X200332794Y-128794061D01*
X200263637Y-128722515D01*
X200190105Y-128649532D01*
X200112199Y-128575111D01*
X200029918Y-128499253D01*
X199943263Y-128421957D01*
X199852234Y-128343223D01*
X199756830Y-128263052D01*
X199568367Y-128103204D01*
X199393346Y-127947217D01*
X199231768Y-127795091D01*
X199083632Y-127646827D01*
X199014606Y-127574143D01*
X198948940Y-127502424D01*
X198886635Y-127431671D01*
X198827690Y-127361883D01*
X198772107Y-127293060D01*
X198719884Y-127225202D01*
X198671022Y-127158310D01*
X198625521Y-127092383D01*
X198583735Y-127026445D01*
X198544036Y-126960441D01*
X198506423Y-126894371D01*
X198470896Y-126828235D01*
X198437454Y-126762033D01*
X198406099Y-126695766D01*
X198376830Y-126629433D01*
X198349647Y-126563034D01*
X198324551Y-126496569D01*
X198301540Y-126430038D01*
X198280616Y-126363442D01*
X198261779Y-126296781D01*
X198245027Y-126230053D01*
X198230363Y-126163261D01*
X198217784Y-126096402D01*
X198207292Y-126029479D01*
X198199927Y-125961889D01*
X198194747Y-125893961D01*
X198191753Y-125825694D01*
X198190945Y-125757089D01*
X198192323Y-125688145D01*
X198195887Y-125618862D01*
X198201637Y-125549240D01*
X198209572Y-125479280D01*
X198219692Y-125408981D01*
X198231999Y-125338343D01*
X198246491Y-125267366D01*
X198263168Y-125196051D01*
X198282031Y-125124396D01*
X198303079Y-125052403D01*
X198326313Y-124980071D01*
X198351732Y-124907401D01*
X198399709Y-124783728D01*
X198451911Y-124664738D01*
X198508338Y-124550431D01*
X198568988Y-124440806D01*
X198633864Y-124335864D01*
X198702964Y-124235605D01*
X198776288Y-124140028D01*
X198853838Y-124049134D01*
X198935612Y-123962922D01*
X199021610Y-123881393D01*
X199111834Y-123804547D01*
X199206282Y-123732383D01*
X199304955Y-123664902D01*
X199407852Y-123602103D01*
X199514974Y-123543987D01*
X199626322Y-123490553D01*
X199741197Y-123442865D01*
X199857449Y-123401451D01*
X199975078Y-123366313D01*
X200094082Y-123337449D01*
X200214463Y-123314860D01*
X200336220Y-123298547D01*
X200459353Y-123288509D01*
X200583863Y-123284746D01*
X200709749Y-123287258D01*
G37*
%TD*%
D13*
%TO.C,SW7*%
X108459420Y-91020233D03*
D14*
X107971811Y-94771865D03*
D15*
X113772012Y-92443738D03*
D14*
X112232039Y-98190997D03*
D16*
X119901185Y-89737885D03*
D13*
X119084604Y-93867243D03*
%TD*%
%TO.C,SW10*%
X137234123Y-53178240D03*
D14*
X136746514Y-56929872D03*
D15*
X142546715Y-54601745D03*
D14*
X141006742Y-60349004D03*
D16*
X148675888Y-51895892D03*
D13*
X147859307Y-56025250D03*
%TD*%
%TO.C,SW37*%
X261772133Y-98163533D03*
D14*
X263225667Y-101656345D03*
D15*
X267084725Y-96740028D03*
D14*
X268624698Y-102487287D03*
D16*
X271039818Y-91332104D03*
D13*
X272397317Y-95316523D03*
%TD*%
%TO.C,SW17*%
X146467988Y-88263646D03*
D14*
X145980379Y-92015278D03*
D15*
X151780580Y-89687151D03*
D14*
X150240607Y-95434410D03*
D16*
X157909753Y-86981298D03*
D13*
X157093172Y-91110656D03*
%TD*%
%TO.C,SW47*%
X296545462Y-88846048D03*
D14*
X297998996Y-92338860D03*
D15*
X301858054Y-87422543D03*
D14*
X303398027Y-93169802D03*
D16*
X305813147Y-82014619D03*
D13*
X307170646Y-85999038D03*
%TD*%
%TO.C,SW58*%
X338306906Y-105608560D03*
D14*
X339760440Y-109101372D03*
D15*
X343619498Y-104185055D03*
D14*
X345159471Y-109932314D03*
D16*
X347574591Y-98777131D03*
D13*
X348932090Y-102761550D03*
%TD*%
D17*
%TO.C,H6*%
X232760000Y-99000000D03*
%TD*%
D13*
%TO.C,SW41*%
X274111826Y-74669237D03*
D14*
X275565360Y-78162049D03*
D15*
X279424418Y-73245732D03*
D14*
X280964391Y-78992991D03*
D16*
X283379511Y-67837808D03*
D13*
X284737010Y-71822227D03*
%TD*%
%TO.C,SW18*%
X142068064Y-104684385D03*
D14*
X141580455Y-108436017D03*
D15*
X147380656Y-106107890D03*
D14*
X145840683Y-111855149D03*
D16*
X153509829Y-103402037D03*
D13*
X152693248Y-107531395D03*
%TD*%
%TO.C,SW52*%
X316520318Y-93846563D03*
D14*
X317973852Y-97339375D03*
D15*
X321832910Y-92423058D03*
D14*
X323372883Y-98170317D03*
D16*
X325788003Y-87015134D03*
D13*
X327145502Y-90999553D03*
%TD*%
%TO.C,SW57*%
X333906983Y-89187820D03*
D14*
X335360517Y-92680632D03*
D15*
X339219575Y-87764315D03*
D14*
X340759548Y-93511574D03*
D16*
X343174668Y-82356391D03*
D13*
X344532167Y-86340810D03*
%TD*%
%TO.C,SW15*%
X155267836Y-55422168D03*
D14*
X154780227Y-59173800D03*
D15*
X160580428Y-56845673D03*
D14*
X159040455Y-62592932D03*
D16*
X166709601Y-54139820D03*
D13*
X165893020Y-58269178D03*
%TD*%
D17*
%TO.C,H8*%
X231760000Y-147000000D03*
%TD*%
D13*
%TO.C,SW22*%
X163207606Y-95337204D03*
D14*
X162719997Y-99088836D03*
D15*
X168520198Y-96760709D03*
D14*
X166980225Y-102507968D03*
D16*
X174649371Y-94054856D03*
D13*
X173832790Y-98184214D03*
%TD*%
%TO.C,SW4*%
X86672832Y-102782230D03*
D14*
X86185223Y-106533862D03*
D15*
X91985424Y-104205735D03*
D14*
X90445451Y-109952994D03*
D16*
X98114597Y-101499882D03*
D13*
X97298016Y-105629240D03*
%TD*%
%TO.C,SW49*%
X287311597Y-123931454D03*
D14*
X288765131Y-127424266D03*
D15*
X292624189Y-122507949D03*
D14*
X294164162Y-128255208D03*
D16*
X296579282Y-117100025D03*
D13*
X297936781Y-121084444D03*
%TD*%
D18*
%TO.C,U1*%
X225750000Y-66750000D03*
X225750000Y-69290000D03*
X225750000Y-71830000D03*
X225750000Y-74370000D03*
X225750000Y-76910000D03*
X225750000Y-79450000D03*
X225750000Y-81990000D03*
X225750000Y-84530000D03*
X225750000Y-87070000D03*
D19*
X222710000Y-87570000D03*
X220170000Y-87570000D03*
X217630000Y-87570000D03*
X215090000Y-87570000D03*
X212550000Y-87570000D03*
D18*
X209510000Y-87070000D03*
X209510000Y-84530000D03*
X209510000Y-81990000D03*
X209510000Y-79450000D03*
X209510000Y-76910000D03*
X209510000Y-74370000D03*
X209510000Y-71830000D03*
X209510000Y-69290000D03*
X209510000Y-66750000D03*
%TD*%
D13*
%TO.C,SW43*%
X282911674Y-107510715D03*
D14*
X284365208Y-111003527D03*
D15*
X288224266Y-106087210D03*
D14*
X289764239Y-111834469D03*
D16*
X292179359Y-100679286D03*
D13*
X293536858Y-104663705D03*
%TD*%
%TO.C,SW45*%
X287745615Y-56004570D03*
D14*
X289199149Y-59497382D03*
D15*
X293058207Y-54581065D03*
D14*
X294598180Y-60328324D03*
D16*
X297013300Y-49173141D03*
D13*
X298370799Y-53157560D03*
%TD*%
%TO.C,SW44*%
X270571980Y-131005012D03*
D14*
X272025514Y-134497824D03*
D15*
X275884572Y-129581507D03*
D14*
X277424545Y-135328766D03*
D16*
X279839665Y-124173583D03*
D13*
X281197164Y-128158002D03*
%TD*%
%TO.C,SW23*%
X158807682Y-111757943D03*
D14*
X158320073Y-115509575D03*
D15*
X164120274Y-113181448D03*
D14*
X162580301Y-118928707D03*
D16*
X170249447Y-110475595D03*
D13*
X169432866Y-114604953D03*
%TD*%
D17*
%TO.C,H7*%
X203760000Y-147000000D03*
%TD*%
D13*
%TO.C,SW42*%
X278511750Y-91089976D03*
D14*
X279965284Y-94582788D03*
D15*
X283824342Y-89666471D03*
D14*
X285364315Y-95413730D03*
D16*
X287779435Y-84258547D03*
D13*
X289136934Y-88242966D03*
%TD*%
%TO.C,SW28*%
X175547299Y-118831500D03*
D14*
X175059690Y-122583132D03*
D15*
X180859891Y-120255005D03*
D14*
X179319918Y-126002264D03*
D16*
X186989064Y-117549152D03*
D13*
X186172483Y-121678510D03*
%TD*%
%TO.C,SW34*%
X238347258Y-157332469D03*
D14*
X241352462Y-159630566D03*
D15*
X242236345Y-153443382D03*
D14*
X246443630Y-157650667D03*
D16*
X242957594Y-146782436D03*
D13*
X246125432Y-149554295D03*
%TD*%
D20*
%TO.C,J1*%
X213310000Y-97770000D03*
D21*
X215850000Y-97770000D03*
X218390000Y-97770000D03*
X220930000Y-97770000D03*
X223470000Y-97770000D03*
%TD*%
D13*
%TO.C,SW33*%
X249432439Y-121657830D03*
D14*
X250885973Y-125150642D03*
D15*
X254745031Y-120234325D03*
D14*
X256285004Y-125981584D03*
D16*
X258700124Y-114826401D03*
D13*
X260057623Y-118810820D03*
%TD*%
%TO.C,SW36*%
X257372209Y-81742794D03*
D14*
X258825743Y-85235606D03*
D15*
X262684801Y-80319289D03*
D14*
X264224774Y-86066548D03*
D16*
X266639894Y-74911365D03*
D13*
X267997393Y-78895784D03*
%TD*%
%TO.C,SW48*%
X300945386Y-105266787D03*
D14*
X302398920Y-108759599D03*
D15*
X306257978Y-103843282D03*
D14*
X307797951Y-109590541D03*
D16*
X310213071Y-98435358D03*
D13*
X311570570Y-102419777D03*
%TD*%
%TO.C,SW27*%
X179947223Y-102410761D03*
D14*
X179459614Y-106162393D03*
D15*
X185259815Y-103834266D03*
D14*
X183719842Y-109581525D03*
D16*
X191388988Y-101128413D03*
D13*
X190572407Y-105257771D03*
%TD*%
D22*
%TO.C,H3*%
X109760000Y-122000000D03*
%TD*%
D13*
%TO.C,SW1*%
X99872603Y-53520012D03*
D14*
X99384994Y-57271644D03*
D15*
X105185195Y-54943517D03*
D14*
X103645222Y-60690776D03*
D16*
X111314368Y-52237664D03*
D13*
X110497787Y-56367022D03*
%TD*%
%TO.C,SW35*%
X252972285Y-65322055D03*
D14*
X254425819Y-68814867D03*
D15*
X258284877Y-63898550D03*
D14*
X259824850Y-69645809D03*
D16*
X262239970Y-58490626D03*
D13*
X263597469Y-62475045D03*
%TD*%
%TO.C,SW38*%
X266172056Y-114584273D03*
D14*
X267625590Y-118077085D03*
D15*
X271484648Y-113160768D03*
D14*
X273024621Y-118908027D03*
D16*
X275439741Y-107752844D03*
D13*
X276797240Y-111737263D03*
%TD*%
%TO.C,SW5*%
X117259268Y-58178755D03*
D14*
X116771659Y-61930387D03*
D15*
X122571860Y-59602260D03*
D14*
X121031887Y-65349519D03*
D16*
X128701033Y-56896407D03*
D13*
X127884452Y-61025765D03*
%TD*%
%TO.C,SW12*%
X128434276Y-86019718D03*
D14*
X127946667Y-89771350D03*
D15*
X133746868Y-87443223D03*
D14*
X132206895Y-93190482D03*
D16*
X139876041Y-84737370D03*
D13*
X139059460Y-88866728D03*
%TD*%
D22*
%TO.C,H4*%
X325760000Y-122000000D03*
%TD*%
D13*
%TO.C,SW50*%
X307720470Y-61005085D03*
D14*
X309174004Y-64497897D03*
D15*
X313033062Y-59581580D03*
D14*
X314573035Y-65328839D03*
D16*
X316988155Y-54173656D03*
D13*
X318345654Y-58158075D03*
%TD*%
D22*
%TO.C,H1*%
X119760000Y-47000000D03*
%TD*%
D13*
%TO.C,SW16*%
X150867912Y-71842907D03*
D14*
X150380303Y-75594539D03*
D15*
X156180504Y-73266412D03*
D14*
X154640531Y-79013671D03*
D16*
X162309677Y-70560559D03*
D13*
X161493096Y-74689917D03*
%TD*%
%TO.C,SW32*%
X245032515Y-105237091D03*
D14*
X246486049Y-108729903D03*
D15*
X250345107Y-103813586D03*
D14*
X251885080Y-109560845D03*
D16*
X254300200Y-98405662D03*
D13*
X255657699Y-102390081D03*
%TD*%
%TO.C,SW8*%
X104059497Y-107440972D03*
D14*
X103571888Y-111192604D03*
D15*
X109372089Y-108864477D03*
D14*
X107832116Y-114611736D03*
D16*
X115501262Y-106158624D03*
D13*
X114684681Y-110287982D03*
%TD*%
%TO.C,SW40*%
X269711902Y-58248498D03*
D14*
X271165436Y-61741310D03*
D15*
X275024494Y-56824993D03*
D14*
X276564467Y-62572252D03*
D16*
X278979587Y-51417069D03*
D13*
X280337086Y-55401488D03*
%TD*%
%TO.C,SW14*%
X137668141Y-121105124D03*
D14*
X137180532Y-124856756D03*
D15*
X142980733Y-122528629D03*
D14*
X141440760Y-128275888D03*
D16*
X149109906Y-119822776D03*
D13*
X148293325Y-123952134D03*
%TD*%
%TO.C,SW54*%
X305345310Y-121687526D03*
D14*
X306798844Y-125180338D03*
D15*
X310657902Y-120264021D03*
D14*
X312197875Y-126011280D03*
D16*
X314612995Y-114856097D03*
D13*
X315970494Y-118840516D03*
%TD*%
D17*
%TO.C,H5*%
X202760000Y-99000000D03*
%TD*%
D13*
%TO.C,SW29*%
X189532760Y-149576108D03*
D14*
X187234663Y-152581312D03*
D15*
X193421847Y-153465195D03*
D14*
X189214562Y-157672480D03*
D16*
X200082793Y-154186444D03*
D13*
X197310934Y-157354282D03*
%TD*%
%TO.C,SW30*%
X236232668Y-72383505D03*
D14*
X237686202Y-75876317D03*
D15*
X241545260Y-70960000D03*
D14*
X243085233Y-76707259D03*
D16*
X245500353Y-65552076D03*
D13*
X246857852Y-69536495D03*
%TD*%
%TO.C,SW26*%
X184347147Y-85990022D03*
D14*
X183859538Y-89741654D03*
D15*
X189659739Y-87413527D03*
D14*
X188119766Y-93160786D03*
D16*
X195788912Y-84707674D03*
D13*
X194972331Y-88837032D03*
%TD*%
D22*
%TO.C,H2*%
X315760000Y-47000000D03*
%TD*%
D13*
%TO.C,SW21*%
X167607529Y-78916464D03*
D14*
X167119920Y-82668096D03*
D15*
X172920121Y-80339969D03*
D14*
X171380148Y-86087228D03*
D16*
X179049294Y-77634116D03*
D13*
X178232713Y-81763474D03*
%TD*%
%TO.C,SW9*%
X119634428Y-118861196D03*
D14*
X119146819Y-122612828D03*
D15*
X124947020Y-120284701D03*
D14*
X123407047Y-126031960D03*
D16*
X131076193Y-117578848D03*
D13*
X130259612Y-121708206D03*
%TD*%
%TO.C,SW24*%
X174188793Y-137039996D03*
D14*
X172331304Y-140335787D03*
D15*
X178581288Y-140349979D03*
D14*
X175000489Y-145101860D03*
D16*
X185277788Y-140137184D03*
D13*
X182973783Y-143659962D03*
%TD*%
%TO.C,SW6*%
X112859344Y-74599494D03*
D14*
X112371735Y-78351126D03*
D15*
X118171936Y-76022999D03*
D14*
X116631963Y-81770258D03*
D16*
X124301109Y-73317146D03*
D13*
X123484528Y-77446504D03*
%TD*%
%TO.C,SW2*%
X95472679Y-69940751D03*
D14*
X94985070Y-73692383D03*
D15*
X100785271Y-71364256D03*
D14*
X99245298Y-77111515D03*
D16*
X106914444Y-68658403D03*
D13*
X106097863Y-72787761D03*
%TD*%
%TO.C,SW25*%
X188747070Y-69569283D03*
D14*
X188259461Y-73320915D03*
D15*
X194059662Y-70992788D03*
D14*
X192519689Y-76740047D03*
D16*
X200188835Y-68286935D03*
D13*
X199372254Y-72416293D03*
%TD*%
%TO.C,SW13*%
X124034352Y-102440457D03*
D14*
X123546743Y-106192089D03*
D15*
X129346944Y-103863962D03*
D14*
X127806971Y-109611221D03*
D16*
X135476117Y-101158109D03*
D13*
X134659536Y-105287467D03*
%TD*%
%TO.C,SW55*%
X325107135Y-56346342D03*
D14*
X326560669Y-59839154D03*
D15*
X330419727Y-54922837D03*
D14*
X331959700Y-60670096D03*
D16*
X334374820Y-49514913D03*
D13*
X335732319Y-53499332D03*
%TD*%
%TO.C,SW20*%
X172007453Y-62495725D03*
D14*
X171519844Y-66247357D03*
D15*
X177320045Y-63919230D03*
D14*
X175780072Y-69666489D03*
D16*
X183449218Y-61213377D03*
D13*
X182632637Y-65342735D03*
%TD*%
%TO.C,SW11*%
X132834200Y-69598979D03*
D14*
X132346591Y-73350611D03*
D15*
X138146792Y-71022484D03*
D14*
X136606819Y-76769743D03*
D16*
X144275965Y-68316631D03*
D13*
X143459384Y-72445989D03*
%TD*%
%TO.C,SW56*%
X329507059Y-72767081D03*
D14*
X330960593Y-76259893D03*
D15*
X334819651Y-71343576D03*
D14*
X336359624Y-77090835D03*
D16*
X338774744Y-65935652D03*
D13*
X340132243Y-69920071D03*
%TD*%
%TO.C,SW39*%
X252631140Y-143639282D03*
D14*
X255287264Y-146333257D03*
D15*
X257023635Y-140329299D03*
D14*
X260604434Y-145081180D03*
D16*
X258664889Y-133833555D03*
D13*
X261416130Y-137019316D03*
%TD*%
%TO.C,SW51*%
X312120394Y-77425824D03*
D14*
X313573928Y-80918636D03*
D15*
X317432986Y-76002319D03*
D14*
X318972959Y-81749578D03*
D16*
X321388079Y-70594395D03*
D13*
X322745578Y-74578814D03*
%TD*%
%TO.C,SW53*%
X320920241Y-110267302D03*
D14*
X322373775Y-113760114D03*
D15*
X326232833Y-108843797D03*
D14*
X327772806Y-114591056D03*
D16*
X330187926Y-103435873D03*
D13*
X331545425Y-107420292D03*
%TD*%
%TO.C,SW19*%
X154407758Y-128178682D03*
D14*
X153920149Y-131930314D03*
D15*
X159720350Y-129602187D03*
D14*
X158180377Y-135349446D03*
D16*
X165849523Y-126896334D03*
D13*
X165032942Y-131025692D03*
%TD*%
%TO.C,SW31*%
X240632592Y-88816352D03*
D14*
X242086126Y-92309164D03*
D15*
X245945184Y-87392847D03*
D14*
X247485157Y-93140106D03*
D16*
X249900277Y-81984923D03*
D13*
X251257776Y-85969342D03*
%TD*%
%TO.C,SW3*%
X91072756Y-86361491D03*
D14*
X90585147Y-90113123D03*
D15*
X96385348Y-87784996D03*
D14*
X94845375Y-93532255D03*
D16*
X102514521Y-85079143D03*
D13*
X101697940Y-89208501D03*
%TD*%
%TO.C,SW46*%
X292145539Y-72425309D03*
D14*
X293599073Y-75918121D03*
D15*
X297458131Y-71001804D03*
D14*
X298998104Y-76749063D03*
D16*
X301413224Y-65593880D03*
D13*
X302770723Y-69578299D03*
%TD*%
M02*
