M48
; DRILL file {KiCad 7.0.1} date Sun Mar 26 20:17:10 2023
; FORMAT={-:-/ absolute / metric / decimal}
; #@! TF.CreationDate,2023-03-26T20:17:10+02:00
; #@! TF.GenerationSoftware,Kicad,Pcbnew,7.0.1
; #@! TF.FileFunction,Plated,1,2,PTH
FMAT,2
METRIC
; #@! TA.AperFunction,Plated,PTH,ViaDrill
T1C0.400
; #@! TA.AperFunction,Plated,PTH,ComponentDrill
T2C1.000
%
G90
G05
T1
X89.83Y-80.29
X90.42Y-98.9
X94.08Y-64.28
X101.07Y-49.85
X103.2Y-100.87
X107.3Y-85.06
X111.36Y-68.82
X116.69Y-51.01
X119.29Y-99.14
X126.91Y-79.5
X131.59Y-63.04
X132.52Y-49.36
X140.45Y-118.41
X140.62Y-99.14
X145.21Y-82.17
X149.62Y-65.51
X150.96Y-122.95
X151.81Y-51.01
X157.84Y-104.93
X162.03Y-88.78
X166.28Y-72.32
X168.29Y-57.16
X169.62Y-131.29
X175.27Y-110.2
X178.65Y-95.69
X183.06Y-79.92
X184.88Y-64.5
X185.61Y-143.19
X188.88Y-97.45
X191.68Y-98.19
X205.14Y-89.4
X205.85Y-74.4
X206.0Y-76.91
X206.13Y-79.35
X206.41Y-81.91
X206.45Y-86.99
X206.46Y-84.45
X211.51Y-90.271
X215.13Y-91.26
X217.77Y-91.27
X222.72Y-92.889
X222.74Y-91.34
X225.538Y-91.369
X225.55Y-90.37
X225.56Y-89.3
X227.99Y-87.06
X228.04Y-81.97
X228.04Y-84.51
X228.14Y-74.379
X228.19Y-79.44
X228.23Y-76.9
X229.81Y-86.57
X230.67Y-85.26
X231.75Y-84.34
X233.38Y-151.04
X234.02Y-68.04
X236.19Y-82.89
X241.0Y-99.64
X244.96Y-115.47
X248.64Y-138.8
X250.96Y-61.03
X252.91Y-75.65
X257.75Y-92.43
X261.67Y-108.33
X266.16Y-125.02
X267.08Y-89.58
X268.04Y-54.39
X269.47Y-69.38
X269.58Y-89.02
X274.43Y-85.52
X278.33Y-101.62
X282.79Y-118.16
X284.61Y-82.6
X285.81Y-51.79
X286.38Y-82.19
X287.79Y-65.49
X292.5Y-83.12
X296.52Y-99.87
X298.44Y-114.86
X302.04Y-51.85
X307.71Y-68.74
X312.48Y-85.57
X316.68Y-101.83
X318.62Y-51.85
X321.76Y-67.688
X327.08Y-85.05
X331.24Y-101.85
T2
X213.31Y-97.77
X215.85Y-97.77
X218.39Y-97.77
X220.93Y-97.77
X223.47Y-97.77
T0
M30
