%TF.GenerationSoftware,KiCad,Pcbnew,7.0.1*%
%TF.CreationDate,2023-03-26T19:48:43+02:00*%
%TF.ProjectId,SofleUnsplit,536f666c-6555-46e7-9370-6c69742e6b69,rev?*%
%TF.SameCoordinates,Original*%
%TF.FileFunction,Legend,Top*%
%TF.FilePolarity,Positive*%
%FSLAX46Y46*%
G04 Gerber Fmt 4.6, Leading zero omitted, Abs format (unit mm)*
G04 Created by KiCad (PCBNEW 7.0.1) date 2023-03-26 19:48:43*
%MOMM*%
%LPD*%
G01*
G04 APERTURE LIST*
%ADD10C,0.400000*%
%ADD11C,0.759999*%
%ADD12C,0.200000*%
%ADD13C,0.150000*%
%ADD14C,0.120000*%
G04 APERTURE END LIST*
D10*
X193711641Y-126577367D02*
X193816302Y-126634652D01*
X239895980Y-125877303D02*
X240002812Y-125783635D01*
X220317163Y-130375377D02*
X220309990Y-130427479D01*
X220052831Y-149739610D02*
X219967071Y-149811209D01*
X217455759Y-130794315D02*
X217426423Y-130836556D01*
X196776781Y-127634223D02*
X196776394Y-127625675D01*
X218259908Y-130851014D02*
X218230572Y-130808774D01*
X214875405Y-151960720D02*
X214893516Y-151931373D01*
X218068758Y-130322506D02*
X218067290Y-130268931D01*
X217076025Y-129364104D02*
X217121785Y-129391184D01*
X193523896Y-126355866D02*
X193528673Y-126391820D01*
X241042372Y-125238901D02*
X241092555Y-125232472D01*
X242064815Y-126474586D02*
X242052318Y-126489828D01*
X193539590Y-126278479D02*
X193533132Y-126292532D01*
X217455759Y-129714629D02*
X217482916Y-129758226D01*
X241880017Y-126598243D02*
X241848329Y-126609374D01*
D11*
X242366271Y-139277665D02*
X238930839Y-127621766D01*
D10*
X240500100Y-126483753D02*
X240572291Y-126444233D01*
X218397628Y-129532770D02*
X218436797Y-129498298D01*
X220321518Y-130322506D02*
X220317163Y-130375377D01*
X215773779Y-129451116D02*
X215816386Y-129420209D01*
X240946829Y-127851137D02*
X241044027Y-127886373D01*
X217865001Y-132666838D02*
X217829020Y-132668624D01*
X194248258Y-127836349D02*
X194370065Y-127834262D01*
X241363325Y-125251225D02*
X241397070Y-125262723D01*
X217288703Y-130990634D02*
X217249534Y-131025106D01*
X221556276Y-151655750D02*
X221582977Y-151594532D01*
X242098440Y-126288950D02*
X242102214Y-126303541D01*
X217829020Y-132668624D02*
X217792560Y-132669227D01*
X216980163Y-131192899D02*
X216930204Y-131213748D01*
X215693686Y-130990634D02*
X215656342Y-130954478D01*
X215286718Y-151632276D02*
X215332588Y-151664819D01*
X215479026Y-132712603D02*
X216187545Y-132278815D01*
X240994901Y-126943793D02*
X240617874Y-127113695D01*
X217282438Y-130178009D02*
X217289946Y-130197051D01*
X241496084Y-128700235D02*
X241471378Y-128701305D01*
X216263894Y-131274410D02*
X216209328Y-131262786D01*
X219883654Y-151627725D02*
X219922728Y-151650054D01*
X220886296Y-151025385D02*
X220826025Y-151149547D01*
X193997392Y-128236221D02*
X193959485Y-128281172D01*
D11*
X219708831Y-148234307D02*
X222040008Y-149093163D01*
D10*
X221582977Y-151594532D02*
X221607011Y-151531364D01*
X216930036Y-129290933D02*
X216910295Y-129189433D01*
X215526630Y-130794315D02*
X215499473Y-130750718D01*
X218607734Y-130712788D02*
X218588250Y-130706196D01*
X196775336Y-127637132D02*
X196775321Y-127637139D01*
X194530417Y-125940505D02*
X194826847Y-126118236D01*
X217807013Y-133522340D02*
X219267432Y-132524627D01*
X213187218Y-152126374D02*
X213208219Y-152153152D01*
X194457677Y-125895604D02*
X194530417Y-125940505D01*
X193734336Y-126170588D02*
X193680851Y-126183866D01*
X193573973Y-127714505D02*
X193630914Y-127737751D01*
X216853190Y-129924067D02*
X216874485Y-129922448D01*
X241093386Y-125937723D02*
X241020813Y-125989804D01*
X193523796Y-126338962D02*
X193523896Y-126355866D01*
X214677619Y-149057622D02*
X214595147Y-149017477D01*
X219253175Y-131308667D02*
X219195136Y-131310021D01*
X218458086Y-132047425D02*
X218469225Y-132068924D01*
X220706999Y-151866839D02*
X220731491Y-151909139D01*
X241491348Y-125326126D02*
X241505570Y-125345660D01*
X216980163Y-129316044D02*
X217028794Y-129339036D01*
X195198476Y-125534878D02*
X195111074Y-125483566D01*
X218808073Y-129090152D02*
X218765107Y-129156756D01*
D12*
X218132300Y-136384484D02*
X217208327Y-136384484D01*
X218405150Y-134561341D01*
X219794211Y-134561341D01*
X218132300Y-136384484D01*
G36*
X218132300Y-136384484D02*
G01*
X217208327Y-136384484D01*
X218405150Y-134561341D01*
X219794211Y-134561341D01*
X218132300Y-136384484D01*
G37*
D10*
X217264780Y-130541108D02*
X217254683Y-130558668D01*
X218527088Y-127186102D02*
X218569937Y-127223705D01*
X219953477Y-131039565D02*
X219912553Y-131072287D01*
X215891260Y-150009575D02*
X215861921Y-149959019D01*
X220630623Y-150227159D02*
X220719089Y-150110497D01*
X220186860Y-129772686D02*
X220211767Y-129817576D01*
X241512356Y-126142561D02*
X241586174Y-126134223D01*
X194949869Y-125399800D02*
X194877923Y-125368708D01*
X240431914Y-126522674D02*
X240500100Y-126483753D01*
X216614117Y-130651625D02*
X216599554Y-130637740D01*
X213253274Y-149521587D02*
X213231677Y-149582301D01*
X242176520Y-127682556D02*
X242091910Y-127705956D01*
X240151138Y-128144302D02*
X240054283Y-128111965D01*
X220042943Y-150750193D02*
X220085415Y-150732038D01*
X219960342Y-150770876D02*
X220001178Y-150763305D01*
X241530044Y-125434516D02*
X241528886Y-125458740D01*
X216678626Y-130699851D02*
X216661613Y-130688944D01*
X213135378Y-149944283D02*
X213119595Y-150028833D01*
X242023746Y-126171436D02*
X242033961Y-126180154D01*
X218354359Y-127087469D02*
X218381561Y-127094148D01*
X193927542Y-128843126D02*
X193942258Y-128852596D01*
X218610306Y-129378563D02*
X218657537Y-129353495D01*
X194246367Y-128807672D02*
X194302519Y-128779806D01*
X217028794Y-131169908D02*
X216980163Y-131192899D01*
X216209328Y-131262786D02*
X216155807Y-131248756D01*
X194534964Y-125313782D02*
X194479689Y-125316351D01*
X218481539Y-130648335D02*
X218465698Y-130635886D01*
X241519000Y-125508663D02*
X241510603Y-125534094D01*
X242067920Y-126222529D02*
X242075331Y-126234780D01*
X222162696Y-152252564D02*
X222210764Y-152244537D01*
X221753716Y-151485730D02*
X221771394Y-151633270D01*
X219779967Y-129378563D02*
X219825727Y-129405643D01*
X221046324Y-152042974D02*
X221111639Y-152039542D01*
X217219636Y-130607962D02*
X217206457Y-130623177D01*
X216645173Y-130677253D02*
X216629332Y-130664804D01*
X217208610Y-129451116D02*
X217249534Y-129483838D01*
X217092200Y-132136053D02*
X217098431Y-132113267D01*
X219732736Y-129353495D02*
X219779967Y-129378563D01*
X216751884Y-129947347D02*
X216771368Y-129940755D01*
X219132903Y-130437007D02*
X219126311Y-130456491D01*
X217937406Y-128098269D02*
X218030846Y-128039580D01*
X214961070Y-151730708D02*
X214971117Y-151662182D01*
X196776394Y-127625675D02*
X196770232Y-127592876D01*
X195288476Y-126513404D02*
X195352209Y-126568031D01*
X242011366Y-126163488D02*
X242023746Y-126171436D01*
X193846590Y-128539779D02*
X193842649Y-128598480D01*
X218313102Y-130312312D02*
X218313647Y-130290733D01*
X195195794Y-128244468D02*
X195270156Y-128207272D01*
X218155180Y-127941028D02*
X218191674Y-127905384D01*
X220731491Y-151909139D02*
X220763521Y-151946549D01*
X216548351Y-130575681D02*
X216537444Y-130558668D01*
X220519113Y-151506340D02*
X220569796Y-151467234D01*
X214119473Y-151699925D02*
X214144742Y-151754163D01*
X214309602Y-151979221D02*
X214351052Y-152012072D01*
X219828902Y-151468837D02*
X219828691Y-151517830D01*
X241144343Y-127926930D02*
X241244617Y-127972782D01*
X220976657Y-152037850D02*
X221046324Y-152042974D01*
X220466273Y-151542227D02*
X220519113Y-151506340D01*
X218497979Y-129964598D02*
X218514993Y-129953691D01*
X217837230Y-128151324D02*
X217937406Y-128098269D01*
X241044027Y-127886373D02*
X241144343Y-127926930D01*
X241341688Y-128023904D02*
X241388034Y-128051432D01*
X220826025Y-151149547D02*
X220770891Y-151278681D01*
X218317933Y-130248452D02*
X218321621Y-130227803D01*
X214713533Y-152082912D02*
X214747510Y-152070572D01*
X215965209Y-150358175D02*
X215965759Y-150320765D01*
X193467190Y-127660699D02*
X193518836Y-127688256D01*
X215927259Y-150092022D02*
X215916404Y-150063606D01*
X216773062Y-129246158D02*
X216826582Y-129260187D01*
X193846023Y-128659577D02*
X193855755Y-128716813D01*
X242230166Y-127149827D02*
X242288347Y-127181668D01*
X219149590Y-130355186D02*
X219146924Y-130376172D01*
X217762346Y-130146051D02*
X217785194Y-130141125D01*
X215061312Y-151400957D02*
X215150005Y-151504802D01*
X217296538Y-130465926D02*
X217289946Y-130485410D01*
X222029523Y-152223342D02*
X222070371Y-152241736D01*
X239549504Y-126240183D02*
X239595431Y-126185265D01*
X218756127Y-131228207D02*
X218706167Y-131207358D01*
X218569937Y-127223705D02*
X218614287Y-127266477D01*
X195344337Y-128173116D02*
X195418141Y-128142495D01*
X218448065Y-127127755D02*
X218486284Y-127154005D01*
X194423225Y-126168262D02*
X194365660Y-126159536D01*
X217139716Y-132026412D02*
X217153905Y-132005916D01*
X221872895Y-152025389D02*
X221898335Y-152077126D01*
X241436142Y-126153341D02*
X241512356Y-126142561D01*
X218435920Y-130015802D02*
X218450483Y-130001917D01*
X195138963Y-126374915D02*
X195216655Y-126448773D01*
X193974788Y-128865724D02*
X194011286Y-128871512D01*
X222296627Y-152204954D02*
X222334676Y-152174483D01*
X222070371Y-152241736D02*
X222114715Y-152251675D01*
X220618323Y-151425306D02*
X220664692Y-151380956D01*
D11*
X193329680Y-139277665D02*
X208625495Y-144676186D01*
D10*
X215623825Y-149711039D02*
X215578132Y-149676000D01*
X216599554Y-130637740D02*
X216585670Y-130623177D01*
X215916404Y-150063606D02*
X215891260Y-150009575D01*
X215816386Y-129420209D02*
X215860604Y-129391184D01*
X194164354Y-125645773D02*
X194179679Y-125668667D01*
X217254683Y-130558668D02*
X217243776Y-130575681D01*
X215945557Y-150521221D02*
X215953203Y-150478370D01*
X216485256Y-130425740D02*
X216481568Y-130405091D01*
X195571750Y-125787076D02*
X195476739Y-125718347D01*
X222369639Y-152137617D02*
X222401645Y-152094899D01*
X215332588Y-151664819D02*
X215378323Y-151691385D01*
X216930204Y-131213748D02*
X216878987Y-131232389D01*
X220719089Y-150110497D02*
X220751719Y-150064526D01*
X241422301Y-125684829D02*
X241402811Y-125708394D01*
X218647920Y-129901503D02*
X218668569Y-129897815D01*
X213553689Y-149001183D02*
X213533859Y-149021553D01*
X217615488Y-131758379D02*
X217649767Y-131753212D01*
X221142507Y-149056263D02*
X221103666Y-149068579D01*
X217205041Y-132465223D02*
X217169551Y-132427073D01*
X215587411Y-129631571D02*
X215620893Y-129592242D01*
X215376344Y-130413020D02*
X215369172Y-130360917D01*
X216052185Y-129295196D02*
X216103403Y-129276555D01*
X215766031Y-151477404D02*
X215767276Y-151423167D01*
X240002812Y-125783635D02*
X240111922Y-125695359D01*
X221071235Y-150765381D02*
X221122996Y-150642746D01*
X241264036Y-127026192D02*
X241356527Y-127020078D01*
X222401645Y-152094899D02*
X222430819Y-152046871D01*
X216209328Y-129246158D02*
X216263894Y-129234533D01*
X193346453Y-127197672D02*
X193318603Y-127214517D01*
X241471378Y-128701305D02*
X241445817Y-128700443D01*
X216696187Y-129972513D02*
X216714267Y-129963253D01*
X221494791Y-148999229D02*
X221461682Y-148999745D01*
X216478902Y-130298357D02*
X216481568Y-130277371D01*
D11*
X196642409Y-127744454D02*
X193329680Y-139277665D01*
D10*
X218991436Y-127828071D02*
X219020946Y-127903885D01*
X215474566Y-129803116D02*
X215499473Y-129758226D01*
X220186860Y-130765176D02*
X220159703Y-130808774D01*
X241445817Y-128700443D02*
X241419531Y-128697805D01*
X216560042Y-130090340D02*
X216572490Y-130074499D01*
X216662955Y-129225377D02*
X216718496Y-129234533D01*
X217561206Y-129921903D02*
X217561149Y-129935345D01*
X215423752Y-151711375D02*
X215468706Y-151724188D01*
X214395584Y-152039890D02*
X214443311Y-152062256D01*
X196021942Y-126156858D02*
X195938314Y-126081689D01*
X216155807Y-129260187D02*
X216209328Y-129246158D01*
X221032414Y-150847255D02*
X221071235Y-150765381D01*
X218073113Y-130162486D02*
X218080285Y-130110384D01*
X217040242Y-130735113D02*
X217020758Y-130741706D01*
X213073479Y-150409794D02*
X213067019Y-150516061D01*
X218754007Y-129893529D02*
X218775303Y-129895148D01*
X215773779Y-131057828D02*
X215732856Y-131025106D01*
X219967071Y-149811209D02*
X219888620Y-149883137D01*
X218030846Y-128039580D02*
X218116089Y-127975278D01*
X221458760Y-151822194D02*
X221494307Y-151770131D01*
X221768943Y-129589332D02*
X222231650Y-127752963D01*
X216878987Y-131232389D02*
X216826582Y-131248756D01*
X218478772Y-132322157D02*
X218469225Y-132344114D01*
X219953477Y-129498298D02*
X219992646Y-129532770D01*
X242021741Y-126519478D02*
X242003513Y-126533788D01*
X218243243Y-131849471D02*
X218293558Y-131879335D01*
X218627633Y-130718439D02*
X218607734Y-130712788D01*
X217571880Y-130016454D02*
X217579541Y-130041603D01*
X218724725Y-129211287D02*
X218687245Y-129254951D01*
X219689763Y-150144617D02*
X219673067Y-150184031D01*
X194137412Y-125576898D02*
X194143026Y-125599887D01*
X216606511Y-129218757D02*
X216662955Y-129225377D01*
X221526766Y-151714466D02*
X221556276Y-151655750D01*
X242095511Y-127087809D02*
X242134795Y-127104288D01*
X195454365Y-126649557D02*
X195376413Y-126593033D01*
X240541110Y-127145661D02*
X240626455Y-127124819D01*
X239212634Y-128010522D02*
X239073459Y-127998773D01*
D11*
X214964667Y-131507058D02*
X206866881Y-128276124D01*
D10*
X218326303Y-130207515D02*
X218331954Y-130187617D01*
X195405638Y-126611874D02*
X195446546Y-126644155D01*
X216585670Y-130059284D02*
X216599554Y-130044721D01*
X215680381Y-151659547D02*
X215714946Y-151619947D01*
X217077859Y-129963253D02*
X217095939Y-129972513D01*
X218324835Y-129606701D02*
X218360283Y-129568926D01*
X240725310Y-126366750D02*
X240804443Y-126330465D01*
X195563822Y-128093835D02*
X195635306Y-128076783D01*
X216052185Y-131213748D02*
X216002226Y-131192899D01*
X218436797Y-129498298D02*
X218477720Y-129465576D01*
X242515605Y-127402347D02*
X242519939Y-127427874D01*
X217649767Y-132659826D02*
X217581866Y-132648424D01*
X218259908Y-129686848D02*
X218291353Y-129646031D01*
X241546046Y-127015525D02*
X242095511Y-127087809D01*
X196138050Y-126269937D02*
X196100509Y-126231271D01*
X213533242Y-152258363D02*
X213571646Y-152245453D01*
X217396417Y-132590203D02*
X217341873Y-132563567D01*
X194755988Y-125331513D02*
X194702256Y-125323149D01*
X213754024Y-152021558D02*
X213777148Y-151965113D01*
X215935992Y-150565530D02*
X215945557Y-150521221D01*
X213150681Y-152063294D02*
X213187218Y-152126374D01*
X213964862Y-151005460D02*
X213975628Y-151111419D01*
X217224795Y-131929674D02*
X217245828Y-131912194D01*
X241583735Y-128673531D02*
X241563760Y-128683882D01*
X221103666Y-149068579D02*
X221063447Y-149082505D01*
X220130367Y-130851014D02*
X220098922Y-130891832D01*
X219477003Y-129260618D02*
X219530524Y-129274647D01*
X216549234Y-129214736D02*
X216606511Y-129218757D01*
X218532553Y-129943594D02*
X218550634Y-129934334D01*
X220673950Y-151715318D02*
X220678710Y-151769457D01*
X217310559Y-130405091D02*
X217306871Y-130425740D01*
X241542406Y-128691679D02*
X241519804Y-128697078D01*
X194861274Y-126303307D02*
X194809742Y-126281735D01*
X241087113Y-127044105D02*
X241173996Y-127034333D01*
X242498126Y-127505668D02*
X242477493Y-127531701D01*
X217341873Y-132563567D02*
X217291558Y-132533703D01*
X219028938Y-130015802D02*
X219042823Y-130030365D01*
X216481568Y-130405091D02*
X216478902Y-130384105D01*
X239349945Y-126531409D02*
X239385977Y-126471629D01*
X219195136Y-129227841D02*
X219253175Y-129229196D01*
X241510603Y-125534094D02*
X241500124Y-125559661D01*
X218298560Y-127136157D02*
X218303473Y-127111996D01*
X221957766Y-152163571D02*
X221992035Y-152197088D01*
X214516449Y-148984881D02*
X214479063Y-148971967D01*
X218396407Y-130563203D02*
X218384716Y-130546762D01*
X220864190Y-151136821D02*
X220928891Y-151036165D01*
X219787400Y-149992729D02*
X219758677Y-150029960D01*
X219582929Y-129291014D02*
X219634146Y-129309655D01*
X215578132Y-149676000D02*
X215332747Y-149491959D01*
X218445400Y-132026412D02*
X218458086Y-132047425D01*
X221735943Y-151193973D02*
X221742268Y-151337710D01*
X220300072Y-130059115D02*
X220309990Y-130110384D01*
X219091048Y-130094875D02*
X219101145Y-130112435D01*
X238981480Y-127469956D02*
X238999774Y-127397125D01*
X242092025Y-126427773D02*
X242084594Y-126443509D01*
X216959923Y-130755726D02*
X216938937Y-130758393D01*
X214854982Y-151988037D02*
X214875405Y-151960720D01*
X241582064Y-128208616D02*
X241610564Y-128243938D01*
X218999160Y-130635886D02*
X218983319Y-130648335D01*
X194095392Y-128863050D02*
X194142606Y-128849788D01*
X217169551Y-131985965D02*
X217186612Y-131966588D01*
X213054107Y-151043562D02*
X213053808Y-151391474D01*
X241723985Y-126125139D02*
X241786659Y-126124529D01*
X218191674Y-127905384D02*
X218225388Y-127868347D01*
X218486284Y-127154005D02*
X218527088Y-127186102D01*
X219828691Y-151517830D02*
X219837302Y-151561030D01*
X242519939Y-127427874D02*
X242518822Y-127453664D01*
X219138554Y-130207515D02*
X219143236Y-130227803D01*
X220222833Y-150714137D02*
X220117803Y-150863313D01*
X214784961Y-130702720D02*
X216389975Y-132524629D01*
X241505570Y-125345660D02*
X241516385Y-125366400D01*
X221282871Y-151983416D02*
X221332179Y-151951266D01*
X218216478Y-132577303D02*
X218188699Y-132590203D01*
X194184358Y-128077981D02*
X194133262Y-128114365D01*
X217186612Y-131966588D02*
X217205041Y-131947815D01*
X241432393Y-128080267D02*
X241474371Y-128110407D01*
X219132903Y-130187617D02*
X219138554Y-130207515D01*
X217166004Y-131088734D02*
X217121785Y-131117760D01*
X194134530Y-125533142D02*
X194134790Y-125554459D01*
X219837269Y-151414635D02*
X219828902Y-151468837D01*
X215656342Y-129554466D02*
X215693686Y-129518310D01*
X194192997Y-128831163D02*
X194246367Y-128807672D01*
X218422036Y-130594259D02*
X218408856Y-130579044D01*
X216537444Y-130123793D02*
X216548351Y-130106780D01*
X220814612Y-130644881D02*
X220438662Y-130370149D01*
X213874007Y-129618251D02*
X213454680Y-127666205D01*
X218853305Y-129010268D02*
X218808073Y-129090152D01*
X219422437Y-129248993D02*
X219477003Y-129260618D01*
X238999774Y-127397125D02*
X239022997Y-127312605D01*
X242093791Y-126274730D02*
X242098440Y-126288950D01*
X219641854Y-150349306D02*
X219643730Y-150392838D01*
X217396417Y-131822835D02*
X217425164Y-131810799D01*
X218914225Y-129934334D02*
X218932306Y-129943594D01*
X220085415Y-150732038D02*
X220128375Y-150709336D01*
X242347905Y-127218581D02*
X242404625Y-127259836D01*
X219366896Y-131298026D02*
X219310452Y-131304646D01*
X219028938Y-130608822D02*
X219014375Y-130622707D01*
X218754007Y-130731095D02*
X218732428Y-130731641D01*
X218178508Y-130720287D02*
X218155922Y-130674170D01*
X219779967Y-131159299D02*
X219732736Y-131184367D01*
X214909447Y-151900319D02*
X214923333Y-151867879D01*
X193842649Y-128598480D02*
X193846023Y-128659577D01*
X216662955Y-131283566D02*
X216606511Y-131290187D01*
X219014375Y-130622707D02*
X218999160Y-130635886D01*
X240446618Y-125468274D02*
X240558542Y-125406957D01*
X220342740Y-150545076D02*
X220424161Y-150464983D01*
X193680851Y-126183866D02*
X193635775Y-126199953D01*
X218360283Y-130968937D02*
X218324835Y-130931161D01*
X218360510Y-127369779D02*
X218346614Y-127316237D01*
D11*
X228747268Y-128194337D02*
X220526793Y-131466172D01*
D10*
X220214870Y-150652289D02*
X220257964Y-150618939D01*
X218775303Y-129895148D02*
X218796288Y-129897815D01*
X213079531Y-151793299D02*
X213097422Y-151897266D01*
X219875800Y-151292927D02*
X219853123Y-151355804D01*
X219310452Y-131304646D02*
X219253175Y-131308667D01*
X194624994Y-127063920D02*
X194517541Y-127050125D01*
X219110406Y-130130516D02*
X219118803Y-130149091D01*
X215957871Y-150215948D02*
X215952255Y-150183349D01*
X218068347Y-131780173D02*
X218130282Y-131799658D01*
X219412032Y-132307734D02*
X220163932Y-132727061D01*
X218102798Y-130529116D02*
X218090204Y-130478747D01*
X216103403Y-131232389D02*
X216052185Y-131213748D01*
X218689555Y-129895148D02*
X218710850Y-129893529D01*
X219137097Y-131308667D02*
X219079820Y-131304646D01*
X220272280Y-129959343D02*
X220287478Y-130008747D01*
X215761505Y-151366165D02*
X215749246Y-151306756D01*
X217613217Y-130148026D02*
X217617573Y-130200897D01*
X215378323Y-151691385D02*
X215423752Y-151711375D01*
X193528374Y-126307296D02*
X193525275Y-126322772D01*
X218068347Y-132632865D02*
X218036172Y-132641150D01*
X218622262Y-129314512D02*
X218595394Y-129332823D01*
X217077859Y-130719208D02*
X217059284Y-130727605D01*
X219149590Y-130269438D02*
X219151210Y-130290733D01*
X193816302Y-126634652D02*
X193937378Y-126694154D01*
X218408856Y-130045580D02*
X218422036Y-130030365D01*
X216791267Y-130747357D02*
X216771368Y-130741706D01*
X193937378Y-126694154D02*
X194070556Y-126754690D01*
X222231650Y-127752963D02*
X219816901Y-127839721D01*
X222443947Y-149764830D02*
X222407887Y-149620319D01*
X217426423Y-130836556D02*
X217394978Y-130877373D01*
X241007430Y-128541009D02*
X240777376Y-128422848D01*
X218178508Y-129817576D02*
X218203415Y-129772686D01*
X193257123Y-127505575D02*
X193280832Y-127530198D01*
X217245828Y-132500844D02*
X217205041Y-132465223D01*
X216518087Y-130159434D02*
X216527347Y-130141354D01*
X218514993Y-129953691D02*
X218532553Y-129943594D01*
X217581866Y-131764614D02*
X217615488Y-131758379D01*
X215213408Y-149401536D02*
X215085263Y-149309715D01*
X215953595Y-131169908D02*
X215906365Y-131144840D01*
X220424161Y-150464983D02*
X220500461Y-150382643D01*
X218932306Y-130681030D02*
X218914225Y-130690290D01*
X196321719Y-127998539D02*
X196376583Y-128001380D01*
X220331158Y-150569739D02*
X220222833Y-150714137D01*
X222533855Y-150206151D02*
X222477101Y-149913714D01*
X216661613Y-129993517D02*
X216678626Y-129982610D01*
X217115890Y-132344114D02*
X217106343Y-132322157D01*
X193913891Y-128831635D02*
X193927542Y-128843126D01*
X218520327Y-129434669D02*
X218564546Y-129405643D01*
X195021834Y-127744485D02*
X194968166Y-127756547D01*
X218102798Y-130008747D02*
X218117996Y-129959343D01*
X219747197Y-150672038D02*
X219777822Y-150708175D01*
D11*
X227193145Y-144717088D02*
X242366271Y-139277665D01*
D10*
X196598953Y-127081822D02*
X196550958Y-126966566D01*
X215336585Y-150596620D02*
X215238750Y-150478043D01*
X194190894Y-125413908D02*
X194177269Y-125427846D01*
X240132209Y-126711827D02*
X240216161Y-126655592D01*
X239085482Y-127115055D02*
X239125374Y-127005305D01*
X240992078Y-127814402D02*
X240904194Y-127804653D01*
X219068451Y-130061421D02*
X219080141Y-130077862D01*
X240606173Y-127752963D02*
X240774436Y-127796737D01*
X218130282Y-132613380D02*
X218099732Y-132623599D01*
X239691660Y-126078657D02*
X239792053Y-125975824D01*
X241814139Y-126619805D02*
X241736581Y-126643870D01*
D12*
X213107921Y-134990365D02*
X212772822Y-135911065D01*
X210541003Y-135098748D01*
X207788035Y-142662446D01*
X206721660Y-142274316D01*
X209474627Y-134710618D01*
X207248637Y-133900422D01*
X207583743Y-132979722D01*
X213107921Y-134990365D01*
G36*
X213107921Y-134990365D02*
G01*
X212772822Y-135911065D01*
X210541003Y-135098748D01*
X207788035Y-142662446D01*
X206721660Y-142274316D01*
X209474627Y-134710618D01*
X207248637Y-133900422D01*
X207583743Y-132979722D01*
X213107921Y-134990365D01*
G37*
D10*
X194911551Y-126325689D02*
X194861274Y-126303307D01*
X216489938Y-130446028D02*
X216485256Y-130425740D01*
X216389975Y-132524629D02*
X217807013Y-133522340D01*
X215451980Y-129849233D02*
X215474566Y-129803116D01*
X215816386Y-131088734D02*
X215773779Y-131057828D01*
X218816938Y-130723121D02*
X218796288Y-130726809D01*
X242105368Y-126380353D02*
X242102338Y-126396146D01*
X217720117Y-131746200D02*
X217756099Y-131744414D01*
X215268822Y-150435655D02*
X215362143Y-150505461D01*
X241896252Y-126131508D02*
X241941852Y-126139232D01*
X242413024Y-127583368D02*
X242368134Y-127608820D01*
X215953595Y-129339036D02*
X216002226Y-129316044D01*
X214235512Y-151900101D02*
X214271126Y-151941758D01*
X219855401Y-151597856D02*
X219883654Y-151627725D01*
X219101145Y-130112435D02*
X219110406Y-130130516D01*
X241120501Y-126219525D02*
X241199711Y-126199654D01*
X217482916Y-129758226D02*
X217507823Y-129803116D01*
X241474371Y-128110407D02*
X241513572Y-128141847D01*
X220750961Y-151286582D02*
X220790861Y-151237356D01*
X220029991Y-130968937D02*
X219992646Y-131005093D01*
X218203415Y-129772686D02*
X218230572Y-129729088D01*
X218422036Y-130030365D02*
X218435920Y-130015802D01*
X195270156Y-128207272D02*
X195344337Y-128173116D01*
X218469225Y-132344114D02*
X218458086Y-132365613D01*
X219634146Y-131228207D02*
X219582929Y-131246848D01*
X217268098Y-131895405D02*
X217291558Y-131879335D01*
X216476737Y-130341231D02*
X216477283Y-130319653D01*
X221494307Y-151770131D02*
X221526766Y-151714466D01*
X215639530Y-150667013D02*
X215681945Y-150682338D01*
X193897581Y-128377756D02*
X193874529Y-128429447D01*
X241042190Y-126241500D02*
X241120501Y-126219525D01*
X222191340Y-149124822D02*
X222166987Y-149109829D01*
X219938954Y-151157366D02*
X219904633Y-151226587D01*
X193627708Y-126523481D02*
X193711641Y-126577367D01*
X218363712Y-130512189D02*
X218354452Y-130494108D01*
X220583259Y-130384608D02*
X221768943Y-129589332D01*
X218345862Y-127662363D02*
X218359059Y-127617026D01*
X218564546Y-131132219D02*
X218520327Y-131103193D01*
X194142606Y-128849788D02*
X194192997Y-128831163D01*
X193234613Y-127287248D02*
X193221048Y-127306756D01*
X217087695Y-132253828D02*
X217084959Y-132230330D01*
X221111639Y-152039542D02*
X221172742Y-152028105D01*
X218572699Y-129345098D02*
X218554493Y-129352543D01*
X215096618Y-150293227D02*
X215179440Y-150363737D01*
X221250163Y-149028021D02*
X221215816Y-149036080D01*
X219091048Y-130529749D02*
X219080141Y-130546762D01*
X219366896Y-129239837D02*
X219422437Y-129248993D01*
X222238783Y-149178271D02*
X222215281Y-149147828D01*
X193897034Y-127034690D02*
X193844307Y-127041163D01*
X220536367Y-150313908D02*
X220331158Y-150569739D01*
X217454835Y-132613380D02*
X217396417Y-132590203D01*
X216103403Y-129276555D02*
X216155807Y-129260187D01*
X241473584Y-125610662D02*
X241457853Y-125635830D01*
D12*
X201937724Y-130712538D02*
X202064987Y-130721325D01*
X202193626Y-130736388D01*
X202323642Y-130757726D01*
X202455034Y-130785339D01*
X202587803Y-130819228D01*
X202721948Y-130859392D01*
X202857470Y-130905831D01*
X202949588Y-130940854D01*
X203039469Y-130978054D01*
X203127115Y-131017430D01*
X203212526Y-131058983D01*
X203295701Y-131102712D01*
X203376640Y-131148619D01*
X203455344Y-131196701D01*
X203531812Y-131246961D01*
X203606044Y-131299396D01*
X203678040Y-131354009D01*
X203747801Y-131410797D01*
X203815326Y-131469762D01*
X203880615Y-131530904D01*
X203943668Y-131594222D01*
X204004486Y-131659717D01*
X204063067Y-131727387D01*
X204119376Y-131796060D01*
X204172844Y-131866019D01*
X204223473Y-131937264D01*
X204271261Y-132009796D01*
X204316210Y-132083615D01*
X204358320Y-132158720D01*
X204397589Y-132235111D01*
X204434019Y-132312789D01*
X204467609Y-132391753D01*
X204498360Y-132472004D01*
X204526271Y-132553542D01*
X204551342Y-132636366D01*
X204573574Y-132720477D01*
X204592966Y-132805875D01*
X204609519Y-132892560D01*
X204623233Y-132980531D01*
X204634129Y-133069150D01*
X204642235Y-133157786D01*
X204647552Y-133246438D01*
X204650079Y-133335105D01*
X204649817Y-133423789D01*
X204646764Y-133512488D01*
X204640922Y-133601204D01*
X204632291Y-133689935D01*
X204620869Y-133778681D01*
X204606658Y-133867444D01*
X204589658Y-133956222D01*
X204569868Y-134045016D01*
X204547288Y-134133825D01*
X204521918Y-134222650D01*
X204493759Y-134311490D01*
X204462809Y-134400346D01*
X203390605Y-134010102D01*
X203424410Y-133912617D01*
X203454245Y-133816833D01*
X203480111Y-133722748D01*
X203502006Y-133630364D01*
X203519932Y-133539680D01*
X203533888Y-133450696D01*
X203543874Y-133363412D01*
X203549890Y-133277828D01*
X203551937Y-133193944D01*
X203550014Y-133111761D01*
X203544121Y-133031277D01*
X203534259Y-132952493D01*
X203520426Y-132875410D01*
X203502624Y-132800026D01*
X203480853Y-132726342D01*
X203455111Y-132654359D01*
X203425473Y-132584437D01*
X203392014Y-132516940D01*
X203354734Y-132451867D01*
X203313632Y-132389218D01*
X203268710Y-132328993D01*
X203219966Y-132271193D01*
X203167401Y-132215817D01*
X203111015Y-132162866D01*
X203050808Y-132112338D01*
X202986780Y-132064235D01*
X202918930Y-132018557D01*
X202847260Y-131975303D01*
X202771768Y-131934473D01*
X202692455Y-131896068D01*
X202609320Y-131860087D01*
X202522365Y-131826531D01*
X202442138Y-131798930D01*
X202363160Y-131774979D01*
X202285430Y-131754679D01*
X202208950Y-131738030D01*
X202133718Y-131725032D01*
X202059734Y-131715685D01*
X201987000Y-131709988D01*
X201915514Y-131707943D01*
X201845277Y-131709548D01*
X201776289Y-131714805D01*
X201708549Y-131723712D01*
X201642058Y-131736271D01*
X201576816Y-131752480D01*
X201512823Y-131772340D01*
X201450079Y-131795852D01*
X201388583Y-131823014D01*
X201328689Y-131853647D01*
X201270743Y-131887567D01*
X201214746Y-131924773D01*
X201160697Y-131965267D01*
X201108597Y-132009048D01*
X201058445Y-132056115D01*
X201010241Y-132106470D01*
X200963986Y-132160111D01*
X200919680Y-132217040D01*
X200877322Y-132277255D01*
X200836913Y-132340758D01*
X200798452Y-132407547D01*
X200761940Y-132477623D01*
X200727377Y-132550986D01*
X200694762Y-132627637D01*
X200664096Y-132707574D01*
X200641456Y-132774450D01*
X200622318Y-132841054D01*
X200606682Y-132907386D01*
X200594547Y-132973446D01*
X200585914Y-133039233D01*
X200580783Y-133104749D01*
X200579153Y-133169992D01*
X200581025Y-133234963D01*
X200586399Y-133299662D01*
X200595274Y-133364089D01*
X200607651Y-133428244D01*
X200623530Y-133492126D01*
X200642911Y-133555737D01*
X200665793Y-133619075D01*
X200692178Y-133682141D01*
X200722064Y-133744935D01*
X200755448Y-133807895D01*
X200792325Y-133871456D01*
X200832695Y-133935618D01*
X200876558Y-134000381D01*
X200923914Y-134065746D01*
X200974764Y-134131711D01*
X201029107Y-134198278D01*
X201086943Y-134265446D01*
X201148272Y-134333214D01*
X201213094Y-134401584D01*
X201281410Y-134470555D01*
X201353219Y-134540127D01*
X201428521Y-134610300D01*
X201507316Y-134681074D01*
X201589605Y-134752449D01*
X201675387Y-134824426D01*
X201810097Y-134932875D01*
X201938660Y-135040789D01*
X202061077Y-135148166D01*
X202177348Y-135255008D01*
X202287472Y-135361314D01*
X202391450Y-135467084D01*
X202489282Y-135572319D01*
X202580967Y-135677017D01*
X202666506Y-135781180D01*
X202745898Y-135884807D01*
X202819144Y-135987898D01*
X202886243Y-136090453D01*
X202947195Y-136192472D01*
X203002001Y-136293956D01*
X203050660Y-136394904D01*
X203093173Y-136495316D01*
X203130695Y-136596410D01*
X203162922Y-136698877D01*
X203189856Y-136802717D01*
X203211495Y-136907930D01*
X203227840Y-137014515D01*
X203238891Y-137122474D01*
X203244647Y-137231805D01*
X203245109Y-137342508D01*
X203240278Y-137454585D01*
X203230152Y-137568033D01*
X203214731Y-137682855D01*
X203194016Y-137799049D01*
X203168008Y-137916616D01*
X203136704Y-138035555D01*
X203100107Y-138155867D01*
X203058215Y-138277551D01*
X203009252Y-138403932D01*
X202956214Y-138525221D01*
X202899100Y-138641418D01*
X202837911Y-138752522D01*
X202772646Y-138858534D01*
X202703305Y-138959453D01*
X202629889Y-139055280D01*
X202552398Y-139146015D01*
X202470831Y-139231657D01*
X202385188Y-139312207D01*
X202295470Y-139387665D01*
X202201676Y-139458030D01*
X202103807Y-139523304D01*
X202001862Y-139583484D01*
X201895842Y-139638573D01*
X201785746Y-139688569D01*
X201672867Y-139732190D01*
X201557964Y-139769611D01*
X201441040Y-139800831D01*
X201322094Y-139825849D01*
X201201125Y-139844667D01*
X201078134Y-139857284D01*
X200953121Y-139863700D01*
X200826086Y-139863915D01*
X200697029Y-139857930D01*
X200565949Y-139845743D01*
X200432848Y-139827355D01*
X200297725Y-139802767D01*
X200160579Y-139771977D01*
X200021411Y-139734987D01*
X199880222Y-139691796D01*
X199737010Y-139642403D01*
X199645391Y-139607639D01*
X199555549Y-139570686D01*
X199467483Y-139531543D01*
X199381193Y-139490211D01*
X199296680Y-139446691D01*
X199213943Y-139400981D01*
X199132982Y-139353082D01*
X199053798Y-139302995D01*
X198976390Y-139250718D01*
X198900758Y-139196252D01*
X198826903Y-139139597D01*
X198754824Y-139080753D01*
X198684521Y-139019720D01*
X198615995Y-138956498D01*
X198549245Y-138891087D01*
X198484271Y-138823487D01*
X198422568Y-138753702D01*
X198363643Y-138682658D01*
X198307495Y-138610357D01*
X198254125Y-138536799D01*
X198203532Y-138461983D01*
X198155717Y-138385909D01*
X198110679Y-138308578D01*
X198068419Y-138229989D01*
X198028937Y-138150143D01*
X197992233Y-138069039D01*
X197958306Y-137986678D01*
X197927157Y-137903060D01*
X197898786Y-137818185D01*
X197873193Y-137732052D01*
X197850377Y-137644663D01*
X197830340Y-137556016D01*
X197814314Y-137466121D01*
X197801544Y-137375916D01*
X197792033Y-137285402D01*
X197785779Y-137194579D01*
X197782782Y-137103445D01*
X197783043Y-137012003D01*
X197786561Y-136920251D01*
X197793337Y-136828189D01*
X197803370Y-136735818D01*
X197816661Y-136643137D01*
X197833210Y-136550146D01*
X197853016Y-136456847D01*
X197876079Y-136363237D01*
X197902401Y-136269318D01*
X197931980Y-136175090D01*
X197964816Y-136080552D01*
X199037021Y-136470803D01*
X199003434Y-136568393D01*
X198974255Y-136664495D01*
X198949486Y-136759107D01*
X198929125Y-136852231D01*
X198913173Y-136943865D01*
X198901630Y-137034011D01*
X198894495Y-137122668D01*
X198891769Y-137209836D01*
X198893452Y-137295515D01*
X198899543Y-137379706D01*
X198910042Y-137462407D01*
X198924950Y-137543620D01*
X198944267Y-137623344D01*
X198967992Y-137701580D01*
X198996125Y-137778327D01*
X199028666Y-137853585D01*
X199065991Y-137927104D01*
X199107016Y-137998103D01*
X199151743Y-138066582D01*
X199200171Y-138132542D01*
X199252299Y-138195983D01*
X199308129Y-138256903D01*
X199367661Y-138315304D01*
X199430893Y-138371186D01*
X199497826Y-138424548D01*
X199568461Y-138475391D01*
X199642797Y-138523714D01*
X199720834Y-138569518D01*
X199802572Y-138612803D01*
X199888012Y-138653568D01*
X199977153Y-138691813D01*
X200069995Y-138727540D01*
X200157279Y-138757709D01*
X200242860Y-138784062D01*
X200326736Y-138806599D01*
X200408909Y-138825318D01*
X200489377Y-138840221D01*
X200568141Y-138851308D01*
X200645201Y-138858578D01*
X200720556Y-138862031D01*
X200794208Y-138861668D01*
X200866155Y-138857488D01*
X200936398Y-138849491D01*
X201004937Y-138837678D01*
X201071771Y-138822048D01*
X201136902Y-138802602D01*
X201200328Y-138779339D01*
X201262050Y-138752259D01*
X201321904Y-138721742D01*
X201379726Y-138688164D01*
X201435518Y-138651528D01*
X201489278Y-138611832D01*
X201541006Y-138569076D01*
X201590703Y-138523261D01*
X201638369Y-138474386D01*
X201684004Y-138422452D01*
X201727607Y-138367458D01*
X201769178Y-138309405D01*
X201808719Y-138248292D01*
X201846227Y-138184120D01*
X201881704Y-138116888D01*
X201915150Y-138046597D01*
X201946565Y-137973246D01*
X201975947Y-137896836D01*
X201975940Y-137896836D01*
X202003072Y-137818112D01*
X202026673Y-137740732D01*
X202046743Y-137664697D01*
X202063282Y-137590006D01*
X202076291Y-137516659D01*
X202085768Y-137444656D01*
X202091714Y-137373997D01*
X202094129Y-137304683D01*
X202093012Y-137236712D01*
X202088365Y-137170086D01*
X202080187Y-137104804D01*
X202068478Y-137040866D01*
X202053238Y-136978272D01*
X202034467Y-136917022D01*
X202012164Y-136857116D01*
X201986331Y-136798554D01*
X201956545Y-136739948D01*
X201922384Y-136679904D01*
X201883848Y-136618423D01*
X201840938Y-136555503D01*
X201793654Y-136491146D01*
X201741994Y-136425351D01*
X201685960Y-136358119D01*
X201625552Y-136289449D01*
X201560769Y-136219341D01*
X201491612Y-136147795D01*
X201418080Y-136074812D01*
X201340174Y-136000391D01*
X201257893Y-135924533D01*
X201171238Y-135847237D01*
X201080209Y-135768503D01*
X200984805Y-135688332D01*
X200796342Y-135528484D01*
X200621321Y-135372497D01*
X200459743Y-135220371D01*
X200311607Y-135072107D01*
X200242581Y-134999423D01*
X200176915Y-134927704D01*
X200114610Y-134856951D01*
X200055665Y-134787163D01*
X200000082Y-134718340D01*
X199947859Y-134650482D01*
X199898997Y-134583590D01*
X199853496Y-134517663D01*
X199811710Y-134451725D01*
X199772011Y-134385721D01*
X199734398Y-134319651D01*
X199698871Y-134253515D01*
X199665429Y-134187313D01*
X199634074Y-134121046D01*
X199604805Y-134054713D01*
X199577622Y-133988314D01*
X199552526Y-133921849D01*
X199529515Y-133855318D01*
X199508591Y-133788722D01*
X199489754Y-133722061D01*
X199473002Y-133655333D01*
X199458338Y-133588541D01*
X199445759Y-133521682D01*
X199435267Y-133454759D01*
X199427902Y-133387169D01*
X199422722Y-133319241D01*
X199419728Y-133250974D01*
X199418920Y-133182369D01*
X199420298Y-133113425D01*
X199423862Y-133044142D01*
X199429612Y-132974520D01*
X199437547Y-132904560D01*
X199447667Y-132834261D01*
X199459974Y-132763623D01*
X199474466Y-132692646D01*
X199491143Y-132621331D01*
X199510006Y-132549676D01*
X199531054Y-132477683D01*
X199554288Y-132405351D01*
X199579707Y-132332681D01*
X199627684Y-132209008D01*
X199679886Y-132090018D01*
X199736313Y-131975711D01*
X199796963Y-131866086D01*
X199861839Y-131761144D01*
X199930939Y-131660885D01*
X200004263Y-131565308D01*
X200081813Y-131474414D01*
X200163587Y-131388202D01*
X200249585Y-131306673D01*
X200339809Y-131229827D01*
X200434257Y-131157663D01*
X200532930Y-131090182D01*
X200635827Y-131027383D01*
X200742949Y-130969267D01*
X200854297Y-130915833D01*
X200969172Y-130868145D01*
X201085424Y-130826731D01*
X201203053Y-130791593D01*
X201322057Y-130762729D01*
X201442438Y-130740140D01*
X201564195Y-130723827D01*
X201687328Y-130713789D01*
X201811838Y-130710026D01*
X201937724Y-130712538D01*
G36*
X201937724Y-130712538D02*
G01*
X202064987Y-130721325D01*
X202193626Y-130736388D01*
X202323642Y-130757726D01*
X202455034Y-130785339D01*
X202587803Y-130819228D01*
X202721948Y-130859392D01*
X202857470Y-130905831D01*
X202949588Y-130940854D01*
X203039469Y-130978054D01*
X203127115Y-131017430D01*
X203212526Y-131058983D01*
X203295701Y-131102712D01*
X203376640Y-131148619D01*
X203455344Y-131196701D01*
X203531812Y-131246961D01*
X203606044Y-131299396D01*
X203678040Y-131354009D01*
X203747801Y-131410797D01*
X203815326Y-131469762D01*
X203880615Y-131530904D01*
X203943668Y-131594222D01*
X204004486Y-131659717D01*
X204063067Y-131727387D01*
X204119376Y-131796060D01*
X204172844Y-131866019D01*
X204223473Y-131937264D01*
X204271261Y-132009796D01*
X204316210Y-132083615D01*
X204358320Y-132158720D01*
X204397589Y-132235111D01*
X204434019Y-132312789D01*
X204467609Y-132391753D01*
X204498360Y-132472004D01*
X204526271Y-132553542D01*
X204551342Y-132636366D01*
X204573574Y-132720477D01*
X204592966Y-132805875D01*
X204609519Y-132892560D01*
X204623233Y-132980531D01*
X204634129Y-133069150D01*
X204642235Y-133157786D01*
X204647552Y-133246438D01*
X204650079Y-133335105D01*
X204649817Y-133423789D01*
X204646764Y-133512488D01*
X204640922Y-133601204D01*
X204632291Y-133689935D01*
X204620869Y-133778681D01*
X204606658Y-133867444D01*
X204589658Y-133956222D01*
X204569868Y-134045016D01*
X204547288Y-134133825D01*
X204521918Y-134222650D01*
X204493759Y-134311490D01*
X204462809Y-134400346D01*
X203390605Y-134010102D01*
X203424410Y-133912617D01*
X203454245Y-133816833D01*
X203480111Y-133722748D01*
X203502006Y-133630364D01*
X203519932Y-133539680D01*
X203533888Y-133450696D01*
X203543874Y-133363412D01*
X203549890Y-133277828D01*
X203551937Y-133193944D01*
X203550014Y-133111761D01*
X203544121Y-133031277D01*
X203534259Y-132952493D01*
X203520426Y-132875410D01*
X203502624Y-132800026D01*
X203480853Y-132726342D01*
X203455111Y-132654359D01*
X203425473Y-132584437D01*
X203392014Y-132516940D01*
X203354734Y-132451867D01*
X203313632Y-132389218D01*
X203268710Y-132328993D01*
X203219966Y-132271193D01*
X203167401Y-132215817D01*
X203111015Y-132162866D01*
X203050808Y-132112338D01*
X202986780Y-132064235D01*
X202918930Y-132018557D01*
X202847260Y-131975303D01*
X202771768Y-131934473D01*
X202692455Y-131896068D01*
X202609320Y-131860087D01*
X202522365Y-131826531D01*
X202442138Y-131798930D01*
X202363160Y-131774979D01*
X202285430Y-131754679D01*
X202208950Y-131738030D01*
X202133718Y-131725032D01*
X202059734Y-131715685D01*
X201987000Y-131709988D01*
X201915514Y-131707943D01*
X201845277Y-131709548D01*
X201776289Y-131714805D01*
X201708549Y-131723712D01*
X201642058Y-131736271D01*
X201576816Y-131752480D01*
X201512823Y-131772340D01*
X201450079Y-131795852D01*
X201388583Y-131823014D01*
X201328689Y-131853647D01*
X201270743Y-131887567D01*
X201214746Y-131924773D01*
X201160697Y-131965267D01*
X201108597Y-132009048D01*
X201058445Y-132056115D01*
X201010241Y-132106470D01*
X200963986Y-132160111D01*
X200919680Y-132217040D01*
X200877322Y-132277255D01*
X200836913Y-132340758D01*
X200798452Y-132407547D01*
X200761940Y-132477623D01*
X200727377Y-132550986D01*
X200694762Y-132627637D01*
X200664096Y-132707574D01*
X200641456Y-132774450D01*
X200622318Y-132841054D01*
X200606682Y-132907386D01*
X200594547Y-132973446D01*
X200585914Y-133039233D01*
X200580783Y-133104749D01*
X200579153Y-133169992D01*
X200581025Y-133234963D01*
X200586399Y-133299662D01*
X200595274Y-133364089D01*
X200607651Y-133428244D01*
X200623530Y-133492126D01*
X200642911Y-133555737D01*
X200665793Y-133619075D01*
X200692178Y-133682141D01*
X200722064Y-133744935D01*
X200755448Y-133807895D01*
X200792325Y-133871456D01*
X200832695Y-133935618D01*
X200876558Y-134000381D01*
X200923914Y-134065746D01*
X200974764Y-134131711D01*
X201029107Y-134198278D01*
X201086943Y-134265446D01*
X201148272Y-134333214D01*
X201213094Y-134401584D01*
X201281410Y-134470555D01*
X201353219Y-134540127D01*
X201428521Y-134610300D01*
X201507316Y-134681074D01*
X201589605Y-134752449D01*
X201675387Y-134824426D01*
X201810097Y-134932875D01*
X201938660Y-135040789D01*
X202061077Y-135148166D01*
X202177348Y-135255008D01*
X202287472Y-135361314D01*
X202391450Y-135467084D01*
X202489282Y-135572319D01*
X202580967Y-135677017D01*
X202666506Y-135781180D01*
X202745898Y-135884807D01*
X202819144Y-135987898D01*
X202886243Y-136090453D01*
X202947195Y-136192472D01*
X203002001Y-136293956D01*
X203050660Y-136394904D01*
X203093173Y-136495316D01*
X203130695Y-136596410D01*
X203162922Y-136698877D01*
X203189856Y-136802717D01*
X203211495Y-136907930D01*
X203227840Y-137014515D01*
X203238891Y-137122474D01*
X203244647Y-137231805D01*
X203245109Y-137342508D01*
X203240278Y-137454585D01*
X203230152Y-137568033D01*
X203214731Y-137682855D01*
X203194016Y-137799049D01*
X203168008Y-137916616D01*
X203136704Y-138035555D01*
X203100107Y-138155867D01*
X203058215Y-138277551D01*
X203009252Y-138403932D01*
X202956214Y-138525221D01*
X202899100Y-138641418D01*
X202837911Y-138752522D01*
X202772646Y-138858534D01*
X202703305Y-138959453D01*
X202629889Y-139055280D01*
X202552398Y-139146015D01*
X202470831Y-139231657D01*
X202385188Y-139312207D01*
X202295470Y-139387665D01*
X202201676Y-139458030D01*
X202103807Y-139523304D01*
X202001862Y-139583484D01*
X201895842Y-139638573D01*
X201785746Y-139688569D01*
X201672867Y-139732190D01*
X201557964Y-139769611D01*
X201441040Y-139800831D01*
X201322094Y-139825849D01*
X201201125Y-139844667D01*
X201078134Y-139857284D01*
X200953121Y-139863700D01*
X200826086Y-139863915D01*
X200697029Y-139857930D01*
X200565949Y-139845743D01*
X200432848Y-139827355D01*
X200297725Y-139802767D01*
X200160579Y-139771977D01*
X200021411Y-139734987D01*
X199880222Y-139691796D01*
X199737010Y-139642403D01*
X199645391Y-139607639D01*
X199555549Y-139570686D01*
X199467483Y-139531543D01*
X199381193Y-139490211D01*
X199296680Y-139446691D01*
X199213943Y-139400981D01*
X199132982Y-139353082D01*
X199053798Y-139302995D01*
X198976390Y-139250718D01*
X198900758Y-139196252D01*
X198826903Y-139139597D01*
X198754824Y-139080753D01*
X198684521Y-139019720D01*
X198615995Y-138956498D01*
X198549245Y-138891087D01*
X198484271Y-138823487D01*
X198422568Y-138753702D01*
X198363643Y-138682658D01*
X198307495Y-138610357D01*
X198254125Y-138536799D01*
X198203532Y-138461983D01*
X198155717Y-138385909D01*
X198110679Y-138308578D01*
X198068419Y-138229989D01*
X198028937Y-138150143D01*
X197992233Y-138069039D01*
X197958306Y-137986678D01*
X197927157Y-137903060D01*
X197898786Y-137818185D01*
X197873193Y-137732052D01*
X197850377Y-137644663D01*
X197830340Y-137556016D01*
X197814314Y-137466121D01*
X197801544Y-137375916D01*
X197792033Y-137285402D01*
X197785779Y-137194579D01*
X197782782Y-137103445D01*
X197783043Y-137012003D01*
X197786561Y-136920251D01*
X197793337Y-136828189D01*
X197803370Y-136735818D01*
X197816661Y-136643137D01*
X197833210Y-136550146D01*
X197853016Y-136456847D01*
X197876079Y-136363237D01*
X197902401Y-136269318D01*
X197931980Y-136175090D01*
X197964816Y-136080552D01*
X199037021Y-136470803D01*
X199003434Y-136568393D01*
X198974255Y-136664495D01*
X198949486Y-136759107D01*
X198929125Y-136852231D01*
X198913173Y-136943865D01*
X198901630Y-137034011D01*
X198894495Y-137122668D01*
X198891769Y-137209836D01*
X198893452Y-137295515D01*
X198899543Y-137379706D01*
X198910042Y-137462407D01*
X198924950Y-137543620D01*
X198944267Y-137623344D01*
X198967992Y-137701580D01*
X198996125Y-137778327D01*
X199028666Y-137853585D01*
X199065991Y-137927104D01*
X199107016Y-137998103D01*
X199151743Y-138066582D01*
X199200171Y-138132542D01*
X199252299Y-138195983D01*
X199308129Y-138256903D01*
X199367661Y-138315304D01*
X199430893Y-138371186D01*
X199497826Y-138424548D01*
X199568461Y-138475391D01*
X199642797Y-138523714D01*
X199720834Y-138569518D01*
X199802572Y-138612803D01*
X199888012Y-138653568D01*
X199977153Y-138691813D01*
X200069995Y-138727540D01*
X200157279Y-138757709D01*
X200242860Y-138784062D01*
X200326736Y-138806599D01*
X200408909Y-138825318D01*
X200489377Y-138840221D01*
X200568141Y-138851308D01*
X200645201Y-138858578D01*
X200720556Y-138862031D01*
X200794208Y-138861668D01*
X200866155Y-138857488D01*
X200936398Y-138849491D01*
X201004937Y-138837678D01*
X201071771Y-138822048D01*
X201136902Y-138802602D01*
X201200328Y-138779339D01*
X201262050Y-138752259D01*
X201321904Y-138721742D01*
X201379726Y-138688164D01*
X201435518Y-138651528D01*
X201489278Y-138611832D01*
X201541006Y-138569076D01*
X201590703Y-138523261D01*
X201638369Y-138474386D01*
X201684004Y-138422452D01*
X201727607Y-138367458D01*
X201769178Y-138309405D01*
X201808719Y-138248292D01*
X201846227Y-138184120D01*
X201881704Y-138116888D01*
X201915150Y-138046597D01*
X201946565Y-137973246D01*
X201975947Y-137896836D01*
X201975940Y-137896836D01*
X202003072Y-137818112D01*
X202026673Y-137740732D01*
X202046743Y-137664697D01*
X202063282Y-137590006D01*
X202076291Y-137516659D01*
X202085768Y-137444656D01*
X202091714Y-137373997D01*
X202094129Y-137304683D01*
X202093012Y-137236712D01*
X202088365Y-137170086D01*
X202080187Y-137104804D01*
X202068478Y-137040866D01*
X202053238Y-136978272D01*
X202034467Y-136917022D01*
X202012164Y-136857116D01*
X201986331Y-136798554D01*
X201956545Y-136739948D01*
X201922384Y-136679904D01*
X201883848Y-136618423D01*
X201840938Y-136555503D01*
X201793654Y-136491146D01*
X201741994Y-136425351D01*
X201685960Y-136358119D01*
X201625552Y-136289449D01*
X201560769Y-136219341D01*
X201491612Y-136147795D01*
X201418080Y-136074812D01*
X201340174Y-136000391D01*
X201257893Y-135924533D01*
X201171238Y-135847237D01*
X201080209Y-135768503D01*
X200984805Y-135688332D01*
X200796342Y-135528484D01*
X200621321Y-135372497D01*
X200459743Y-135220371D01*
X200311607Y-135072107D01*
X200242581Y-134999423D01*
X200176915Y-134927704D01*
X200114610Y-134856951D01*
X200055665Y-134787163D01*
X200000082Y-134718340D01*
X199947859Y-134650482D01*
X199898997Y-134583590D01*
X199853496Y-134517663D01*
X199811710Y-134451725D01*
X199772011Y-134385721D01*
X199734398Y-134319651D01*
X199698871Y-134253515D01*
X199665429Y-134187313D01*
X199634074Y-134121046D01*
X199604805Y-134054713D01*
X199577622Y-133988314D01*
X199552526Y-133921849D01*
X199529515Y-133855318D01*
X199508591Y-133788722D01*
X199489754Y-133722061D01*
X199473002Y-133655333D01*
X199458338Y-133588541D01*
X199445759Y-133521682D01*
X199435267Y-133454759D01*
X199427902Y-133387169D01*
X199422722Y-133319241D01*
X199419728Y-133250974D01*
X199418920Y-133182369D01*
X199420298Y-133113425D01*
X199423862Y-133044142D01*
X199429612Y-132974520D01*
X199437547Y-132904560D01*
X199447667Y-132834261D01*
X199459974Y-132763623D01*
X199474466Y-132692646D01*
X199491143Y-132621331D01*
X199510006Y-132549676D01*
X199531054Y-132477683D01*
X199554288Y-132405351D01*
X199579707Y-132332681D01*
X199627684Y-132209008D01*
X199679886Y-132090018D01*
X199736313Y-131975711D01*
X199796963Y-131866086D01*
X199861839Y-131761144D01*
X199930939Y-131660885D01*
X200004263Y-131565308D01*
X200081813Y-131474414D01*
X200163587Y-131388202D01*
X200249585Y-131306673D01*
X200339809Y-131229827D01*
X200434257Y-131157663D01*
X200532930Y-131090182D01*
X200635827Y-131027383D01*
X200742949Y-130969267D01*
X200854297Y-130915833D01*
X200969172Y-130868145D01*
X201085424Y-130826731D01*
X201203053Y-130791593D01*
X201322057Y-130762729D01*
X201442438Y-130740140D01*
X201564195Y-130723827D01*
X201687328Y-130713789D01*
X201811838Y-130710026D01*
X201937724Y-130712538D01*
G37*
D10*
X217146953Y-130677253D02*
X217130513Y-130688944D01*
X214320525Y-148950059D02*
X214044463Y-148990960D01*
X220649357Y-149296044D02*
X220598654Y-149331322D01*
X218687245Y-129254951D02*
X218652985Y-129288957D01*
X217721404Y-130149656D02*
X217741102Y-130148849D01*
X215905516Y-150639325D02*
X215923047Y-150606431D01*
X215796097Y-150699628D02*
X215828691Y-150694363D01*
X217785194Y-130141125D02*
X217809705Y-130133932D01*
X215753388Y-149825055D02*
X215711918Y-149785253D01*
X220309990Y-130427479D02*
X220300072Y-130478747D01*
X218816938Y-129901503D02*
X218837226Y-129906185D01*
X218396407Y-130061421D02*
X218408856Y-130045580D01*
X217087695Y-132159210D02*
X217092200Y-132136053D01*
X219066016Y-128059495D02*
X219080490Y-128138613D01*
X196422581Y-128006018D02*
X196460356Y-128011884D01*
X218949866Y-129953691D02*
X218966879Y-129964598D01*
X239283423Y-126651838D02*
X239349945Y-126531409D01*
X196542111Y-128036248D02*
X196550399Y-128041001D01*
X215555967Y-129672388D02*
X215587411Y-129631571D01*
X218477720Y-131072287D02*
X218436797Y-131039565D01*
X217741102Y-130148849D02*
X217762346Y-130146051D01*
X240925632Y-127066954D02*
X241004090Y-127055112D01*
X217579541Y-130041603D02*
X217584438Y-130054151D01*
X240855912Y-127821250D02*
X240946829Y-127851137D01*
X241272304Y-125828247D02*
X241249838Y-125843384D01*
X219023376Y-129239837D02*
X219079820Y-129233216D01*
X213492341Y-152262792D02*
X213533242Y-152258363D01*
X193547788Y-126265137D02*
X193539590Y-126278479D01*
X217288703Y-129518310D02*
X217326047Y-129554466D01*
X219085157Y-128377153D02*
X219071985Y-128455933D01*
X195635306Y-128076783D02*
X195770269Y-128051107D01*
X215022977Y-150227644D02*
X215096618Y-150293227D01*
X218135727Y-130626893D02*
X218117996Y-130578519D01*
X242314105Y-127633896D02*
X242250409Y-127658505D01*
X218135727Y-129910970D02*
X218155922Y-129863692D01*
X217084959Y-132182708D02*
X217087695Y-132159210D01*
X214347717Y-148948015D02*
X214320525Y-148950059D01*
X219816901Y-127839721D02*
X219556628Y-129184462D01*
X194084753Y-128152847D02*
X194039306Y-128193455D01*
X214271126Y-151941758D02*
X214309602Y-151979221D01*
X217291558Y-132533703D02*
X217245828Y-132500844D01*
X215433715Y-150722731D02*
X215336585Y-150596620D01*
X242003513Y-126533788D02*
X241983226Y-126547690D01*
X216811554Y-129930422D02*
X216832204Y-129926734D01*
X217935351Y-131753212D02*
X218003251Y-131764614D01*
X218346055Y-130149091D02*
X218354452Y-130130516D01*
X216481568Y-130277371D02*
X216485256Y-130256721D01*
X217644072Y-130128642D02*
X217656912Y-130135726D01*
X241473552Y-125307931D02*
X241491348Y-125326126D01*
X193598788Y-126218855D02*
X193583227Y-126229365D01*
X217208610Y-131057828D02*
X217166004Y-131088734D01*
X214976169Y-151287631D02*
X215061312Y-151400957D01*
X218321621Y-130396821D02*
X218317933Y-130376172D01*
X220001178Y-150763305D02*
X220042943Y-150750193D01*
X193635775Y-126199953D02*
X193598788Y-126218855D01*
X194894570Y-126162163D02*
X194956640Y-126205873D01*
X216732842Y-130727605D02*
X216714267Y-130719208D01*
X196738033Y-127708865D02*
X196764203Y-127660358D01*
X193308908Y-127555317D02*
X193341465Y-127580929D01*
X193533132Y-126292532D02*
X193528374Y-126307296D01*
X216491195Y-131295562D02*
X216433156Y-131294207D01*
X221731509Y-150913479D02*
X221741993Y-150750407D01*
X194267536Y-125759899D02*
X194324686Y-125805293D01*
X241634707Y-128280547D02*
X241654097Y-128318441D01*
X193901332Y-128818063D02*
X193913891Y-128831635D01*
X215414054Y-130564061D02*
X215398856Y-130514657D01*
X195289174Y-125591566D02*
X195198476Y-125534878D01*
X217510905Y-128276472D02*
X217622519Y-128240447D01*
X242288347Y-127181668D02*
X242347905Y-127218581D01*
X220751719Y-150064526D02*
X220536367Y-150313908D01*
X195255208Y-126512665D02*
X195180613Y-126467078D01*
X214923333Y-151867879D02*
X214935305Y-151834376D01*
X213170910Y-149787538D02*
X213152537Y-149863874D01*
X193341465Y-127580929D02*
X193378621Y-127607032D01*
X193528673Y-126391820D02*
X193539283Y-126430642D01*
X217314845Y-130319653D02*
X217315391Y-130341231D01*
X196775321Y-127637139D02*
X196776781Y-127634223D01*
X213082130Y-150308005D02*
X213073479Y-150409794D01*
X214595147Y-149017477D02*
X214555217Y-149000125D01*
X217621924Y-130111119D02*
X217632428Y-130120394D01*
X241361229Y-125752981D02*
X241339469Y-125773737D01*
X196764203Y-127660358D02*
X196775336Y-127637132D01*
X218957999Y-127754036D02*
X218991436Y-127828071D01*
X219649792Y-150437380D02*
X219660197Y-150482993D01*
X219151210Y-130290733D02*
X219151755Y-130312312D01*
X241677039Y-128398067D02*
X241679801Y-128439793D01*
X214586360Y-150616650D02*
X214698350Y-150835678D01*
X193562170Y-127108066D02*
X193481777Y-127135733D01*
X218607734Y-129911836D02*
X218627633Y-129906185D01*
X218550634Y-129934334D02*
X218569208Y-129925936D01*
X195097877Y-126419776D02*
X195007893Y-126372174D01*
X241668340Y-128357615D02*
X241677039Y-128398067D01*
X241844301Y-126126629D02*
X241896252Y-126131508D01*
X220984966Y-150938580D02*
X221032414Y-150847255D01*
X221332179Y-151951266D02*
X221377836Y-151913311D01*
X193872056Y-127803550D02*
X193997389Y-127822132D01*
X241658327Y-128578027D02*
X241647216Y-128603480D01*
X215828691Y-150694363D02*
X215858011Y-150682851D01*
X218303473Y-127111996D02*
X218314773Y-127096054D01*
X241095330Y-128584254D02*
X241007430Y-128541009D01*
X215550118Y-150624660D02*
X215595478Y-150647640D01*
D12*
X240272513Y-138236474D02*
X239177009Y-138635209D01*
X237700934Y-136664796D01*
X234833945Y-137708291D01*
X234981421Y-140162278D01*
X233885917Y-140561013D01*
X233580488Y-132408242D01*
X234528281Y-132408242D01*
X234778541Y-136685784D01*
X237091941Y-135843774D01*
X234528281Y-132408242D01*
X233580488Y-132408242D01*
X233530799Y-131081910D01*
X234445670Y-130748925D01*
X240272513Y-138236474D01*
G36*
X240272513Y-138236474D02*
G01*
X239177009Y-138635209D01*
X237700934Y-136664796D01*
X234833945Y-137708291D01*
X234981421Y-140162278D01*
X233885917Y-140561013D01*
X233580488Y-132408242D01*
X234528281Y-132408242D01*
X234778541Y-136685784D01*
X237091941Y-135843774D01*
X234528281Y-132408242D01*
X233580488Y-132408242D01*
X233530799Y-131081910D01*
X234445670Y-130748925D01*
X240272513Y-138236474D01*
G37*
D10*
X196641916Y-127192466D02*
X196598953Y-127081822D01*
X220569870Y-150302040D02*
X220630623Y-150227159D01*
X213991218Y-151225765D02*
X214012513Y-151345144D01*
X241848329Y-126609374D02*
X241814139Y-126619805D01*
X240054283Y-128111965D02*
X239958552Y-128084289D01*
X218492915Y-132136053D02*
X218497421Y-132159210D01*
X217254683Y-130123793D02*
X217264780Y-130141354D01*
X217656912Y-130135726D02*
X217671007Y-130141506D01*
X222369130Y-149484795D02*
X222327888Y-149362870D01*
X193568818Y-126474178D02*
X193594863Y-126498183D01*
X213641275Y-152196452D02*
X213672658Y-152161492D01*
X241356527Y-127020078D02*
X241450765Y-127016390D01*
X214012513Y-151345144D02*
X214040398Y-151466200D01*
X194206124Y-125400955D02*
X194190894Y-125413908D01*
X213910612Y-151346857D02*
X213925484Y-151207394D01*
X194222865Y-125388973D02*
X194206124Y-125400955D01*
X215707365Y-151182145D02*
X215678796Y-151117658D01*
X195007893Y-126372174D02*
X194911551Y-126325689D01*
X216502181Y-130197051D02*
X216509689Y-130178009D01*
X215656342Y-130954478D02*
X215620893Y-130916702D01*
X217233316Y-128344385D02*
X217286471Y-128331345D01*
X219869946Y-131103193D02*
X219825727Y-131132219D01*
X241317285Y-125793289D02*
X241294841Y-125811504D01*
X215364816Y-130200897D02*
X215369172Y-130148026D01*
X213062913Y-150626874D02*
X213054107Y-151043562D01*
X241619021Y-128644546D02*
X241602199Y-128660471D01*
X218360283Y-129568926D02*
X218397628Y-129532770D01*
X220935123Y-149134897D02*
X220889991Y-149156218D01*
X217084037Y-132206519D02*
X217084959Y-132182708D01*
X215895134Y-150652907D02*
X215905516Y-150639325D01*
X195057616Y-126292611D02*
X195098608Y-126334770D01*
X218117996Y-130578519D02*
X218102798Y-130529116D01*
X195382237Y-125652949D02*
X195289174Y-125591566D01*
X193942258Y-128852596D02*
X193974788Y-128865724D01*
X217095939Y-130709948D02*
X217077859Y-130719208D01*
X218732428Y-129892983D02*
X218754007Y-129893529D01*
X194425920Y-125321990D02*
X194374412Y-125330834D01*
X220169723Y-151659397D02*
X220233347Y-151645593D01*
X239224030Y-126772057D02*
X239283423Y-126651838D01*
X241523959Y-125388212D02*
X241528456Y-125410962D01*
X220309990Y-130110384D02*
X220317163Y-130162486D01*
X220598654Y-149331322D02*
X220547233Y-149369260D01*
X193318603Y-127214517D02*
X193293378Y-127231899D01*
X217969629Y-132654659D02*
X217935351Y-132659826D01*
X215936891Y-150121425D02*
X215927259Y-150092022D01*
X215912810Y-127781882D02*
X216144164Y-129300139D01*
X218541097Y-129356366D02*
X218529998Y-129357976D01*
X239792053Y-125975824D02*
X239895980Y-125877303D01*
X217243776Y-130575681D02*
X217232085Y-130592121D01*
X221419983Y-151870104D02*
X221458760Y-151822194D01*
X220928891Y-151036165D02*
X220984966Y-150938580D01*
X220689566Y-151820121D02*
X220706999Y-151866839D01*
X220159703Y-130808774D02*
X220130367Y-130851014D01*
X217566677Y-129992153D02*
X217571880Y-130016454D01*
X218314773Y-127096054D02*
X218331916Y-127087991D01*
X217098431Y-132299771D02*
X217092200Y-132276985D01*
X218966879Y-130660026D02*
X218949866Y-130670933D01*
X220354124Y-151602743D02*
X220411277Y-151574494D01*
X215587411Y-130877373D02*
X215555967Y-130836556D01*
X218368198Y-127570314D02*
X218373094Y-127522231D01*
X219090603Y-128297781D02*
X219085157Y-128377153D01*
X217274040Y-130523027D02*
X217264780Y-130541108D01*
X214977307Y-151448586D02*
X214974891Y-151414159D01*
X218300575Y-127168874D02*
X218298560Y-127136157D01*
X218647920Y-130723121D02*
X218627633Y-130718439D01*
X216917642Y-130760012D02*
X216896064Y-130760558D01*
X242052318Y-126489828D02*
X242037985Y-126504809D01*
X218469225Y-132068924D02*
X218478772Y-132090881D01*
X214974891Y-151414159D02*
X214586360Y-150616650D01*
X216509689Y-130178009D02*
X216518087Y-130159434D01*
X217865001Y-131746200D02*
X217935351Y-131753212D01*
X220699281Y-149263331D02*
X220649357Y-149296044D01*
X217516770Y-131780173D02*
X217548945Y-131771888D01*
X216527347Y-130141354D02*
X216537444Y-130123793D01*
X213119595Y-150028833D02*
X213105350Y-150117592D01*
X241528886Y-125458740D02*
X241525150Y-125483500D01*
X219138554Y-130417109D02*
X219132903Y-130437007D01*
X241141734Y-125228739D02*
X241189832Y-125227769D01*
X217028794Y-129339036D02*
X217076025Y-129364104D01*
X220128375Y-150709336D02*
X220171600Y-150682587D01*
X241309769Y-128672607D02*
X241253951Y-128653396D01*
X217619040Y-130254472D02*
X217617573Y-130308046D01*
X216629332Y-130664804D02*
X216614117Y-130651625D01*
X217617573Y-130200897D02*
X217619040Y-130254472D01*
X239125374Y-127005305D02*
X239171452Y-126890426D01*
X217425164Y-131810799D02*
X217454835Y-131799658D01*
X217020758Y-129940755D02*
X217040242Y-129947347D01*
X217581866Y-132648424D02*
X217516770Y-132632865D01*
X213190332Y-149715209D02*
X213170910Y-149787538D01*
X217590124Y-130066498D02*
X217596657Y-130078505D01*
X217530409Y-129849233D02*
X217550603Y-129896510D01*
X241253951Y-128653396D02*
X241198906Y-128631438D01*
X218080285Y-130110384D02*
X218090204Y-130059115D01*
X220947855Y-150909970D02*
X220886296Y-151025385D01*
X218373094Y-127522231D02*
X218373567Y-127472779D01*
X241500124Y-125559661D02*
X241487729Y-125585228D01*
X215668576Y-149747352D02*
X215623825Y-149711039D01*
X219732725Y-150067644D02*
X219709701Y-150105842D01*
X218415564Y-131985965D02*
X218431211Y-132005916D01*
X194703357Y-126241727D02*
X194648727Y-126223645D01*
X217596127Y-130464288D02*
X217583533Y-130514657D01*
X219992646Y-131005093D02*
X219953477Y-131039565D01*
X218380075Y-131947815D02*
X218415564Y-131985965D01*
X218486684Y-132299771D02*
X218478772Y-132322157D01*
X217613217Y-130360917D02*
X217606045Y-130413020D01*
X214443278Y-148961602D02*
X214409312Y-148954007D01*
X242449302Y-127557631D02*
X242413024Y-127583368D01*
X218532553Y-130681030D02*
X218514993Y-130670933D01*
X218431211Y-132407122D02*
X218415564Y-132427073D01*
X219922728Y-151650054D02*
X219973290Y-151664262D01*
X214976701Y-151597131D02*
X214978885Y-151538130D01*
X218291353Y-129646031D02*
X218324835Y-129606701D01*
X239687995Y-128038537D02*
X239402870Y-128023175D01*
X241598403Y-127800238D02*
X241455236Y-127814742D01*
X194480425Y-126179212D02*
X194423225Y-126168262D01*
X241155761Y-125896545D02*
X241093386Y-125937723D01*
X241736581Y-126643870D02*
X241647311Y-126675012D01*
X218857124Y-129911836D02*
X218876608Y-129918428D01*
X215681945Y-150682338D02*
X215722396Y-150693175D01*
X194070556Y-126754690D02*
X194355963Y-126874128D01*
X213728954Y-152073480D02*
X213754024Y-152021558D01*
X221741993Y-150750407D02*
X221743491Y-150688222D01*
X215711918Y-149785253D02*
X215668576Y-149747352D01*
X216477283Y-130319653D02*
X216478902Y-130298357D01*
X195027895Y-125438313D02*
X194949869Y-125399800D01*
X218268952Y-132549024D02*
X218243243Y-132563567D01*
X239402870Y-128023175D02*
X239212634Y-128010522D01*
X218501079Y-132206519D02*
X218500157Y-132230330D01*
X214913723Y-150125339D02*
X215022977Y-150227644D01*
X216916141Y-128697863D02*
X216928348Y-128655350D01*
X220130367Y-129686848D02*
X220159703Y-129729088D01*
X194039306Y-128193455D02*
X193997392Y-128236221D01*
X217296538Y-130216535D02*
X217302189Y-130236434D01*
X222430819Y-152046871D02*
X222457291Y-151994077D01*
X222334676Y-152174483D02*
X222369639Y-152137617D01*
X217563465Y-129969800D02*
X217566677Y-129992153D01*
X194638014Y-126983502D02*
X194882204Y-127073345D01*
X221771394Y-151633270D02*
X221796411Y-151775569D01*
X220233347Y-151645593D02*
X220294814Y-151626576D01*
X218243243Y-132563567D02*
X218216478Y-132577303D01*
X213208219Y-152153152D02*
X213231139Y-152176842D01*
X240669598Y-125353728D02*
X240779157Y-125309126D01*
X194197853Y-125691528D02*
X194218684Y-125714354D01*
X218837226Y-129906185D02*
X218857124Y-129911836D01*
X218363712Y-130112435D02*
X218373809Y-130094875D01*
X215074153Y-130442449D02*
X213874007Y-129618251D01*
X242506346Y-127377176D02*
X242515605Y-127402347D01*
X213053808Y-151391474D02*
X213058308Y-151540912D01*
X241916845Y-127746830D02*
X241752308Y-127777930D01*
X218706167Y-129330504D02*
X218756127Y-129309655D01*
X218354452Y-130130516D02*
X218363712Y-130112435D01*
X194877923Y-125368708D02*
X194812987Y-125345718D01*
X221539004Y-149001183D02*
X221519035Y-148999805D01*
X213319804Y-149361596D02*
X213297500Y-149411302D01*
X216537444Y-130558668D02*
X216527347Y-130541108D01*
X215451980Y-130659712D02*
X215431786Y-130612434D01*
X241983226Y-126547690D02*
X241960807Y-126561136D01*
X214040398Y-151466200D02*
X214075757Y-151585578D01*
X240991264Y-125247958D02*
X241042372Y-125238901D01*
X217361496Y-129592242D02*
X217394978Y-129631571D01*
X220287478Y-130529116D02*
X220272280Y-130578519D01*
X216614117Y-130030836D02*
X216629332Y-130017656D01*
X215332747Y-149491959D02*
X215213408Y-149401536D01*
X222142249Y-149103425D02*
X221876410Y-149082986D01*
X217121785Y-129391184D02*
X217166004Y-129420209D01*
X216900520Y-129120955D02*
X216892927Y-129043877D01*
X222210764Y-152244537D02*
X222255366Y-152228486D01*
X214778511Y-152054593D02*
X214806668Y-152035296D01*
X221734225Y-150938402D02*
X221735943Y-151193973D01*
X213210643Y-149646820D02*
X213190332Y-149715209D01*
X221420185Y-149002119D02*
X221370780Y-149007114D01*
X217206457Y-130623177D02*
X217192572Y-130637740D01*
X222261821Y-149215573D02*
X222238783Y-149178271D01*
X194374412Y-125330834D02*
X194325922Y-125343017D01*
X218876608Y-129918428D02*
X218895650Y-129925936D01*
D11*
X215782630Y-148152505D02*
X219708831Y-148234307D01*
D10*
X220909658Y-152024719D02*
X220976657Y-152037850D01*
X217076025Y-131144840D02*
X217028794Y-131169908D01*
X240222678Y-125613014D02*
X240334453Y-125537139D01*
X217507823Y-130705828D02*
X217482916Y-130750718D01*
X215503777Y-150598512D02*
X215550118Y-150624660D01*
X214479063Y-148971967D02*
X214443278Y-148961602D01*
X241199711Y-126199654D02*
X241279160Y-126181955D01*
X194486966Y-127827561D02*
X194597098Y-127817386D01*
X218293558Y-132533703D02*
X218268952Y-132549024D01*
X213958035Y-150911243D02*
X213964862Y-151005460D01*
X196679532Y-127296107D02*
X196641916Y-127192466D01*
X218408856Y-130579044D02*
X218396407Y-130563203D01*
X215195257Y-151551666D02*
X215240885Y-151594358D01*
X219042823Y-130030365D02*
X219056002Y-130045580D01*
X215883728Y-150664652D02*
X215895134Y-150652907D01*
X241941852Y-126139232D02*
X241980443Y-126149870D01*
X219267432Y-132524627D02*
X220814612Y-130644881D01*
X241549602Y-128174584D02*
X241582064Y-128208616D01*
X218520327Y-131103193D02*
X218477720Y-131072287D01*
X217232085Y-130090340D02*
X217243776Y-130106780D01*
X193200000Y-127390000D02*
X193203622Y-127412100D01*
X217756099Y-131744414D02*
X217792560Y-131743811D01*
X216696187Y-130709948D02*
X216678626Y-130699851D01*
X241679801Y-128439793D02*
X241678140Y-128480127D01*
X241003146Y-126253644D02*
X241042190Y-126241500D01*
X220254548Y-129910970D02*
X220272280Y-129959343D01*
X218384716Y-130546762D02*
X218373809Y-130529749D01*
X218796288Y-129897815D02*
X218816938Y-129901503D01*
X217313226Y-130298357D02*
X217314845Y-130319653D01*
X241936182Y-126574075D02*
X241909277Y-126586461D01*
X242106841Y-126333641D02*
X242107546Y-126349052D01*
X195770269Y-128051107D02*
X195891858Y-128031213D01*
X217205041Y-131947815D02*
X217224795Y-131929674D01*
X213152537Y-149863874D02*
X213135378Y-149944283D01*
X216714267Y-130719208D02*
X216696187Y-130709948D01*
X220706242Y-151473450D02*
X220691431Y-151536770D01*
X217106343Y-132090881D02*
X217115890Y-132068924D01*
X194479689Y-125316351D02*
X194425920Y-125321990D01*
X218346055Y-130475533D02*
X218338546Y-130456491D01*
X242082162Y-126247596D02*
X242088340Y-126260929D01*
X215599012Y-151713547D02*
X215640360Y-151691638D01*
X221519035Y-148999805D02*
X221494791Y-148999229D01*
X196460356Y-128011884D02*
X196513814Y-128025025D01*
X242042950Y-126189656D02*
X242051656Y-126199919D01*
X194968166Y-127756547D02*
X194827330Y-127794010D01*
X216629332Y-130017656D02*
X216645173Y-130005208D01*
X240827685Y-127793009D02*
X240709212Y-127767973D01*
X214676446Y-152091291D02*
X214713533Y-152082912D01*
X217809705Y-130133932D02*
X217835936Y-130124335D01*
X219684105Y-131207358D02*
X219634146Y-131228207D01*
X218321621Y-130227803D02*
X218326303Y-130207515D01*
X219709701Y-150105842D02*
X219689763Y-150144617D01*
X242475162Y-127328262D02*
X242492690Y-127352450D01*
X196376583Y-128001380D02*
X196422581Y-128006018D01*
X213975628Y-151111419D02*
X213991218Y-151225765D01*
X221215816Y-149036080D02*
X221179910Y-149045462D01*
X221796411Y-151775569D02*
X221829876Y-151907863D01*
X217098431Y-132113267D02*
X217106343Y-132090881D01*
X242051656Y-126199919D02*
X242060004Y-126210893D01*
X213835621Y-151774293D02*
X213866309Y-151634830D01*
X218313647Y-130290733D02*
X218315267Y-130269438D01*
X213777148Y-151965113D02*
X213798402Y-151904710D01*
X218099732Y-132623599D02*
X218068347Y-132632865D01*
X213891097Y-151490844D02*
X213910612Y-151346857D01*
X213342018Y-149315425D02*
X213319804Y-149361596D01*
X221898335Y-152077126D02*
X221926579Y-152123385D01*
X215962032Y-150249690D02*
X215957871Y-150215948D01*
X242134795Y-127104288D02*
X242230166Y-127149827D01*
X218415564Y-132427073D02*
X218398504Y-132446450D01*
X214592411Y-152094876D02*
X214636116Y-152095387D01*
X215386263Y-130464288D02*
X215376344Y-130413020D01*
X240940188Y-126050751D02*
X240763386Y-126191098D01*
X241909277Y-126586461D02*
X241880017Y-126598243D01*
X217568335Y-129944883D02*
X217583533Y-129994287D01*
X219825727Y-131132219D02*
X219779967Y-131159299D01*
X213385525Y-149233417D02*
X213363979Y-149272721D01*
X216714267Y-129963253D02*
X216732842Y-129954855D01*
X217900460Y-132663895D02*
X217865001Y-132666838D01*
X217113499Y-130699851D02*
X217095939Y-130709948D01*
X217326047Y-129554466D02*
X217361496Y-129592242D01*
X222617048Y-150944151D02*
X222612575Y-150708669D01*
X239595431Y-126185265D02*
X239691660Y-126078657D01*
X241397070Y-125262723D02*
X241426579Y-125276096D01*
X213701859Y-152120313D02*
X213728954Y-152073480D01*
X216478902Y-130384105D02*
X216477283Y-130362810D01*
X221172742Y-152028105D02*
X221229772Y-152009213D01*
X215906365Y-131144840D02*
X215860604Y-131117760D01*
X194260500Y-125367850D02*
X194241022Y-125377943D01*
X222587014Y-151465280D02*
X222601322Y-151323420D01*
X216896064Y-129921903D02*
X216917642Y-129922448D01*
X213607631Y-152224628D02*
X213641275Y-152196452D01*
X220254548Y-130626893D02*
X220234354Y-130674170D01*
X217130513Y-130688944D02*
X217113499Y-130699851D01*
X222407887Y-149620319D02*
X222369130Y-149484795D01*
X218036172Y-132641150D02*
X218003251Y-132648424D01*
X194648727Y-126223645D02*
X194593288Y-126207081D01*
X194218684Y-125714354D02*
X194241976Y-125737145D01*
X215376344Y-130095924D02*
X215386263Y-130044656D01*
X215609029Y-150986111D02*
X215525932Y-150853515D01*
X219042823Y-130594259D02*
X219028938Y-130608822D01*
X242097915Y-126411969D02*
X242092025Y-126427773D01*
X218500157Y-132182708D02*
X218501079Y-132206519D01*
X215204291Y-130427987D02*
X214784961Y-130702720D01*
X219650031Y-150265021D02*
X219644007Y-150306721D01*
X217568335Y-130564061D02*
X217550603Y-130612434D01*
X217291558Y-131879335D02*
X217316164Y-131864014D01*
X214930158Y-149205673D02*
X214846877Y-149153487D01*
X218983319Y-130648335D02*
X218966879Y-130660026D01*
X222114715Y-152251675D02*
X222162696Y-152252564D01*
X196498245Y-126849085D02*
X196441129Y-126731769D01*
X242102214Y-126303541D02*
X242105039Y-126318454D01*
X221063447Y-149082505D02*
X221021911Y-149098136D01*
X216732842Y-129954855D02*
X216751884Y-129947347D01*
X193889887Y-128802348D02*
X193901332Y-128818063D01*
X215740392Y-151576151D02*
X215757245Y-151528517D01*
X215714946Y-151619947D02*
X215740392Y-151576151D01*
X193793147Y-127049382D02*
X193743773Y-127059449D01*
X242075331Y-126234780D02*
X242082162Y-126247596D01*
X219071985Y-128455933D02*
X219050544Y-128533780D01*
X215468706Y-151724188D02*
X215513014Y-151729221D01*
X218346614Y-127316237D02*
X218327563Y-127261336D01*
X218067290Y-130268931D02*
X218068758Y-130215357D01*
X217507823Y-129803116D02*
X217530409Y-129849233D01*
X194134790Y-125554459D02*
X194137412Y-125576898D01*
X216906465Y-128741244D02*
X216916141Y-128697863D01*
X241004090Y-127055112D02*
X241087113Y-127044105D01*
X216489938Y-130236434D02*
X216495589Y-130216535D01*
X194698595Y-127804875D02*
X194868227Y-127777396D01*
X215722396Y-150693175D02*
X215760556Y-150699086D01*
X241519804Y-128697078D02*
X241496084Y-128700235D01*
X217092200Y-132276985D02*
X217087695Y-132253828D01*
X195446546Y-126644155D02*
X195481933Y-126670915D01*
X218921179Y-127682119D02*
X218957999Y-127754036D01*
X213363979Y-149272721D02*
X213342018Y-149315425D01*
X193200048Y-127368412D02*
X193200000Y-127390000D01*
X215792521Y-149867074D02*
X215753388Y-149825055D01*
X216874485Y-130760012D02*
X216853190Y-130758393D01*
X215431786Y-130612434D02*
X215414054Y-130564061D01*
X215240885Y-151594358D02*
X215286718Y-151632276D01*
X215767276Y-151423167D02*
X215761505Y-151366165D01*
X220770891Y-151278681D02*
X220724743Y-151409014D01*
X213275269Y-149464610D02*
X213253274Y-149521587D01*
X239505634Y-126296483D02*
X239549504Y-126240183D01*
X240852442Y-127079237D02*
X240925632Y-127066954D01*
X194757066Y-126261149D02*
X194703357Y-126241727D01*
X219684105Y-129330504D02*
X219732736Y-129353495D01*
X218080285Y-130427479D02*
X218073113Y-130375377D01*
X219110406Y-130494108D02*
X219101145Y-130512189D01*
X218775303Y-130729476D02*
X218754007Y-130731095D01*
X218116089Y-127975278D02*
X218155180Y-127941028D01*
X196770232Y-127592876D02*
X196737464Y-127472829D01*
X216319434Y-129225377D02*
X216375879Y-129218757D01*
X194281206Y-125358676D02*
X194260500Y-125367850D01*
X217162794Y-130664804D02*
X217146953Y-130677253D01*
X215731024Y-151245296D02*
X215707365Y-151182145D01*
X218230572Y-129729088D02*
X218259908Y-129686848D01*
X217561149Y-129935345D02*
X217561778Y-129950497D01*
X194976700Y-127124867D02*
X194819988Y-127094843D01*
X217084959Y-132230330D02*
X217084037Y-132206519D01*
X219644007Y-150306721D02*
X219641854Y-150349306D01*
X193251267Y-127268268D02*
X193234613Y-127287248D01*
X216549234Y-131294207D02*
X216491195Y-131295562D01*
X218369433Y-127421961D02*
X218360510Y-127369779D01*
X194597098Y-127817386D02*
X194698595Y-127804875D01*
X215369172Y-130360917D02*
X215364816Y-130308046D01*
X219719047Y-150626874D02*
X219747197Y-150672038D01*
X215952255Y-150183349D02*
X215945242Y-150151854D01*
X216718496Y-129234533D02*
X216773062Y-129246158D01*
X218073113Y-130375377D02*
X218068758Y-130322506D01*
X194324686Y-125805293D02*
X194388583Y-125850531D01*
X242518822Y-127453664D02*
X242511727Y-127479626D01*
X219758677Y-150029960D02*
X219732725Y-150067644D01*
X219088867Y-128218155D02*
X219090603Y-128297781D01*
X196211088Y-126356950D02*
X196174922Y-126311930D01*
X217606045Y-130413020D02*
X217596127Y-130464288D01*
X216773062Y-131262786D02*
X216718496Y-131274410D01*
X218710850Y-129893529D02*
X218732428Y-129892983D01*
X241294841Y-125811504D02*
X241272304Y-125828247D01*
X217604096Y-130090037D02*
X217612499Y-130100954D01*
X219869946Y-129434669D02*
X219912553Y-129465576D01*
X196550399Y-128041001D02*
X196660951Y-127846737D01*
X214893516Y-151931373D02*
X214909447Y-151900319D01*
X215364816Y-130308046D02*
X215363349Y-130254472D01*
X218689555Y-130729476D02*
X218668569Y-130726809D01*
X241528456Y-125410962D02*
X241530044Y-125434516D01*
X216982141Y-128536039D02*
X217006458Y-128500018D01*
X241337641Y-128680793D02*
X241309769Y-128672607D01*
X217398402Y-128306779D02*
X217510905Y-128276472D01*
X216495589Y-130465926D02*
X216489938Y-130446028D01*
X217703195Y-130148609D02*
X217721404Y-130149656D01*
X239423910Y-126412411D02*
X239463783Y-126353961D01*
X194826847Y-126118236D02*
X194894570Y-126162163D01*
X241339469Y-125773737D02*
X241317285Y-125793289D01*
X194517541Y-127050125D02*
X194405797Y-127038509D01*
X195666341Y-125858457D02*
X195571750Y-125787076D01*
X220790861Y-151237356D02*
X220864190Y-151136821D01*
X218339287Y-131912194D02*
X218380075Y-131947815D01*
X241586174Y-126134223D02*
X241656937Y-126128393D01*
X194152072Y-125622846D02*
X194164354Y-125645773D01*
X213925484Y-151207394D02*
X213943816Y-150960130D01*
X221140250Y-150596196D02*
X221101769Y-150653948D01*
X220294814Y-151626576D02*
X220354124Y-151602743D01*
X216826582Y-129260187D02*
X216878987Y-129276555D01*
X217310559Y-130277371D02*
X217313226Y-130298357D01*
X239385977Y-126471629D02*
X239423910Y-126412411D01*
X218478772Y-132090881D02*
X218486684Y-132113267D01*
X195216655Y-126448773D02*
X195288476Y-126513404D01*
X241322915Y-127822425D02*
X241201544Y-127824273D01*
X213426718Y-149164739D02*
X213406492Y-149197446D01*
X242492690Y-127352450D02*
X242506346Y-127377176D01*
X215057805Y-150274932D02*
X214872645Y-150084981D01*
X193959485Y-128281172D02*
X193926057Y-128328341D01*
X241786659Y-126124529D02*
X241844301Y-126126629D01*
X213097422Y-151897266D02*
X213120944Y-151987095D01*
X194812987Y-125345718D02*
X194755988Y-125331513D01*
X221179910Y-149045462D02*
X221142507Y-149056263D01*
X241392653Y-128693547D02*
X241365312Y-128687825D01*
X216375879Y-129218757D02*
X216433156Y-129214736D01*
X218380075Y-132465223D02*
X218360321Y-132483364D01*
X219023376Y-131298026D02*
X218967835Y-131288870D01*
X216917642Y-129922448D02*
X216938937Y-129924067D01*
X217341873Y-131849471D02*
X217368638Y-131835735D01*
X218659596Y-127314078D02*
X218705320Y-127366169D01*
X217166004Y-129420209D02*
X217208610Y-129451116D01*
X195759585Y-125931807D02*
X195666341Y-125858457D01*
X222566475Y-151607619D02*
X222587014Y-151465280D01*
X218465698Y-130635886D02*
X218450483Y-130622707D01*
X221850122Y-151968770D02*
X221872895Y-152025389D01*
X216751884Y-130735113D02*
X216732842Y-130727605D01*
X241450765Y-127016390D02*
X241546046Y-127015525D01*
X218881518Y-127612660D02*
X218921179Y-127682119D01*
X219079820Y-131304646D02*
X219023376Y-131298026D01*
X217454835Y-131799658D02*
X217485385Y-131789439D01*
X214443311Y-152062256D02*
X214494342Y-152078751D01*
X217596127Y-130044656D02*
X217606045Y-130095924D01*
X214762113Y-149103547D02*
X214677619Y-149057622D01*
X216791267Y-129935104D02*
X216811554Y-129930422D01*
X221703053Y-151142211D02*
X221720089Y-151021839D01*
X196097486Y-128006491D02*
X196182814Y-128000525D01*
X217314845Y-130362810D02*
X217313226Y-130384105D01*
X215757245Y-151528517D02*
X215766031Y-151477404D01*
X242368134Y-127608820D02*
X242314105Y-127633896D01*
X218913269Y-131277245D02*
X218859748Y-131263216D01*
X215860604Y-131117760D02*
X215816386Y-131088734D01*
X220317163Y-130162486D02*
X220321518Y-130215357D01*
X216811554Y-130752039D02*
X216791267Y-130747357D01*
X214971117Y-151662182D02*
X214976701Y-151597131D01*
X217583533Y-129994287D02*
X217596127Y-130044656D01*
X215456782Y-150569636D02*
X215503777Y-150598512D01*
X194143026Y-125599887D02*
X194152072Y-125622846D01*
X218130282Y-131799658D02*
X218188699Y-131822835D01*
X217000860Y-130747357D02*
X216980572Y-130752039D01*
X195111074Y-125483566D02*
X195027895Y-125438313D01*
X220234354Y-130674170D02*
X220211767Y-130720287D01*
X219694667Y-150577678D02*
X219719047Y-150626874D01*
X195476739Y-125718347D02*
X195382237Y-125652949D01*
D11*
X222040008Y-149093163D02*
X227193145Y-144717088D01*
D10*
X240263294Y-126613097D02*
X240127101Y-126732276D01*
X193378621Y-127607032D02*
X193420490Y-127633623D01*
X194361256Y-128748062D02*
X194485693Y-128674913D01*
X218807344Y-129291014D02*
X218859748Y-129274647D01*
X241656937Y-126128393D02*
X241723985Y-126125139D01*
X242511727Y-127479626D02*
X242498126Y-127505668D01*
X215962971Y-150396886D02*
X215965209Y-150358175D01*
X219146924Y-130376172D02*
X219143236Y-130396821D01*
X241525150Y-125483500D02*
X241519000Y-125508663D01*
X241487729Y-125585228D02*
X241473584Y-125610662D01*
X215953203Y-150478370D02*
X215958989Y-150436938D01*
X222601322Y-151323420D02*
X222610418Y-151186383D01*
X216645173Y-130005208D02*
X216661613Y-129993517D01*
X220748367Y-149233087D02*
X220699281Y-149263331D01*
X219825727Y-129405643D02*
X219869946Y-129434669D01*
X196660951Y-127846737D02*
X196738033Y-127708865D01*
X216572490Y-130607962D02*
X216560042Y-130592121D01*
X222215281Y-149147828D02*
X222191340Y-149124822D01*
X216928348Y-128655350D02*
X216943284Y-128614007D01*
X218588250Y-129918428D02*
X218607734Y-129911836D01*
X218497979Y-130660026D02*
X218481539Y-130648335D01*
X241442861Y-126753762D02*
X241219240Y-126846531D01*
X239022997Y-127312605D02*
X239051461Y-127218035D01*
X216599554Y-130044721D02*
X216614117Y-130030836D01*
X242430603Y-127281864D02*
X242454291Y-127304703D01*
X213481319Y-149085535D02*
X213446040Y-149135230D01*
X222457291Y-151994077D02*
X222481186Y-151937059D01*
X194485693Y-128674913D02*
X194756890Y-128503813D01*
X194900491Y-128413770D02*
X195047319Y-128326004D01*
X242060004Y-126210893D02*
X242067920Y-126222529D01*
X214494342Y-152078751D02*
X214545197Y-152089439D01*
X216718496Y-131274410D02*
X216662955Y-131283566D01*
X196246506Y-126404699D02*
X196211088Y-126356950D01*
X193997389Y-127822132D02*
X194123412Y-127832685D01*
X216892927Y-129043877D02*
X216889103Y-128960614D01*
X214832114Y-152013003D02*
X214854982Y-151988037D01*
X215556506Y-151725874D02*
X215599012Y-151713547D01*
X214945496Y-151800132D02*
X214961070Y-151730708D01*
X215861921Y-149959019D02*
X215828854Y-149911624D01*
X220287478Y-130008747D02*
X220300072Y-130059115D01*
X213866309Y-151634830D02*
X213891097Y-151490844D01*
X217153905Y-132005916D02*
X217169551Y-131985965D01*
X217127030Y-132047425D02*
X217139716Y-132026412D01*
X216491195Y-129213382D02*
X216549234Y-129214736D01*
X213231677Y-149582301D02*
X213210643Y-149646820D01*
X240558542Y-125406957D02*
X240669598Y-125353728D01*
X218431211Y-132005916D02*
X218445400Y-132026412D01*
X218397628Y-131005093D02*
X218360283Y-130968937D01*
X216853190Y-130758393D02*
X216832204Y-130755726D01*
X214698350Y-150835678D02*
X214755666Y-150938849D01*
X218967835Y-131288870D02*
X218913269Y-131277245D01*
X216959923Y-129926734D02*
X216980572Y-129930422D01*
X218500157Y-132230330D02*
X218497421Y-132253828D01*
X218291353Y-130891832D02*
X218259908Y-130851014D01*
X214978885Y-151538130D02*
X214977307Y-151448586D01*
X218569208Y-130698688D02*
X218550634Y-130690290D01*
X216832204Y-129926734D02*
X216853190Y-129924067D01*
X215620893Y-129592242D02*
X215656342Y-129554466D01*
X195938314Y-126081689D02*
X195850552Y-126006445D01*
X216477283Y-130362810D02*
X216476737Y-130341231D01*
X216938937Y-130758393D02*
X216917642Y-130760012D01*
X240626455Y-127124819D02*
X240724685Y-127103532D01*
X216896064Y-130760558D02*
X216874485Y-130760012D01*
X241440704Y-125660597D02*
X241422301Y-125684829D01*
X218398504Y-132446450D02*
X218380075Y-132465223D01*
X217649767Y-131753212D02*
X217684658Y-131749143D01*
X218450483Y-130001917D02*
X218465698Y-129988738D01*
X214172431Y-151805884D02*
X214202651Y-151854670D01*
X238951285Y-127611581D02*
X238958414Y-127573988D01*
X217178009Y-130030836D02*
X217192572Y-130044721D01*
X217034299Y-128466375D02*
X217065863Y-128435411D01*
X241020813Y-125989804D02*
X240940188Y-126050751D01*
X241457853Y-125635830D02*
X241440704Y-125660597D01*
X218732428Y-130731641D02*
X218710850Y-130731095D01*
D11*
X213737731Y-149011361D02*
X215782630Y-148152505D01*
D10*
X222502632Y-151876361D02*
X222538687Y-151746094D01*
X241419531Y-128697805D02*
X241392653Y-128693547D01*
X242454291Y-127304703D02*
X242475162Y-127328262D01*
X217206457Y-130059284D02*
X217219636Y-130074499D01*
X195850552Y-126006445D02*
X195759585Y-125931807D01*
X193481777Y-127135733D02*
X193409562Y-127165609D01*
X220889991Y-149156218D02*
X220843782Y-149179627D01*
X217289946Y-130197051D02*
X217296538Y-130216535D01*
X217095939Y-129972513D02*
X217113499Y-129982610D01*
X221829876Y-151907863D02*
X221850122Y-151968770D01*
X215640360Y-151691638D02*
X215680381Y-151659547D01*
D11*
X238930839Y-127621766D02*
X228747268Y-128194337D01*
D10*
X194146973Y-125475751D02*
X194140716Y-125493805D01*
X217000860Y-129935104D02*
X217020758Y-129940755D01*
X219080490Y-128138613D02*
X219088867Y-128218155D01*
X193583227Y-126229365D02*
X193569566Y-126240581D01*
X219118803Y-130149091D02*
X219126311Y-130168133D01*
X220103943Y-151667587D02*
X220169723Y-151659397D01*
X216375879Y-131290187D02*
X216319434Y-131283566D01*
X215085263Y-149309715D02*
X215010204Y-149258338D01*
X219732736Y-131184367D02*
X219684105Y-131207358D01*
X221992035Y-152197088D02*
X222029523Y-152223342D01*
X193796553Y-126160110D02*
X193734336Y-126170588D01*
X220029991Y-129568926D02*
X220065440Y-129606701D01*
X219126311Y-130168133D02*
X219132903Y-130187617D01*
X217561778Y-129950497D02*
X217563465Y-129969800D01*
X214096515Y-151643590D02*
X214119473Y-151699925D01*
X213511026Y-149047823D02*
X213481319Y-149085535D01*
X219020946Y-127903885D02*
X219045987Y-127981139D01*
X215732856Y-131025106D02*
X215693686Y-130990634D01*
X241634070Y-128625601D02*
X241619021Y-128644546D01*
X242404625Y-127259836D02*
X242430603Y-127281864D01*
X218999160Y-129988738D02*
X219014375Y-130001917D01*
X241452018Y-125291210D02*
X241473552Y-125307931D01*
X215595478Y-150647640D02*
X215639530Y-150667013D01*
X219853123Y-151355804D02*
X219837269Y-151414635D01*
X220763521Y-151946549D02*
X220803572Y-151978596D01*
X217153905Y-132407122D02*
X217139716Y-132386626D01*
X240438536Y-128259951D02*
X240344254Y-128219227D01*
X219818736Y-149955890D02*
X219787400Y-149992729D01*
X217192572Y-130044721D02*
X217206457Y-130059284D01*
X218317933Y-130376172D02*
X218315267Y-130355186D01*
X194241976Y-125737145D02*
X194267536Y-125759899D01*
X193649811Y-127082631D02*
X193562170Y-127108066D01*
X218328788Y-127706324D02*
X218345862Y-127662363D01*
X218445400Y-132386626D02*
X218431211Y-132407122D01*
X217219636Y-130074499D02*
X217232085Y-130090340D01*
X194733679Y-127822867D02*
X194629581Y-127858792D01*
X194177269Y-125427846D02*
X194165345Y-125442789D01*
X194123412Y-127832685D02*
X194248258Y-127836349D01*
X218283744Y-127790105D02*
X218308022Y-127748905D01*
X217006458Y-128500018D02*
X217034299Y-128466375D01*
X239051461Y-127218035D02*
X239085482Y-127115055D01*
X218706167Y-131207358D02*
X218657537Y-131184367D01*
X222610418Y-151186383D02*
X222617048Y-150944151D01*
X218354452Y-130494108D02*
X218346055Y-130475533D01*
X217059284Y-129954855D02*
X217077859Y-129963253D01*
X217394978Y-130877373D02*
X217361496Y-130916702D01*
X241402811Y-125708394D02*
X241382398Y-125731155D01*
X220272280Y-130578519D02*
X220254548Y-130626893D01*
X217792560Y-131743811D02*
X217865001Y-131746200D01*
X193867823Y-126152425D02*
X193796553Y-126160110D01*
X219634146Y-129309655D02*
X219684105Y-129330504D01*
X240904194Y-127804653D02*
X240827685Y-127793009D01*
X241205787Y-125868308D02*
X241155761Y-125896545D01*
X218324835Y-130931161D02*
X218291353Y-130891832D01*
X220569796Y-151467234D02*
X220618323Y-151425306D01*
X213798402Y-151904710D02*
X213835621Y-151774293D01*
X195011505Y-126249358D02*
X195035752Y-126271014D01*
X215945242Y-150151854D02*
X215936891Y-150121425D01*
X217596657Y-130078505D02*
X217604096Y-130090037D01*
X217127030Y-132365613D02*
X217115890Y-132344114D01*
X213067019Y-150516061D02*
X213062913Y-150626874D01*
X193857375Y-128483445D02*
X193846590Y-128539779D01*
X196000715Y-128016530D02*
X196097486Y-128006491D01*
X218315267Y-130269438D02*
X218317933Y-130248452D01*
X218497421Y-132159210D02*
X218500157Y-132182708D01*
X240777376Y-128422848D02*
X240617593Y-128343263D01*
X218999423Y-128678859D02*
X218949298Y-128805829D01*
X215923047Y-150606431D02*
X215935992Y-150565530D01*
X240248125Y-128180366D02*
X240151138Y-128144302D01*
X193293378Y-127231899D02*
X193270894Y-127249817D01*
X221021911Y-149098136D02*
X220979116Y-149115569D01*
X193844307Y-127041163D02*
X193793147Y-127049382D01*
X218569208Y-129925936D02*
X218588250Y-129918428D01*
X215414054Y-129944883D02*
X215431786Y-129896510D01*
X217245828Y-131912194D02*
X217268098Y-131895405D01*
X218188699Y-132590203D02*
X218159952Y-132602239D01*
X216678626Y-129982610D02*
X216696187Y-129972513D01*
X194726396Y-127079093D02*
X194624994Y-127063920D01*
X215150005Y-151504802D02*
X215195257Y-151551666D01*
X220674804Y-151658176D02*
X220673950Y-151715318D01*
X217232085Y-130592121D02*
X217219636Y-130607962D01*
X215768214Y-131830567D02*
X215479026Y-132712603D01*
X241752308Y-127777930D02*
X241598403Y-127800238D01*
X219151755Y-130312312D02*
X219151210Y-130333891D01*
X216509689Y-130504452D02*
X216502181Y-130485410D01*
X194593288Y-126207081D02*
X194537150Y-126192211D01*
X218914225Y-130690290D02*
X218895650Y-130698688D01*
X219837302Y-151561030D02*
X219855401Y-151597856D01*
X194956640Y-126205873D02*
X195011505Y-126249358D01*
X218326303Y-130417109D02*
X218321621Y-130396821D01*
X220171600Y-150682587D02*
X220214870Y-150652289D01*
X239463783Y-126353961D02*
X239505634Y-126296483D01*
X218595394Y-129332823D02*
X218572699Y-129345098D01*
X219310452Y-129233216D02*
X219366896Y-129239837D01*
X241173996Y-127034333D02*
X241264036Y-127026192D01*
X241602199Y-128660471D02*
X241583735Y-128673531D01*
X215620893Y-130916702D02*
X215587411Y-130877373D01*
X221370780Y-149007114D02*
X221313946Y-149015493D01*
X218155922Y-129863692D02*
X218178508Y-129817576D01*
X215749246Y-151306756D02*
X215731024Y-151245296D01*
X214075757Y-151585578D02*
X214096515Y-151643590D01*
X218710850Y-130731095D02*
X218689555Y-130729476D01*
X220979116Y-149115569D02*
X220935123Y-149134897D01*
X194133262Y-128114365D02*
X194084753Y-128152847D01*
X217139716Y-132386626D02*
X217127030Y-132365613D01*
X194292425Y-128011381D02*
X194237570Y-128043663D01*
X194809742Y-126281735D02*
X194757066Y-126261149D01*
X219253175Y-129229196D02*
X219310452Y-129233216D01*
X215474566Y-130705828D02*
X215451980Y-130659712D01*
X219137097Y-129229196D02*
X219195136Y-129227841D01*
X219659771Y-150224145D02*
X219650031Y-150265021D01*
X214202651Y-151854670D02*
X214235512Y-151900101D01*
X195180613Y-126467078D02*
X195097877Y-126419776D01*
X218381561Y-127094148D02*
X218412977Y-127107690D01*
X193237663Y-127481451D02*
X193257123Y-127505575D01*
X240647643Y-126404952D02*
X240725310Y-126366750D01*
X218497421Y-132253828D02*
X218492915Y-132276985D01*
X213231139Y-152176842D02*
X213256050Y-152197506D01*
X218293558Y-131879335D02*
X218339287Y-131912194D01*
X193926057Y-128328341D02*
X193897581Y-128377756D01*
X239730632Y-128041599D02*
X239687995Y-128038537D01*
X239958552Y-128084289D02*
X239864933Y-128062204D01*
X193855755Y-128716813D02*
X193870443Y-128764238D01*
X194140716Y-125493805D02*
X194136536Y-125512930D01*
X241654097Y-128318441D02*
X241668340Y-128357615D01*
X218514993Y-130670933D02*
X218497979Y-130660026D01*
X193539283Y-126430642D02*
X193550111Y-126451615D01*
X218310062Y-127210488D02*
X218300575Y-127168874D01*
X196550958Y-126966566D02*
X196498245Y-126849085D01*
X220065440Y-130931161D02*
X220029991Y-130968937D01*
X194241022Y-125377943D02*
X194222865Y-125388973D01*
X217302189Y-130236434D02*
X217306871Y-130256721D01*
X242105039Y-126318454D02*
X242106841Y-126333641D01*
X196513814Y-128025025D02*
X196542111Y-128036248D01*
X215906365Y-129364104D02*
X215953595Y-129339036D01*
X220234354Y-129863692D02*
X220254548Y-129910970D01*
X213058308Y-151540912D02*
X213066688Y-151674684D01*
X216606511Y-131290187D02*
X216549234Y-131294207D01*
X213312142Y-152230013D02*
X213343468Y-152241983D01*
X216961149Y-128574136D02*
X216982141Y-128536039D01*
X218610306Y-131159299D02*
X218564546Y-131132219D01*
X220098922Y-130891832D02*
X220065440Y-130931161D01*
D11*
X215450103Y-131512460D02*
X214964667Y-131507058D01*
D10*
X194051553Y-128870456D02*
X194095392Y-128863050D01*
X219530524Y-131263216D02*
X219477003Y-131277245D01*
X219079820Y-129233216D02*
X219137097Y-129229196D01*
X222166987Y-149109829D02*
X222142249Y-149103425D01*
X219143236Y-130396821D02*
X219138554Y-130417109D01*
X217162794Y-130017656D02*
X217178009Y-130030836D01*
X241678140Y-128480127D02*
X241673920Y-128516506D01*
X216874485Y-129922448D02*
X216896064Y-129921903D01*
X218486684Y-132113267D02*
X218492915Y-132136053D01*
X220021399Y-151012608D02*
X219938954Y-151157366D01*
X217184876Y-128361613D02*
X217233316Y-128344385D01*
X193221048Y-127306756D02*
X193210688Y-127326788D01*
X216433156Y-131294207D02*
X216375879Y-131290187D01*
X218117996Y-129959343D02*
X218135727Y-129910970D01*
X242088340Y-126260929D02*
X242093791Y-126274730D01*
X217059284Y-130727605D02*
X217040242Y-130735113D01*
X240111922Y-125695359D02*
X240222678Y-125613014D01*
X217169551Y-132427073D02*
X217153905Y-132407122D01*
X221313946Y-149015493D02*
X221250163Y-149028021D01*
X217426423Y-129672388D02*
X217455759Y-129714629D01*
X213256050Y-152197506D02*
X213283027Y-152215209D01*
X218090204Y-130059115D02*
X218102798Y-130008747D01*
X216433156Y-129214736D02*
X216491195Y-129213382D01*
X216661613Y-130688944D02*
X216645173Y-130677253D01*
X240774436Y-127796737D02*
X240855912Y-127821250D01*
X241282466Y-125234389D02*
X241325179Y-125241736D01*
X218315267Y-130355186D02*
X218313647Y-130333891D01*
X218564546Y-129405643D02*
X218610306Y-129378563D01*
X219056002Y-130579044D02*
X219042823Y-130594259D01*
X221006853Y-150807076D02*
X220947855Y-150909970D01*
X240884199Y-126296936D02*
X240963730Y-126267001D01*
X219675103Y-150529738D02*
X219694667Y-150577678D01*
D11*
X208625495Y-144676186D02*
X213737731Y-149011361D01*
D10*
X218588250Y-130706196D02*
X218569208Y-130698688D01*
X217113499Y-129982610D02*
X217130513Y-129993517D01*
X193951108Y-127029863D02*
X193897034Y-127034690D01*
X241426579Y-125276096D02*
X241452018Y-125291210D01*
X215525932Y-150853515D02*
X215433715Y-150722731D01*
X217286471Y-128331345D02*
X217398402Y-128306779D01*
X220678710Y-151769457D02*
X220689566Y-151820121D01*
X221926579Y-152123385D02*
X221957766Y-152163571D01*
X218188699Y-131822835D02*
X218243243Y-131849471D01*
X241189832Y-125227769D02*
X241236769Y-125229630D01*
X221229772Y-152009213D02*
X221282871Y-151983416D01*
X216263894Y-129234533D02*
X216319434Y-129225377D01*
X219530524Y-129274647D02*
X219582929Y-129291014D01*
X241647311Y-126675012D02*
X241442861Y-126753762D01*
X194136536Y-125512930D02*
X194134530Y-125533142D01*
X193518836Y-127688256D02*
X193573973Y-127714505D01*
X219050544Y-128533780D02*
X218999423Y-128678859D01*
X222284369Y-149259158D02*
X222261821Y-149215573D01*
X220500461Y-150382643D02*
X220569870Y-150302040D01*
X214872645Y-150084981D02*
X214913723Y-150125339D01*
X217302189Y-130446028D02*
X217296538Y-130465926D01*
X195376413Y-126593033D02*
X195320772Y-126555122D01*
X218949866Y-130670933D02*
X218932306Y-130681030D01*
X217106343Y-132322157D02*
X217098431Y-132299771D01*
X215369172Y-130148026D02*
X215376344Y-130095924D01*
X196257344Y-127998064D02*
X196321719Y-127998539D01*
X216939441Y-129329059D02*
X216930036Y-129290933D01*
X219080141Y-130546762D02*
X219068451Y-130563203D01*
X194388583Y-125850531D02*
X194457677Y-125895604D01*
X217935351Y-132659826D02*
X217900460Y-132663895D01*
X219643730Y-150392838D02*
X219649792Y-150437380D01*
X195118964Y-127156579D02*
X194976700Y-127124867D01*
X241325179Y-125241736D02*
X241363325Y-125251225D01*
X214409312Y-148954007D02*
X214377386Y-148949405D01*
X221101769Y-150653948D02*
X221006853Y-150807076D01*
X217361496Y-130916702D02*
X217326047Y-130954478D01*
X194590987Y-125314149D02*
X194534964Y-125313782D01*
X218837226Y-130718439D02*
X218816938Y-130723121D01*
X220321518Y-130215357D02*
X220322986Y-130268931D01*
X222255366Y-152228486D02*
X222296627Y-152204954D01*
X196314945Y-126507187D02*
X196246506Y-126404699D01*
X216832204Y-130755726D02*
X216811554Y-130752039D01*
X194702256Y-125323149D02*
X194647003Y-125317316D01*
X194176476Y-127025020D02*
X194062418Y-127024749D01*
X218481539Y-129976289D02*
X218497979Y-129964598D01*
X220211767Y-129817576D02*
X220234354Y-129863692D01*
X219477003Y-131277245D02*
X219422437Y-131288870D01*
X214351052Y-152012072D02*
X214395584Y-152039890D01*
X216548351Y-130106780D02*
X216560042Y-130090340D01*
X219582929Y-131246848D02*
X219530524Y-131263216D01*
X194237570Y-128043663D02*
X194184358Y-128077981D01*
X220065440Y-129606701D02*
X220098922Y-129646031D01*
X218627633Y-129906185D02*
X218647920Y-129901503D01*
X219143236Y-130227803D02*
X219146924Y-130248452D01*
X193409562Y-127165609D02*
X193346453Y-127197672D01*
X217130513Y-129993517D02*
X217146953Y-130005208D01*
D11*
X206866881Y-128276124D02*
X196642409Y-127744454D01*
D10*
X221461682Y-148999745D02*
X221420185Y-149002119D01*
X214636116Y-152095387D02*
X214676446Y-152091291D01*
X215179440Y-150363737D02*
X215268822Y-150435655D01*
X218458086Y-132365613D02*
X218445400Y-132386626D01*
X193743773Y-127059449D02*
X193649811Y-127082631D01*
X215362143Y-150505461D02*
X215456782Y-150569636D01*
X216893913Y-128829405D02*
X216899122Y-128785192D01*
X217146953Y-130005208D02*
X217162794Y-130017656D01*
X215555967Y-130836556D02*
X215526630Y-130794315D01*
X241516385Y-125366400D02*
X241523959Y-125388212D01*
X219056002Y-130045580D02*
X219068451Y-130061421D01*
X217316164Y-131864014D02*
X217341873Y-131849471D01*
X216943284Y-128614007D02*
X216961149Y-128574136D01*
X193594863Y-126498183D02*
X193627708Y-126523481D01*
X220547233Y-149369260D02*
X220144642Y-149667847D01*
X217394978Y-129631571D02*
X217426423Y-129672388D01*
X193557767Y-126252505D02*
X193547788Y-126265137D01*
X194155215Y-125458751D02*
X194146973Y-125475751D01*
X218668569Y-130726809D02*
X218647920Y-130723121D01*
X218932306Y-129943594D02*
X218949866Y-129953691D01*
X241249838Y-125843384D02*
X241227611Y-125856783D01*
X194249885Y-126149468D02*
X194139178Y-126146055D01*
X222481186Y-151937059D02*
X222502632Y-151876361D01*
X218317018Y-132517633D02*
X218293558Y-132533703D01*
X217482916Y-130750718D02*
X217455759Y-130794315D01*
X193210688Y-127326788D02*
X193203650Y-127347341D01*
X240572291Y-126444233D02*
X240647643Y-126404952D01*
X220852124Y-152004810D02*
X220909658Y-152024719D01*
X216319434Y-131283566D02*
X216263894Y-131274410D01*
X218331916Y-127087991D02*
X218354359Y-127087469D01*
X220163932Y-132727061D02*
X219860278Y-131845027D01*
X239171452Y-126890426D02*
X239224030Y-126772057D01*
X220664692Y-151380956D02*
X220708905Y-151334581D01*
X240763386Y-126191098D02*
X240580174Y-126342468D01*
X194365660Y-126159536D02*
X194307843Y-126153213D01*
X218807344Y-131246848D02*
X218756127Y-131228207D01*
X222538687Y-151746094D02*
X222566475Y-151607619D01*
X217686415Y-130145847D02*
X217703195Y-130148609D01*
X217140953Y-128382728D02*
X217184876Y-128361613D01*
X242102338Y-126396146D02*
X242097915Y-126411969D01*
X218859748Y-129274647D02*
X218913269Y-129260618D01*
X218983319Y-129976289D02*
X218999160Y-129988738D01*
X242033961Y-126180154D02*
X242042950Y-126189656D01*
X218750917Y-127422412D02*
X218795844Y-127482467D01*
X220257964Y-150618939D02*
X220342740Y-150545076D01*
X214846877Y-149153487D02*
X214762113Y-149103547D01*
X214545197Y-152089439D02*
X214592411Y-152094876D01*
X216002226Y-129316044D02*
X216052185Y-129295196D01*
X220691431Y-151536770D02*
X220680791Y-151598502D01*
X239774417Y-128046642D02*
X239730632Y-128041599D01*
X218327563Y-127261336D02*
X218310062Y-127210488D01*
X220322986Y-130268931D02*
X220321518Y-130322506D01*
X217530409Y-130659712D02*
X217507823Y-130705828D01*
X222327888Y-149362870D02*
X222284369Y-149259158D01*
X241236769Y-125229630D02*
X241282466Y-125234389D01*
X219673067Y-150184031D02*
X219659771Y-150224145D01*
X218360321Y-132483364D02*
X218339287Y-132500844D01*
X215858011Y-150682851D02*
X215871340Y-150674615D01*
X218412977Y-127107690D02*
X218448065Y-127127755D01*
X218895650Y-129925936D02*
X218914225Y-129934334D01*
X219777822Y-150708175D02*
X219810702Y-150735782D01*
X216930204Y-129295196D02*
X216980163Y-129316044D01*
X218373567Y-127472779D02*
X218369433Y-127421961D01*
X217835936Y-130124335D02*
X218125129Y-130008658D01*
X217274040Y-130159434D02*
X217282438Y-130178009D01*
X220144642Y-149667847D02*
X220052831Y-149739610D01*
X216572490Y-130074499D02*
X216585670Y-130059284D01*
X221720089Y-151021839D02*
X221731509Y-150913479D01*
X218839559Y-127545996D02*
X218881518Y-127612660D01*
D11*
X220526793Y-131466172D02*
X220178405Y-131497964D01*
D10*
X194819988Y-127094843D02*
X194726396Y-127079093D01*
X217192572Y-130637740D02*
X217178009Y-130651625D01*
X220036006Y-151669766D02*
X220103943Y-151667587D01*
X218003251Y-131764614D02*
X218068347Y-131780173D01*
X214377386Y-148949405D02*
X214347717Y-148948015D01*
X217684658Y-131749143D02*
X217720117Y-131746200D01*
X240963730Y-126267001D02*
X241003146Y-126253644D01*
X217306871Y-130425740D02*
X217302189Y-130446028D01*
X217243776Y-130106780D02*
X217254683Y-130123793D01*
X218949298Y-128805829D02*
X218900486Y-128915896D01*
X219888620Y-149883137D02*
X219818736Y-149955890D01*
X216485256Y-130256721D02*
X216489938Y-130236434D01*
X241358190Y-126166495D02*
X241436142Y-126153341D01*
X218895650Y-130698688D02*
X218876608Y-130706196D01*
X219045987Y-127981139D02*
X219066016Y-128059495D01*
X217606045Y-130095924D02*
X217613217Y-130148026D01*
X219660197Y-150482993D02*
X219675103Y-150529738D01*
X218090204Y-130478747D02*
X218080285Y-130427479D01*
X241279160Y-126181955D02*
X241358190Y-126166495D01*
X219422437Y-131288870D02*
X219366896Y-131298026D01*
X193203650Y-127347341D02*
X193200048Y-127368412D01*
X220159703Y-129729088D02*
X220186860Y-129772686D01*
X218796288Y-130726809D02*
X218775303Y-130729476D01*
X193948470Y-126147526D02*
X193867823Y-126152425D01*
X218756127Y-129309655D02*
X218807344Y-129291014D01*
X218230572Y-130808774D02*
X218203415Y-130765176D01*
X218373809Y-130094875D02*
X218384716Y-130077862D01*
X218308022Y-127748905D02*
X218328788Y-127706324D01*
X220680791Y-151598502D02*
X220674804Y-151658176D01*
X218857124Y-130712788D02*
X218837226Y-130718439D01*
X238958414Y-127573988D02*
X238981480Y-127469956D01*
X217368638Y-131835735D02*
X217396417Y-131822835D01*
X241980443Y-126149870D02*
X242011366Y-126163488D01*
X195352209Y-126568031D02*
X195405638Y-126611874D01*
X218859748Y-131263216D02*
X218807344Y-131246848D01*
X196182814Y-128000525D02*
X196257344Y-127998064D01*
X215238750Y-150478043D02*
X215057805Y-150274932D01*
X241201544Y-127824273D02*
X241091230Y-127821270D01*
X217121785Y-131117760D02*
X217076025Y-131144840D01*
X215010204Y-149258338D02*
X214930158Y-149205673D01*
X220796553Y-149205218D02*
X220748367Y-149233087D01*
X213066688Y-151674684D02*
X213079531Y-151793299D01*
X194355963Y-126874128D02*
X194638014Y-126983502D01*
X241227611Y-125856783D02*
X241205787Y-125868308D01*
X218554493Y-129352543D02*
X218541097Y-129356366D01*
X241145683Y-128607975D02*
X241095330Y-128584254D01*
X218492915Y-132276985D02*
X218486684Y-132299771D01*
X241382398Y-125731155D02*
X241361229Y-125752981D01*
X219992646Y-129532770D02*
X220029991Y-129568926D01*
X215398856Y-130514657D02*
X215386263Y-130464288D01*
X217115890Y-132068924D02*
X217127030Y-132047425D01*
X215386263Y-130044656D02*
X215398856Y-129994287D01*
X218436797Y-131039565D02*
X218397628Y-131005093D01*
X218435920Y-130608822D02*
X218422036Y-130594259D01*
X242477493Y-127531701D02*
X242449302Y-127557631D01*
X217178009Y-130651625D02*
X217162794Y-130664804D01*
X216980572Y-129930422D02*
X217000860Y-129935104D01*
X218359059Y-127617026D02*
X218368198Y-127570314D01*
X194405797Y-127038509D02*
X194291522Y-127029873D01*
X194325922Y-125343017D02*
X194281206Y-125358676D01*
X194179679Y-125668667D02*
X194197853Y-125691528D01*
X194756890Y-128503813D02*
X194900491Y-128413770D01*
X215964681Y-150284616D02*
X215962032Y-150249690D01*
X213406492Y-149197446D02*
X213385525Y-149233417D01*
X241513572Y-128141847D02*
X241549602Y-128174584D01*
X217306871Y-130256721D02*
X217310559Y-130277371D01*
X215526630Y-129714629D02*
X215555967Y-129672388D01*
X216826582Y-131248756D02*
X216773062Y-131262786D01*
X219912553Y-131072287D02*
X219869946Y-131103193D01*
X241673920Y-128516506D02*
X241667272Y-128549088D01*
X217720117Y-132666838D02*
X217649767Y-132659826D01*
X194629581Y-127858792D02*
X194518818Y-127902027D01*
X216878987Y-129276555D02*
X216930204Y-129295196D01*
X242084594Y-126443509D02*
X242075549Y-126459130D01*
X215828854Y-149911624D02*
X215792521Y-149867074D01*
X216771368Y-130741706D02*
X216751884Y-130735113D01*
X195035752Y-126271014D02*
X195057616Y-126292611D01*
X215398856Y-129994287D02*
X215414054Y-129944883D01*
X216980572Y-130752039D02*
X216959923Y-130755726D01*
X213343468Y-152241983D02*
X213413044Y-152257674D01*
X219014375Y-130001917D02*
X219028938Y-130015802D01*
X193203622Y-127412100D02*
X193211029Y-127434710D01*
X241219240Y-126846531D02*
X240994901Y-126943793D01*
X194868227Y-127777396D02*
X195021834Y-127744485D01*
X217516770Y-132632865D02*
X217454835Y-132613380D01*
X193270894Y-127249817D02*
X193251267Y-127268268D01*
X213454680Y-127666205D02*
X215912810Y-127781882D01*
X215678796Y-151117658D02*
X215609029Y-150986111D01*
X240779157Y-125309126D02*
X240886588Y-125273689D01*
X217550603Y-130612434D02*
X217530409Y-130659712D01*
X216910295Y-129189433D02*
X216900520Y-129120955D01*
X195891858Y-128031213D02*
X196000715Y-128016530D01*
X193280832Y-127530198D02*
X193308908Y-127555317D01*
X217632428Y-130120394D02*
X217644072Y-130128642D01*
X194291522Y-127029873D02*
X194176476Y-127025020D01*
X217264780Y-130141354D02*
X217274040Y-130159434D01*
X194370065Y-127834262D02*
X194486966Y-127827561D01*
X196737464Y-127472829D02*
X196679532Y-127296107D01*
X217792560Y-132669227D02*
X217720117Y-132666838D01*
X216938937Y-129924067D02*
X216959923Y-129926734D01*
X193569566Y-126240581D02*
X193557767Y-126252505D01*
X218331954Y-130437007D02*
X218326303Y-130417109D01*
X221679276Y-151270191D02*
X221703053Y-151142211D01*
X216560042Y-130592121D02*
X216548351Y-130575681D01*
X219080141Y-130077862D02*
X219091048Y-130094875D01*
X214755666Y-150938849D02*
X214821982Y-151051770D01*
X242107079Y-126364639D02*
X242105368Y-126380353D01*
X214747510Y-152070572D02*
X214778511Y-152054593D01*
X213571646Y-152245453D02*
X213607631Y-152224628D01*
X218900486Y-128915896D02*
X218853305Y-129010268D01*
X195320772Y-126555122D02*
X195255208Y-126512665D01*
X216502181Y-130485410D02*
X216495589Y-130465926D01*
X221743491Y-150688222D02*
X221734225Y-150938402D01*
X222477101Y-149913714D02*
X222443947Y-149764830D01*
X220211767Y-130720287D02*
X220186860Y-130765176D01*
X241244617Y-127972782D02*
X241341688Y-128023904D01*
X217617573Y-130308046D02*
X217613217Y-130360917D01*
X219973290Y-151664262D02*
X220036006Y-151669766D01*
X217249534Y-129483838D02*
X217288703Y-129518310D01*
X217282438Y-130504452D02*
X217274040Y-130523027D01*
X218668569Y-129897815D02*
X218689555Y-129895148D01*
X213952443Y-150718896D02*
X213952663Y-150771456D01*
X218450483Y-130622707D02*
X218435920Y-130608822D01*
X240617874Y-127113695D02*
X240459395Y-127187262D01*
X218913269Y-129260618D02*
X218967835Y-129248993D01*
X194827330Y-127794010D02*
X194733679Y-127822867D01*
X218338546Y-130456491D02*
X218331954Y-130437007D01*
X215760556Y-150699086D02*
X215796097Y-150699628D01*
X195098608Y-126334770D02*
X195138963Y-126374915D01*
X239864933Y-128062204D02*
X239774417Y-128046642D01*
X221647637Y-151401377D02*
X221679276Y-151270191D01*
X216495589Y-130216535D02*
X216502181Y-130197051D01*
X242107546Y-126349052D02*
X242107079Y-126364639D01*
X218384716Y-130077862D02*
X218396407Y-130061421D01*
X194647003Y-125317316D02*
X194590987Y-125314149D01*
X216518087Y-130523027D02*
X216509689Y-130504452D01*
X218225388Y-127868347D02*
X218256138Y-127829919D01*
X194882204Y-127073345D02*
X195118964Y-127156579D01*
X241563760Y-128683882D02*
X241542406Y-128691679D01*
X217548945Y-131771888D02*
X217581866Y-131764614D01*
X240334453Y-125537139D02*
X240446618Y-125468274D01*
X193630914Y-127737751D02*
X193749276Y-127775803D01*
X216771368Y-129940755D02*
X216791267Y-129935104D01*
X242091910Y-127705956D02*
X241916845Y-127746830D01*
X242037985Y-126504809D02*
X242021741Y-126519478D01*
X218550634Y-130690290D02*
X218532553Y-130681030D01*
X220411277Y-151574494D02*
X220466273Y-151542227D01*
X219845614Y-150755358D02*
X219882339Y-150767400D01*
X217671007Y-130141506D02*
X217686415Y-130145847D01*
X214895938Y-151169633D02*
X214976169Y-151287631D01*
X218256138Y-127829919D02*
X218283744Y-127790105D01*
X219920656Y-150772407D02*
X219960342Y-150770876D01*
X213283027Y-152215209D02*
X213312142Y-152230013D01*
X215732856Y-129483838D02*
X215773779Y-129451116D01*
X193874529Y-128429447D02*
X193857375Y-128483445D01*
X193420490Y-127633623D02*
X193467190Y-127660699D01*
X216899122Y-128785192D02*
X216906465Y-128741244D01*
X219126311Y-130456491D02*
X219118803Y-130475533D01*
X218068758Y-130215357D02*
X218073113Y-130162486D01*
X217313226Y-130384105D02*
X217310559Y-130405091D01*
X217065863Y-128435411D02*
X217101348Y-128407428D01*
X241667272Y-128549088D02*
X241658327Y-128578027D01*
X240580174Y-126342468D02*
X240263294Y-126613097D01*
X196441129Y-126731769D02*
X196379924Y-126617007D01*
X220098922Y-129646031D02*
X220130367Y-129686848D01*
X195047319Y-128326004D02*
X195195794Y-128244468D01*
X215693686Y-129518310D02*
X215732856Y-129483838D01*
X215860604Y-129391184D02*
X215906365Y-129364104D01*
X213413044Y-152257674D02*
X213492341Y-152262792D01*
X221607011Y-151531364D02*
X221647637Y-151401377D01*
X221377836Y-151913311D02*
X221419983Y-151870104D01*
X218203415Y-130765176D02*
X218178508Y-130720287D01*
X193211029Y-127434710D02*
X193222337Y-127457828D01*
D12*
X231240584Y-141323106D02*
X230168380Y-141713357D01*
X224391448Y-136411744D01*
X226771125Y-142949853D01*
X225698928Y-143340104D01*
X222610854Y-134855714D01*
X223683059Y-134465463D01*
X229482253Y-139791970D01*
X227091964Y-133224709D01*
X228152526Y-132838700D01*
X231240584Y-141323106D01*
G36*
X231240584Y-141323106D02*
G01*
X230168380Y-141713357D01*
X224391448Y-136411744D01*
X226771125Y-142949853D01*
X225698928Y-143340104D01*
X222610854Y-134855714D01*
X223683059Y-134465463D01*
X229482253Y-139791970D01*
X227091964Y-133224709D01*
X228152526Y-132838700D01*
X231240584Y-141323106D01*
G37*
D10*
X222576470Y-150460725D02*
X222533855Y-150206151D01*
X195491368Y-128115903D02*
X195563822Y-128093835D01*
X241647216Y-128603480D02*
X241634070Y-128625601D01*
X217622519Y-128240447D02*
X217731781Y-128198724D01*
X215363349Y-130254472D02*
X215364816Y-130200897D01*
X194038814Y-126145405D02*
X193948470Y-126147526D01*
X241388034Y-128051432D02*
X241432393Y-128080267D01*
X217289946Y-130485410D02*
X217282438Y-130504452D01*
X241091230Y-127821270D02*
X240992078Y-127814402D01*
X218657537Y-131184367D02*
X218610306Y-131159299D01*
X218657537Y-129353495D02*
X218706167Y-129330504D01*
X213943816Y-150960130D02*
X213952443Y-150718896D01*
X218705320Y-127366169D02*
X218750917Y-127422412D01*
X213672658Y-152161492D02*
X213701859Y-152120313D01*
X221122996Y-150642746D02*
X221140250Y-150596196D01*
X216002226Y-131192899D02*
X215953595Y-131169908D01*
X194405172Y-127952810D02*
X194292425Y-128011381D01*
X217101348Y-128407428D02*
X217140953Y-128382728D01*
X215513014Y-151729221D02*
X215556506Y-151725874D01*
X218331954Y-130187617D02*
X218338546Y-130168133D01*
X240216161Y-126655592D02*
X240310948Y-126595364D01*
X217020758Y-130741706D02*
X217000860Y-130747357D01*
X218159952Y-132602239D02*
X218130282Y-132613380D01*
X219151210Y-130333891D02*
X219149590Y-130355186D01*
X215499473Y-129758226D02*
X215526630Y-129714629D01*
X220300072Y-130478747D02*
X220287478Y-130529116D01*
X241610564Y-128243938D02*
X241634707Y-128280547D01*
X217249534Y-131025106D02*
X217208610Y-131057828D01*
X214555217Y-149000125D02*
X214516449Y-148984881D01*
X220724743Y-151409014D02*
X220706242Y-151473450D01*
X241960807Y-126561136D02*
X241936182Y-126574075D01*
X218338546Y-130168133D02*
X218346055Y-130149091D01*
X216890639Y-128873581D02*
X216893913Y-128829405D01*
X216585670Y-130623177D02*
X216572490Y-130607962D01*
X217550603Y-129896510D02*
X217568335Y-129944883D01*
X240724685Y-127103532D02*
X240852442Y-127079237D01*
X219810702Y-150735782D02*
X219845614Y-150755358D01*
X240344254Y-128219227D02*
X240248125Y-128180366D01*
X215499473Y-130750718D02*
X215474566Y-130705828D01*
X193222337Y-127457828D02*
X193237663Y-127481451D01*
X217583533Y-130514657D02*
X217568335Y-130564061D01*
X220708905Y-151334581D02*
X220750961Y-151286582D01*
X241198906Y-128631438D02*
X241145683Y-128607975D01*
X216527347Y-130541108D02*
X216518087Y-130523027D01*
X220117803Y-150863313D02*
X220021399Y-151012608D01*
X196174922Y-126311930D02*
X196138050Y-126269937D01*
X240310948Y-126595364D02*
X240431914Y-126522674D01*
X218465698Y-129988738D02*
X218481539Y-129976289D01*
X214144742Y-151754163D02*
X214172431Y-151805884D01*
X221742268Y-151337710D02*
X221753716Y-151485730D01*
X214935305Y-151834376D02*
X214945496Y-151800132D01*
X218876608Y-130706196D02*
X218857124Y-130712788D01*
X222612575Y-150708669D02*
X222576470Y-150460725D01*
X195418141Y-128142495D02*
X195491368Y-128115903D01*
X219118803Y-130475533D02*
X219110406Y-130494108D01*
X218155922Y-130674170D02*
X218135727Y-130626893D01*
X240804443Y-126330465D02*
X240884199Y-126296936D01*
X241365312Y-128687825D02*
X241337641Y-128680793D01*
X217584438Y-130054151D02*
X217590124Y-130066498D01*
X219882339Y-150767400D02*
X219920656Y-150772407D01*
X195481933Y-126670915D02*
X195454365Y-126649557D01*
X220843782Y-149179627D02*
X220796553Y-149205218D01*
X219195136Y-131310021D02*
X219137097Y-131308667D01*
X218966879Y-129964598D02*
X218983319Y-129976289D01*
X215431786Y-129896510D02*
X215451980Y-129849233D01*
X217326047Y-130954478D02*
X217288703Y-130990634D01*
X217315391Y-130341231D02*
X217314845Y-130362810D01*
X194062418Y-127024749D02*
X193951108Y-127029863D01*
X215958989Y-150436938D02*
X215962971Y-150396886D01*
X194165345Y-125442789D02*
X194155215Y-125458751D01*
X193550111Y-126451615D02*
X193568818Y-126474178D01*
X218339287Y-132500844D02*
X218317018Y-132517633D01*
X217485385Y-131789439D02*
X217516770Y-131780173D01*
X213105350Y-150117592D02*
X213092808Y-150210627D01*
X193870443Y-128764238D02*
X193889887Y-128802348D01*
X218003251Y-132648424D02*
X217969629Y-132654659D01*
X242250409Y-127658505D02*
X242176520Y-127682556D01*
X214806668Y-152035296D02*
X214832114Y-152013003D01*
X219068451Y-130563203D02*
X219056002Y-130579044D01*
X213092808Y-150210627D02*
X213082130Y-150308005D01*
X218313647Y-130333891D02*
X218313102Y-130312312D01*
X241455236Y-127814742D02*
X241322915Y-127822425D01*
X194537150Y-126192211D02*
X194480425Y-126179212D01*
X217040242Y-129947347D02*
X217059284Y-129954855D01*
X196100509Y-126231271D02*
X196021942Y-126156858D01*
X196379924Y-126617007D02*
X196314945Y-126507187D01*
X194302519Y-128779806D02*
X194361256Y-128748062D01*
X213952663Y-150771456D02*
X213958035Y-150911243D01*
X218795844Y-127482467D02*
X218839559Y-127545996D01*
X218373809Y-130529749D02*
X218363712Y-130512189D01*
X194518818Y-127902027D02*
X194405172Y-127952810D01*
X240617593Y-128343263D02*
X240438536Y-128259951D01*
X220803572Y-151978596D02*
X220852124Y-152004810D01*
X214821982Y-151051770D02*
X214895938Y-151169633D01*
X213297500Y-149411302D02*
X213275269Y-149464610D01*
X213120944Y-151987095D02*
X213150681Y-152063294D01*
X194011286Y-128871512D02*
X194051553Y-128870456D01*
X194307843Y-126153213D02*
X194249885Y-126149468D01*
X218765107Y-129156756D02*
X218724725Y-129211287D01*
X218967835Y-129248993D02*
X219023376Y-129239837D01*
X194139178Y-126146055D02*
X194038814Y-126145405D01*
X242075549Y-126459130D02*
X242064815Y-126474586D01*
X215871340Y-150674615D02*
X215883728Y-150664652D01*
X217612499Y-130100954D02*
X217621924Y-130111119D01*
X219146924Y-130248452D02*
X219149590Y-130269438D01*
X219912553Y-129465576D02*
X219953477Y-129498298D01*
X215965759Y-150320765D02*
X215964681Y-150284616D01*
X240886588Y-125273689D02*
X240991264Y-125247958D01*
X218614287Y-127266477D02*
X218659596Y-127314078D01*
D12*
X226134505Y-131065530D02*
X225439490Y-133126664D01*
X224833465Y-133347237D01*
X222999480Y-132206582D01*
X222978270Y-132148309D01*
X223840697Y-131834412D01*
X224900512Y-132570535D01*
X225233397Y-131327523D01*
X226113295Y-131007256D01*
X226134505Y-131065530D01*
G36*
X226134505Y-131065530D02*
G01*
X225439490Y-133126664D01*
X224833465Y-133347237D01*
X222999480Y-132206582D01*
X222978270Y-132148309D01*
X223840697Y-131834412D01*
X224900512Y-132570535D01*
X225233397Y-131327523D01*
X226113295Y-131007256D01*
X226134505Y-131065530D01*
G37*
D10*
X240709212Y-127767973D02*
X240613418Y-127738488D01*
X213446040Y-149135230D02*
X213426718Y-149164739D01*
X216155807Y-131248756D02*
X216103403Y-131232389D01*
X213533859Y-149021553D02*
X213511026Y-149047823D01*
X218652985Y-129288957D02*
X218622262Y-129314512D01*
X193749276Y-127775803D02*
X193872056Y-127803550D01*
D12*
X217332351Y-136979798D02*
X218305938Y-136979798D01*
X221220488Y-146008706D01*
X220054671Y-146008706D01*
X219341529Y-143652261D01*
X216290549Y-143652261D01*
X215589820Y-146008706D01*
X214424003Y-146008706D01*
X215498652Y-142672479D01*
X216588210Y-142672479D01*
X219050078Y-142672479D01*
X217816039Y-138567300D01*
X216588210Y-142672479D01*
X215498652Y-142672479D01*
X217332351Y-136979798D01*
G36*
X217332351Y-136979798D02*
G01*
X218305938Y-136979798D01*
X221220488Y-146008706D01*
X220054671Y-146008706D01*
X219341529Y-143652261D01*
X216290549Y-143652261D01*
X215589820Y-146008706D01*
X214424003Y-146008706D01*
X215498652Y-142672479D01*
X216588210Y-142672479D01*
X219050078Y-142672479D01*
X217816039Y-138567300D01*
X216588210Y-142672479D01*
X215498652Y-142672479D01*
X217332351Y-136979798D01*
G37*
D10*
X241092555Y-125232472D02*
X241141734Y-125228739D01*
X217731781Y-128198724D02*
X217837230Y-128151324D01*
X216889103Y-128960614D02*
X216890639Y-128873581D01*
X218477720Y-129465576D02*
X218520327Y-129434669D01*
X219904633Y-151226587D02*
X219875800Y-151292927D01*
X219101145Y-130512189D02*
X219091048Y-130529749D01*
X193525275Y-126322772D02*
X193523796Y-126338962D01*
D13*
X217915238Y-103018095D02*
X217867619Y-103113333D01*
X217867619Y-103113333D02*
X217867619Y-103256190D01*
X217867619Y-103256190D02*
X217915238Y-103399047D01*
X217915238Y-103399047D02*
X218010476Y-103494285D01*
X218010476Y-103494285D02*
X218105714Y-103541904D01*
X218105714Y-103541904D02*
X218296190Y-103589523D01*
X218296190Y-103589523D02*
X218439047Y-103589523D01*
X218439047Y-103589523D02*
X218629523Y-103541904D01*
X218629523Y-103541904D02*
X218724761Y-103494285D01*
X218724761Y-103494285D02*
X218820000Y-103399047D01*
X218820000Y-103399047D02*
X218867619Y-103256190D01*
X218867619Y-103256190D02*
X218867619Y-103160952D01*
X218867619Y-103160952D02*
X218820000Y-103018095D01*
X218820000Y-103018095D02*
X218772380Y-102970476D01*
X218772380Y-102970476D02*
X218439047Y-102970476D01*
X218439047Y-102970476D02*
X218439047Y-103160952D01*
X218867619Y-102541904D02*
X217867619Y-102541904D01*
X217867619Y-102541904D02*
X217867619Y-102160952D01*
X217867619Y-102160952D02*
X217915238Y-102065714D01*
X217915238Y-102065714D02*
X217962857Y-102018095D01*
X217962857Y-102018095D02*
X218058095Y-101970476D01*
X218058095Y-101970476D02*
X218200952Y-101970476D01*
X218200952Y-101970476D02*
X218296190Y-102018095D01*
X218296190Y-102018095D02*
X218343809Y-102065714D01*
X218343809Y-102065714D02*
X218391428Y-102160952D01*
X218391428Y-102160952D02*
X218391428Y-102541904D01*
X218867619Y-101018095D02*
X218867619Y-101589523D01*
X218867619Y-101303809D02*
X217867619Y-101303809D01*
X217867619Y-101303809D02*
X218010476Y-101399047D01*
X218010476Y-101399047D02*
X218105714Y-101494285D01*
X218105714Y-101494285D02*
X218153333Y-101589523D01*
X215395238Y-102988095D02*
X215347619Y-103083333D01*
X215347619Y-103083333D02*
X215347619Y-103226190D01*
X215347619Y-103226190D02*
X215395238Y-103369047D01*
X215395238Y-103369047D02*
X215490476Y-103464285D01*
X215490476Y-103464285D02*
X215585714Y-103511904D01*
X215585714Y-103511904D02*
X215776190Y-103559523D01*
X215776190Y-103559523D02*
X215919047Y-103559523D01*
X215919047Y-103559523D02*
X216109523Y-103511904D01*
X216109523Y-103511904D02*
X216204761Y-103464285D01*
X216204761Y-103464285D02*
X216300000Y-103369047D01*
X216300000Y-103369047D02*
X216347619Y-103226190D01*
X216347619Y-103226190D02*
X216347619Y-103130952D01*
X216347619Y-103130952D02*
X216300000Y-102988095D01*
X216300000Y-102988095D02*
X216252380Y-102940476D01*
X216252380Y-102940476D02*
X215919047Y-102940476D01*
X215919047Y-102940476D02*
X215919047Y-103130952D01*
X216347619Y-102511904D02*
X215347619Y-102511904D01*
X215347619Y-102511904D02*
X215347619Y-102130952D01*
X215347619Y-102130952D02*
X215395238Y-102035714D01*
X215395238Y-102035714D02*
X215442857Y-101988095D01*
X215442857Y-101988095D02*
X215538095Y-101940476D01*
X215538095Y-101940476D02*
X215680952Y-101940476D01*
X215680952Y-101940476D02*
X215776190Y-101988095D01*
X215776190Y-101988095D02*
X215823809Y-102035714D01*
X215823809Y-102035714D02*
X215871428Y-102130952D01*
X215871428Y-102130952D02*
X215871428Y-102511904D01*
X215442857Y-101559523D02*
X215395238Y-101511904D01*
X215395238Y-101511904D02*
X215347619Y-101416666D01*
X215347619Y-101416666D02*
X215347619Y-101178571D01*
X215347619Y-101178571D02*
X215395238Y-101083333D01*
X215395238Y-101083333D02*
X215442857Y-101035714D01*
X215442857Y-101035714D02*
X215538095Y-100988095D01*
X215538095Y-100988095D02*
X215633333Y-100988095D01*
X215633333Y-100988095D02*
X215776190Y-101035714D01*
X215776190Y-101035714D02*
X216347619Y-101607142D01*
X216347619Y-101607142D02*
X216347619Y-100988095D01*
X212717619Y-103577142D02*
X212717619Y-102958095D01*
X212717619Y-102958095D02*
X213098571Y-103291428D01*
X213098571Y-103291428D02*
X213098571Y-103148571D01*
X213098571Y-103148571D02*
X213146190Y-103053333D01*
X213146190Y-103053333D02*
X213193809Y-103005714D01*
X213193809Y-103005714D02*
X213289047Y-102958095D01*
X213289047Y-102958095D02*
X213527142Y-102958095D01*
X213527142Y-102958095D02*
X213622380Y-103005714D01*
X213622380Y-103005714D02*
X213670000Y-103053333D01*
X213670000Y-103053333D02*
X213717619Y-103148571D01*
X213717619Y-103148571D02*
X213717619Y-103434285D01*
X213717619Y-103434285D02*
X213670000Y-103529523D01*
X213670000Y-103529523D02*
X213622380Y-103577142D01*
X213622380Y-102529523D02*
X213670000Y-102481904D01*
X213670000Y-102481904D02*
X213717619Y-102529523D01*
X213717619Y-102529523D02*
X213670000Y-102577142D01*
X213670000Y-102577142D02*
X213622380Y-102529523D01*
X213622380Y-102529523D02*
X213717619Y-102529523D01*
X212717619Y-102148571D02*
X212717619Y-101529524D01*
X212717619Y-101529524D02*
X213098571Y-101862857D01*
X213098571Y-101862857D02*
X213098571Y-101720000D01*
X213098571Y-101720000D02*
X213146190Y-101624762D01*
X213146190Y-101624762D02*
X213193809Y-101577143D01*
X213193809Y-101577143D02*
X213289047Y-101529524D01*
X213289047Y-101529524D02*
X213527142Y-101529524D01*
X213527142Y-101529524D02*
X213622380Y-101577143D01*
X213622380Y-101577143D02*
X213670000Y-101624762D01*
X213670000Y-101624762D02*
X213717619Y-101720000D01*
X213717619Y-101720000D02*
X213717619Y-102005714D01*
X213717619Y-102005714D02*
X213670000Y-102100952D01*
X213670000Y-102100952D02*
X213622380Y-102148571D01*
X212717619Y-101243809D02*
X213717619Y-100910476D01*
X213717619Y-100910476D02*
X212717619Y-100577143D01*
X220355238Y-103058095D02*
X220307619Y-103153333D01*
X220307619Y-103153333D02*
X220307619Y-103296190D01*
X220307619Y-103296190D02*
X220355238Y-103439047D01*
X220355238Y-103439047D02*
X220450476Y-103534285D01*
X220450476Y-103534285D02*
X220545714Y-103581904D01*
X220545714Y-103581904D02*
X220736190Y-103629523D01*
X220736190Y-103629523D02*
X220879047Y-103629523D01*
X220879047Y-103629523D02*
X221069523Y-103581904D01*
X221069523Y-103581904D02*
X221164761Y-103534285D01*
X221164761Y-103534285D02*
X221260000Y-103439047D01*
X221260000Y-103439047D02*
X221307619Y-103296190D01*
X221307619Y-103296190D02*
X221307619Y-103200952D01*
X221307619Y-103200952D02*
X221260000Y-103058095D01*
X221260000Y-103058095D02*
X221212380Y-103010476D01*
X221212380Y-103010476D02*
X220879047Y-103010476D01*
X220879047Y-103010476D02*
X220879047Y-103200952D01*
X221307619Y-102581904D02*
X220307619Y-102581904D01*
X220307619Y-102581904D02*
X220307619Y-102200952D01*
X220307619Y-102200952D02*
X220355238Y-102105714D01*
X220355238Y-102105714D02*
X220402857Y-102058095D01*
X220402857Y-102058095D02*
X220498095Y-102010476D01*
X220498095Y-102010476D02*
X220640952Y-102010476D01*
X220640952Y-102010476D02*
X220736190Y-102058095D01*
X220736190Y-102058095D02*
X220783809Y-102105714D01*
X220783809Y-102105714D02*
X220831428Y-102200952D01*
X220831428Y-102200952D02*
X220831428Y-102581904D01*
X220307619Y-101391428D02*
X220307619Y-101296190D01*
X220307619Y-101296190D02*
X220355238Y-101200952D01*
X220355238Y-101200952D02*
X220402857Y-101153333D01*
X220402857Y-101153333D02*
X220498095Y-101105714D01*
X220498095Y-101105714D02*
X220688571Y-101058095D01*
X220688571Y-101058095D02*
X220926666Y-101058095D01*
X220926666Y-101058095D02*
X221117142Y-101105714D01*
X221117142Y-101105714D02*
X221212380Y-101153333D01*
X221212380Y-101153333D02*
X221260000Y-101200952D01*
X221260000Y-101200952D02*
X221307619Y-101296190D01*
X221307619Y-101296190D02*
X221307619Y-101391428D01*
X221307619Y-101391428D02*
X221260000Y-101486666D01*
X221260000Y-101486666D02*
X221212380Y-101534285D01*
X221212380Y-101534285D02*
X221117142Y-101581904D01*
X221117142Y-101581904D02*
X220926666Y-101629523D01*
X220926666Y-101629523D02*
X220688571Y-101629523D01*
X220688571Y-101629523D02*
X220498095Y-101581904D01*
X220498095Y-101581904D02*
X220402857Y-101534285D01*
X220402857Y-101534285D02*
X220355238Y-101486666D01*
X220355238Y-101486666D02*
X220307619Y-101391428D01*
X222925238Y-102958095D02*
X222877619Y-103053333D01*
X222877619Y-103053333D02*
X222877619Y-103196190D01*
X222877619Y-103196190D02*
X222925238Y-103339047D01*
X222925238Y-103339047D02*
X223020476Y-103434285D01*
X223020476Y-103434285D02*
X223115714Y-103481904D01*
X223115714Y-103481904D02*
X223306190Y-103529523D01*
X223306190Y-103529523D02*
X223449047Y-103529523D01*
X223449047Y-103529523D02*
X223639523Y-103481904D01*
X223639523Y-103481904D02*
X223734761Y-103434285D01*
X223734761Y-103434285D02*
X223830000Y-103339047D01*
X223830000Y-103339047D02*
X223877619Y-103196190D01*
X223877619Y-103196190D02*
X223877619Y-103100952D01*
X223877619Y-103100952D02*
X223830000Y-102958095D01*
X223830000Y-102958095D02*
X223782380Y-102910476D01*
X223782380Y-102910476D02*
X223449047Y-102910476D01*
X223449047Y-102910476D02*
X223449047Y-103100952D01*
X223877619Y-102481904D02*
X222877619Y-102481904D01*
X222877619Y-102481904D02*
X223877619Y-101910476D01*
X223877619Y-101910476D02*
X222877619Y-101910476D01*
X223877619Y-101434285D02*
X222877619Y-101434285D01*
X222877619Y-101434285D02*
X222877619Y-101196190D01*
X222877619Y-101196190D02*
X222925238Y-101053333D01*
X222925238Y-101053333D02*
X223020476Y-100958095D01*
X223020476Y-100958095D02*
X223115714Y-100910476D01*
X223115714Y-100910476D02*
X223306190Y-100862857D01*
X223306190Y-100862857D02*
X223449047Y-100862857D01*
X223449047Y-100862857D02*
X223639523Y-100910476D01*
X223639523Y-100910476D02*
X223734761Y-100958095D01*
X223734761Y-100958095D02*
X223830000Y-101053333D01*
X223830000Y-101053333D02*
X223877619Y-101196190D01*
X223877619Y-101196190D02*
X223877619Y-101434285D01*
%TO.C,J1*%
X210002619Y-98103333D02*
X210716904Y-98103333D01*
X210716904Y-98103333D02*
X210859761Y-98150952D01*
X210859761Y-98150952D02*
X210955000Y-98246190D01*
X210955000Y-98246190D02*
X211002619Y-98389047D01*
X211002619Y-98389047D02*
X211002619Y-98484285D01*
X211002619Y-97103333D02*
X211002619Y-97674761D01*
X211002619Y-97389047D02*
X210002619Y-97389047D01*
X210002619Y-97389047D02*
X210145476Y-97484285D01*
X210145476Y-97484285D02*
X210240714Y-97579523D01*
X210240714Y-97579523D02*
X210288333Y-97674761D01*
D14*
X214580000Y-99100000D02*
X224800000Y-99100000D01*
X214580000Y-99100000D02*
X214580000Y-96440000D01*
X224800000Y-99100000D02*
X224800000Y-96440000D01*
X211980000Y-97770000D02*
X211980000Y-96440000D01*
X211980000Y-96440000D02*
X213310000Y-96440000D01*
X214580000Y-96440000D02*
X224800000Y-96440000D01*
%TD*%
M02*
