%TF.GenerationSoftware,KiCad,Pcbnew,7.0.1*%
%TF.CreationDate,2023-03-26T19:48:43+02:00*%
%TF.ProjectId,SofleUnsplit,536f666c-6555-46e7-9370-6c69742e6b69,rev?*%
%TF.SameCoordinates,Original*%
%TF.FileFunction,Soldermask,Bot*%
%TF.FilePolarity,Negative*%
%FSLAX46Y46*%
G04 Gerber Fmt 4.6, Leading zero omitted, Abs format (unit mm)*
G04 Created by KiCad (PCBNEW 7.0.1) date 2023-03-26 19:48:43*
%MOMM*%
%LPD*%
G01*
G04 APERTURE LIST*
G04 Aperture macros list*
%AMRoundRect*
0 Rectangle with rounded corners*
0 $1 Rounding radius*
0 $2 $3 $4 $5 $6 $7 $8 $9 X,Y pos of 4 corners*
0 Add a 4 corners polygon primitive as box body*
4,1,4,$2,$3,$4,$5,$6,$7,$8,$9,$2,$3,0*
0 Add four circle primitives for the rounded corners*
1,1,$1+$1,$2,$3*
1,1,$1+$1,$4,$5*
1,1,$1+$1,$6,$7*
1,1,$1+$1,$8,$9*
0 Add four rect primitives between the rounded corners*
20,1,$1+$1,$2,$3,$4,$5,0*
20,1,$1+$1,$4,$5,$6,$7,0*
20,1,$1+$1,$6,$7,$8,$9,0*
20,1,$1+$1,$8,$9,$2,$3,0*%
%AMRotRect*
0 Rectangle, with rotation*
0 The origin of the aperture is its center*
0 $1 length*
0 $2 width*
0 $3 Rotation angle, in degrees counterclockwise*
0 Add horizontal line*
21,1,$1,$2,0,0,$3*%
G04 Aperture macros list end*
%ADD10C,0.010000*%
%ADD11C,3.200000*%
%ADD12C,2.700000*%
%ADD13C,1.800000*%
%ADD14C,3.000000*%
%ADD15C,3.400000*%
%ADD16C,0.990600*%
%ADD17RotRect,2.600000X2.600000X345.000000*%
%ADD18RotRect,2.600000X2.600000X15.000000*%
%ADD19RotRect,2.600000X2.600000X45.000000*%
%ADD20R,1.700000X1.700000*%
%ADD21O,1.700000X1.700000*%
%ADD22RotRect,2.600000X2.600000X315.000000*%
%ADD23RotRect,2.600000X2.600000X323.000000*%
%ADD24RotRect,2.600000X2.600000X37.000000*%
%ADD25RoundRect,0.250000X-0.212132X0.367423X-0.367423X-0.212132X0.212132X-0.367423X0.367423X0.212132X0*%
%ADD26RoundRect,0.250000X-0.367423X0.212132X-0.212132X-0.367423X0.367423X-0.212132X0.212132X0.367423X0*%
G04 APERTURE END LIST*
%TO.C,G1*%
D10*
X224067152Y-146431567D02*
X224102229Y-146527293D01*
X224105736Y-146577359D01*
X224084387Y-146631508D01*
X224006979Y-146643710D01*
X223955271Y-146640040D01*
X223908967Y-146605728D01*
X223898333Y-146513765D01*
X223901122Y-146452331D01*
X223926483Y-146400691D01*
X223993583Y-146397349D01*
X224067152Y-146431567D01*
G36*
X224067152Y-146431567D02*
G01*
X224102229Y-146527293D01*
X224105736Y-146577359D01*
X224084387Y-146631508D01*
X224006979Y-146643710D01*
X223955271Y-146640040D01*
X223908967Y-146605728D01*
X223898333Y-146513765D01*
X223901122Y-146452331D01*
X223926483Y-146400691D01*
X223993583Y-146397349D01*
X224067152Y-146431567D01*
G37*
X219181468Y-147603872D02*
X219182538Y-147701524D01*
X219157842Y-147900950D01*
X219106549Y-148067381D01*
X219029040Y-148176999D01*
X218998356Y-148197745D01*
X218855981Y-148244580D01*
X218682432Y-148254236D01*
X218512141Y-148227370D01*
X218379543Y-148164637D01*
X218268000Y-148076898D01*
X218268000Y-148164637D01*
X218253593Y-148222968D01*
X218183333Y-148252376D01*
X218158534Y-148250095D01*
X218137002Y-148235889D01*
X218121365Y-148199353D01*
X218110683Y-148130098D01*
X218104014Y-148017735D01*
X218100416Y-147851873D01*
X218098947Y-147622124D01*
X218098900Y-147571330D01*
X218311625Y-147571330D01*
X218314707Y-147737346D01*
X218332395Y-147881057D01*
X218364735Y-147971926D01*
X218447521Y-148027500D01*
X218578888Y-148061306D01*
X218723877Y-148067970D01*
X218847747Y-148042421D01*
X218881459Y-148019223D01*
X218940458Y-147919398D01*
X218976666Y-147772861D01*
X218989244Y-147603872D01*
X218977349Y-147436689D01*
X218940142Y-147295572D01*
X218876782Y-147204780D01*
X218849362Y-147188709D01*
X218729501Y-147161966D01*
X218585312Y-147167773D01*
X218452263Y-147202205D01*
X218365825Y-147261337D01*
X218349090Y-147294541D01*
X218323102Y-147413549D01*
X218311625Y-147571330D01*
X218098900Y-147571330D01*
X218098667Y-147318099D01*
X218098667Y-146383821D01*
X218193917Y-146397349D01*
X218225822Y-146403878D01*
X218261129Y-146427743D01*
X218282046Y-146483557D01*
X218293766Y-146588891D01*
X218301481Y-146761314D01*
X218313796Y-147111752D01*
X218406151Y-147047064D01*
X218432314Y-147032183D01*
X218558636Y-146995983D01*
X218723844Y-146982376D01*
X218856305Y-146988630D01*
X218963595Y-147017835D01*
X219046680Y-147079874D01*
X219093208Y-147143440D01*
X219150603Y-147298951D01*
X219180252Y-147492918D01*
X219181468Y-147603872D01*
G36*
X219181468Y-147603872D02*
G01*
X219182538Y-147701524D01*
X219157842Y-147900950D01*
X219106549Y-148067381D01*
X219029040Y-148176999D01*
X218998356Y-148197745D01*
X218855981Y-148244580D01*
X218682432Y-148254236D01*
X218512141Y-148227370D01*
X218379543Y-148164637D01*
X218268000Y-148076898D01*
X218268000Y-148164637D01*
X218253593Y-148222968D01*
X218183333Y-148252376D01*
X218158534Y-148250095D01*
X218137002Y-148235889D01*
X218121365Y-148199353D01*
X218110683Y-148130098D01*
X218104014Y-148017735D01*
X218100416Y-147851873D01*
X218098947Y-147622124D01*
X218098900Y-147571330D01*
X218311625Y-147571330D01*
X218314707Y-147737346D01*
X218332395Y-147881057D01*
X218364735Y-147971926D01*
X218447521Y-148027500D01*
X218578888Y-148061306D01*
X218723877Y-148067970D01*
X218847747Y-148042421D01*
X218881459Y-148019223D01*
X218940458Y-147919398D01*
X218976666Y-147772861D01*
X218989244Y-147603872D01*
X218977349Y-147436689D01*
X218940142Y-147295572D01*
X218876782Y-147204780D01*
X218849362Y-147188709D01*
X218729501Y-147161966D01*
X218585312Y-147167773D01*
X218452263Y-147202205D01*
X218365825Y-147261337D01*
X218349090Y-147294541D01*
X218323102Y-147413549D01*
X218311625Y-147571330D01*
X218098900Y-147571330D01*
X218098667Y-147318099D01*
X218098667Y-146383821D01*
X218193917Y-146397349D01*
X218225822Y-146403878D01*
X218261129Y-146427743D01*
X218282046Y-146483557D01*
X218293766Y-146588891D01*
X218301481Y-146761314D01*
X218313796Y-147111752D01*
X218406151Y-147047064D01*
X218432314Y-147032183D01*
X218558636Y-146995983D01*
X218723844Y-146982376D01*
X218856305Y-146988630D01*
X218963595Y-147017835D01*
X219046680Y-147079874D01*
X219093208Y-147143440D01*
X219150603Y-147298951D01*
X219180252Y-147492918D01*
X219181468Y-147603872D01*
G37*
X220550055Y-147532710D02*
X220551025Y-147590316D01*
X220550808Y-147615358D01*
X220545236Y-147829879D01*
X220530293Y-147978174D01*
X220501306Y-148076954D01*
X220453600Y-148142928D01*
X220382504Y-148192804D01*
X220320149Y-148216537D01*
X220158451Y-148238923D01*
X219919000Y-148241133D01*
X219822266Y-148238084D01*
X219682605Y-148229774D01*
X219603115Y-148215130D01*
X219567426Y-148190019D01*
X219559167Y-148150311D01*
X219559601Y-148136973D01*
X219573214Y-148101131D01*
X219618952Y-148082064D01*
X219714281Y-148075816D01*
X219876667Y-148078433D01*
X219982539Y-148079848D01*
X220151191Y-148067916D01*
X220260104Y-148029353D01*
X220325242Y-147956360D01*
X220362572Y-147841141D01*
X220390729Y-147705072D01*
X219516833Y-147680876D01*
X219521955Y-147532710D01*
X219707333Y-147532710D01*
X220391394Y-147532710D01*
X220362905Y-147395126D01*
X220355320Y-147362748D01*
X220295385Y-147238555D01*
X220188432Y-147171683D01*
X220019766Y-147151710D01*
X219991885Y-147152207D01*
X219832235Y-147184780D01*
X219738167Y-147269645D01*
X219707333Y-147408733D01*
X219707333Y-147532710D01*
X219521955Y-147532710D01*
X219525613Y-147426876D01*
X219529227Y-147349786D01*
X219545702Y-147225957D01*
X219582283Y-147143694D01*
X219649341Y-147073368D01*
X219657689Y-147066213D01*
X219725990Y-147017517D01*
X219801966Y-146991854D01*
X219911148Y-146984256D01*
X220079072Y-146989756D01*
X220234019Y-147001491D01*
X220378214Y-147032079D01*
X220471362Y-147092703D01*
X220524113Y-147196916D01*
X220547117Y-147358270D01*
X220550055Y-147532710D01*
G36*
X220550055Y-147532710D02*
G01*
X220551025Y-147590316D01*
X220550808Y-147615358D01*
X220545236Y-147829879D01*
X220530293Y-147978174D01*
X220501306Y-148076954D01*
X220453600Y-148142928D01*
X220382504Y-148192804D01*
X220320149Y-148216537D01*
X220158451Y-148238923D01*
X219919000Y-148241133D01*
X219822266Y-148238084D01*
X219682605Y-148229774D01*
X219603115Y-148215130D01*
X219567426Y-148190019D01*
X219559167Y-148150311D01*
X219559601Y-148136973D01*
X219573214Y-148101131D01*
X219618952Y-148082064D01*
X219714281Y-148075816D01*
X219876667Y-148078433D01*
X219982539Y-148079848D01*
X220151191Y-148067916D01*
X220260104Y-148029353D01*
X220325242Y-147956360D01*
X220362572Y-147841141D01*
X220390729Y-147705072D01*
X219516833Y-147680876D01*
X219521955Y-147532710D01*
X219707333Y-147532710D01*
X220391394Y-147532710D01*
X220362905Y-147395126D01*
X220355320Y-147362748D01*
X220295385Y-147238555D01*
X220188432Y-147171683D01*
X220019766Y-147151710D01*
X219991885Y-147152207D01*
X219832235Y-147184780D01*
X219738167Y-147269645D01*
X219707333Y-147408733D01*
X219707333Y-147532710D01*
X219521955Y-147532710D01*
X219525613Y-147426876D01*
X219529227Y-147349786D01*
X219545702Y-147225957D01*
X219582283Y-147143694D01*
X219649341Y-147073368D01*
X219657689Y-147066213D01*
X219725990Y-147017517D01*
X219801966Y-146991854D01*
X219911148Y-146984256D01*
X220079072Y-146989756D01*
X220234019Y-147001491D01*
X220378214Y-147032079D01*
X220471362Y-147092703D01*
X220524113Y-147196916D01*
X220547117Y-147358270D01*
X220550055Y-147532710D01*
G37*
X221575428Y-147005389D02*
X221712458Y-147070115D01*
X221824000Y-147157855D01*
X221824000Y-147070115D01*
X221838407Y-147011785D01*
X221908667Y-146982376D01*
X221923050Y-146982849D01*
X221951513Y-146992233D01*
X221971040Y-147023396D01*
X221983309Y-147088914D01*
X221989996Y-147201366D01*
X221992779Y-147373327D01*
X221993333Y-147617376D01*
X221993333Y-148252376D01*
X221781667Y-148252376D01*
X221781667Y-147770726D01*
X221780920Y-147626930D01*
X221775684Y-147453879D01*
X221763728Y-147340475D01*
X221743053Y-147271310D01*
X221711660Y-147230976D01*
X221638009Y-147196349D01*
X221512496Y-147175407D01*
X221374643Y-147175315D01*
X221255997Y-147195746D01*
X221188104Y-147236376D01*
X221174309Y-147287119D01*
X221160507Y-147408984D01*
X221151005Y-147578663D01*
X221147315Y-147776126D01*
X221146667Y-148252376D01*
X220926498Y-148252376D01*
X220941332Y-147698278D01*
X220947366Y-147496476D01*
X220955508Y-147330090D01*
X220967632Y-147219186D01*
X220986559Y-147148155D01*
X221015110Y-147101389D01*
X221056107Y-147063278D01*
X221080125Y-147046218D01*
X221224561Y-146993079D01*
X221401229Y-146979589D01*
X221575428Y-147005389D01*
G36*
X221575428Y-147005389D02*
G01*
X221712458Y-147070115D01*
X221824000Y-147157855D01*
X221824000Y-147070115D01*
X221838407Y-147011785D01*
X221908667Y-146982376D01*
X221923050Y-146982849D01*
X221951513Y-146992233D01*
X221971040Y-147023396D01*
X221983309Y-147088914D01*
X221989996Y-147201366D01*
X221992779Y-147373327D01*
X221993333Y-147617376D01*
X221993333Y-148252376D01*
X221781667Y-148252376D01*
X221781667Y-147770726D01*
X221780920Y-147626930D01*
X221775684Y-147453879D01*
X221763728Y-147340475D01*
X221743053Y-147271310D01*
X221711660Y-147230976D01*
X221638009Y-147196349D01*
X221512496Y-147175407D01*
X221374643Y-147175315D01*
X221255997Y-147195746D01*
X221188104Y-147236376D01*
X221174309Y-147287119D01*
X221160507Y-147408984D01*
X221151005Y-147578663D01*
X221147315Y-147776126D01*
X221146667Y-148252376D01*
X220926498Y-148252376D01*
X220941332Y-147698278D01*
X220947366Y-147496476D01*
X220955508Y-147330090D01*
X220967632Y-147219186D01*
X220986559Y-147148155D01*
X221015110Y-147101389D01*
X221056107Y-147063278D01*
X221080125Y-147046218D01*
X221224561Y-146993079D01*
X221401229Y-146979589D01*
X221575428Y-147005389D01*
G37*
X223997384Y-146982849D02*
X224025847Y-146992233D01*
X224045374Y-147023396D01*
X224057642Y-147088914D01*
X224064330Y-147201366D01*
X224067112Y-147373327D01*
X224067667Y-147617376D01*
X224067604Y-147725253D01*
X224066353Y-147938724D01*
X224062198Y-148085178D01*
X224053462Y-148177193D01*
X224038468Y-148227346D01*
X224015540Y-148248215D01*
X223983000Y-148252376D01*
X223968617Y-148251903D01*
X223940154Y-148242519D01*
X223920627Y-148211356D01*
X223908358Y-148145838D01*
X223901671Y-148033387D01*
X223898888Y-147861425D01*
X223898333Y-147617376D01*
X223898397Y-147509499D01*
X223899648Y-147296028D01*
X223903803Y-147149574D01*
X223912539Y-147057559D01*
X223927532Y-147007406D01*
X223950460Y-146986537D01*
X223983000Y-146982376D01*
X223997384Y-146982849D01*
G36*
X223997384Y-146982849D02*
G01*
X224025847Y-146992233D01*
X224045374Y-147023396D01*
X224057642Y-147088914D01*
X224064330Y-147201366D01*
X224067112Y-147373327D01*
X224067667Y-147617376D01*
X224067604Y-147725253D01*
X224066353Y-147938724D01*
X224062198Y-148085178D01*
X224053462Y-148177193D01*
X224038468Y-148227346D01*
X224015540Y-148248215D01*
X223983000Y-148252376D01*
X223968617Y-148251903D01*
X223940154Y-148242519D01*
X223920627Y-148211356D01*
X223908358Y-148145838D01*
X223901671Y-148033387D01*
X223898888Y-147861425D01*
X223898333Y-147617376D01*
X223898397Y-147509499D01*
X223899648Y-147296028D01*
X223903803Y-147149574D01*
X223912539Y-147057559D01*
X223927532Y-147007406D01*
X223950460Y-146986537D01*
X223983000Y-146982376D01*
X223997384Y-146982849D01*
G37*
X225073489Y-146991335D02*
X225225714Y-147016562D01*
X225319485Y-147073873D01*
X225366885Y-147170562D01*
X225380000Y-147313928D01*
X225379686Y-147348126D01*
X225362018Y-147504946D01*
X225306249Y-147603390D01*
X225197083Y-147659347D01*
X225019226Y-147688705D01*
X225011828Y-147689438D01*
X224819893Y-147716027D01*
X224699003Y-147753772D01*
X224636069Y-147809203D01*
X224618000Y-147888849D01*
X224618297Y-147904056D01*
X224642012Y-147995697D01*
X224712147Y-148051366D01*
X224840649Y-148076369D01*
X225039462Y-148076010D01*
X225110536Y-148072807D01*
X225237431Y-148070551D01*
X225305406Y-148080535D01*
X225332753Y-148107736D01*
X225337762Y-148157126D01*
X225334757Y-148197073D01*
X225313999Y-148227905D01*
X225258739Y-148244450D01*
X225152257Y-148251132D01*
X224977833Y-148252376D01*
X224947346Y-148252280D01*
X224734052Y-148241931D01*
X224590200Y-148208178D01*
X224503128Y-148142028D01*
X224460171Y-148034486D01*
X224448667Y-147876560D01*
X224455246Y-147755009D01*
X224487409Y-147658269D01*
X224559969Y-147594122D01*
X224687651Y-147550362D01*
X224885180Y-147514788D01*
X224899639Y-147512611D01*
X225053528Y-147486144D01*
X225143090Y-147459381D01*
X225186850Y-147423988D01*
X225203333Y-147371629D01*
X225206918Y-147335683D01*
X225191217Y-147246065D01*
X225125637Y-147189588D01*
X224999021Y-147160165D01*
X224800213Y-147151710D01*
X224773319Y-147151678D01*
X224622010Y-147148708D01*
X224536731Y-147138053D01*
X224501152Y-147115698D01*
X224498939Y-147077626D01*
X224517597Y-147040906D01*
X224570474Y-147015670D01*
X224674048Y-147000481D01*
X224845296Y-146991096D01*
X224850726Y-146990896D01*
X225073489Y-146991335D01*
G36*
X225073489Y-146991335D02*
G01*
X225225714Y-147016562D01*
X225319485Y-147073873D01*
X225366885Y-147170562D01*
X225380000Y-147313928D01*
X225379686Y-147348126D01*
X225362018Y-147504946D01*
X225306249Y-147603390D01*
X225197083Y-147659347D01*
X225019226Y-147688705D01*
X225011828Y-147689438D01*
X224819893Y-147716027D01*
X224699003Y-147753772D01*
X224636069Y-147809203D01*
X224618000Y-147888849D01*
X224618297Y-147904056D01*
X224642012Y-147995697D01*
X224712147Y-148051366D01*
X224840649Y-148076369D01*
X225039462Y-148076010D01*
X225110536Y-148072807D01*
X225237431Y-148070551D01*
X225305406Y-148080535D01*
X225332753Y-148107736D01*
X225337762Y-148157126D01*
X225334757Y-148197073D01*
X225313999Y-148227905D01*
X225258739Y-148244450D01*
X225152257Y-148251132D01*
X224977833Y-148252376D01*
X224947346Y-148252280D01*
X224734052Y-148241931D01*
X224590200Y-148208178D01*
X224503128Y-148142028D01*
X224460171Y-148034486D01*
X224448667Y-147876560D01*
X224455246Y-147755009D01*
X224487409Y-147658269D01*
X224559969Y-147594122D01*
X224687651Y-147550362D01*
X224885180Y-147514788D01*
X224899639Y-147512611D01*
X225053528Y-147486144D01*
X225143090Y-147459381D01*
X225186850Y-147423988D01*
X225203333Y-147371629D01*
X225206918Y-147335683D01*
X225191217Y-147246065D01*
X225125637Y-147189588D01*
X224999021Y-147160165D01*
X224800213Y-147151710D01*
X224773319Y-147151678D01*
X224622010Y-147148708D01*
X224536731Y-147138053D01*
X224501152Y-147115698D01*
X224498939Y-147077626D01*
X224517597Y-147040906D01*
X224570474Y-147015670D01*
X224674048Y-147000481D01*
X224845296Y-146991096D01*
X224850726Y-146990896D01*
X225073489Y-146991335D01*
G37*
X226743214Y-147532710D02*
X226743804Y-147557937D01*
X226735676Y-147807876D01*
X226731664Y-147871598D01*
X226703152Y-148039763D01*
X226645790Y-148146941D01*
X226551983Y-148209747D01*
X226538440Y-148214217D01*
X226437427Y-148231367D01*
X226285588Y-148244016D01*
X226110250Y-148249693D01*
X225972645Y-148250101D01*
X225854600Y-148245795D01*
X225791273Y-148231862D01*
X225765696Y-148203804D01*
X225760902Y-148157126D01*
X225761606Y-148131304D01*
X225774523Y-148093096D01*
X225817834Y-148074192D01*
X225909584Y-148069763D01*
X226067818Y-148074979D01*
X226154316Y-148077524D01*
X226329301Y-148068558D01*
X226443043Y-148030982D01*
X226511065Y-147957202D01*
X226548888Y-147839626D01*
X226575917Y-147702043D01*
X226149790Y-147702043D01*
X226026233Y-147700591D01*
X225865448Y-147693636D01*
X225751198Y-147682243D01*
X225702543Y-147667869D01*
X225696734Y-147628171D01*
X225700354Y-147524078D01*
X225709700Y-147436296D01*
X225888000Y-147436296D01*
X225890115Y-147473016D01*
X225908422Y-147506320D01*
X225960101Y-147524176D01*
X226062248Y-147531375D01*
X226231958Y-147532710D01*
X226575917Y-147532710D01*
X226548888Y-147395126D01*
X226541716Y-147363321D01*
X226481535Y-147239636D01*
X226371956Y-147172160D01*
X226199809Y-147151710D01*
X226177476Y-147152164D01*
X226020602Y-147190608D01*
X225922137Y-147287119D01*
X225888000Y-147436296D01*
X225709700Y-147436296D01*
X225715127Y-147385318D01*
X225738803Y-147252873D01*
X225792184Y-147116564D01*
X225882122Y-147034030D01*
X226024020Y-146993293D01*
X226233281Y-146982376D01*
X226369752Y-146984772D01*
X226484832Y-146998230D01*
X226563023Y-147029765D01*
X226630758Y-147086285D01*
X226684801Y-147155726D01*
X226720645Y-147247538D01*
X226739553Y-147376383D01*
X226743214Y-147532710D01*
G36*
X226743214Y-147532710D02*
G01*
X226743804Y-147557937D01*
X226735676Y-147807876D01*
X226731664Y-147871598D01*
X226703152Y-148039763D01*
X226645790Y-148146941D01*
X226551983Y-148209747D01*
X226538440Y-148214217D01*
X226437427Y-148231367D01*
X226285588Y-148244016D01*
X226110250Y-148249693D01*
X225972645Y-148250101D01*
X225854600Y-148245795D01*
X225791273Y-148231862D01*
X225765696Y-148203804D01*
X225760902Y-148157126D01*
X225761606Y-148131304D01*
X225774523Y-148093096D01*
X225817834Y-148074192D01*
X225909584Y-148069763D01*
X226067818Y-148074979D01*
X226154316Y-148077524D01*
X226329301Y-148068558D01*
X226443043Y-148030982D01*
X226511065Y-147957202D01*
X226548888Y-147839626D01*
X226575917Y-147702043D01*
X226149790Y-147702043D01*
X226026233Y-147700591D01*
X225865448Y-147693636D01*
X225751198Y-147682243D01*
X225702543Y-147667869D01*
X225696734Y-147628171D01*
X225700354Y-147524078D01*
X225709700Y-147436296D01*
X225888000Y-147436296D01*
X225890115Y-147473016D01*
X225908422Y-147506320D01*
X225960101Y-147524176D01*
X226062248Y-147531375D01*
X226231958Y-147532710D01*
X226575917Y-147532710D01*
X226548888Y-147395126D01*
X226541716Y-147363321D01*
X226481535Y-147239636D01*
X226371956Y-147172160D01*
X226199809Y-147151710D01*
X226177476Y-147152164D01*
X226020602Y-147190608D01*
X225922137Y-147287119D01*
X225888000Y-147436296D01*
X225709700Y-147436296D01*
X225715127Y-147385318D01*
X225738803Y-147252873D01*
X225792184Y-147116564D01*
X225882122Y-147034030D01*
X226024020Y-146993293D01*
X226233281Y-146982376D01*
X226369752Y-146984772D01*
X226484832Y-146998230D01*
X226563023Y-147029765D01*
X226630758Y-147086285D01*
X226684801Y-147155726D01*
X226720645Y-147247538D01*
X226739553Y-147376383D01*
X226743214Y-147532710D01*
G37*
X228216119Y-147617376D02*
X228216333Y-147620937D01*
X228215529Y-147688340D01*
X228194117Y-147923165D01*
X228141737Y-148088996D01*
X228055919Y-148194663D01*
X228006662Y-148216738D01*
X227886925Y-148241035D01*
X227740083Y-148251030D01*
X227598293Y-148245830D01*
X227488422Y-148220427D01*
X227412000Y-148167710D01*
X227354737Y-148113143D01*
X227330759Y-148111281D01*
X227327333Y-148170654D01*
X227327332Y-148171654D01*
X227306655Y-148236717D01*
X227232083Y-148244737D01*
X227136833Y-148231210D01*
X227136833Y-147617376D01*
X227348500Y-147617376D01*
X227351594Y-147778570D01*
X227365167Y-147882693D01*
X227395392Y-147949289D01*
X227448440Y-148002116D01*
X227451962Y-148004922D01*
X227596637Y-148070170D01*
X227762244Y-148074658D01*
X227910581Y-148017142D01*
X227923858Y-148007464D01*
X227966668Y-147962914D01*
X227991092Y-147897130D01*
X228002102Y-147788991D01*
X228004667Y-147617376D01*
X228004560Y-147570187D01*
X228000456Y-147415401D01*
X227986738Y-147319123D01*
X227958437Y-147260232D01*
X227910581Y-147217610D01*
X227906849Y-147215040D01*
X227757467Y-147159353D01*
X227591929Y-147165632D01*
X227448440Y-147232636D01*
X227396239Y-147284309D01*
X227365603Y-147350378D01*
X227351747Y-147453481D01*
X227348500Y-147617376D01*
X227136833Y-147617376D01*
X227136833Y-146410876D01*
X227232083Y-146397349D01*
X227275690Y-146394603D01*
X227304775Y-146412121D01*
X227320192Y-146466376D01*
X227326269Y-146573343D01*
X227327333Y-146748999D01*
X227327333Y-147114177D01*
X227421420Y-147048277D01*
X227473900Y-147023115D01*
X227610835Y-146993302D01*
X227775235Y-146982560D01*
X227931825Y-146992270D01*
X228045330Y-147023816D01*
X228077511Y-147046407D01*
X228153808Y-147165231D01*
X228200495Y-147358184D01*
X228216119Y-147617376D01*
G36*
X228216119Y-147617376D02*
G01*
X228216333Y-147620937D01*
X228215529Y-147688340D01*
X228194117Y-147923165D01*
X228141737Y-148088996D01*
X228055919Y-148194663D01*
X228006662Y-148216738D01*
X227886925Y-148241035D01*
X227740083Y-148251030D01*
X227598293Y-148245830D01*
X227488422Y-148220427D01*
X227412000Y-148167710D01*
X227354737Y-148113143D01*
X227330759Y-148111281D01*
X227327333Y-148170654D01*
X227327332Y-148171654D01*
X227306655Y-148236717D01*
X227232083Y-148244737D01*
X227136833Y-148231210D01*
X227136833Y-147617376D01*
X227348500Y-147617376D01*
X227351594Y-147778570D01*
X227365167Y-147882693D01*
X227395392Y-147949289D01*
X227448440Y-148002116D01*
X227451962Y-148004922D01*
X227596637Y-148070170D01*
X227762244Y-148074658D01*
X227910581Y-148017142D01*
X227923858Y-148007464D01*
X227966668Y-147962914D01*
X227991092Y-147897130D01*
X228002102Y-147788991D01*
X228004667Y-147617376D01*
X228004560Y-147570187D01*
X228000456Y-147415401D01*
X227986738Y-147319123D01*
X227958437Y-147260232D01*
X227910581Y-147217610D01*
X227906849Y-147215040D01*
X227757467Y-147159353D01*
X227591929Y-147165632D01*
X227448440Y-147232636D01*
X227396239Y-147284309D01*
X227365603Y-147350378D01*
X227351747Y-147453481D01*
X227348500Y-147617376D01*
X227136833Y-147617376D01*
X227136833Y-146410876D01*
X227232083Y-146397349D01*
X227275690Y-146394603D01*
X227304775Y-146412121D01*
X227320192Y-146466376D01*
X227326269Y-146573343D01*
X227327333Y-146748999D01*
X227327333Y-147114177D01*
X227421420Y-147048277D01*
X227473900Y-147023115D01*
X227610835Y-146993302D01*
X227775235Y-146982560D01*
X227931825Y-146992270D01*
X228045330Y-147023816D01*
X228077511Y-147046407D01*
X228153808Y-147165231D01*
X228200495Y-147358184D01*
X228216119Y-147617376D01*
G37*
X223496074Y-147613169D02*
X223496167Y-147624452D01*
X223496114Y-147691205D01*
X223493947Y-147863147D01*
X223485366Y-147975655D01*
X223465996Y-148048093D01*
X223431462Y-148099822D01*
X223377390Y-148150208D01*
X223256552Y-148218016D01*
X223090437Y-148251828D01*
X222917276Y-148243761D01*
X222764799Y-148195432D01*
X222660732Y-148108455D01*
X222654380Y-148102201D01*
X222636489Y-148128885D01*
X222628982Y-148215936D01*
X222628980Y-148216420D01*
X222650805Y-148353095D01*
X222705085Y-148464780D01*
X222712407Y-148473628D01*
X222762155Y-148518936D01*
X222829719Y-148544375D01*
X222937339Y-148554977D01*
X223107251Y-148555775D01*
X223160255Y-148555275D01*
X223305209Y-148557128D01*
X223387474Y-148567783D01*
X223424232Y-148591236D01*
X223432667Y-148631487D01*
X223424540Y-148677357D01*
X223379750Y-148734870D01*
X223372984Y-148737144D01*
X223294127Y-148745854D01*
X223160273Y-148748780D01*
X222996196Y-148745251D01*
X222979027Y-148744514D01*
X222808188Y-148730367D01*
X222675860Y-148698813D01*
X222577170Y-148640261D01*
X222507243Y-148545119D01*
X222461205Y-148403793D01*
X222434181Y-148206692D01*
X222421296Y-147944222D01*
X222418065Y-147642972D01*
X222632423Y-147642972D01*
X222634362Y-147782768D01*
X222654905Y-147874313D01*
X222698199Y-147942750D01*
X222797386Y-148016653D01*
X222952764Y-148059891D01*
X223115975Y-148051497D01*
X223252750Y-147988637D01*
X223277076Y-147943378D01*
X223298362Y-147814319D01*
X223305667Y-147613169D01*
X223305339Y-147527088D01*
X223300306Y-147389298D01*
X223284687Y-147304943D01*
X223252795Y-147252571D01*
X223198940Y-147210731D01*
X223084247Y-147170343D01*
X222937583Y-147161754D01*
X222796612Y-147183484D01*
X222698631Y-147233812D01*
X222673635Y-147294027D01*
X222650773Y-147413958D01*
X222636039Y-147565921D01*
X222632423Y-147642972D01*
X222418065Y-147642972D01*
X222417677Y-147606793D01*
X222416667Y-146982376D01*
X222522500Y-146982376D01*
X222603529Y-147000650D01*
X222628333Y-147067043D01*
X222630940Y-147121700D01*
X222652312Y-147124305D01*
X222713000Y-147067043D01*
X222777989Y-147019675D01*
X222882617Y-146990575D01*
X223044288Y-146982376D01*
X223107504Y-146983024D01*
X223234875Y-146994389D01*
X223319977Y-147027384D01*
X223393538Y-147091620D01*
X223439441Y-147146662D01*
X223470010Y-147208821D01*
X223487098Y-147295901D01*
X223494539Y-147427808D01*
X223496074Y-147613169D01*
G36*
X223496074Y-147613169D02*
G01*
X223496167Y-147624452D01*
X223496114Y-147691205D01*
X223493947Y-147863147D01*
X223485366Y-147975655D01*
X223465996Y-148048093D01*
X223431462Y-148099822D01*
X223377390Y-148150208D01*
X223256552Y-148218016D01*
X223090437Y-148251828D01*
X222917276Y-148243761D01*
X222764799Y-148195432D01*
X222660732Y-148108455D01*
X222654380Y-148102201D01*
X222636489Y-148128885D01*
X222628982Y-148215936D01*
X222628980Y-148216420D01*
X222650805Y-148353095D01*
X222705085Y-148464780D01*
X222712407Y-148473628D01*
X222762155Y-148518936D01*
X222829719Y-148544375D01*
X222937339Y-148554977D01*
X223107251Y-148555775D01*
X223160255Y-148555275D01*
X223305209Y-148557128D01*
X223387474Y-148567783D01*
X223424232Y-148591236D01*
X223432667Y-148631487D01*
X223424540Y-148677357D01*
X223379750Y-148734870D01*
X223372984Y-148737144D01*
X223294127Y-148745854D01*
X223160273Y-148748780D01*
X222996196Y-148745251D01*
X222979027Y-148744514D01*
X222808188Y-148730367D01*
X222675860Y-148698813D01*
X222577170Y-148640261D01*
X222507243Y-148545119D01*
X222461205Y-148403793D01*
X222434181Y-148206692D01*
X222421296Y-147944222D01*
X222418065Y-147642972D01*
X222632423Y-147642972D01*
X222634362Y-147782768D01*
X222654905Y-147874313D01*
X222698199Y-147942750D01*
X222797386Y-148016653D01*
X222952764Y-148059891D01*
X223115975Y-148051497D01*
X223252750Y-147988637D01*
X223277076Y-147943378D01*
X223298362Y-147814319D01*
X223305667Y-147613169D01*
X223305339Y-147527088D01*
X223300306Y-147389298D01*
X223284687Y-147304943D01*
X223252795Y-147252571D01*
X223198940Y-147210731D01*
X223084247Y-147170343D01*
X222937583Y-147161754D01*
X222796612Y-147183484D01*
X222698631Y-147233812D01*
X222673635Y-147294027D01*
X222650773Y-147413958D01*
X222636039Y-147565921D01*
X222632423Y-147642972D01*
X222418065Y-147642972D01*
X222417677Y-147606793D01*
X222416667Y-146982376D01*
X222522500Y-146982376D01*
X222603529Y-147000650D01*
X222628333Y-147067043D01*
X222630940Y-147121700D01*
X222652312Y-147124305D01*
X222713000Y-147067043D01*
X222777989Y-147019675D01*
X222882617Y-146990575D01*
X223044288Y-146982376D01*
X223107504Y-146983024D01*
X223234875Y-146994389D01*
X223319977Y-147027384D01*
X223393538Y-147091620D01*
X223439441Y-147146662D01*
X223470010Y-147208821D01*
X223487098Y-147295901D01*
X223494539Y-147427808D01*
X223496074Y-147613169D01*
G37*
X207652917Y-146835155D02*
X207719862Y-146841401D01*
X207966558Y-146874462D01*
X208143759Y-146925016D01*
X208263767Y-147004447D01*
X208338888Y-147124140D01*
X208381426Y-147295483D01*
X208403685Y-147529859D01*
X208425500Y-147892543D01*
X208647750Y-147905338D01*
X208870000Y-147918134D01*
X208870000Y-148337043D01*
X208404333Y-148337043D01*
X208404333Y-150242043D01*
X207938667Y-150242043D01*
X207938667Y-148337043D01*
X207346000Y-148337043D01*
X207346000Y-147917578D01*
X207631750Y-147905060D01*
X207917500Y-147892543D01*
X207930135Y-147651178D01*
X207931697Y-147611862D01*
X207917290Y-147431735D01*
X207856476Y-147316157D01*
X207739765Y-147254560D01*
X207557667Y-147236376D01*
X207346000Y-147236376D01*
X207346000Y-146807916D01*
X207652917Y-146835155D01*
G36*
X207652917Y-146835155D02*
G01*
X207719862Y-146841401D01*
X207966558Y-146874462D01*
X208143759Y-146925016D01*
X208263767Y-147004447D01*
X208338888Y-147124140D01*
X208381426Y-147295483D01*
X208403685Y-147529859D01*
X208425500Y-147892543D01*
X208647750Y-147905338D01*
X208870000Y-147918134D01*
X208870000Y-148337043D01*
X208404333Y-148337043D01*
X208404333Y-150242043D01*
X207938667Y-150242043D01*
X207938667Y-148337043D01*
X207346000Y-148337043D01*
X207346000Y-147917578D01*
X207631750Y-147905060D01*
X207917500Y-147892543D01*
X207930135Y-147651178D01*
X207931697Y-147611862D01*
X207917290Y-147431735D01*
X207856476Y-147316157D01*
X207739765Y-147254560D01*
X207557667Y-147236376D01*
X207346000Y-147236376D01*
X207346000Y-146807916D01*
X207652917Y-146835155D01*
G37*
X217130769Y-147075481D02*
X217400167Y-147088210D01*
X217421333Y-148372255D01*
X217424188Y-148549280D01*
X217430092Y-148896614D01*
X217437147Y-149171476D01*
X217447825Y-149382325D01*
X217464596Y-149537618D01*
X217489933Y-149645814D01*
X217526306Y-149715372D01*
X217576187Y-149754748D01*
X217642048Y-149772403D01*
X217726359Y-149776792D01*
X217831591Y-149776376D01*
X218056333Y-149776376D01*
X218056333Y-150253686D01*
X217685917Y-150224305D01*
X217632873Y-150219514D01*
X217444439Y-150194056D01*
X217278990Y-150159961D01*
X217167333Y-150123233D01*
X217104007Y-150088805D01*
X217048046Y-150044325D01*
X217003176Y-149983701D01*
X216967983Y-149898368D01*
X216941054Y-149779760D01*
X216920975Y-149619312D01*
X216906333Y-149408458D01*
X216895713Y-149138635D01*
X216887701Y-148801275D01*
X216880884Y-148387815D01*
X216861372Y-147062753D01*
X217130769Y-147075481D01*
G36*
X217130769Y-147075481D02*
G01*
X217400167Y-147088210D01*
X217421333Y-148372255D01*
X217424188Y-148549280D01*
X217430092Y-148896614D01*
X217437147Y-149171476D01*
X217447825Y-149382325D01*
X217464596Y-149537618D01*
X217489933Y-149645814D01*
X217526306Y-149715372D01*
X217576187Y-149754748D01*
X217642048Y-149772403D01*
X217726359Y-149776792D01*
X217831591Y-149776376D01*
X218056333Y-149776376D01*
X218056333Y-150253686D01*
X217685917Y-150224305D01*
X217632873Y-150219514D01*
X217444439Y-150194056D01*
X217278990Y-150159961D01*
X217167333Y-150123233D01*
X217104007Y-150088805D01*
X217048046Y-150044325D01*
X217003176Y-149983701D01*
X216967983Y-149898368D01*
X216941054Y-149779760D01*
X216920975Y-149619312D01*
X216906333Y-149408458D01*
X216895713Y-149138635D01*
X216887701Y-148801275D01*
X216880884Y-148387815D01*
X216861372Y-147062753D01*
X217130769Y-147075481D01*
G37*
X211277356Y-148847716D02*
X211281329Y-148928513D01*
X211275192Y-149285035D01*
X211255098Y-149559706D01*
X211208326Y-149798240D01*
X211128650Y-149974893D01*
X211008563Y-150100593D01*
X210840559Y-150186264D01*
X210617129Y-150242836D01*
X210585615Y-150247383D01*
X210450585Y-150256655D01*
X210269426Y-150260230D01*
X210063931Y-150258669D01*
X209855895Y-150252536D01*
X209667111Y-150242393D01*
X209519374Y-150228801D01*
X209434478Y-150212324D01*
X209426795Y-150208205D01*
X209390939Y-150138896D01*
X209378000Y-150005690D01*
X209378000Y-149820729D01*
X209917750Y-149830303D01*
X210208598Y-149829485D01*
X210438904Y-149813380D01*
X210600773Y-149780077D01*
X210701909Y-149727959D01*
X210750014Y-149655407D01*
X210753367Y-149642273D01*
X210769779Y-149543665D01*
X210783056Y-149416543D01*
X210795934Y-149247210D01*
X210025595Y-149235679D01*
X209255255Y-149224149D01*
X209276457Y-148887376D01*
X209706792Y-148887376D01*
X210266592Y-148887376D01*
X210394149Y-148887131D01*
X210583047Y-148884672D01*
X210705890Y-148878308D01*
X210774939Y-148866502D01*
X210802454Y-148847716D01*
X210800696Y-148820414D01*
X210783469Y-148742945D01*
X210775000Y-148627990D01*
X210754786Y-148527218D01*
X210671091Y-148398619D01*
X210612900Y-148348337D01*
X210538893Y-148314099D01*
X210432236Y-148298446D01*
X210267000Y-148294710D01*
X210119005Y-148297447D01*
X210006330Y-148311214D01*
X209929607Y-148342715D01*
X209862909Y-148398619D01*
X209858320Y-148403301D01*
X209787841Y-148503489D01*
X209758422Y-148599702D01*
X209753937Y-148668318D01*
X209732318Y-148792126D01*
X209706792Y-148887376D01*
X209276457Y-148887376D01*
X209278515Y-148854679D01*
X209293736Y-148654598D01*
X209321318Y-148438340D01*
X209360294Y-148279106D01*
X209414958Y-148160880D01*
X209489606Y-148067649D01*
X209504721Y-148053105D01*
X209639166Y-147962391D01*
X209816971Y-147904893D01*
X210050648Y-147877870D01*
X210352707Y-147878582D01*
X210481827Y-147885179D01*
X210666691Y-147903877D01*
X210799940Y-147934370D01*
X210902897Y-147980611D01*
X210947893Y-148008571D01*
X211073498Y-148113862D01*
X211166533Y-148247604D01*
X211230110Y-148420695D01*
X211267339Y-148644032D01*
X211277356Y-148847716D01*
G36*
X211277356Y-148847716D02*
G01*
X211281329Y-148928513D01*
X211275192Y-149285035D01*
X211255098Y-149559706D01*
X211208326Y-149798240D01*
X211128650Y-149974893D01*
X211008563Y-150100593D01*
X210840559Y-150186264D01*
X210617129Y-150242836D01*
X210585615Y-150247383D01*
X210450585Y-150256655D01*
X210269426Y-150260230D01*
X210063931Y-150258669D01*
X209855895Y-150252536D01*
X209667111Y-150242393D01*
X209519374Y-150228801D01*
X209434478Y-150212324D01*
X209426795Y-150208205D01*
X209390939Y-150138896D01*
X209378000Y-150005690D01*
X209378000Y-149820729D01*
X209917750Y-149830303D01*
X210208598Y-149829485D01*
X210438904Y-149813380D01*
X210600773Y-149780077D01*
X210701909Y-149727959D01*
X210750014Y-149655407D01*
X210753367Y-149642273D01*
X210769779Y-149543665D01*
X210783056Y-149416543D01*
X210795934Y-149247210D01*
X210025595Y-149235679D01*
X209255255Y-149224149D01*
X209276457Y-148887376D01*
X209706792Y-148887376D01*
X210266592Y-148887376D01*
X210394149Y-148887131D01*
X210583047Y-148884672D01*
X210705890Y-148878308D01*
X210774939Y-148866502D01*
X210802454Y-148847716D01*
X210800696Y-148820414D01*
X210783469Y-148742945D01*
X210775000Y-148627990D01*
X210754786Y-148527218D01*
X210671091Y-148398619D01*
X210612900Y-148348337D01*
X210538893Y-148314099D01*
X210432236Y-148298446D01*
X210267000Y-148294710D01*
X210119005Y-148297447D01*
X210006330Y-148311214D01*
X209929607Y-148342715D01*
X209862909Y-148398619D01*
X209858320Y-148403301D01*
X209787841Y-148503489D01*
X209758422Y-148599702D01*
X209753937Y-148668318D01*
X209732318Y-148792126D01*
X209706792Y-148887376D01*
X209276457Y-148887376D01*
X209278515Y-148854679D01*
X209293736Y-148654598D01*
X209321318Y-148438340D01*
X209360294Y-148279106D01*
X209414958Y-148160880D01*
X209489606Y-148067649D01*
X209504721Y-148053105D01*
X209639166Y-147962391D01*
X209816971Y-147904893D01*
X210050648Y-147877870D01*
X210352707Y-147878582D01*
X210481827Y-147885179D01*
X210666691Y-147903877D01*
X210799940Y-147934370D01*
X210902897Y-147980611D01*
X210947893Y-148008571D01*
X211073498Y-148113862D01*
X211166533Y-148247604D01*
X211230110Y-148420695D01*
X211267339Y-148644032D01*
X211277356Y-148847716D01*
G37*
X212805281Y-147878731D02*
X213032327Y-147897558D01*
X213218072Y-147927669D01*
X213341042Y-147967626D01*
X213373177Y-147986484D01*
X213503197Y-148120216D01*
X213583727Y-148316277D01*
X213611333Y-148567050D01*
X213609271Y-148649463D01*
X213570758Y-148888563D01*
X213483700Y-149058850D01*
X213348274Y-149159924D01*
X213301066Y-149175734D01*
X213163793Y-149208376D01*
X212983221Y-149241414D01*
X212785833Y-149269681D01*
X212666774Y-149285675D01*
X212498270Y-149313523D01*
X212372251Y-149340895D01*
X212309583Y-149363674D01*
X212277584Y-149413048D01*
X212258645Y-149523769D01*
X212269865Y-149648688D01*
X212311096Y-149749964D01*
X212325211Y-149766382D01*
X212365350Y-149791598D01*
X212433302Y-149808118D01*
X212543274Y-149817542D01*
X212709470Y-149821472D01*
X212946096Y-149821507D01*
X213526667Y-149818613D01*
X213526667Y-150008354D01*
X213526595Y-150032758D01*
X213520396Y-150125633D01*
X213492880Y-150184778D01*
X213428255Y-150219989D01*
X213310726Y-150241060D01*
X213124500Y-150257788D01*
X213034557Y-150263320D01*
X212809495Y-150266586D01*
X212579655Y-150257874D01*
X212367361Y-150238916D01*
X212194935Y-150211442D01*
X212084702Y-150177182D01*
X211981584Y-150105012D01*
X211892357Y-150008318D01*
X211850644Y-149910328D01*
X211815732Y-149743251D01*
X211798924Y-149550809D01*
X211802721Y-149364575D01*
X211829623Y-149216119D01*
X211862507Y-149129637D01*
X211917383Y-149040825D01*
X211998129Y-148975843D01*
X212119383Y-148927132D01*
X212295784Y-148887132D01*
X212541970Y-148848284D01*
X212735419Y-148818848D01*
X212907904Y-148788986D01*
X213033629Y-148763203D01*
X213094000Y-148744978D01*
X213097961Y-148742106D01*
X213131783Y-148675370D01*
X213145667Y-148568354D01*
X213136479Y-148471440D01*
X213097321Y-148390565D01*
X213017300Y-148337327D01*
X212885675Y-148307789D01*
X212691704Y-148298014D01*
X212424647Y-148304065D01*
X211918000Y-148324931D01*
X211918000Y-147920448D01*
X212194758Y-147890810D01*
X212313182Y-147880686D01*
X212558408Y-147872628D01*
X212805281Y-147878731D01*
G36*
X212805281Y-147878731D02*
G01*
X213032327Y-147897558D01*
X213218072Y-147927669D01*
X213341042Y-147967626D01*
X213373177Y-147986484D01*
X213503197Y-148120216D01*
X213583727Y-148316277D01*
X213611333Y-148567050D01*
X213609271Y-148649463D01*
X213570758Y-148888563D01*
X213483700Y-149058850D01*
X213348274Y-149159924D01*
X213301066Y-149175734D01*
X213163793Y-149208376D01*
X212983221Y-149241414D01*
X212785833Y-149269681D01*
X212666774Y-149285675D01*
X212498270Y-149313523D01*
X212372251Y-149340895D01*
X212309583Y-149363674D01*
X212277584Y-149413048D01*
X212258645Y-149523769D01*
X212269865Y-149648688D01*
X212311096Y-149749964D01*
X212325211Y-149766382D01*
X212365350Y-149791598D01*
X212433302Y-149808118D01*
X212543274Y-149817542D01*
X212709470Y-149821472D01*
X212946096Y-149821507D01*
X213526667Y-149818613D01*
X213526667Y-150008354D01*
X213526595Y-150032758D01*
X213520396Y-150125633D01*
X213492880Y-150184778D01*
X213428255Y-150219989D01*
X213310726Y-150241060D01*
X213124500Y-150257788D01*
X213034557Y-150263320D01*
X212809495Y-150266586D01*
X212579655Y-150257874D01*
X212367361Y-150238916D01*
X212194935Y-150211442D01*
X212084702Y-150177182D01*
X211981584Y-150105012D01*
X211892357Y-150008318D01*
X211850644Y-149910328D01*
X211815732Y-149743251D01*
X211798924Y-149550809D01*
X211802721Y-149364575D01*
X211829623Y-149216119D01*
X211862507Y-149129637D01*
X211917383Y-149040825D01*
X211998129Y-148975843D01*
X212119383Y-148927132D01*
X212295784Y-148887132D01*
X212541970Y-148848284D01*
X212735419Y-148818848D01*
X212907904Y-148788986D01*
X213033629Y-148763203D01*
X213094000Y-148744978D01*
X213097961Y-148742106D01*
X213131783Y-148675370D01*
X213145667Y-148568354D01*
X213136479Y-148471440D01*
X213097321Y-148390565D01*
X213017300Y-148337327D01*
X212885675Y-148307789D01*
X212691704Y-148298014D01*
X212424647Y-148304065D01*
X211918000Y-148324931D01*
X211918000Y-147920448D01*
X212194758Y-147890810D01*
X212313182Y-147880686D01*
X212558408Y-147872628D01*
X212805281Y-147878731D01*
G37*
X216210471Y-149257875D02*
X216207118Y-149452212D01*
X216198663Y-149606030D01*
X216183799Y-149717879D01*
X216160920Y-149803711D01*
X216128418Y-149879478D01*
X216124801Y-149886674D01*
X216003681Y-150061659D01*
X215841156Y-150175964D01*
X215619464Y-150242248D01*
X215561705Y-150251189D01*
X215342292Y-150267051D01*
X215096690Y-150264036D01*
X214852433Y-150244096D01*
X214637053Y-150209185D01*
X214478081Y-150161257D01*
X214448601Y-150147891D01*
X214344505Y-150090860D01*
X214266760Y-150022135D01*
X214211585Y-149929565D01*
X214175199Y-149801003D01*
X214153823Y-149624300D01*
X214143677Y-149387307D01*
X214140979Y-149077876D01*
X214140988Y-149075952D01*
X214627333Y-149075952D01*
X214627770Y-149239362D01*
X214630994Y-149425980D01*
X214639057Y-149553423D01*
X214653930Y-149637024D01*
X214677587Y-149692119D01*
X214712000Y-149734043D01*
X214794533Y-149788339D01*
X214941371Y-149818710D01*
X214947592Y-149818722D01*
X215062957Y-149822862D01*
X215142454Y-149832191D01*
X215158749Y-149834716D01*
X215252326Y-149836772D01*
X215377546Y-149829815D01*
X215405204Y-149826921D01*
X215545255Y-149787693D01*
X215645230Y-149700850D01*
X215673283Y-149661999D01*
X215700449Y-149605929D01*
X215716924Y-149530811D01*
X215724539Y-149420255D01*
X215725126Y-149257875D01*
X215720517Y-149027283D01*
X215720262Y-149016830D01*
X215712267Y-148760575D01*
X215696885Y-148576204D01*
X215665274Y-148451388D01*
X215608590Y-148373794D01*
X215517989Y-148331093D01*
X215384628Y-148310953D01*
X215199663Y-148301044D01*
X215072757Y-148296450D01*
X214940523Y-148297065D01*
X214855201Y-148310581D01*
X214794341Y-148341511D01*
X214735491Y-148394370D01*
X214726058Y-148403861D01*
X214685385Y-148449892D01*
X214657761Y-148501127D01*
X214640666Y-148573459D01*
X214631578Y-148682778D01*
X214627974Y-148844978D01*
X214627333Y-149075952D01*
X214140988Y-149075952D01*
X214141960Y-148870564D01*
X214152444Y-148566713D01*
X214180938Y-148333024D01*
X214235434Y-148160358D01*
X214323924Y-148039577D01*
X214454400Y-147961542D01*
X214634855Y-147917117D01*
X214873280Y-147897163D01*
X215177667Y-147892543D01*
X215203930Y-147892571D01*
X215485438Y-147898484D01*
X215697596Y-147918118D01*
X215854190Y-147956398D01*
X215969002Y-148018251D01*
X216055817Y-148108606D01*
X216128418Y-148232388D01*
X216151241Y-148283039D01*
X216177164Y-148364431D01*
X216194526Y-148466505D01*
X216204937Y-148605249D01*
X216210004Y-148796654D01*
X216211335Y-149056710D01*
X216210772Y-149240475D01*
X216210471Y-149257875D01*
G36*
X216210471Y-149257875D02*
G01*
X216207118Y-149452212D01*
X216198663Y-149606030D01*
X216183799Y-149717879D01*
X216160920Y-149803711D01*
X216128418Y-149879478D01*
X216124801Y-149886674D01*
X216003681Y-150061659D01*
X215841156Y-150175964D01*
X215619464Y-150242248D01*
X215561705Y-150251189D01*
X215342292Y-150267051D01*
X215096690Y-150264036D01*
X214852433Y-150244096D01*
X214637053Y-150209185D01*
X214478081Y-150161257D01*
X214448601Y-150147891D01*
X214344505Y-150090860D01*
X214266760Y-150022135D01*
X214211585Y-149929565D01*
X214175199Y-149801003D01*
X214153823Y-149624300D01*
X214143677Y-149387307D01*
X214140979Y-149077876D01*
X214140988Y-149075952D01*
X214627333Y-149075952D01*
X214627770Y-149239362D01*
X214630994Y-149425980D01*
X214639057Y-149553423D01*
X214653930Y-149637024D01*
X214677587Y-149692119D01*
X214712000Y-149734043D01*
X214794533Y-149788339D01*
X214941371Y-149818710D01*
X214947592Y-149818722D01*
X215062957Y-149822862D01*
X215142454Y-149832191D01*
X215158749Y-149834716D01*
X215252326Y-149836772D01*
X215377546Y-149829815D01*
X215405204Y-149826921D01*
X215545255Y-149787693D01*
X215645230Y-149700850D01*
X215673283Y-149661999D01*
X215700449Y-149605929D01*
X215716924Y-149530811D01*
X215724539Y-149420255D01*
X215725126Y-149257875D01*
X215720517Y-149027283D01*
X215720262Y-149016830D01*
X215712267Y-148760575D01*
X215696885Y-148576204D01*
X215665274Y-148451388D01*
X215608590Y-148373794D01*
X215517989Y-148331093D01*
X215384628Y-148310953D01*
X215199663Y-148301044D01*
X215072757Y-148296450D01*
X214940523Y-148297065D01*
X214855201Y-148310581D01*
X214794341Y-148341511D01*
X214735491Y-148394370D01*
X214726058Y-148403861D01*
X214685385Y-148449892D01*
X214657761Y-148501127D01*
X214640666Y-148573459D01*
X214631578Y-148682778D01*
X214627974Y-148844978D01*
X214627333Y-149075952D01*
X214140988Y-149075952D01*
X214141960Y-148870564D01*
X214152444Y-148566713D01*
X214180938Y-148333024D01*
X214235434Y-148160358D01*
X214323924Y-148039577D01*
X214454400Y-147961542D01*
X214634855Y-147917117D01*
X214873280Y-147897163D01*
X215177667Y-147892543D01*
X215203930Y-147892571D01*
X215485438Y-147898484D01*
X215697596Y-147918118D01*
X215854190Y-147956398D01*
X215969002Y-148018251D01*
X216055817Y-148108606D01*
X216128418Y-148232388D01*
X216151241Y-148283039D01*
X216177164Y-148364431D01*
X216194526Y-148466505D01*
X216204937Y-148605249D01*
X216210004Y-148796654D01*
X216211335Y-149056710D01*
X216210772Y-149240475D01*
X216210471Y-149257875D01*
G37*
X228215981Y-149993010D02*
X228215004Y-150193754D01*
X228211830Y-150368781D01*
X228205674Y-150488382D01*
X228195560Y-150563084D01*
X228180506Y-150603411D01*
X228159535Y-150619889D01*
X228131667Y-150623043D01*
X228076934Y-150609128D01*
X228047000Y-150538376D01*
X228044394Y-150483719D01*
X228023022Y-150481114D01*
X227962333Y-150538376D01*
X227906912Y-150580691D01*
X227802583Y-150613638D01*
X227642050Y-150623043D01*
X227547342Y-150619960D01*
X227413735Y-150604929D01*
X227329003Y-150581603D01*
X227296998Y-150559147D01*
X227220714Y-150440670D01*
X227173913Y-150248675D01*
X227158000Y-149988043D01*
X227158184Y-149978435D01*
X227370315Y-149978435D01*
X227370505Y-150006734D01*
X227376711Y-150167753D01*
X227389832Y-150295012D01*
X227407413Y-150363069D01*
X227422844Y-150378419D01*
X227507752Y-150416460D01*
X227629513Y-150441522D01*
X227702787Y-150447301D01*
X227822631Y-150433672D01*
X227920498Y-150377061D01*
X227921299Y-150376411D01*
X227977075Y-150321922D01*
X228008599Y-150256142D01*
X228022559Y-150154645D01*
X228025639Y-149993010D01*
X228024333Y-149906561D01*
X228006605Y-149740003D01*
X227959900Y-149633837D01*
X227873821Y-149571572D01*
X227737972Y-149536717D01*
X227616391Y-149531389D01*
X227476320Y-149581446D01*
X227451079Y-149598808D01*
X227406747Y-149642714D01*
X227382372Y-149706156D01*
X227372159Y-149810831D01*
X227370315Y-149978435D01*
X227158184Y-149978435D01*
X227159815Y-149893108D01*
X227186264Y-149654995D01*
X227243129Y-149487160D01*
X227329003Y-149394483D01*
X227367551Y-149378936D01*
X227499673Y-149356836D01*
X227656581Y-149356379D01*
X227802418Y-149376264D01*
X227901326Y-149415196D01*
X227960125Y-149454592D01*
X228015250Y-149478696D01*
X228019760Y-149475457D01*
X228033643Y-149416436D01*
X228043348Y-149298434D01*
X228047000Y-149141376D01*
X228047312Y-149052084D01*
X228051562Y-148917436D01*
X228064200Y-148842345D01*
X228089482Y-148809780D01*
X228131667Y-148802710D01*
X228153983Y-148804384D01*
X228176400Y-148816998D01*
X228192681Y-148851127D01*
X228203807Y-148917295D01*
X228210756Y-149026030D01*
X228214507Y-149187854D01*
X228216040Y-149413295D01*
X228216333Y-149712876D01*
X228216178Y-149952777D01*
X228215981Y-149993010D01*
G36*
X228215981Y-149993010D02*
G01*
X228215004Y-150193754D01*
X228211830Y-150368781D01*
X228205674Y-150488382D01*
X228195560Y-150563084D01*
X228180506Y-150603411D01*
X228159535Y-150619889D01*
X228131667Y-150623043D01*
X228076934Y-150609128D01*
X228047000Y-150538376D01*
X228044394Y-150483719D01*
X228023022Y-150481114D01*
X227962333Y-150538376D01*
X227906912Y-150580691D01*
X227802583Y-150613638D01*
X227642050Y-150623043D01*
X227547342Y-150619960D01*
X227413735Y-150604929D01*
X227329003Y-150581603D01*
X227296998Y-150559147D01*
X227220714Y-150440670D01*
X227173913Y-150248675D01*
X227158000Y-149988043D01*
X227158184Y-149978435D01*
X227370315Y-149978435D01*
X227370505Y-150006734D01*
X227376711Y-150167753D01*
X227389832Y-150295012D01*
X227407413Y-150363069D01*
X227422844Y-150378419D01*
X227507752Y-150416460D01*
X227629513Y-150441522D01*
X227702787Y-150447301D01*
X227822631Y-150433672D01*
X227920498Y-150377061D01*
X227921299Y-150376411D01*
X227977075Y-150321922D01*
X228008599Y-150256142D01*
X228022559Y-150154645D01*
X228025639Y-149993010D01*
X228024333Y-149906561D01*
X228006605Y-149740003D01*
X227959900Y-149633837D01*
X227873821Y-149571572D01*
X227737972Y-149536717D01*
X227616391Y-149531389D01*
X227476320Y-149581446D01*
X227451079Y-149598808D01*
X227406747Y-149642714D01*
X227382372Y-149706156D01*
X227372159Y-149810831D01*
X227370315Y-149978435D01*
X227158184Y-149978435D01*
X227159815Y-149893108D01*
X227186264Y-149654995D01*
X227243129Y-149487160D01*
X227329003Y-149394483D01*
X227367551Y-149378936D01*
X227499673Y-149356836D01*
X227656581Y-149356379D01*
X227802418Y-149376264D01*
X227901326Y-149415196D01*
X227960125Y-149454592D01*
X228015250Y-149478696D01*
X228019760Y-149475457D01*
X228033643Y-149416436D01*
X228043348Y-149298434D01*
X228047000Y-149141376D01*
X228047312Y-149052084D01*
X228051562Y-148917436D01*
X228064200Y-148842345D01*
X228089482Y-148809780D01*
X228131667Y-148802710D01*
X228153983Y-148804384D01*
X228176400Y-148816998D01*
X228192681Y-148851127D01*
X228203807Y-148917295D01*
X228210756Y-149026030D01*
X228214507Y-149187854D01*
X228216040Y-149413295D01*
X228216333Y-149712876D01*
X228216178Y-149952777D01*
X228215981Y-149993010D01*
G37*
X225930333Y-149810618D02*
X225930337Y-149820636D01*
X225934189Y-150059780D01*
X225949912Y-150227365D01*
X225984287Y-150335913D01*
X226044095Y-150397944D01*
X226136116Y-150425980D01*
X226267132Y-150432543D01*
X226300873Y-150432152D01*
X226450119Y-150414288D01*
X226523896Y-150369043D01*
X226537692Y-150318300D01*
X226551493Y-150196435D01*
X226560996Y-150026756D01*
X226564685Y-149829293D01*
X226565333Y-149353043D01*
X226785503Y-149353043D01*
X226770668Y-149907141D01*
X226764634Y-150108943D01*
X226756492Y-150275329D01*
X226744368Y-150386233D01*
X226725441Y-150457264D01*
X226696890Y-150504030D01*
X226655894Y-150542141D01*
X226626942Y-150561671D01*
X226489046Y-150608619D01*
X226318652Y-150624084D01*
X226151772Y-150607211D01*
X226024420Y-150557142D01*
X225962207Y-150518300D01*
X225934879Y-150531973D01*
X225930333Y-150617180D01*
X225936996Y-150719172D01*
X225955853Y-150809621D01*
X225964833Y-150825980D01*
X226045417Y-150883842D01*
X226178867Y-150925709D01*
X226340125Y-150945712D01*
X226504129Y-150937986D01*
X226542779Y-150932403D01*
X226640439Y-150924830D01*
X226683003Y-150942657D01*
X226692333Y-150992181D01*
X226687872Y-151040979D01*
X226664111Y-151102821D01*
X226621730Y-151119385D01*
X226511557Y-151130370D01*
X226363730Y-151130000D01*
X226204405Y-151119407D01*
X226059733Y-151099728D01*
X225955869Y-151072097D01*
X225887486Y-151036665D01*
X225824999Y-150978993D01*
X225779741Y-150893399D01*
X225749096Y-150768553D01*
X225730446Y-150593128D01*
X225721176Y-150355795D01*
X225718667Y-150045226D01*
X225718667Y-149353043D01*
X225930333Y-149353043D01*
X225930333Y-149810618D01*
G36*
X225930333Y-149810618D02*
G01*
X225930337Y-149820636D01*
X225934189Y-150059780D01*
X225949912Y-150227365D01*
X225984287Y-150335913D01*
X226044095Y-150397944D01*
X226136116Y-150425980D01*
X226267132Y-150432543D01*
X226300873Y-150432152D01*
X226450119Y-150414288D01*
X226523896Y-150369043D01*
X226537692Y-150318300D01*
X226551493Y-150196435D01*
X226560996Y-150026756D01*
X226564685Y-149829293D01*
X226565333Y-149353043D01*
X226785503Y-149353043D01*
X226770668Y-149907141D01*
X226764634Y-150108943D01*
X226756492Y-150275329D01*
X226744368Y-150386233D01*
X226725441Y-150457264D01*
X226696890Y-150504030D01*
X226655894Y-150542141D01*
X226626942Y-150561671D01*
X226489046Y-150608619D01*
X226318652Y-150624084D01*
X226151772Y-150607211D01*
X226024420Y-150557142D01*
X225962207Y-150518300D01*
X225934879Y-150531973D01*
X225930333Y-150617180D01*
X225936996Y-150719172D01*
X225955853Y-150809621D01*
X225964833Y-150825980D01*
X226045417Y-150883842D01*
X226178867Y-150925709D01*
X226340125Y-150945712D01*
X226504129Y-150937986D01*
X226542779Y-150932403D01*
X226640439Y-150924830D01*
X226683003Y-150942657D01*
X226692333Y-150992181D01*
X226687872Y-151040979D01*
X226664111Y-151102821D01*
X226621730Y-151119385D01*
X226511557Y-151130370D01*
X226363730Y-151130000D01*
X226204405Y-151119407D01*
X226059733Y-151099728D01*
X225955869Y-151072097D01*
X225887486Y-151036665D01*
X225824999Y-150978993D01*
X225779741Y-150893399D01*
X225749096Y-150768553D01*
X225730446Y-150593128D01*
X225721176Y-150355795D01*
X225718667Y-150045226D01*
X225718667Y-149353043D01*
X225930333Y-149353043D01*
X225930333Y-149810618D01*
G37*
X210813220Y-151237893D02*
X210894248Y-151352195D01*
X210985754Y-151484296D01*
X211048220Y-151578269D01*
X211071333Y-151618893D01*
X211058318Y-151625904D01*
X210983399Y-151635343D01*
X210864065Y-151639043D01*
X210798214Y-151638281D01*
X210721266Y-151629338D01*
X210653087Y-151601476D01*
X210577050Y-151543944D01*
X210476530Y-151445991D01*
X210334898Y-151296863D01*
X210224054Y-151176649D01*
X210114731Y-151052260D01*
X210040415Y-150960639D01*
X210013000Y-150915863D01*
X210047343Y-150897009D01*
X210145105Y-150882569D01*
X210284053Y-150877043D01*
X210555106Y-150877043D01*
X210813220Y-151237893D01*
G36*
X210813220Y-151237893D02*
G01*
X210894248Y-151352195D01*
X210985754Y-151484296D01*
X211048220Y-151578269D01*
X211071333Y-151618893D01*
X211058318Y-151625904D01*
X210983399Y-151635343D01*
X210864065Y-151639043D01*
X210798214Y-151638281D01*
X210721266Y-151629338D01*
X210653087Y-151601476D01*
X210577050Y-151543944D01*
X210476530Y-151445991D01*
X210334898Y-151296863D01*
X210224054Y-151176649D01*
X210114731Y-151052260D01*
X210040415Y-150960639D01*
X210013000Y-150915863D01*
X210047343Y-150897009D01*
X210145105Y-150882569D01*
X210284053Y-150877043D01*
X210555106Y-150877043D01*
X210813220Y-151237893D01*
G37*
X213396014Y-150877911D02*
X213489205Y-150892774D01*
X213526667Y-150920226D01*
X213517791Y-150944040D01*
X213469013Y-151027807D01*
X213387198Y-151152174D01*
X213283250Y-151300126D01*
X213039833Y-151636843D01*
X212740772Y-151637943D01*
X212441710Y-151639043D01*
X212182521Y-151283599D01*
X212102893Y-151171357D01*
X212016070Y-151039755D01*
X211961610Y-150945072D01*
X211948889Y-150902599D01*
X211954533Y-150898753D01*
X212022867Y-150883305D01*
X212132475Y-150877043D01*
X212219417Y-150884278D01*
X212298078Y-150916265D01*
X212385361Y-150986852D01*
X212503301Y-151109876D01*
X212520472Y-151128587D01*
X212623221Y-151237166D01*
X212700956Y-151313729D01*
X212737986Y-151342710D01*
X212740950Y-151341715D01*
X212787095Y-151303585D01*
X212872073Y-151221238D01*
X212980078Y-151109876D01*
X212981995Y-151107850D01*
X213102243Y-150986550D01*
X213191033Y-150916681D01*
X213270674Y-150884694D01*
X213363474Y-150877043D01*
X213396014Y-150877911D01*
G36*
X213396014Y-150877911D02*
G01*
X213489205Y-150892774D01*
X213526667Y-150920226D01*
X213517791Y-150944040D01*
X213469013Y-151027807D01*
X213387198Y-151152174D01*
X213283250Y-151300126D01*
X213039833Y-151636843D01*
X212740772Y-151637943D01*
X212441710Y-151639043D01*
X212182521Y-151283599D01*
X212102893Y-151171357D01*
X212016070Y-151039755D01*
X211961610Y-150945072D01*
X211948889Y-150902599D01*
X211954533Y-150898753D01*
X212022867Y-150883305D01*
X212132475Y-150877043D01*
X212219417Y-150884278D01*
X212298078Y-150916265D01*
X212385361Y-150986852D01*
X212503301Y-151109876D01*
X212520472Y-151128587D01*
X212623221Y-151237166D01*
X212700956Y-151313729D01*
X212737986Y-151342710D01*
X212740950Y-151341715D01*
X212787095Y-151303585D01*
X212872073Y-151221238D01*
X212980078Y-151109876D01*
X212981995Y-151107850D01*
X213102243Y-150986550D01*
X213191033Y-150916681D01*
X213270674Y-150884694D01*
X213363474Y-150877043D01*
X213396014Y-150877911D01*
G37*
X209674333Y-154814043D02*
X209124000Y-154814043D01*
X209124000Y-153713376D01*
X208986415Y-153713376D01*
X208964230Y-153713947D01*
X208911254Y-153723822D01*
X208856905Y-153753504D01*
X208791412Y-153812663D01*
X208705004Y-153910970D01*
X208587910Y-154058096D01*
X208430360Y-154263710D01*
X208011891Y-154814043D01*
X207700112Y-154814043D01*
X207675324Y-154813972D01*
X207529805Y-154810367D01*
X207427181Y-154802394D01*
X207388333Y-154791558D01*
X207388970Y-154789581D01*
X207420663Y-154740718D01*
X207494589Y-154636670D01*
X207603032Y-154488026D01*
X207738278Y-154305380D01*
X207892611Y-154099321D01*
X208396888Y-153429569D01*
X207910018Y-152820513D01*
X207760312Y-152632887D01*
X207622145Y-152459013D01*
X207510762Y-152318091D01*
X207434887Y-152221158D01*
X207403242Y-152179251D01*
X207402664Y-152176525D01*
X207443461Y-152161728D01*
X207546555Y-152151533D01*
X207692752Y-152148011D01*
X208002167Y-152148979D01*
X208417311Y-152677178D01*
X208483501Y-152761225D01*
X208624405Y-152937411D01*
X208728147Y-153059782D01*
X208805030Y-153138050D01*
X208865355Y-153181929D01*
X208919427Y-153201133D01*
X208977547Y-153205376D01*
X209122639Y-153205376D01*
X209145167Y-150898210D01*
X209409750Y-150885606D01*
X209674333Y-150873003D01*
X209674333Y-154814043D01*
G36*
X209674333Y-154814043D02*
G01*
X209124000Y-154814043D01*
X209124000Y-153713376D01*
X208986415Y-153713376D01*
X208964230Y-153713947D01*
X208911254Y-153723822D01*
X208856905Y-153753504D01*
X208791412Y-153812663D01*
X208705004Y-153910970D01*
X208587910Y-154058096D01*
X208430360Y-154263710D01*
X208011891Y-154814043D01*
X207700112Y-154814043D01*
X207675324Y-154813972D01*
X207529805Y-154810367D01*
X207427181Y-154802394D01*
X207388333Y-154791558D01*
X207388970Y-154789581D01*
X207420663Y-154740718D01*
X207494589Y-154636670D01*
X207603032Y-154488026D01*
X207738278Y-154305380D01*
X207892611Y-154099321D01*
X208396888Y-153429569D01*
X207910018Y-152820513D01*
X207760312Y-152632887D01*
X207622145Y-152459013D01*
X207510762Y-152318091D01*
X207434887Y-152221158D01*
X207403242Y-152179251D01*
X207402664Y-152176525D01*
X207443461Y-152161728D01*
X207546555Y-152151533D01*
X207692752Y-152148011D01*
X208002167Y-152148979D01*
X208417311Y-152677178D01*
X208483501Y-152761225D01*
X208624405Y-152937411D01*
X208728147Y-153059782D01*
X208805030Y-153138050D01*
X208865355Y-153181929D01*
X208919427Y-153201133D01*
X208977547Y-153205376D01*
X209122639Y-153205376D01*
X209145167Y-150898210D01*
X209409750Y-150885606D01*
X209674333Y-150873003D01*
X209674333Y-154814043D01*
G37*
X211113667Y-154814043D02*
X210521000Y-154814043D01*
X210521000Y-152147043D01*
X211113667Y-152147043D01*
X211113667Y-154814043D01*
G36*
X211113667Y-154814043D02*
G01*
X210521000Y-154814043D01*
X210521000Y-152147043D01*
X211113667Y-152147043D01*
X211113667Y-154814043D01*
G37*
X216837102Y-152104711D02*
X217087177Y-152125486D01*
X217301065Y-152183167D01*
X217463321Y-152271764D01*
X217558501Y-152385285D01*
X217589591Y-152443545D01*
X217634719Y-152481080D01*
X217664553Y-152437952D01*
X217675333Y-152316376D01*
X217675333Y-152147043D01*
X218183333Y-152147043D01*
X218183333Y-154814043D01*
X217633000Y-154814043D01*
X217630611Y-153935626D01*
X217629758Y-153786237D01*
X217623968Y-153459251D01*
X217613173Y-153200408D01*
X217597654Y-153015180D01*
X217577694Y-152909043D01*
X217523784Y-152808569D01*
X217392323Y-152695505D01*
X217214840Y-152629048D01*
X217009280Y-152614924D01*
X216793587Y-152658858D01*
X216733110Y-152686908D01*
X216681132Y-152733949D01*
X216641749Y-152807667D01*
X216613281Y-152917719D01*
X216594045Y-153073766D01*
X216582357Y-153285466D01*
X216576538Y-153562477D01*
X216574903Y-153914460D01*
X216574667Y-154814043D01*
X216032625Y-154814043D01*
X216016847Y-153893293D01*
X216014182Y-153747618D01*
X216006029Y-153433976D01*
X215993641Y-153190955D01*
X215974248Y-153008491D01*
X215945079Y-152876519D01*
X215903365Y-152784972D01*
X215846334Y-152723786D01*
X215771215Y-152682895D01*
X215675239Y-152652235D01*
X215660526Y-152648461D01*
X215488230Y-152625413D01*
X215309630Y-152631889D01*
X215154266Y-152664654D01*
X215051676Y-152720478D01*
X215034162Y-152746177D01*
X215016821Y-152801051D01*
X215003383Y-152890961D01*
X214993136Y-153025832D01*
X214985371Y-153215590D01*
X214979378Y-153470163D01*
X214974445Y-153799475D01*
X214961723Y-154814043D01*
X214361800Y-154814043D01*
X214381795Y-153739620D01*
X214383962Y-153624434D01*
X214390289Y-153318252D01*
X214396867Y-153081290D01*
X214404808Y-152901866D01*
X214415228Y-152768301D01*
X214429240Y-152668916D01*
X214447960Y-152592030D01*
X214472501Y-152525964D01*
X214503978Y-152459037D01*
X214539803Y-152392414D01*
X214647120Y-152254022D01*
X214785117Y-152165604D01*
X214970506Y-152118915D01*
X215220000Y-152105705D01*
X215355019Y-152110695D01*
X215622289Y-152155880D01*
X215827482Y-152246246D01*
X215964517Y-152379556D01*
X216038300Y-152492164D01*
X216144221Y-152356822D01*
X216226801Y-152268387D01*
X216378227Y-152173410D01*
X216575453Y-152120873D01*
X216835108Y-152104710D01*
X216837102Y-152104711D01*
G36*
X216837102Y-152104711D02*
G01*
X217087177Y-152125486D01*
X217301065Y-152183167D01*
X217463321Y-152271764D01*
X217558501Y-152385285D01*
X217589591Y-152443545D01*
X217634719Y-152481080D01*
X217664553Y-152437952D01*
X217675333Y-152316376D01*
X217675333Y-152147043D01*
X218183333Y-152147043D01*
X218183333Y-154814043D01*
X217633000Y-154814043D01*
X217630611Y-153935626D01*
X217629758Y-153786237D01*
X217623968Y-153459251D01*
X217613173Y-153200408D01*
X217597654Y-153015180D01*
X217577694Y-152909043D01*
X217523784Y-152808569D01*
X217392323Y-152695505D01*
X217214840Y-152629048D01*
X217009280Y-152614924D01*
X216793587Y-152658858D01*
X216733110Y-152686908D01*
X216681132Y-152733949D01*
X216641749Y-152807667D01*
X216613281Y-152917719D01*
X216594045Y-153073766D01*
X216582357Y-153285466D01*
X216576538Y-153562477D01*
X216574903Y-153914460D01*
X216574667Y-154814043D01*
X216032625Y-154814043D01*
X216016847Y-153893293D01*
X216014182Y-153747618D01*
X216006029Y-153433976D01*
X215993641Y-153190955D01*
X215974248Y-153008491D01*
X215945079Y-152876519D01*
X215903365Y-152784972D01*
X215846334Y-152723786D01*
X215771215Y-152682895D01*
X215675239Y-152652235D01*
X215660526Y-152648461D01*
X215488230Y-152625413D01*
X215309630Y-152631889D01*
X215154266Y-152664654D01*
X215051676Y-152720478D01*
X215034162Y-152746177D01*
X215016821Y-152801051D01*
X215003383Y-152890961D01*
X214993136Y-153025832D01*
X214985371Y-153215590D01*
X214979378Y-153470163D01*
X214974445Y-153799475D01*
X214961723Y-154814043D01*
X214361800Y-154814043D01*
X214381795Y-153739620D01*
X214383962Y-153624434D01*
X214390289Y-153318252D01*
X214396867Y-153081290D01*
X214404808Y-152901866D01*
X214415228Y-152768301D01*
X214429240Y-152668916D01*
X214447960Y-152592030D01*
X214472501Y-152525964D01*
X214503978Y-152459037D01*
X214539803Y-152392414D01*
X214647120Y-152254022D01*
X214785117Y-152165604D01*
X214970506Y-152118915D01*
X215220000Y-152105705D01*
X215355019Y-152110695D01*
X215622289Y-152155880D01*
X215827482Y-152246246D01*
X215964517Y-152379556D01*
X216038300Y-152492164D01*
X216144221Y-152356822D01*
X216226801Y-152268387D01*
X216378227Y-152173410D01*
X216575453Y-152120873D01*
X216835108Y-152104710D01*
X216837102Y-152104711D01*
G37*
X227733573Y-153417043D02*
X227782173Y-153552757D01*
X227897728Y-153876190D01*
X227999467Y-154161739D01*
X228084420Y-154401046D01*
X228149616Y-154585757D01*
X228192084Y-154707515D01*
X228208854Y-154757964D01*
X228209569Y-154769634D01*
X228178941Y-154795973D01*
X228089067Y-154809942D01*
X227927399Y-154814043D01*
X227632257Y-154814043D01*
X227514816Y-154485960D01*
X227501304Y-154448209D01*
X227442606Y-154284173D01*
X227393477Y-154146805D01*
X227363402Y-154062626D01*
X227358883Y-154050321D01*
X227342720Y-154019942D01*
X227313312Y-153998065D01*
X227258757Y-153983295D01*
X227167150Y-153974237D01*
X227026588Y-153969495D01*
X226825167Y-153967673D01*
X226550982Y-153967376D01*
X225772536Y-153967376D01*
X225477778Y-154792876D01*
X225174889Y-154805314D01*
X225157168Y-154805989D01*
X225012824Y-154807119D01*
X224910727Y-154800261D01*
X224872000Y-154786711D01*
X224880462Y-154758153D01*
X224914711Y-154656800D01*
X224972590Y-154490264D01*
X225051224Y-154266679D01*
X225147739Y-153994179D01*
X225259262Y-153680897D01*
X225353580Y-153417043D01*
X225966961Y-153417043D01*
X227155905Y-153417043D01*
X227110877Y-153300626D01*
X227095788Y-153260365D01*
X227052081Y-153140545D01*
X226989723Y-152967566D01*
X226914643Y-152757905D01*
X226832775Y-152528043D01*
X226777752Y-152374704D01*
X226702392Y-152169993D01*
X226638550Y-152002788D01*
X226591669Y-151887240D01*
X226567190Y-151837499D01*
X226549669Y-151858269D01*
X226507817Y-151945273D01*
X226447739Y-152086823D01*
X226374650Y-152269352D01*
X226293766Y-152479291D01*
X226210303Y-152703072D01*
X226129477Y-152927128D01*
X226056503Y-153137891D01*
X225996597Y-153321793D01*
X225966961Y-153417043D01*
X225353580Y-153417043D01*
X225382919Y-153334967D01*
X225515836Y-152964523D01*
X226159672Y-151173376D01*
X226928264Y-151173376D01*
X227561715Y-152937630D01*
X227655774Y-153199795D01*
X227733573Y-153417043D01*
G36*
X227733573Y-153417043D02*
G01*
X227782173Y-153552757D01*
X227897728Y-153876190D01*
X227999467Y-154161739D01*
X228084420Y-154401046D01*
X228149616Y-154585757D01*
X228192084Y-154707515D01*
X228208854Y-154757964D01*
X228209569Y-154769634D01*
X228178941Y-154795973D01*
X228089067Y-154809942D01*
X227927399Y-154814043D01*
X227632257Y-154814043D01*
X227514816Y-154485960D01*
X227501304Y-154448209D01*
X227442606Y-154284173D01*
X227393477Y-154146805D01*
X227363402Y-154062626D01*
X227358883Y-154050321D01*
X227342720Y-154019942D01*
X227313312Y-153998065D01*
X227258757Y-153983295D01*
X227167150Y-153974237D01*
X227026588Y-153969495D01*
X226825167Y-153967673D01*
X226550982Y-153967376D01*
X225772536Y-153967376D01*
X225477778Y-154792876D01*
X225174889Y-154805314D01*
X225157168Y-154805989D01*
X225012824Y-154807119D01*
X224910727Y-154800261D01*
X224872000Y-154786711D01*
X224880462Y-154758153D01*
X224914711Y-154656800D01*
X224972590Y-154490264D01*
X225051224Y-154266679D01*
X225147739Y-153994179D01*
X225259262Y-153680897D01*
X225353580Y-153417043D01*
X225966961Y-153417043D01*
X227155905Y-153417043D01*
X227110877Y-153300626D01*
X227095788Y-153260365D01*
X227052081Y-153140545D01*
X226989723Y-152967566D01*
X226914643Y-152757905D01*
X226832775Y-152528043D01*
X226777752Y-152374704D01*
X226702392Y-152169993D01*
X226638550Y-152002788D01*
X226591669Y-151887240D01*
X226567190Y-151837499D01*
X226549669Y-151858269D01*
X226507817Y-151945273D01*
X226447739Y-152086823D01*
X226374650Y-152269352D01*
X226293766Y-152479291D01*
X226210303Y-152703072D01*
X226129477Y-152927128D01*
X226056503Y-153137891D01*
X225996597Y-153321793D01*
X225966961Y-153417043D01*
X225353580Y-153417043D01*
X225382919Y-153334967D01*
X225515836Y-152964523D01*
X226159672Y-151173376D01*
X226928264Y-151173376D01*
X227561715Y-152937630D01*
X227655774Y-153199795D01*
X227733573Y-153417043D01*
G37*
X212716571Y-152113916D02*
X212906457Y-152129194D01*
X213038879Y-152151927D01*
X213156979Y-152200553D01*
X213334500Y-152330671D01*
X213481284Y-152504953D01*
X213573401Y-152698911D01*
X213593738Y-152803363D01*
X213612177Y-152989858D01*
X213623640Y-153221216D01*
X213628102Y-153475899D01*
X213625534Y-153732368D01*
X213615911Y-153969087D01*
X213599206Y-154164516D01*
X213575391Y-154297117D01*
X213483829Y-154500199D01*
X213326772Y-154678148D01*
X213124500Y-154792791D01*
X213051615Y-154810472D01*
X212890534Y-154830731D01*
X212685187Y-154844167D01*
X212459358Y-154850266D01*
X212236833Y-154848511D01*
X212041397Y-154838389D01*
X211896833Y-154819384D01*
X211841570Y-154805169D01*
X211791996Y-154771930D01*
X211768415Y-154702478D01*
X211757114Y-154572593D01*
X211744395Y-154352777D01*
X212243947Y-154360175D01*
X212353709Y-154361135D01*
X212589199Y-154356238D01*
X212749853Y-154340115D01*
X212842334Y-154312233D01*
X212850436Y-154307559D01*
X212934211Y-154235419D01*
X212994166Y-154126126D01*
X213033289Y-153968010D01*
X213054571Y-153749403D01*
X213061000Y-153458634D01*
X213060998Y-153452319D01*
X213054797Y-153174836D01*
X213034595Y-152968998D01*
X212997341Y-152822729D01*
X212939985Y-152723949D01*
X212859479Y-152660581D01*
X212814807Y-152641886D01*
X212663909Y-152608176D01*
X212468697Y-152589236D01*
X212256734Y-152587023D01*
X212055583Y-152603495D01*
X211791000Y-152641030D01*
X211791000Y-152158121D01*
X211949750Y-152131881D01*
X212071296Y-152117770D01*
X212272074Y-152107709D01*
X212496138Y-152106589D01*
X212716571Y-152113916D01*
G36*
X212716571Y-152113916D02*
G01*
X212906457Y-152129194D01*
X213038879Y-152151927D01*
X213156979Y-152200553D01*
X213334500Y-152330671D01*
X213481284Y-152504953D01*
X213573401Y-152698911D01*
X213593738Y-152803363D01*
X213612177Y-152989858D01*
X213623640Y-153221216D01*
X213628102Y-153475899D01*
X213625534Y-153732368D01*
X213615911Y-153969087D01*
X213599206Y-154164516D01*
X213575391Y-154297117D01*
X213483829Y-154500199D01*
X213326772Y-154678148D01*
X213124500Y-154792791D01*
X213051615Y-154810472D01*
X212890534Y-154830731D01*
X212685187Y-154844167D01*
X212459358Y-154850266D01*
X212236833Y-154848511D01*
X212041397Y-154838389D01*
X211896833Y-154819384D01*
X211841570Y-154805169D01*
X211791996Y-154771930D01*
X211768415Y-154702478D01*
X211757114Y-154572593D01*
X211744395Y-154352777D01*
X212243947Y-154360175D01*
X212353709Y-154361135D01*
X212589199Y-154356238D01*
X212749853Y-154340115D01*
X212842334Y-154312233D01*
X212850436Y-154307559D01*
X212934211Y-154235419D01*
X212994166Y-154126126D01*
X213033289Y-153968010D01*
X213054571Y-153749403D01*
X213061000Y-153458634D01*
X213060998Y-153452319D01*
X213054797Y-153174836D01*
X213034595Y-152968998D01*
X212997341Y-152822729D01*
X212939985Y-152723949D01*
X212859479Y-152660581D01*
X212814807Y-152641886D01*
X212663909Y-152608176D01*
X212468697Y-152589236D01*
X212256734Y-152587023D01*
X212055583Y-152603495D01*
X211791000Y-152641030D01*
X211791000Y-152158121D01*
X211949750Y-152131881D01*
X212071296Y-152117770D01*
X212272074Y-152107709D01*
X212496138Y-152106589D01*
X212716571Y-152113916D01*
G37*
X221333244Y-154113380D02*
X221332560Y-154168375D01*
X221308224Y-154395706D01*
X221248969Y-154563056D01*
X221147995Y-154685112D01*
X220998500Y-154776559D01*
X220843214Y-154822291D01*
X220634888Y-154849198D01*
X220404115Y-154856179D01*
X220181079Y-154842327D01*
X219995962Y-154806733D01*
X219969050Y-154797457D01*
X219828464Y-154721100D01*
X219708630Y-154618552D01*
X219586992Y-154480014D01*
X219558775Y-154647028D01*
X219530558Y-154814043D01*
X219030000Y-154814043D01*
X219030000Y-153863627D01*
X219030243Y-153764115D01*
X219030760Y-153720157D01*
X219590804Y-153720157D01*
X219592121Y-153838867D01*
X219623141Y-153982333D01*
X219677510Y-154123244D01*
X219748872Y-154234289D01*
X219791560Y-154279752D01*
X219851681Y-154326275D01*
X219927777Y-154353297D01*
X220042740Y-154367736D01*
X220219466Y-154376512D01*
X220360259Y-154379470D01*
X220548010Y-154368574D01*
X220673325Y-154333216D01*
X220749235Y-154268674D01*
X220788770Y-154170225D01*
X220797914Y-154113380D01*
X220795445Y-153951894D01*
X220758749Y-153805271D01*
X220694660Y-153707146D01*
X220638239Y-153685189D01*
X220514485Y-153663370D01*
X220348081Y-153646187D01*
X220160149Y-153634538D01*
X219971808Y-153629321D01*
X219804177Y-153631435D01*
X219678378Y-153641777D01*
X219615529Y-153661247D01*
X219590804Y-153720157D01*
X219030760Y-153720157D01*
X219033634Y-153475654D01*
X219040536Y-153209162D01*
X219050329Y-152980311D01*
X219062392Y-152804774D01*
X219076106Y-152698224D01*
X219105578Y-152585986D01*
X219181106Y-152419790D01*
X219293703Y-152294034D01*
X219452485Y-152204305D01*
X219666568Y-152146190D01*
X219945068Y-152115275D01*
X220297100Y-152107149D01*
X220512288Y-152110333D01*
X220719815Y-152117511D01*
X220889727Y-152127573D01*
X220998500Y-152139436D01*
X221167833Y-152169283D01*
X221180557Y-152388912D01*
X221193280Y-152608540D01*
X220545557Y-152601123D01*
X220434091Y-152600350D01*
X220210360Y-152601911D01*
X220018883Y-152607322D01*
X219877121Y-152615970D01*
X219802539Y-152627241D01*
X219751643Y-152650596D01*
X219680701Y-152720308D01*
X219632829Y-152839188D01*
X219598981Y-153024912D01*
X219570436Y-153240094D01*
X220242135Y-153254939D01*
X220304177Y-153256377D01*
X220560082Y-153264574D01*
X220748464Y-153275879D01*
X220883547Y-153291860D01*
X220979551Y-153314088D01*
X221050700Y-153344130D01*
X221082323Y-153362443D01*
X221199546Y-153462877D01*
X221276729Y-153601697D01*
X221319631Y-153793290D01*
X221334008Y-154052043D01*
X221333244Y-154113380D01*
G36*
X221333244Y-154113380D02*
G01*
X221332560Y-154168375D01*
X221308224Y-154395706D01*
X221248969Y-154563056D01*
X221147995Y-154685112D01*
X220998500Y-154776559D01*
X220843214Y-154822291D01*
X220634888Y-154849198D01*
X220404115Y-154856179D01*
X220181079Y-154842327D01*
X219995962Y-154806733D01*
X219969050Y-154797457D01*
X219828464Y-154721100D01*
X219708630Y-154618552D01*
X219586992Y-154480014D01*
X219558775Y-154647028D01*
X219530558Y-154814043D01*
X219030000Y-154814043D01*
X219030000Y-153863627D01*
X219030243Y-153764115D01*
X219030760Y-153720157D01*
X219590804Y-153720157D01*
X219592121Y-153838867D01*
X219623141Y-153982333D01*
X219677510Y-154123244D01*
X219748872Y-154234289D01*
X219791560Y-154279752D01*
X219851681Y-154326275D01*
X219927777Y-154353297D01*
X220042740Y-154367736D01*
X220219466Y-154376512D01*
X220360259Y-154379470D01*
X220548010Y-154368574D01*
X220673325Y-154333216D01*
X220749235Y-154268674D01*
X220788770Y-154170225D01*
X220797914Y-154113380D01*
X220795445Y-153951894D01*
X220758749Y-153805271D01*
X220694660Y-153707146D01*
X220638239Y-153685189D01*
X220514485Y-153663370D01*
X220348081Y-153646187D01*
X220160149Y-153634538D01*
X219971808Y-153629321D01*
X219804177Y-153631435D01*
X219678378Y-153641777D01*
X219615529Y-153661247D01*
X219590804Y-153720157D01*
X219030760Y-153720157D01*
X219033634Y-153475654D01*
X219040536Y-153209162D01*
X219050329Y-152980311D01*
X219062392Y-152804774D01*
X219076106Y-152698224D01*
X219105578Y-152585986D01*
X219181106Y-152419790D01*
X219293703Y-152294034D01*
X219452485Y-152204305D01*
X219666568Y-152146190D01*
X219945068Y-152115275D01*
X220297100Y-152107149D01*
X220512288Y-152110333D01*
X220719815Y-152117511D01*
X220889727Y-152127573D01*
X220998500Y-152139436D01*
X221167833Y-152169283D01*
X221180557Y-152388912D01*
X221193280Y-152608540D01*
X220545557Y-152601123D01*
X220434091Y-152600350D01*
X220210360Y-152601911D01*
X220018883Y-152607322D01*
X219877121Y-152615970D01*
X219802539Y-152627241D01*
X219751643Y-152650596D01*
X219680701Y-152720308D01*
X219632829Y-152839188D01*
X219598981Y-153024912D01*
X219570436Y-153240094D01*
X220242135Y-153254939D01*
X220304177Y-153256377D01*
X220560082Y-153264574D01*
X220748464Y-153275879D01*
X220883547Y-153291860D01*
X220979551Y-153314088D01*
X221050700Y-153344130D01*
X221082323Y-153362443D01*
X221199546Y-153462877D01*
X221276729Y-153601697D01*
X221319631Y-153793290D01*
X221334008Y-154052043D01*
X221333244Y-154113380D01*
G37*
X224401421Y-153324424D02*
X224397699Y-153683917D01*
X224396247Y-153720846D01*
X224385073Y-153943978D01*
X224369973Y-154106785D01*
X224347190Y-154230643D01*
X224312966Y-154336927D01*
X224263542Y-154447013D01*
X224187350Y-154583829D01*
X224094229Y-154690332D01*
X223971165Y-154767872D01*
X223851940Y-154815488D01*
X223689329Y-154846959D01*
X223475000Y-154856107D01*
X223429120Y-154855843D01*
X223175919Y-154841663D01*
X222984985Y-154802041D01*
X222838845Y-154731628D01*
X222720028Y-154625079D01*
X222647463Y-154552125D01*
X222586091Y-154527021D01*
X222553346Y-154579293D01*
X222543667Y-154711672D01*
X222543667Y-154712394D01*
X222537675Y-154768862D01*
X222506574Y-154799295D01*
X222430519Y-154811689D01*
X222289667Y-154814043D01*
X222035667Y-154814043D01*
X222035667Y-153474926D01*
X222607167Y-153474926D01*
X222609834Y-153682761D01*
X222624237Y-153894356D01*
X222655802Y-154046545D01*
X222709726Y-154153501D01*
X222791204Y-154229400D01*
X222905433Y-154288412D01*
X222991424Y-154314819D01*
X223177538Y-154339919D01*
X223379415Y-154339264D01*
X223555851Y-154311399D01*
X223648035Y-154269066D01*
X223742251Y-154163339D01*
X223804857Y-153993905D01*
X223840408Y-153751807D01*
X223849569Y-153610001D01*
X223850415Y-153324424D01*
X223827015Y-153077603D01*
X223781213Y-152884144D01*
X223714857Y-152758654D01*
X223661470Y-152714431D01*
X223515505Y-152653853D01*
X223330207Y-152622626D01*
X223132641Y-152624174D01*
X222949877Y-152661919D01*
X222837631Y-152707776D01*
X222739004Y-152776346D01*
X222672517Y-152873414D01*
X222632296Y-153012913D01*
X222612470Y-153208773D01*
X222607167Y-153474926D01*
X222035667Y-153474926D01*
X222035667Y-150877043D01*
X222586000Y-150877043D01*
X222586000Y-152459985D01*
X222723583Y-152328501D01*
X222842540Y-152235255D01*
X223026693Y-152153358D01*
X223257451Y-152113208D01*
X223550379Y-152110702D01*
X223629030Y-152114942D01*
X223802233Y-152133140D01*
X223922183Y-152164639D01*
X224011892Y-152214619D01*
X224123812Y-152314137D01*
X224242210Y-152479866D01*
X224326448Y-152690758D01*
X224378875Y-152955763D01*
X224401842Y-153283833D01*
X224401421Y-153324424D01*
G36*
X224401421Y-153324424D02*
G01*
X224397699Y-153683917D01*
X224396247Y-153720846D01*
X224385073Y-153943978D01*
X224369973Y-154106785D01*
X224347190Y-154230643D01*
X224312966Y-154336927D01*
X224263542Y-154447013D01*
X224187350Y-154583829D01*
X224094229Y-154690332D01*
X223971165Y-154767872D01*
X223851940Y-154815488D01*
X223689329Y-154846959D01*
X223475000Y-154856107D01*
X223429120Y-154855843D01*
X223175919Y-154841663D01*
X222984985Y-154802041D01*
X222838845Y-154731628D01*
X222720028Y-154625079D01*
X222647463Y-154552125D01*
X222586091Y-154527021D01*
X222553346Y-154579293D01*
X222543667Y-154711672D01*
X222543667Y-154712394D01*
X222537675Y-154768862D01*
X222506574Y-154799295D01*
X222430519Y-154811689D01*
X222289667Y-154814043D01*
X222035667Y-154814043D01*
X222035667Y-153474926D01*
X222607167Y-153474926D01*
X222609834Y-153682761D01*
X222624237Y-153894356D01*
X222655802Y-154046545D01*
X222709726Y-154153501D01*
X222791204Y-154229400D01*
X222905433Y-154288412D01*
X222991424Y-154314819D01*
X223177538Y-154339919D01*
X223379415Y-154339264D01*
X223555851Y-154311399D01*
X223648035Y-154269066D01*
X223742251Y-154163339D01*
X223804857Y-153993905D01*
X223840408Y-153751807D01*
X223849569Y-153610001D01*
X223850415Y-153324424D01*
X223827015Y-153077603D01*
X223781213Y-152884144D01*
X223714857Y-152758654D01*
X223661470Y-152714431D01*
X223515505Y-152653853D01*
X223330207Y-152622626D01*
X223132641Y-152624174D01*
X222949877Y-152661919D01*
X222837631Y-152707776D01*
X222739004Y-152776346D01*
X222672517Y-152873414D01*
X222632296Y-153012913D01*
X222612470Y-153208773D01*
X222607167Y-153474926D01*
X222035667Y-153474926D01*
X222035667Y-150877043D01*
X222586000Y-150877043D01*
X222586000Y-152459985D01*
X222723583Y-152328501D01*
X222842540Y-152235255D01*
X223026693Y-152153358D01*
X223257451Y-152113208D01*
X223550379Y-152110702D01*
X223629030Y-152114942D01*
X223802233Y-152133140D01*
X223922183Y-152164639D01*
X224011892Y-152214619D01*
X224123812Y-152314137D01*
X224242210Y-152479866D01*
X224326448Y-152690758D01*
X224378875Y-152955763D01*
X224401842Y-153283833D01*
X224401421Y-153324424D01*
G37*
%TD*%
D11*
%TO.C,H8*%
X231760000Y-147000000D03*
%TD*%
%TO.C,H7*%
X203760000Y-147000000D03*
%TD*%
%TO.C,H6*%
X232760000Y-99000000D03*
%TD*%
%TO.C,H5*%
X202760000Y-99000000D03*
%TD*%
D12*
%TO.C,H4*%
X325760000Y-122000000D03*
%TD*%
%TO.C,H3*%
X109760000Y-122000000D03*
%TD*%
%TO.C,H2*%
X315760000Y-47000000D03*
%TD*%
%TO.C,H1*%
X119760000Y-47000000D03*
%TD*%
D13*
%TO.C,SW7*%
X108459420Y-91020233D03*
D14*
X107971811Y-94771865D03*
D15*
X113772012Y-92443738D03*
D14*
X112232039Y-98190997D03*
D16*
X119901185Y-89737885D03*
D13*
X119084604Y-93867243D03*
D17*
X115395446Y-99038629D03*
X104808404Y-93924232D03*
%TD*%
D13*
%TO.C,SW10*%
X137234123Y-53178240D03*
D14*
X136746514Y-56929872D03*
D15*
X142546715Y-54601745D03*
D14*
X141006742Y-60349004D03*
D16*
X148675888Y-51895892D03*
D13*
X147859307Y-56025250D03*
D17*
X144170149Y-61196636D03*
X133583107Y-56082239D03*
%TD*%
D13*
%TO.C,SW37*%
X261772133Y-98163533D03*
D14*
X263225667Y-101656345D03*
D15*
X267084725Y-96740028D03*
D14*
X268624698Y-102487287D03*
D16*
X271039818Y-91332104D03*
D13*
X272397317Y-95316523D03*
D18*
X271788105Y-101639654D03*
X260062260Y-102503977D03*
%TD*%
D13*
%TO.C,SW17*%
X146467988Y-88263646D03*
D14*
X145980379Y-92015278D03*
D15*
X151780580Y-89687151D03*
D14*
X150240607Y-95434410D03*
D16*
X157909753Y-86981298D03*
D13*
X157093172Y-91110656D03*
D17*
X153404014Y-96282042D03*
X142816972Y-91167645D03*
%TD*%
D13*
%TO.C,SW47*%
X296545462Y-88846048D03*
D14*
X297998996Y-92338860D03*
D15*
X301858054Y-87422543D03*
D14*
X303398027Y-93169802D03*
D16*
X305813147Y-82014619D03*
D13*
X307170646Y-85999038D03*
D18*
X306561434Y-92322169D03*
X294835589Y-93186492D03*
%TD*%
D13*
%TO.C,SW58*%
X338306906Y-105608560D03*
D14*
X339760440Y-109101372D03*
D15*
X343619498Y-104185055D03*
D14*
X345159471Y-109932314D03*
D16*
X347574591Y-98777131D03*
D13*
X348932090Y-102761550D03*
D18*
X348322878Y-109084681D03*
X336597033Y-109949004D03*
%TD*%
D13*
%TO.C,SW41*%
X274111826Y-74669237D03*
D14*
X275565360Y-78162049D03*
D15*
X279424418Y-73245732D03*
D14*
X280964391Y-78992991D03*
D16*
X283379511Y-67837808D03*
D13*
X284737010Y-71822227D03*
D18*
X284127798Y-78145358D03*
X272401953Y-79009681D03*
%TD*%
D13*
%TO.C,SW18*%
X142068064Y-104684385D03*
D14*
X141580455Y-108436017D03*
D15*
X147380656Y-106107890D03*
D14*
X145840683Y-111855149D03*
D16*
X153509829Y-103402037D03*
D13*
X152693248Y-107531395D03*
D17*
X149004090Y-112702781D03*
X138417048Y-107588384D03*
%TD*%
D13*
%TO.C,SW52*%
X316520318Y-93846563D03*
D14*
X317973852Y-97339375D03*
D15*
X321832910Y-92423058D03*
D14*
X323372883Y-98170317D03*
D16*
X325788003Y-87015134D03*
D13*
X327145502Y-90999553D03*
D18*
X326536290Y-97322684D03*
X314810445Y-98187007D03*
%TD*%
D13*
%TO.C,SW57*%
X333906983Y-89187820D03*
D14*
X335360517Y-92680632D03*
D15*
X339219575Y-87764315D03*
D14*
X340759548Y-93511574D03*
D16*
X343174668Y-82356391D03*
D13*
X344532167Y-86340810D03*
D18*
X343922955Y-92663941D03*
X332197110Y-93528264D03*
%TD*%
D13*
%TO.C,SW15*%
X155267836Y-55422168D03*
D14*
X154780227Y-59173800D03*
D15*
X160580428Y-56845673D03*
D14*
X159040455Y-62592932D03*
D16*
X166709601Y-54139820D03*
D13*
X165893020Y-58269178D03*
D17*
X162203862Y-63440564D03*
X151616820Y-58326167D03*
%TD*%
D13*
%TO.C,SW22*%
X163207606Y-95337204D03*
D14*
X162719997Y-99088836D03*
D15*
X168520198Y-96760709D03*
D14*
X166980225Y-102507968D03*
D16*
X174649371Y-94054856D03*
D13*
X173832790Y-98184214D03*
D17*
X170143632Y-103355600D03*
X159556590Y-98241203D03*
%TD*%
D13*
%TO.C,SW4*%
X86672832Y-102782230D03*
D14*
X86185223Y-106533862D03*
D15*
X91985424Y-104205735D03*
D14*
X90445451Y-109952994D03*
D16*
X98114597Y-101499882D03*
D13*
X97298016Y-105629240D03*
D17*
X93608858Y-110800626D03*
X83021816Y-105686229D03*
%TD*%
D13*
%TO.C,SW49*%
X287311597Y-123931454D03*
D14*
X288765131Y-127424266D03*
D15*
X292624189Y-122507949D03*
D14*
X294164162Y-128255208D03*
D16*
X296579282Y-117100025D03*
D13*
X297936781Y-121084444D03*
D18*
X297327569Y-127407575D03*
X285601724Y-128271898D03*
%TD*%
D13*
%TO.C,SW43*%
X282911674Y-107510715D03*
D14*
X284365208Y-111003527D03*
D15*
X288224266Y-106087210D03*
D14*
X289764239Y-111834469D03*
D16*
X292179359Y-100679286D03*
D13*
X293536858Y-104663705D03*
D18*
X292927646Y-110986836D03*
X281201801Y-111851159D03*
%TD*%
D13*
%TO.C,SW45*%
X287745615Y-56004570D03*
D14*
X289199149Y-59497382D03*
D15*
X293058207Y-54581065D03*
D14*
X294598180Y-60328324D03*
D16*
X297013300Y-49173141D03*
D13*
X298370799Y-53157560D03*
D18*
X297761587Y-59480691D03*
X286035742Y-60345014D03*
%TD*%
D13*
%TO.C,SW44*%
X270571980Y-131005012D03*
D14*
X272025514Y-134497824D03*
D15*
X275884572Y-129581507D03*
D14*
X277424545Y-135328766D03*
D16*
X279839665Y-124173583D03*
D13*
X281197164Y-128158002D03*
D18*
X280587952Y-134481133D03*
X268862107Y-135345456D03*
%TD*%
D13*
%TO.C,SW23*%
X158807682Y-111757943D03*
D14*
X158320073Y-115509575D03*
D15*
X164120274Y-113181448D03*
D14*
X162580301Y-118928707D03*
D16*
X170249447Y-110475595D03*
D13*
X169432866Y-114604953D03*
D17*
X165743708Y-119776339D03*
X155156666Y-114661942D03*
%TD*%
D13*
%TO.C,SW42*%
X278511750Y-91089976D03*
D14*
X279965284Y-94582788D03*
D15*
X283824342Y-89666471D03*
D14*
X285364315Y-95413730D03*
D16*
X287779435Y-84258547D03*
D13*
X289136934Y-88242966D03*
D18*
X288527722Y-94566097D03*
X276801877Y-95430420D03*
%TD*%
D13*
%TO.C,SW28*%
X175547299Y-118831500D03*
D14*
X175059690Y-122583132D03*
D15*
X180859891Y-120255005D03*
D14*
X179319918Y-126002264D03*
D16*
X186989064Y-117549152D03*
D13*
X186172483Y-121678510D03*
D17*
X182483325Y-126849896D03*
X171896283Y-121735499D03*
%TD*%
D13*
%TO.C,SW34*%
X238347258Y-157332469D03*
D14*
X241352462Y-159630566D03*
D15*
X242236345Y-153443382D03*
D14*
X246443630Y-157650667D03*
D16*
X242957594Y-146782436D03*
D13*
X246125432Y-149554295D03*
D19*
X248759405Y-155334893D03*
X239036687Y-161946341D03*
%TD*%
D20*
%TO.C,J1*%
X213310000Y-97770000D03*
D21*
X215850000Y-97770000D03*
X218390000Y-97770000D03*
X220930000Y-97770000D03*
X223470000Y-97770000D03*
%TD*%
D13*
%TO.C,SW33*%
X249432439Y-121657830D03*
D14*
X250885973Y-125150642D03*
D15*
X254745031Y-120234325D03*
D14*
X256285004Y-125981584D03*
D16*
X258700124Y-114826401D03*
D13*
X260057623Y-118810820D03*
D18*
X259448411Y-125133951D03*
X247722566Y-125998274D03*
%TD*%
D13*
%TO.C,SW36*%
X257372209Y-81742794D03*
D14*
X258825743Y-85235606D03*
D15*
X262684801Y-80319289D03*
D14*
X264224774Y-86066548D03*
D16*
X266639894Y-74911365D03*
D13*
X267997393Y-78895784D03*
D18*
X267388181Y-85218915D03*
X255662336Y-86083238D03*
%TD*%
D13*
%TO.C,SW48*%
X300945386Y-105266787D03*
D14*
X302398920Y-108759599D03*
D15*
X306257978Y-103843282D03*
D14*
X307797951Y-109590541D03*
D16*
X310213071Y-98435358D03*
D13*
X311570570Y-102419777D03*
D18*
X310961358Y-108742908D03*
X299235513Y-109607231D03*
%TD*%
D13*
%TO.C,SW27*%
X179947223Y-102410761D03*
D14*
X179459614Y-106162393D03*
D15*
X185259815Y-103834266D03*
D14*
X183719842Y-109581525D03*
D16*
X191388988Y-101128413D03*
D13*
X190572407Y-105257771D03*
D17*
X186883249Y-110429157D03*
X176296207Y-105314760D03*
%TD*%
D13*
%TO.C,SW1*%
X99872603Y-53520012D03*
D14*
X99384994Y-57271644D03*
D15*
X105185195Y-54943517D03*
D14*
X103645222Y-60690776D03*
D16*
X111314368Y-52237664D03*
D13*
X110497787Y-56367022D03*
D17*
X106808629Y-61538408D03*
X96221587Y-56424011D03*
%TD*%
D13*
%TO.C,SW35*%
X252972285Y-65322055D03*
D14*
X254425819Y-68814867D03*
D15*
X258284877Y-63898550D03*
D14*
X259824850Y-69645809D03*
D16*
X262239970Y-58490626D03*
D13*
X263597469Y-62475045D03*
D18*
X262988257Y-68798176D03*
X251262412Y-69662499D03*
%TD*%
D13*
%TO.C,SW38*%
X266172056Y-114584273D03*
D14*
X267625590Y-118077085D03*
D15*
X271484648Y-113160768D03*
D14*
X273024621Y-118908027D03*
D16*
X275439741Y-107752844D03*
D13*
X276797240Y-111737263D03*
D18*
X276188028Y-118060394D03*
X264462183Y-118924717D03*
%TD*%
D13*
%TO.C,SW5*%
X117259268Y-58178755D03*
D14*
X116771659Y-61930387D03*
D15*
X122571860Y-59602260D03*
D14*
X121031887Y-65349519D03*
D16*
X128701033Y-56896407D03*
D13*
X127884452Y-61025765D03*
D17*
X124195294Y-66197151D03*
X113608252Y-61082754D03*
%TD*%
D13*
%TO.C,SW12*%
X128434276Y-86019718D03*
D14*
X127946667Y-89771350D03*
D15*
X133746868Y-87443223D03*
D14*
X132206895Y-93190482D03*
D16*
X139876041Y-84737370D03*
D13*
X139059460Y-88866728D03*
D17*
X135370302Y-94038114D03*
X124783260Y-88923717D03*
%TD*%
D13*
%TO.C,SW50*%
X307720470Y-61005085D03*
D14*
X309174004Y-64497897D03*
D15*
X313033062Y-59581580D03*
D14*
X314573035Y-65328839D03*
D16*
X316988155Y-54173656D03*
D13*
X318345654Y-58158075D03*
D18*
X317736442Y-64481206D03*
X306010597Y-65345529D03*
%TD*%
D13*
%TO.C,SW16*%
X150867912Y-71842907D03*
D14*
X150380303Y-75594539D03*
D15*
X156180504Y-73266412D03*
D14*
X154640531Y-79013671D03*
D16*
X162309677Y-70560559D03*
D13*
X161493096Y-74689917D03*
D17*
X157803938Y-79861303D03*
X147216896Y-74746906D03*
%TD*%
D13*
%TO.C,SW32*%
X245032515Y-105237091D03*
D14*
X246486049Y-108729903D03*
D15*
X250345107Y-103813586D03*
D14*
X251885080Y-109560845D03*
D16*
X254300200Y-98405662D03*
D13*
X255657699Y-102390081D03*
D18*
X255048487Y-108713212D03*
X243322642Y-109577535D03*
%TD*%
D13*
%TO.C,SW8*%
X104059497Y-107440972D03*
D14*
X103571888Y-111192604D03*
D15*
X109372089Y-108864477D03*
D14*
X107832116Y-114611736D03*
D16*
X115501262Y-106158624D03*
D13*
X114684681Y-110287982D03*
D17*
X110995523Y-115459368D03*
X100408481Y-110344971D03*
%TD*%
D13*
%TO.C,SW40*%
X269711902Y-58248498D03*
D14*
X271165436Y-61741310D03*
D15*
X275024494Y-56824993D03*
D14*
X276564467Y-62572252D03*
D16*
X278979587Y-51417069D03*
D13*
X280337086Y-55401488D03*
D18*
X279727874Y-61724619D03*
X268002029Y-62588942D03*
%TD*%
D13*
%TO.C,SW14*%
X137668141Y-121105124D03*
D14*
X137180532Y-124856756D03*
D15*
X142980733Y-122528629D03*
D14*
X141440760Y-128275888D03*
D16*
X149109906Y-119822776D03*
D13*
X148293325Y-123952134D03*
D17*
X144604167Y-129123520D03*
X134017125Y-124009123D03*
%TD*%
D13*
%TO.C,SW54*%
X305345310Y-121687526D03*
D14*
X306798844Y-125180338D03*
D15*
X310657902Y-120264021D03*
D14*
X312197875Y-126011280D03*
D16*
X314612995Y-114856097D03*
D13*
X315970494Y-118840516D03*
D18*
X315361282Y-125163647D03*
X303635437Y-126027970D03*
%TD*%
D13*
%TO.C,SW29*%
X189532760Y-149576108D03*
D14*
X187234663Y-152581312D03*
D15*
X193421847Y-153465195D03*
D14*
X189214562Y-157672480D03*
D16*
X200082793Y-154186444D03*
D13*
X197310934Y-157354282D03*
D22*
X191530336Y-159988255D03*
X184918888Y-150265537D03*
%TD*%
D13*
%TO.C,SW30*%
X236232668Y-72383505D03*
D14*
X237686202Y-75876317D03*
D15*
X241545260Y-70960000D03*
D14*
X243085233Y-76707259D03*
D16*
X245500353Y-65552076D03*
D13*
X246857852Y-69536495D03*
D18*
X246248640Y-75859626D03*
X234522795Y-76723949D03*
%TD*%
D13*
%TO.C,SW26*%
X184347147Y-85990022D03*
D14*
X183859538Y-89741654D03*
D15*
X189659739Y-87413527D03*
D14*
X188119766Y-93160786D03*
D16*
X195788912Y-84707674D03*
D13*
X194972331Y-88837032D03*
D17*
X191283173Y-94008418D03*
X180696131Y-88894021D03*
%TD*%
D13*
%TO.C,SW21*%
X167607529Y-78916464D03*
D14*
X167119920Y-82668096D03*
D15*
X172920121Y-80339969D03*
D14*
X171380148Y-86087228D03*
D16*
X179049294Y-77634116D03*
D13*
X178232713Y-81763474D03*
D17*
X174543555Y-86934860D03*
X163956513Y-81820463D03*
%TD*%
D13*
%TO.C,SW9*%
X119634428Y-118861196D03*
D14*
X119146819Y-122612828D03*
D15*
X124947020Y-120284701D03*
D14*
X123407047Y-126031960D03*
D16*
X131076193Y-117578848D03*
D13*
X130259612Y-121708206D03*
D17*
X126570454Y-126879592D03*
X115983412Y-121765195D03*
%TD*%
D13*
%TO.C,SW24*%
X174188793Y-137039996D03*
D14*
X172331304Y-140335787D03*
D15*
X178581288Y-140349979D03*
D14*
X175000489Y-145101860D03*
D16*
X185277788Y-140137184D03*
D13*
X182973783Y-143659962D03*
D23*
X177616020Y-147072804D03*
X169715773Y-138364843D03*
%TD*%
D13*
%TO.C,SW6*%
X112859344Y-74599494D03*
D14*
X112371735Y-78351126D03*
D15*
X118171936Y-76022999D03*
D14*
X116631963Y-81770258D03*
D16*
X124301109Y-73317146D03*
D13*
X123484528Y-77446504D03*
D17*
X119795370Y-82617890D03*
X109208328Y-77503493D03*
%TD*%
D13*
%TO.C,SW2*%
X95472679Y-69940751D03*
D14*
X94985070Y-73692383D03*
D15*
X100785271Y-71364256D03*
D14*
X99245298Y-77111515D03*
D16*
X106914444Y-68658403D03*
D13*
X106097863Y-72787761D03*
D17*
X102408705Y-77959147D03*
X91821663Y-72844750D03*
%TD*%
D13*
%TO.C,SW25*%
X188747070Y-69569283D03*
D14*
X188259461Y-73320915D03*
D15*
X194059662Y-70992788D03*
D14*
X192519689Y-76740047D03*
D16*
X200188835Y-68286935D03*
D13*
X199372254Y-72416293D03*
D17*
X195683096Y-77587679D03*
X185096054Y-72473282D03*
%TD*%
D13*
%TO.C,SW13*%
X124034352Y-102440457D03*
D14*
X123546743Y-106192089D03*
D15*
X129346944Y-103863962D03*
D14*
X127806971Y-109611221D03*
D16*
X135476117Y-101158109D03*
D13*
X134659536Y-105287467D03*
D17*
X130970378Y-110458853D03*
X120383336Y-105344456D03*
%TD*%
D13*
%TO.C,SW55*%
X325107135Y-56346342D03*
D14*
X326560669Y-59839154D03*
D15*
X330419727Y-54922837D03*
D14*
X331959700Y-60670096D03*
D16*
X334374820Y-49514913D03*
D13*
X335732319Y-53499332D03*
D18*
X335123107Y-59822463D03*
X323397262Y-60686786D03*
%TD*%
D13*
%TO.C,SW20*%
X172007453Y-62495725D03*
D14*
X171519844Y-66247357D03*
D15*
X177320045Y-63919230D03*
D14*
X175780072Y-69666489D03*
D16*
X183449218Y-61213377D03*
D13*
X182632637Y-65342735D03*
D17*
X178943479Y-70514121D03*
X168356437Y-65399724D03*
%TD*%
D13*
%TO.C,SW11*%
X132834200Y-69598979D03*
D14*
X132346591Y-73350611D03*
D15*
X138146792Y-71022484D03*
D14*
X136606819Y-76769743D03*
D16*
X144275965Y-68316631D03*
D13*
X143459384Y-72445989D03*
D17*
X139770226Y-77617375D03*
X129183184Y-72502978D03*
%TD*%
D13*
%TO.C,SW56*%
X329507059Y-72767081D03*
D14*
X330960593Y-76259893D03*
D15*
X334819651Y-71343576D03*
D14*
X336359624Y-77090835D03*
D16*
X338774744Y-65935652D03*
D13*
X340132243Y-69920071D03*
D18*
X339523031Y-76243202D03*
X327797186Y-77107525D03*
%TD*%
D13*
%TO.C,SW39*%
X252631140Y-143639282D03*
D14*
X255287264Y-146333257D03*
D15*
X257023635Y-140329299D03*
D14*
X260604434Y-145081180D03*
D16*
X258664889Y-133833555D03*
D13*
X261416130Y-137019316D03*
D24*
X263219966Y-143110236D03*
X252671732Y-148304201D03*
%TD*%
D13*
%TO.C,SW51*%
X312120394Y-77425824D03*
D14*
X313573928Y-80918636D03*
D15*
X317432986Y-76002319D03*
D14*
X318972959Y-81749578D03*
D16*
X321388079Y-70594395D03*
D13*
X322745578Y-74578814D03*
D18*
X322136366Y-80901945D03*
X310410521Y-81766268D03*
%TD*%
D13*
%TO.C,SW53*%
X320920241Y-110267302D03*
D14*
X322373775Y-113760114D03*
D15*
X326232833Y-108843797D03*
D14*
X327772806Y-114591056D03*
D16*
X330187926Y-103435873D03*
D13*
X331545425Y-107420292D03*
D18*
X330936213Y-113743423D03*
X319210368Y-114607746D03*
%TD*%
D13*
%TO.C,SW19*%
X154407758Y-128178682D03*
D14*
X153920149Y-131930314D03*
D15*
X159720350Y-129602187D03*
D14*
X158180377Y-135349446D03*
D16*
X165849523Y-126896334D03*
D13*
X165032942Y-131025692D03*
D17*
X161343784Y-136197078D03*
X150756742Y-131082681D03*
%TD*%
D13*
%TO.C,SW31*%
X240632592Y-88816352D03*
D14*
X242086126Y-92309164D03*
D15*
X245945184Y-87392847D03*
D14*
X247485157Y-93140106D03*
D16*
X249900277Y-81984923D03*
D13*
X251257776Y-85969342D03*
D18*
X250648564Y-92292473D03*
X238922719Y-93156796D03*
%TD*%
D13*
%TO.C,SW3*%
X91072756Y-86361491D03*
D14*
X90585147Y-90113123D03*
D15*
X96385348Y-87784996D03*
D14*
X94845375Y-93532255D03*
D16*
X102514521Y-85079143D03*
D13*
X101697940Y-89208501D03*
D17*
X98008782Y-94379887D03*
X87421740Y-89265490D03*
%TD*%
D13*
%TO.C,SW46*%
X292145539Y-72425309D03*
D14*
X293599073Y-75918121D03*
D15*
X297458131Y-71001804D03*
D14*
X298998104Y-76749063D03*
D16*
X301413224Y-65593880D03*
D13*
X302770723Y-69578299D03*
D18*
X302161511Y-75901430D03*
X290435666Y-76765753D03*
%TD*%
D25*
%TO.C,D27*%
X178122162Y-98481970D03*
X177397468Y-101186562D03*
%TD*%
D26*
%TO.C,D45*%
X283817653Y-51897704D03*
X284542347Y-54602296D03*
%TD*%
%TO.C,D58*%
X334257151Y-101832759D03*
X334981845Y-104537351D03*
%TD*%
%TO.C,D46*%
X288095784Y-68649508D03*
X288820478Y-71354100D03*
%TD*%
%TO.C,D50*%
X303670715Y-57229284D03*
X304395409Y-59933876D03*
%TD*%
%TO.C,D35*%
X248922530Y-61546254D03*
X249647224Y-64250846D03*
%TD*%
D25*
%TO.C,D21*%
X165782468Y-74987673D03*
X165057774Y-77692265D03*
%TD*%
D26*
%TO.C,D34*%
X233927653Y-152947704D03*
X234652347Y-155652296D03*
%TD*%
D25*
%TO.C,D19*%
X152582697Y-124249891D03*
X151858003Y-126954483D03*
%TD*%
%TO.C,D29*%
X187172347Y-143977704D03*
X186447653Y-146682296D03*
%TD*%
%TO.C,D23*%
X156982621Y-107829152D03*
X156257927Y-110533744D03*
%TD*%
D26*
%TO.C,D57*%
X329857228Y-85412019D03*
X330581922Y-88116611D03*
%TD*%
D25*
%TO.C,D13*%
X122209291Y-98511666D03*
X121484597Y-101216258D03*
%TD*%
%TO.C,D1*%
X98047542Y-49591221D03*
X97322848Y-52295813D03*
%TD*%
%TO.C,D18*%
X140243003Y-100755594D03*
X139518309Y-103460186D03*
%TD*%
%TO.C,D11*%
X131009139Y-65670188D03*
X130284445Y-68374780D03*
%TD*%
D26*
%TO.C,D52*%
X312470563Y-90070762D03*
X313195257Y-92775354D03*
%TD*%
%TO.C,D33*%
X245382684Y-117882029D03*
X246107378Y-120586621D03*
%TD*%
D25*
%TO.C,D25*%
X186922009Y-65640492D03*
X186197315Y-68345084D03*
%TD*%
%TO.C,D17*%
X144642927Y-84334855D03*
X143918233Y-87039447D03*
%TD*%
D26*
%TO.C,D39*%
X248977653Y-140767704D03*
X249702347Y-143472296D03*
%TD*%
D25*
%TO.C,D15*%
X153442775Y-51493377D03*
X152718081Y-54197969D03*
%TD*%
%TO.C,D20*%
X170182392Y-58566934D03*
X169457698Y-61271526D03*
%TD*%
D26*
%TO.C,D31*%
X236582837Y-85040551D03*
X237307531Y-87745143D03*
%TD*%
D25*
%TO.C,D5*%
X115434207Y-54249964D03*
X114709513Y-56954556D03*
%TD*%
D26*
%TO.C,D41*%
X270062071Y-70893436D03*
X270786765Y-73598028D03*
%TD*%
D25*
%TO.C,D10*%
X135409062Y-49249449D03*
X134684368Y-51954041D03*
%TD*%
%TO.C,D16*%
X149042851Y-67914116D03*
X148318157Y-70618708D03*
%TD*%
D26*
%TO.C,D44*%
X266522225Y-127229211D03*
X267246919Y-129933803D03*
%TD*%
D25*
%TO.C,D22*%
X161382545Y-91408413D03*
X160657851Y-94113005D03*
%TD*%
%TO.C,D9*%
X117809367Y-114932405D03*
X117084673Y-117636997D03*
%TD*%
D26*
%TO.C,D48*%
X296895631Y-101490986D03*
X297620325Y-104195578D03*
%TD*%
%TO.C,D32*%
X240982760Y-101461290D03*
X241707454Y-104165882D03*
%TD*%
%TO.C,D54*%
X301295555Y-117911725D03*
X302020249Y-120616317D03*
%TD*%
%TO.C,D55*%
X321167653Y-52487704D03*
X321892347Y-55192296D03*
%TD*%
D25*
%TO.C,D28*%
X173722238Y-114902709D03*
X172997544Y-117607301D03*
%TD*%
%TO.C,D7*%
X106634359Y-87091442D03*
X105909665Y-89796034D03*
%TD*%
D26*
%TO.C,D56*%
X325457304Y-68991280D03*
X326181998Y-71695872D03*
%TD*%
%TO.C,D38*%
X262122301Y-110808472D03*
X262846995Y-113513064D03*
%TD*%
%TO.C,D37*%
X257722378Y-94387732D03*
X258447072Y-97092324D03*
%TD*%
D25*
%TO.C,D3*%
X89247695Y-82432700D03*
X88523001Y-85137292D03*
%TD*%
D26*
%TO.C,D53*%
X316870486Y-106491501D03*
X317595180Y-109196093D03*
%TD*%
%TO.C,D42*%
X274461995Y-87314175D03*
X275186689Y-90018767D03*
%TD*%
%TO.C,D30*%
X232182913Y-68607704D03*
X232907607Y-71312296D03*
%TD*%
%TO.C,D51*%
X308070639Y-73650023D03*
X308795333Y-76354615D03*
%TD*%
%TO.C,D43*%
X278861919Y-103734914D03*
X279586613Y-106439506D03*
%TD*%
D25*
%TO.C,D4*%
X84847771Y-98853439D03*
X84123077Y-101558031D03*
%TD*%
%TO.C,D14*%
X135843080Y-117176333D03*
X135118386Y-119880925D03*
%TD*%
D26*
%TO.C,D49*%
X283261842Y-120155653D03*
X283986536Y-122860245D03*
%TD*%
D25*
%TO.C,D6*%
X111034283Y-70670703D03*
X110309589Y-73375295D03*
%TD*%
%TO.C,D2*%
X93647618Y-66011960D03*
X92922924Y-68716552D03*
%TD*%
%TO.C,D12*%
X126609215Y-82090927D03*
X125884521Y-84795519D03*
%TD*%
%TO.C,D26*%
X182522086Y-82061231D03*
X181797392Y-84765823D03*
%TD*%
%TO.C,D24*%
X171422347Y-132377704D03*
X170697653Y-135082296D03*
%TD*%
D26*
%TO.C,D40*%
X265662147Y-54472697D03*
X266386841Y-57177289D03*
%TD*%
%TO.C,D36*%
X253322454Y-77966993D03*
X254047148Y-80671585D03*
%TD*%
%TO.C,D47*%
X292495707Y-85070247D03*
X293220401Y-87774839D03*
%TD*%
D25*
%TO.C,D8*%
X102234436Y-103512181D03*
X101509742Y-106216773D03*
%TD*%
M02*
