M48
; DRILL file {KiCad 7.0.1} date Sun Mar 26 19:48:23 2023
; FORMAT={-:-/ absolute / metric / decimal}
; #@! TF.CreationDate,2023-03-26T19:48:23+02:00
; #@! TF.GenerationSoftware,Kicad,Pcbnew,7.0.1
; #@! TF.FileFunction,NonPlated,1,2,NPTH
FMAT,2
METRIC
; #@! TA.AperFunction,NonPlated,NPTH,ComponentDrill
T1C0.991
; #@! TA.AperFunction,NonPlated,NPTH,ComponentDrill
T2C1.800
; #@! TA.AperFunction,NonPlated,NPTH,ComponentDrill
T3C2.700
; #@! TA.AperFunction,NonPlated,NPTH,ComponentDrill
T4C3.000
; #@! TA.AperFunction,NonPlated,NPTH,ComponentDrill
T5C3.200
; #@! TA.AperFunction,NonPlated,NPTH,ComponentDrill
T6C3.400
%
G90
G05
T1
X98.115Y-101.5
X102.515Y-85.079
X106.914Y-68.658
X111.314Y-52.238
X115.501Y-106.159
X119.901Y-89.738
X124.301Y-73.317
X128.701Y-56.896
X131.076Y-117.579
X135.476Y-101.158
X139.876Y-84.737
X144.276Y-68.317
X148.676Y-51.896
X149.11Y-119.823
X153.51Y-103.402
X157.91Y-86.981
X162.31Y-70.561
X165.85Y-126.896
X166.71Y-54.14
X170.249Y-110.476
X174.649Y-94.055
X179.049Y-77.634
X183.449Y-61.213
X185.278Y-140.137
X186.989Y-117.549
X191.389Y-101.128
X195.789Y-84.708
X200.083Y-154.186
X200.189Y-68.287
X242.958Y-146.782
X245.5Y-65.552
X249.9Y-81.985
X254.3Y-98.406
X258.665Y-133.834
X258.7Y-114.826
X262.24Y-58.491
X266.64Y-74.911
X271.04Y-91.332
X275.44Y-107.753
X278.98Y-51.417
X279.84Y-124.174
X283.38Y-67.838
X287.779Y-84.259
X292.179Y-100.679
X296.579Y-117.1
X297.013Y-49.173
X301.413Y-65.594
X305.813Y-82.015
X310.213Y-98.435
X314.613Y-114.856
X316.988Y-54.174
X321.388Y-70.594
X325.788Y-87.015
X330.188Y-103.436
X334.375Y-49.515
X338.775Y-65.936
X343.175Y-82.356
X347.575Y-98.777
T2
X86.673Y-102.782
X91.073Y-86.361
X95.473Y-69.941
X97.298Y-105.629
X99.873Y-53.52
X101.698Y-89.209
X104.059Y-107.441
X106.098Y-72.788
X108.459Y-91.02
X110.498Y-56.367
X112.859Y-74.599
X114.685Y-110.288
X117.259Y-58.179
X119.085Y-93.867
X119.634Y-118.861
X123.485Y-77.447
X124.034Y-102.44
X127.884Y-61.026
X128.434Y-86.02
X130.26Y-121.708
X132.834Y-69.599
X134.66Y-105.287
X137.234Y-53.178
X137.668Y-121.105
X139.059Y-88.867
X142.068Y-104.684
X143.459Y-72.446
X146.468Y-88.264
X147.859Y-56.025
X148.293Y-123.952
X150.868Y-71.843
X152.693Y-107.531
X154.408Y-128.179
X155.268Y-55.422
X157.093Y-91.111
X158.808Y-111.758
X161.493Y-74.69
X163.208Y-95.337
X165.033Y-131.026
X165.893Y-58.269
X167.608Y-78.916
X169.433Y-114.605
X172.007Y-62.496
X173.833Y-98.184
X174.189Y-137.04
X175.547Y-118.831
X178.233Y-81.763
X179.947Y-102.411
X182.633Y-65.343
X182.974Y-143.66
X184.347Y-85.99
X186.172Y-121.679
X188.747Y-69.569
X189.533Y-149.576
X190.572Y-105.258
X194.972Y-88.837
X197.311Y-157.354
X199.372Y-72.416
X236.233Y-72.384
X238.347Y-157.332
X240.633Y-88.816
X245.033Y-105.237
X246.125Y-149.554
X246.858Y-69.536
X249.432Y-121.658
X251.258Y-85.969
X252.631Y-143.639
X252.972Y-65.322
X255.658Y-102.39
X257.372Y-81.743
X260.058Y-118.811
X261.416Y-137.019
X261.772Y-98.164
X263.597Y-62.475
X266.172Y-114.584
X267.997Y-78.896
X269.712Y-58.248
X270.572Y-131.005
X272.397Y-95.317
X274.112Y-74.669
X276.797Y-111.737
X278.512Y-91.09
X280.337Y-55.401
X281.197Y-128.158
X282.912Y-107.511
X284.737Y-71.822
X287.312Y-123.931
X287.746Y-56.005
X289.137Y-88.243
X292.146Y-72.425
X293.537Y-104.664
X296.545Y-88.846
X297.937Y-121.084
X298.371Y-53.158
X300.945Y-105.267
X302.771Y-69.578
X305.345Y-121.688
X307.171Y-85.999
X307.72Y-61.005
X311.571Y-102.42
X312.12Y-77.426
X315.97Y-118.841
X316.52Y-93.847
X318.346Y-58.158
X320.92Y-110.267
X322.746Y-74.579
X325.107Y-56.346
X327.146Y-91.0
X329.507Y-72.767
X331.545Y-107.42
X333.907Y-89.188
X335.732Y-53.499
X338.307Y-105.609
X340.132Y-69.92
X344.532Y-86.341
X348.932Y-102.762
T3
X109.76Y-122.0
X119.76Y-47.0
X315.76Y-47.0
X325.76Y-122.0
T4
X86.185Y-106.534
X90.445Y-109.953
X90.585Y-90.113
X94.845Y-93.532
X94.985Y-73.692
X99.245Y-77.112
X99.385Y-57.272
X103.572Y-111.193
X103.645Y-60.691
X107.832Y-114.612
X107.972Y-94.772
X112.232Y-98.191
X112.372Y-78.351
X116.632Y-81.77
X116.772Y-61.93
X119.147Y-122.613
X121.032Y-65.35
X123.407Y-126.032
X123.547Y-106.192
X127.807Y-109.611
X127.947Y-89.771
X132.207Y-93.19
X132.347Y-73.351
X136.607Y-76.77
X136.747Y-56.93
X137.181Y-124.857
X141.007Y-60.349
X141.441Y-128.276
X141.58Y-108.436
X145.841Y-111.855
X145.98Y-92.015
X150.241Y-95.434
X150.38Y-75.595
X153.92Y-131.93
X154.641Y-79.014
X154.78Y-59.174
X158.18Y-135.349
X158.32Y-115.51
X159.04Y-62.593
X162.58Y-118.929
X162.72Y-99.089
X166.98Y-102.508
X167.12Y-82.668
X171.38Y-86.087
X171.52Y-66.247
X172.331Y-140.336
X175.0Y-145.102
X175.06Y-122.583
X175.78Y-69.666
X179.32Y-126.002
X179.46Y-106.162
X183.72Y-109.582
X183.86Y-89.742
X187.235Y-152.581
X188.12Y-93.161
X188.259Y-73.321
X189.215Y-157.672
X192.52Y-76.74
X237.686Y-75.876
X241.352Y-159.631
X242.086Y-92.309
X243.085Y-76.707
X246.444Y-157.651
X246.486Y-108.73
X247.485Y-93.14
X250.886Y-125.151
X251.885Y-109.561
X254.426Y-68.815
X255.287Y-146.333
X256.285Y-125.982
X258.826Y-85.236
X259.825Y-69.646
X260.604Y-145.081
X263.226Y-101.656
X264.225Y-86.067
X267.626Y-118.077
X268.625Y-102.487
X271.165Y-61.741
X272.026Y-134.498
X273.025Y-118.908
X275.565Y-78.162
X276.564Y-62.572
X277.425Y-135.329
X279.965Y-94.583
X280.964Y-78.993
X284.365Y-111.004
X285.364Y-95.414
X288.765Y-127.424
X289.199Y-59.497
X289.764Y-111.834
X293.599Y-75.918
X294.164Y-128.255
X294.598Y-60.328
X297.999Y-92.339
X298.998Y-76.749
X302.399Y-108.76
X303.398Y-93.17
X306.799Y-125.18
X307.798Y-109.591
X309.174Y-64.498
X312.198Y-126.011
X313.574Y-80.919
X314.573Y-65.329
X317.974Y-97.339
X318.973Y-81.75
X322.374Y-113.76
X323.373Y-98.17
X326.561Y-59.839
X327.773Y-114.591
X330.961Y-76.26
X331.96Y-60.67
X335.361Y-92.681
X336.36Y-77.091
X339.76Y-109.101
X340.76Y-93.512
X345.159Y-109.932
T5
X202.76Y-99.0
X203.76Y-147.0
X231.76Y-147.0
X232.76Y-99.0
T6
X91.985Y-104.206
X96.385Y-87.785
X100.785Y-71.364
X105.185Y-54.944
X109.372Y-108.864
X113.772Y-92.444
X118.172Y-76.023
X122.572Y-59.602
X124.947Y-120.285
X129.347Y-103.864
X133.747Y-87.443
X138.147Y-71.022
X142.547Y-54.602
X142.981Y-122.529
X147.381Y-106.108
X151.781Y-89.687
X156.181Y-73.266
X159.72Y-129.602
X160.58Y-56.846
X164.12Y-113.181
X168.52Y-96.761
X172.92Y-80.34
X177.32Y-63.919
X178.581Y-140.35
X180.86Y-120.255
X185.26Y-103.834
X189.66Y-87.414
X193.422Y-153.465
X194.06Y-70.993
X241.545Y-70.96
X242.236Y-153.443
X245.945Y-87.393
X250.345Y-103.814
X254.745Y-120.234
X257.024Y-140.329
X258.285Y-63.899
X262.685Y-80.319
X267.085Y-96.74
X271.485Y-113.161
X275.024Y-56.825
X275.885Y-129.582
X279.424Y-73.246
X283.824Y-89.666
X288.224Y-106.087
X292.624Y-122.508
X293.058Y-54.581
X297.458Y-71.002
X301.858Y-87.423
X306.258Y-103.843
X310.658Y-120.264
X313.033Y-59.582
X317.433Y-76.002
X321.833Y-92.423
X326.233Y-108.844
X330.42Y-54.923
X334.82Y-71.344
X339.22Y-87.764
X343.619Y-104.185
T0
M30
